<?xml version="1.0" encoding="UTF-8"?>
<svg version="1.1" xmlns="http://www.w3.org/2000/svg" width="189" height="194">
<path d="M0 0 C2.62533732 1.96391513 4.86097197 4.03629873 7.015625 6.5078125 C7.69625 7.2090625 8.376875 7.9103125 9.078125 8.6328125 C16.12268281 19.08602731 16.1511661 30.93963386 16.18428993 43.08573532 C16.1915495 45.19792894 16.2072831 47.30990257 16.22563171 49.42202759 C16.27766828 55.42194658 16.32603722 61.421735 16.34155273 67.421875 C16.35170232 71.10775585 16.38118993 74.79306439 16.42287254 78.4787178 C16.43507758 79.87153396 16.44032326 81.26443123 16.43807411 82.65729904 C16.42401122 94.20434657 18.03186953 102.86699537 25.94140625 111.5234375 C27.015625 113.5078125 27.015625 113.5078125 27.09765625 116.3671875 C25.58448774 120.75920008 22.96879556 122.68642134 19.390625 125.5078125 C18.78605469 126.0028125 18.18148437 126.4978125 17.55859375 127.0078125 C16.33538214 128.00933331 15.10449356 129.00154911 13.86621094 129.984375 C12.60882264 131.01948094 11.38812687 132.10046841 10.20410156 133.21875 C7.36569266 135.88063705 5.75535106 137.36865611 1.859375 138.1015625 C-6.03589036 136.4531005 -11.67681786 127.85934774 -15.984375 121.5078125 C-16.73460938 122.17167969 -17.48484375 122.83554688 -18.2578125 123.51953125 C-29.93703071 133.67236799 -40.71459018 138.93225609 -56.421875 138.8203125 C-57.25444824 138.81467285 -58.08702148 138.8090332 -58.94482422 138.80322266 C-69.98674214 138.58510536 -78.61400156 135.55186391 -86.73828125 127.84375 C-95.09823652 118.66665625 -97.49655834 107.84550796 -97.23046875 95.65234375 C-96.18358267 82.27546608 -91.41279071 71.82778465 -81.640625 62.609375 C-64.86773421 49.33905846 -42.37892905 48.54938474 -21.984375 46.5078125 C-21.95214604 44.4363009 -21.92920449 42.36464348 -21.91015625 40.29296875 C-21.89637939 39.13933838 -21.88260254 37.98570801 -21.8684082 36.79711914 C-22.06957018 31.09131853 -23.3018799 27.10823467 -27.546875 23.0703125 C-33.05751986 19.53784785 -38.5621788 20.04685195 -44.984375 20.5078125 C-48.50685506 21.76275712 -48.50685506 21.76275712 -50.984375 23.5078125 C-51.974375 23.8378125 -52.964375 24.1678125 -53.984375 24.5078125 C-56.22770001 28.12476768 -57.29573313 32.33352888 -58.59375 36.36328125 C-59.984375 38.5078125 -59.984375 38.5078125 -62.71313477 39.16796875 C-67.96088063 39.71314841 -72.95661715 38.96405631 -78.171875 38.3203125 C-79.8105957 38.14918945 -79.8105957 38.14918945 -81.48242188 37.97460938 C-82.52849609 37.84763672 -83.57457031 37.72066406 -84.65234375 37.58984375 C-86.07969849 37.42319214 -86.07969849 37.42319214 -87.53588867 37.25317383 C-90.58255907 36.32571499 -91.46370993 35.26586264 -92.984375 32.5078125 C-92.51385029 24.27966241 -88.60718912 17.12711189 -83.984375 10.5078125 C-83.2625 9.4559375 -82.540625 8.4040625 -81.796875 7.3203125 C-61.9862883 -12.4902742 -23.09025734 -15.21510335 0 0 Z M-54.359375 79.0078125 C-57.49050154 83.82493025 -58.27816797 87.7022557 -58.296875 93.4453125 C-58.31363281 94.62996094 -58.33039063 95.81460938 -58.34765625 97.03515625 C-57.80272053 102.244273 -55.88419396 105.47302069 -52.484375 109.3828125 C-48.84233358 112.17323229 -45.19610762 112.216778 -40.73046875 111.98046875 C-34.36943823 110.88561143 -30.45194698 107.54099777 -26.671875 102.4453125 C-20.28339782 91.84426999 -20.60223854 80.45311513 -20.984375 68.5078125 C-33.39659717 67.84810778 -45.48563264 69.66703106 -54.359375 79.0078125 Z " fill="#FFFFFF" transform="translate(131.984375,8.4921875)"/>
<path d="M0 0 C6.20022297 0.39575891 10.62639536 3.44328693 15.8125 6.5625 C50.48813706 26.81951773 87.9227909 36.52078868 127.78955078 26.28369141 C138.53398147 23.36997781 149.00868146 19.99505327 159.04174805 15.13378906 C162.52339154 13.47254091 165.13027334 12.64223282 169 13 C170 16 170 16 168.6875 18.6875 C159.7087669 30.96145838 143.22648603 38.23270566 129.25 42.9375 C128.41170654 43.21988525 127.57341309 43.50227051 126.7097168 43.79321289 C97.26121156 53.15237064 66.47926218 48.87888383 39.33056641 35.23461914 C25.19950908 27.8847927 8.95224177 17.42836265 0 4 C0 2.68 0 1.36 0 0 Z " fill="#FF9900" transform="translate(0,146)"/>
<path d="M0 0 C1.0219043 -0.01160156 1.0219043 -0.01160156 2.06445312 -0.0234375 C6.3938543 -0.00680195 9.91468736 0.66848864 13.9375 2.25 C16.26289642 11.55158567 12.7205614 20.82666748 8.33203125 29.046875 C6.2171782 32.38798738 3.99092133 34.72760846 0.9375 37.25 C-0.0525 37.25 -1.0425 37.25 -2.0625 37.25 C-1.47393473 33.0680889 -0.47557319 29.38822823 1 25.4375 C2.85137254 20.08389204 3.31281977 15.8797965 2.9375 10.25 C-0.12169388 9.23026871 -2.18668025 9.13466398 -5.38671875 9.15234375 C-6.41474609 9.15556641 -7.44277344 9.15878906 -8.50195312 9.16210938 C-10.10973633 9.17467773 -10.10973633 9.17467773 -11.75 9.1875 C-13.37518555 9.19426758 -13.37518555 9.19426758 -15.03320312 9.20117188 C-17.70969085 9.21296257 -20.38606777 9.22941937 -23.0625 9.25 C-23.0625 8.26 -23.0625 7.27 -23.0625 6.25 C-21.87929424 5.61690809 -20.69062152 4.99403282 -19.5 4.375 C-18.83871094 4.02695313 -18.17742187 3.67890625 -17.49609375 3.3203125 C-11.70380756 0.77282227 -6.28290881 -0.07173635 0 0 Z " fill="#FF9900" transform="translate(174.0625,143.75)"/>
</svg>
