<svg xmlns="http://www.w3.org/2000/svg" width="1089" height="963" viewBox="0 0 1089 963">
<g>
<path d="M 335.50 944.31 C303.63,940.18 269.17,923.44 232.90,894.47 C219.05,883.40 184.71,849.70 175.04,837.68 C159.65,818.54 145.53,793.74 139.63,775.50 C134.73,760.35 133.68,753.51 133.70,737.00 C133.72,723.51 134.07,720.21 136.36,711.50 C148.31,666.11 189.09,629.61 255.71,604.67 C270.24,599.23 298.44,591.02 313.33,587.90 C319.19,586.67 323.80,585.47 323.57,585.24 C323.34,585.01 317.28,585.36 310.11,586.03 C290.56,587.84 248.33,586.80 230.50,584.08 C150.70,571.89 92.99,533.73 62.52,473.00 C51.73,451.48 46.42,433.93 42.55,407.00 C32.60,337.61 16.71,144.59 18.43,114.00 C19.84,88.83 23.67,72.11 31.69,56.00 C35.59,48.18 37.94,44.99 44.96,38.00 C54.26,28.73 59.29,25.59 71.50,21.42 C82.28,17.73 103.54,16.87 119.18,19.48 C158.54,26.05 207.32,49.84 251.50,84.01 C288.63,112.72 335.84,158.99 376.91,206.93 C437.63,277.78 499.89,367.71 536.57,437.54 C540.75,445.49 544.32,452.00 544.50,452.00 C544.68,452.00 548.25,445.49 552.43,437.54 C593.10,360.12 660.80,264.36 729.92,186.50 C745.65,168.78 792.87,121.51 808.00,108.34 C865.76,58.04 920.67,27.91 970.00,19.42 C984.45,16.94 1006.80,17.84 1017.50,21.33 C1028.89,25.06 1037.13,30.31 1045.46,39.16 C1060.63,55.27 1068.58,79.00 1070.54,114.00 C1072.55,150.03 1052.43,381.22 1043.38,426.00 C1039.56,444.94 1027.75,473.33 1016.47,490.72 C987.95,534.68 944.84,563.94 887.36,578.33 C861.50,584.80 846.44,586.45 813.00,586.48 C796.78,586.49 779.22,586.19 774.00,585.81 C766.75,585.27 765.45,585.35 768.50,586.12 C770.70,586.67 779.70,588.89 788.50,591.04 C879.20,613.19 938.17,656.47 952.64,711.50 C954.89,720.07 955.28,723.64 955.33,736.50 C955.40,752.59 954.64,757.68 949.84,773.48 C940.62,803.75 922.75,830.38 889.06,864.04 C857.88,895.19 832.54,914.38 804.50,928.07 C781.41,939.34 765.37,943.73 744.00,944.63 C705.94,946.25 674.40,931.91 641.85,898.22 C608.59,863.80 581.55,814.14 554.96,738.66 C550.14,724.99 545.75,713.35 545.19,712.79 C543.73,711.33 543.01,713.01 533.64,739.67 C515.72,790.73 498.82,826.96 478.24,858.50 C466.88,875.91 458.65,886.35 446.03,899.37 C421.38,924.81 396.55,938.95 368.50,943.52 C360.30,944.86 342.94,945.28 335.50,944.31 Z" fill="rgba(16,133,254,1)"/>
</g>
</svg>