<svg preserveAspectRatio="xMidYMid meet" viewBox="0 0 33.462 44.28571428571429"
    xmlns="http://www.w3.org/2000/svg" version="1.0" style="max-height: 500px" width="33.462"
    height="44.28571428571429">

    <g stroke="none" fill="#0046b0"
        transform="translate(0.000000,44.000000) scale(0.100000,-0.100000)"
        data-darkreader-inline-fill="" data-darkreader-inline-stroke=""
        style="--darkreader-inline-fill: var(--darkreader-background-000000, #000000); --darkreader-inline-stroke: none;">
        <path
            d="M220 385 l0 -55 -110 0 -110 0 0 -54 0 -55 53 -3 52 -3 3 -107 3&#10;-108 54 0 55 0 0 165 0 165 55 0 55 0 0 55 0 55 -55 0 -55 0 0 -55z" />
        <path
            d="M435 294 c-23 -25 -25 -35 -25 -129 0 -98 1 -102 28 -128 27 -26 33&#10;-27 135 -27 l107 0 0 25 c0 24 -1 24 -102 27 l-103 3 0 100 0 100 103 3 c101&#10;3 102 3 102 27 l0 25 -110 0 c-107 0 -112 -1 -135 -26z" />
        <path
            d="M710 295 c0 -24 2 -25 77 -25 73 0 75 -1 60 -18 -14 -15 -17 -40 -17&#10;-130 l0 -112 30 0 30 0 0 130 0 130 60 0 c57 0 60 1 60 25 l0 25 -150 0 -150&#10;0 0 -25z" />
        <path
            d="M986 198 c-10 -14 -16 -44 -16 -83 0 -96 11 -105 126 -105 77 0 94 3&#10;94 15 0 12 -16 15 -85 15 l-85 0 0 30 0 30 85 0 85 0 0 43 c0 64 -19 77 -113&#10;77 -67 0 -78 -3 -91 -22z m164 -38 l0 -30 -65 0 -65 0 0 30 0 30 65 0 65 0 0&#10;-30z" />
        <path
            d="M1257 202 c-13 -14 -17 -37 -17 -89 0 -93 11 -103 113 -103 70 0 77&#10;2 77 20 0 18 -7 20 -70 20 l-70 0 0 70 0 70 70 0 c56 0 70 3 70 15 0 24 -151&#10;21 -173 -3z" />
    </g>
</svg>