<svg xmlns="http://www.w3.org/2000/svg" fill="none" viewBox="0 5.172413793103448 32.889 38.50574712643678" style="max-height: 500px" width="32.889" height="38.50574712643678">
<g filter="url(#filter0_ii_321_13915)">
<g clip-path="url(#clip0_321_13915)">
<rect fill="#2875FF" rx="10" height="30" width="30" y="10" data-darkreader-inline-fill="" style="--darkreader-inline-fill: var(--darkreader-background-2875ff, #0040b4);"/>
<g filter="url(#filter1_dii_321_13915)">
<path fill="white" d="M17.2161 16.9934C15.9893 17.5017 14.2189 17.5017 12.9921 16.9934C11.9954 16.5805 10.8806 16.5422 9.8519 16.9749C7.68104 17.8881 6.70737 20.5568 7.65221 22.9642C7.65242 22.9648 7.65241 22.9654 7.65219 22.9659L7.94704 23.5859C8.94374 25.6819 9.69502 27.8791 10.1869 30.1365L10.6548 32.284C10.8167 32.9013 11.3889 33.3333 12.0445 33.3333C12.7487 33.3333 13.3487 32.8366 13.4605 32.1611L14.1201 28.1753C14.1978 27.7059 14.6148 27.3607 15.1041 27.3607C15.5935 27.3607 16.0104 27.7059 16.0881 28.1753L16.7477 32.1611C16.8595 32.8366 17.4595 33.3333 18.1637 33.3333C18.8194 33.3333 19.3916 32.9013 19.5535 32.284L20.0214 30.1365C20.5132 27.8791 21.2645 25.6819 22.2612 23.5859L22.5561 22.9659C22.5558 22.9654 22.5558 22.9648 22.556 22.9642C23.5009 20.5568 22.5272 17.8881 20.3564 16.9749C19.3277 16.5422 18.2128 16.5805 17.2161 16.9934Z" clip-rule="evenodd" fill-rule="evenodd" data-darkreader-inline-fill="" style="--darkreader-inline-fill: var(--darkreader-text-ffffff, #e8e6e3);"/>
</g>
</g>
</g>
<path fill="#2875FF" d="M49.75 14.94C51.97 14.94 53.91 15.38 55.57 16.26C57.23 17.14 58.51 18.38 59.41 19.98C60.33 21.56 60.79 23.39 60.79 25.47C60.79 27.53 60.33 29.36 59.41 30.96C58.51 32.56 57.22 33.8 55.54 34.68C53.88 35.56 51.95 36 49.75 36H41.86V14.94H49.75ZM49.42 31.56C51.36 31.56 52.87 31.03 53.95 29.97C55.03 28.91 55.57 27.41 55.57 25.47C55.57 23.53 55.03 22.02 53.95 20.94C52.87 19.86 51.36 19.32 49.42 19.32H46.99V31.56H49.42ZM79.4369 27.36C79.4369 27.84 79.4069 28.34 79.3469 28.86H67.7369C67.8169 29.9 68.1469 30.7 68.7269 31.26C69.3269 31.8 70.0569 32.07 70.9169 32.07C72.1969 32.07 73.0869 31.53 73.5869 30.45H79.0469C78.7669 31.55 78.2569 32.54 77.5169 33.42C76.7969 34.3 75.8869 34.99 74.7869 35.49C73.6869 35.99 72.4569 36.24 71.0969 36.24C69.4569 36.24 67.9969 35.89 66.7169 35.19C65.4369 34.49 64.4369 33.49 63.7169 32.19C62.9969 30.89 62.6369 29.37 62.6369 27.63C62.6369 25.89 62.9869 24.37 63.6869 23.07C64.4069 21.77 65.4069 20.77 66.6869 20.07C67.9669 19.37 69.4369 19.02 71.0969 19.02C72.7169 19.02 74.1569 19.36 75.4169 20.04C76.6769 20.72 77.6569 21.69 78.3569 22.95C79.0769 24.21 79.4369 25.68 79.4369 27.36ZM74.1869 26.01C74.1869 25.13 73.8869 24.43 73.2869 23.91C72.6869 23.39 71.9369 23.13 71.0369 23.13C70.1769 23.13 69.4469 23.38 68.8469 23.88C68.2669 24.38 67.9069 25.09 67.7669 26.01H74.1869ZM92.3432 19.08C94.3032 19.08 95.8632 19.72 97.0232 21C98.2032 22.26 98.7932 24 98.7932 26.22V36H93.6932V26.91C93.6932 25.79 93.4032 24.92 92.8232 24.3C92.2432 23.68 91.4632 23.37 90.4832 23.37C89.5032 23.37 88.7232 23.68 88.1432 24.3C87.5632 24.92 87.2732 25.79 87.2732 26.91V36H82.1432V19.26H87.2732V21.48C87.7932 20.74 88.4932 20.16 89.3732 19.74C90.2532 19.3 91.2432 19.08 92.3432 19.08ZM111.688 31.65V36H109.078C107.218 36 105.768 35.55 104.728 34.65C103.688 33.73 103.168 32.24 103.168 30.18V23.52H101.128V19.26H103.168V15.18H108.298V19.26H111.658V23.52H108.298V30.24C108.298 30.74 108.418 31.1 108.658 31.32C108.898 31.54 109.298 31.65 109.858 31.65H111.688ZM113.526 27.6C113.526 25.88 113.846 24.37 114.486 23.07C115.146 21.77 116.036 20.77 117.156 20.07C118.276 19.37 119.526 19.02 120.906 19.02C122.086 19.02 123.116 19.26 123.996 19.74C124.896 20.22 125.586 20.85 126.066 21.63V19.26H131.196V36H126.066V33.63C125.566 34.41 124.866 35.04 123.966 35.52C123.086 36 122.056 36.24 120.876 36.24C119.516 36.24 118.276 35.89 117.156 35.19C116.036 34.47 115.146 33.46 114.486 32.16C113.846 30.84 113.526 29.32 113.526 27.6ZM126.066 27.63C126.066 26.35 125.706 25.34 124.986 24.6C124.286 23.86 123.426 23.49 122.406 23.49C121.386 23.49 120.516 23.86 119.796 24.6C119.096 25.32 118.746 26.32 118.746 27.6C118.746 28.88 119.096 29.9 119.796 30.66C120.516 31.4 121.386 31.77 122.406 31.77C123.426 31.77 124.286 31.4 124.986 30.66C125.706 29.92 126.066 28.91 126.066 27.63ZM140.037 13.8V36H134.907V13.8H140.037ZM160.315 15.09V36H157.585V26.52H146.935V36H144.205V15.09H146.935V24.27H157.585V15.09H160.315ZM172.146 36.27C170.606 36.27 169.206 35.92 167.946 35.22C166.706 34.52 165.726 33.53 165.006 32.25C164.306 30.95 163.956 29.45 163.956 27.75C163.956 26.07 164.316 24.59 165.036 23.31C165.776 22.01 166.776 21.02 168.036 20.34C169.296 19.64 170.706 19.29 172.266 19.29C173.826 19.29 175.236 19.64 176.496 20.34C177.756 21.02 178.746 22 179.466 23.28C180.206 24.56 180.576 26.05 180.576 27.75C180.576 29.45 180.196 30.95 179.436 32.25C178.696 33.53 177.686 34.52 176.406 35.22C175.126 35.92 173.706 36.27 172.146 36.27ZM172.146 33.87C173.126 33.87 174.046 33.64 174.906 33.18C175.766 32.72 176.456 32.03 176.976 31.11C177.516 30.19 177.786 29.07 177.786 27.75C177.786 26.43 177.526 25.31 177.006 24.39C176.486 23.47 175.806 22.79 174.966 22.35C174.126 21.89 173.216 21.66 172.236 21.66C171.236 21.66 170.316 21.89 169.476 22.35C168.656 22.79 167.996 23.47 167.496 24.39C166.996 25.31 166.746 26.43 166.746 27.75C166.746 29.09 166.986 30.22 167.466 31.14C167.966 32.06 168.626 32.75 169.446 33.21C170.266 33.65 171.166 33.87 172.146 33.87ZM186.895 22.59C187.435 21.65 188.235 20.87 189.295 20.25C190.375 19.61 191.625 19.29 193.045 19.29C194.505 19.29 195.825 19.64 197.005 20.34C198.205 21.04 199.145 22.03 199.825 23.31C200.505 24.57 200.845 26.04 200.845 27.72C200.845 29.38 200.505 30.86 199.825 32.16C199.145 33.46 198.205 34.47 197.005 35.19C195.825 35.91 194.505 36.27 193.045 36.27C191.645 36.27 190.405 35.96 189.325 35.34C188.265 34.7 187.455 33.91 186.895 32.97V43.8H184.165V19.56H186.895V22.59ZM198.055 27.72C198.055 26.48 197.805 25.4 197.305 24.48C196.805 23.56 196.125 22.86 195.265 22.38C194.425 21.9 193.495 21.66 192.475 21.66C191.475 21.66 190.545 21.91 189.685 22.41C188.845 22.89 188.165 23.6 187.645 24.54C187.145 25.46 186.895 26.53 186.895 27.75C186.895 28.99 187.145 30.08 187.645 31.02C188.165 31.94 188.845 32.65 189.685 33.15C190.545 33.63 191.475 33.87 192.475 33.87C193.495 33.87 194.425 33.63 195.265 33.15C196.125 32.65 196.805 31.94 197.305 31.02C197.805 30.08 198.055 28.98 198.055 27.72ZM219.439 27.15C219.439 27.67 219.409 28.22 219.349 28.8H206.209C206.309 30.42 206.859 31.69 207.859 32.61C208.879 33.51 210.109 33.96 211.549 33.96C212.729 33.96 213.709 33.69 214.489 33.15C215.289 32.59 215.849 31.85 216.169 30.93H219.109C218.669 32.51 217.789 33.8 216.469 34.8C215.149 35.78 213.509 36.27 211.549 36.27C209.989 36.27 208.589 35.92 207.349 35.22C206.129 34.52 205.169 33.53 204.469 32.25C203.769 30.95 203.419 29.45 203.419 27.75C203.419 26.05 203.759 24.56 204.439 23.28C205.119 22 206.069 21.02 207.289 20.34C208.529 19.64 209.949 19.29 211.549 19.29C213.109 19.29 214.489 19.63 215.689 20.31C216.889 20.99 217.809 21.93 218.449 23.13C219.109 24.31 219.439 25.65 219.439 27.15ZM216.619 26.58C216.619 25.54 216.389 24.65 215.929 23.91C215.469 23.15 214.839 22.58 214.039 22.2C213.259 21.8 212.389 21.6 211.429 21.6C210.049 21.6 208.869 22.04 207.889 22.92C206.929 23.8 206.379 25.02 206.239 26.58H216.619Z" data-darkreader-inline-fill="" style="--darkreader-inline-fill: var(--darkreader-background-2875ff, #0040b4);"/>
<defs>
<filter color-interpolation-filters="sRGB" filterUnits="userSpaceOnUse" height="34.0696" width="34.0696" y="7.9652" x="-2.0348" id="filter0_ii_321_13915">
<feFlood result="BackgroundImageFix" flood-opacity="0"/>
<feBlend result="shape" in2="BackgroundImageFix" in="SourceGraphic" mode="normal"/>
<feColorMatrix result="hardAlpha" values="0 0 0 0 0 0 0 0 0 0 0 0 0 0 0 0 0 0 127 0" type="matrix" in="SourceAlpha"/>
<feOffset dy="2.0348" dx="2.0348"/>
<feGaussianBlur stdDeviation="1.0174"/>
<feComposite k3="1" k2="-1" operator="arithmetic" in2="hardAlpha"/>
<feColorMatrix values="0 0 0 0 1 0 0 0 0 1 0 0 0 0 1 0 0 0 0.2 0" type="matrix"/>
<feBlend result="effect1_innerShadow_321_13915" in2="shape" mode="normal"/>
<feColorMatrix result="hardAlpha" values="0 0 0 0 0 0 0 0 0 0 0 0 0 0 0 0 0 0 127 0" type="matrix" in="SourceAlpha"/>
<feOffset dy="-2.0348" dx="-2.0348"/>
<feGaussianBlur stdDeviation="1.0174"/>
<feComposite k3="1" k2="-1" operator="arithmetic" in2="hardAlpha"/>
<feColorMatrix values="0 0 0 0 0 0 0 0 0 0 0 0 0 0 0 0 0 0 0.05 0" type="matrix"/>
<feBlend result="effect2_innerShadow_321_13915" in2="effect1_innerShadow_321_13915" mode="normal"/>
</filter>
<filter color-interpolation-filters="sRGB" filterUnits="userSpaceOnUse" height="68.5689" width="67.5272" y="4.87071" x="-18.6595" id="filter1_dii_321_13915">
<feFlood result="BackgroundImageFix" flood-opacity="0"/>
<feColorMatrix result="hardAlpha" values="0 0 0 0 0 0 0 0 0 0 0 0 0 0 0 0 0 0 127 0" type="matrix" in="SourceAlpha"/>
<feOffset dy="14.1551"/>
<feGaussianBlur stdDeviation="12.9756"/>
<feColorMatrix values="0 0 0 0 0.156863 0 0 0 0 0.458824 0 0 0 0 1 0 0 0 0.35 0" type="matrix"/>
<feBlend result="effect1_dropShadow_321_13915" in2="BackgroundImageFix" mode="normal"/>
<feBlend result="shape" in2="effect1_dropShadow_321_13915" in="SourceGraphic" mode="normal"/>
<feColorMatrix result="hardAlpha" values="0 0 0 0 0 0 0 0 0 0 0 0 0 0 0 0 0 0 127 0" type="matrix" in="SourceAlpha"/>
<feOffset dy="-9.43676"/>
<feGaussianBlur stdDeviation="5.89798"/>
<feComposite k3="1" k2="-1" operator="arithmetic" in2="hardAlpha"/>
<feColorMatrix values="0 0 0 0 0.156863 0 0 0 0 0.458824 0 0 0 0 1 0 0 0 0.45 0" type="matrix"/>
<feBlend result="effect2_innerShadow_321_13915" in2="shape" mode="normal"/>
<feColorMatrix result="hardAlpha" values="0 0 0 0 0 0 0 0 0 0 0 0 0 0 0 0 0 0 127 0" type="matrix" in="SourceAlpha"/>
<feOffset dy="-3.53879"/>
<feGaussianBlur stdDeviation="2.35919"/>
<feComposite k3="1" k2="-1" operator="arithmetic" in2="hardAlpha"/>
<feColorMatrix values="0 0 0 0 1 0 0 0 0 1 0 0 0 0 1 0 0 0 0.25 0" type="matrix"/>
<feBlend result="effect3_innerShadow_321_13915" in2="effect2_innerShadow_321_13915" mode="normal"/>
</filter>
<clipPath id="clip0_321_13915">
<rect fill="white" rx="10" height="30" width="30" y="10" data-darkreader-inline-fill="" style="--darkreader-inline-fill: var(--darkreader-text-ffffff, #e8e6e3);"/>
</clipPath>
</defs>
</svg>