<svg xmlns="http://www.w3.org/2000/svg" width="320" height="320" viewBox="0 0 320 320">
<g>
<path d="M 35.70 302.57 C26.59,299.29 19.33,291.67 16.96,282.85 C16.32,280.49 16.06,235.71 16.23,157.83 L 16.50 36.50 L 18.70 32.38 C22.09,26.06 25.34,22.68 31.17,19.45 L 36.50 16.50 L 160.00 16.50 L 283.50 16.50 L 288.83 19.45 C294.66,22.68 297.91,26.06 301.30,32.38 L 303.50 36.50 L 303.50 160.00 L 303.50 283.50 L 300.55 288.83 C297.32,294.66 293.94,297.91 287.62,301.30 L 283.50 303.50 L 161.50 303.71 C60.64,303.89 38.84,303.69 35.70,302.57 ZM 98.00 210.37 C103.64,207.74 109.19,202.17 112.19,196.14 C114.46,191.59 114.50,190.90 114.50,160.00 L 114.50 128.50 L 111.69 122.78 C110.14,119.63 107.05,115.49 104.82,113.58 C98.09,107.82 94.10,107.00 72.82,107.00 L 54.00 107.00 L 54.00 160.09 L 54.00 213.18 L 73.75 212.83 C91.26,212.51 94.01,212.23 98.00,210.37 ZM 180.00 203.50 L 180.00 194.00 L 163.00 194.00 L 146.00 194.00 L 146.00 181.50 L 146.00 169.00 L 156.54 169.00 L 167.08 169.00 L 166.79 159.75 L 166.50 150.50 L 156.25 150.22 L 146.00 149.93 L 146.00 137.99 L 146.00 126.05 L 162.75 125.77 L 179.50 125.50 L 179.79 116.25 L 180.08 107.00 L 157.99 107.00 C140.20,107.00 135.33,107.30 132.97,108.52 C127.00,111.60 127.00,111.58 127.00,160.37 L 127.00 204.85 L 129.67 208.02 C131.14,209.76 133.27,211.57 134.42,212.03 C135.56,212.49 146.29,212.90 158.25,212.94 L 180.00 213.00 L 180.00 203.50 ZM 237.71 211.04 C244.21,207.07 245.41,203.82 258.53,154.39 C265.38,128.60 270.99,107.39 270.99,107.25 C271.00,107.11 266.32,107.00 260.61,107.00 L 250.22 107.00 L 248.16 114.75 C242.71,135.22 232.00,176.86 232.00,177.55 C232.00,181.22 229.20,171.85 221.42,142.17 L 212.34 107.50 L 201.78 107.22 L 191.21 106.93 L 194.11 117.72 C195.70,123.65 201.37,144.86 206.69,164.86 C217.01,203.61 218.28,206.76 225.28,211.03 C229.37,213.52 233.63,213.53 237.71,211.04 ZM 75.00 160.50 L 75.00 127.00 L 82.60 127.00 C89.91,127.00 90.33,127.13 93.60,130.40 L 97.00 133.80 L 97.00 159.45 C97.00,188.01 96.72,189.48 90.64,192.37 C88.62,193.32 84.67,194.00 81.10,194.00 L 75.00 194.00 L 75.00 160.50 Z" fill="rgba(0,0,0,1)"/>
</g>
</svg>