<svg xmlns="http://www.w3.org/2000/svg" width="512" height="512" viewBox="0 0 512 512">
<g>
<path d="M 106.88 401.62 C101.05,399.54 96.46,396.28 93.69,392.25 C86.51,381.81 86.80,379.19 100.36,332.75 L 111.67 294.00 L 90.09 293.97 C78.21,293.95 65.15,293.50 61.05,292.97 C46.97,291.14 35.20,283.49 29.21,272.24 C16.54,248.46 29.76,220.91 56.75,214.86 C61.73,213.74 62.00,213.52 62.00,210.52 C62.00,205.43 64.77,197.54 68.52,191.98 C71.96,186.85 72.00,186.68 72.00,175.94 L 72.00 165.09 L 68.75 164.62 C66.96,164.36 59.42,163.46 52.00,162.61 C13.18,158.19 -6.18,145.99 1.85,131.01 C5.46,124.29 16.57,118.56 33.00,114.96 C76.45,105.43 145.60,108.12 173.42,120.42 C190.49,127.97 193.38,141.46 179.84,150.38 C170.33,156.64 154.00,160.99 130.51,163.52 C123.35,164.29 117.39,164.94 117.25,164.96 C117.11,164.98 117.00,170.34 117.00,176.88 C117.00,186.48 117.30,189.01 118.58,190.06 C121.57,192.55 125.22,201.31 125.76,207.33 L 126.30 213.28 L 137.40 212.70 C151.56,211.96 155.52,210.73 178.00,200.05 C197.64,190.73 203.79,188.35 216.53,185.16 C240.56,179.13 265.41,178.74 290.68,184.00 C304.37,186.84 313.19,190.10 333.83,199.94 C356.50,210.74 360.39,211.96 374.75,212.71 L 386.00 213.30 L 386.00 208.77 C386.00,202.94 388.31,196.46 392.04,191.81 C394.94,188.20 395.00,187.87 395.00,176.56 C395.00,170.20 394.89,164.98 394.75,164.96 C394.61,164.94 388.65,164.29 381.49,163.52 C348.76,159.99 329.46,152.81 324.87,142.44 C318.75,128.60 334.36,118.04 369.01,112.59 C414.13,105.48 475.78,109.76 499.22,121.61 C508.55,126.33 513.32,133.61 511.60,140.48 C508.97,150.92 489.62,159.23 460.00,162.61 C452.58,163.46 445.04,164.36 443.25,164.62 L 440.00 165.09 L 440.00 176.47 C440.00,187.17 440.15,188.02 442.52,190.84 C446.11,195.11 448.84,201.79 449.59,208.14 L 450.23 213.62 L 457.07 215.38 C482.84,222.02 495.04,249.01 482.76,272.25 C476.84,283.46 465.04,291.14 450.95,292.97 C446.85,293.50 433.78,293.95 421.91,293.97 L 400.32 294.00 L 411.63 332.75 C423.92,374.88 424.73,379.59 421.09,387.60 C418.82,392.60 413.54,398.04 408.74,400.32 C396.94,405.92 381.88,401.53 375.55,390.65 C374.22,388.37 367.65,367.60 360.95,344.50 C354.25,321.40 348.38,302.09 347.92,301.58 C347.41,301.04 341.83,303.22 334.28,306.90 L 321.50 313.13 L 321.81 340.82 C321.98,356.04 321.85,370.38 321.51,372.67 C320.74,377.95 316.54,384.26 311.45,387.77 C307.55,390.46 307.25,390.50 289.30,390.81 C269.80,391.14 267.47,390.70 266.40,386.47 C265.80,384.06 265.54,384.00 256.50,384.00 C247.46,384.00 247.20,384.06 246.60,386.47 C245.53,390.72 243.22,391.14 223.11,390.81 L 204.32 390.50 L 200.10 387.57 C197.77,385.96 194.66,382.58 193.19,380.07 L 190.50 375.50 L 190.50 313.19 L 177.76 306.88 C169.74,302.91 164.69,300.93 164.12,301.54 C163.62,302.07 157.73,321.40 151.03,344.50 C144.33,367.60 137.75,388.40 136.40,390.72 C130.83,400.32 117.26,405.33 106.88,401.62 ZM 186.37 294.18 L 199.24 300.63 L 203.37 298.57 C207.38,296.56 208.98,296.50 256.50,296.50 C303.89,296.50 305.63,296.57 309.50,298.54 L 313.50 300.59 L 326.50 294.16 C355.43,279.85 355.22,279.89 408.50,279.11 C450.21,278.51 452.73,278.37 457.00,276.39 C467.72,271.44 472.42,264.48 472.47,253.50 C472.50,247.62 472.06,245.75 469.73,241.78 C466.70,236.64 462.45,233.02 457.00,230.95 C454.40,229.96 442.61,229.45 411.00,228.97 C356.51,228.15 358.64,228.55 325.00,212.48 C298.25,199.70 282.91,196.01 256.50,196.01 C230.09,196.01 214.75,199.70 188.00,212.48 C154.33,228.57 156.58,228.14 101.50,228.97 C54.14,229.68 54.98,229.57 47.38,236.24 C42.38,240.63 40.04,246.13 40.04,253.50 C40.04,263.84 45.26,271.50 55.50,276.19 C60.39,278.42 61.46,278.49 104.50,279.11 C157.83,279.89 157.88,279.90 186.37,294.18 ZM 247.00 382.15 C247.00,383.82 247.92,384.00 256.25,383.98 L 265.50 383.96 L 267.00 380.73 C268.88,376.69 271.57,376.14 289.68,376.06 C297.30,376.02 301.58,376.40 303.98,374.46 C307.44,371.66 307.00,364.05 307.00,343.48 C307.00,318.13 306.87,316.06 305.09,313.86 L 303.18 311.50 L 256.69 311.50 C212.39,311.50 210.11,311.59 208.10,313.40 C206.06,315.26 206.00,316.10 206.00,344.03 C206.00,369.50 206.19,372.91 207.65,374.13 C208.84,375.12 213.96,375.64 226.07,376.02 C240.64,376.47 243.11,376.79 244.92,378.42 C246.06,379.46 247.00,381.14 247.00,382.15 ZM 72.00 149.90 C109.89,152.59 152.06,148.10 168.78,139.61 L 173.42 137.25 L 169.43 135.22 C146.20,123.37 71.41,120.82 33.63,130.60 C25.14,132.80 17.00,135.99 17.00,137.13 C17.00,138.50 26.23,142.41 34.00,144.34 C43.64,146.73 59.01,148.98 72.00,149.90 ZM 395.51 149.90 C420.14,151.56 444.62,150.54 465.52,146.99 C477.30,144.98 491.32,140.95 494.44,138.67 C496.29,137.32 496.27,137.22 493.92,135.70 C490.19,133.27 475.63,129.37 463.60,127.58 C421.85,121.38 363.51,125.05 343.77,135.12 L 339.69 137.20 L 342.59 139.04 C349.77,143.57 373.35,148.41 395.51,149.90 ZM 109.31 386.05 C111.07,387.12 113.70,387.99 115.17,388.00 C118.41,388.00 123.33,384.06 124.84,380.27 C128.27,371.62 149.16,296.76 148.36,295.96 C147.85,295.45 142.95,294.75 137.47,294.40 L 127.50 293.76 L 115.72 334.63 C109.24,357.11 103.95,376.54 103.97,377.82 C104.01,381.23 105.73,383.86 109.31,386.05 ZM 392.23 386.00 C397.11,388.98 400.62,388.58 404.60,384.60 C407.22,381.98 408.00,380.36 408.00,377.58 C408.00,375.58 402.83,356.21 396.50,334.52 C390.17,312.83 385.00,294.78 385.00,294.39 C385.00,293.44 364.76,294.84 363.73,295.87 C363.01,296.59 385.38,375.89 387.97,381.75 C388.51,382.99 390.43,384.90 392.23,386.00 ZM 266.68 366.14 C250.91,374.27 231.52,361.73 231.69,343.51 C231.92,318.52 264.95,310.04 277.68,331.71 C280.06,335.75 280.50,337.60 280.47,343.50 C280.44,353.59 275.58,361.56 266.68,366.14 ZM 123.55 257.55 L 121.09 260.00 L 70.91 260.00 L 68.45 257.55 C67.10,256.20 66.00,253.93 66.00,252.50 C66.00,251.07 67.10,248.80 68.45,247.45 L 70.91 245.00 L 121.09 245.00 L 123.55 247.45 C124.90,248.80 126.00,251.07 126.00,252.50 C126.00,253.93 124.90,256.20 123.55,257.55 ZM 444.00 258.00 C442.11,259.89 440.67,260.00 416.67,260.00 C391.49,260.00 391.34,259.99 389.17,257.69 C387.03,255.41 386.30,250.59 387.77,248.40 C389.76,245.41 393.32,245.00 417.43,245.00 C440.67,245.00 442.11,245.11 444.00,247.00 C445.24,248.24 446.00,250.33 446.00,252.50 C446.00,254.67 445.24,256.76 444.00,258.00 ZM 261.08 274.08 C257.92,277.23 256.60,277.54 253.50,275.85 C249.16,273.47 249.00,272.55 249.00,249.81 C249.00,229.33 249.12,227.88 251.00,226.00 C253.98,223.02 259.33,223.33 261.93,226.63 C263.87,229.11 264.00,230.54 264.00,250.21 L 264.00 271.15 ZM 77.40 212.60 C77.83,213.72 81.25,214.00 94.47,214.00 L 111.00 214.00 L 111.00 210.47 C111.00,194.91 90.81,188.25 81.10,200.60 C78.72,203.62 76.60,210.52 77.40,212.60 ZM 401.67 213.33 C402.03,213.70 409.47,214.00 418.20,214.00 C429.39,214.00 433.59,214.01 434.65,212.19 C435.30,211.09 434.79,209.32 433.99,206.46 C430.91,195.48 418.35,190.83 408.29,196.96 C403.27,200.03 398.97,210.64 401.67,213.33 ZM 295.93 266.37 C293.22,269.81 288.25,269.96 285.17,266.69 C283.15,264.53 283.00,263.39 283.00,249.76 C283.00,235.16 283.00,235.14 285.63,233.07 C289.13,230.32 292.55,230.45 295.55,233.45 C297.92,235.83 298.00,236.38 298.00,249.82 C298.00,262.38 297.80,263.99 295.93,266.37 ZM 227.93 266.37 C225.22,269.81 220.25,269.96 217.17,266.69 C215.15,264.53 215.00,263.39 215.00,249.76 C215.00,235.16 215.00,235.14 217.63,233.07 C221.13,230.32 224.55,230.45 227.55,233.45 C229.92,235.83 230.00,236.38 230.00,249.82 C230.00,262.38 229.80,263.99 227.93,266.37 ZM 254.00 353.32 C256.35,354.20 260.29,353.05 262.73,350.77 C265.76,347.94 266.57,343.01 264.63,339.24 C262.82,335.74 261.28,335.00 255.87,335.00 C247.59,335.00 243.73,344.58 249.75,350.19 C251.26,351.60 253.18,353.01 254.00,353.32 ZM 94.25 179.26 C98.24,179.45 101.61,179.69 101.75,179.80 C101.89,179.91 102.00,176.85 102.00,173.00 L 102.00 166.00 L 87.00 166.00 L 87.00 178.91 ZM 410.41 179.08 C410.64,179.31 414.01,179.35 417.91,179.17 L 425.00 178.84 L 425.00 166.00 L 410.00 166.00 L 410.00 172.33 C410.00,175.82 410.19,178.85 410.41,179.08 Z" fill="rgba(0,0,0,1)"/>
<path d="M 109.31 386.05 C105.73,383.86 104.01,381.23 103.97,377.82 C103.95,376.54 109.24,357.11 115.72,334.63 L 127.50 293.76 L 137.47 294.40 C142.95,294.75 147.85,295.45 148.36,295.96 C149.16,296.76 128.27,371.62 124.84,380.27 C123.33,384.06 118.41,388.00 115.17,388.00 C113.70,387.99 111.07,387.12 109.31,386.05 ZM 392.23 386.00 C390.43,384.90 388.51,382.99 387.97,381.75 C385.38,375.89 363.01,296.59 363.73,295.87 C364.76,294.84 385.00,293.44 385.00,294.39 C385.00,294.78 390.17,312.83 396.50,334.52 C402.83,356.21 408.00,375.58 408.00,377.58 C408.00,380.36 407.22,381.98 404.60,384.60 C400.62,388.58 397.11,388.98 392.23,386.00 ZM 77.40 212.60 C76.60,210.52 78.72,203.62 81.10,200.60 C90.81,188.25 111.00,194.91 111.00,210.47 L 111.00 214.00 L 94.47 214.00 C81.25,214.00 77.83,213.72 77.40,212.60 ZM 401.67 213.33 C398.97,210.64 403.27,200.03 408.29,196.96 C418.35,190.83 430.91,195.48 433.99,206.46 C434.79,209.32 435.30,211.09 434.65,212.19 C433.59,214.01 429.39,214.00 418.20,214.00 C409.47,214.00 402.03,213.70 401.67,213.33 Z" fill="rgba(85,149,205,1)"/>
<path d="M 247.00 382.15 C247.00,381.14 246.06,379.46 244.92,378.42 C243.11,376.79 240.64,376.47 226.07,376.02 C213.96,375.64 208.84,375.12 207.65,374.13 C206.19,372.91 206.00,369.50 206.00,344.03 C206.00,316.10 206.06,315.26 208.10,313.40 C210.11,311.59 212.39,311.50 256.69,311.50 L 303.18 311.50 L 305.09 313.86 C306.87,316.06 307.00,318.13 307.00,343.48 C307.00,364.05 307.44,371.66 303.98,374.46 C301.58,376.40 297.30,376.02 289.68,376.06 C271.57,376.14 268.88,376.69 267.00,380.73 L 265.50 383.96 L 256.25 383.98 C247.92,384.00 247.00,383.82 247.00,382.15 ZM 266.68 366.14 C275.58,361.56 280.44,353.59 280.47,343.50 C280.50,337.60 280.06,335.75 277.68,331.71 C264.95,310.04 231.92,318.52 231.69,343.51 C231.52,361.73 250.91,374.27 266.68,366.14 Z" fill="rgba(130,131,131,1)"/>
<path d="M 186.37 294.18 C157.88,279.90 157.83,279.89 104.50,279.11 C61.46,278.49 60.39,278.42 55.50,276.19 C45.26,271.50 40.04,263.84 40.04,253.50 C40.04,246.13 42.38,240.63 47.38,236.24 C54.98,229.57 54.14,229.68 101.50,228.97 C156.58,228.14 154.33,228.57 188.00,212.48 C214.75,199.70 230.09,196.01 256.50,196.01 C282.91,196.01 298.25,199.70 325.00,212.48 C358.64,228.55 356.51,228.15 411.00,228.97 C442.61,229.45 454.40,229.96 457.00,230.95 C462.45,233.02 466.70,236.64 469.73,241.78 C472.06,245.75 472.50,247.62 472.47,253.50 C472.42,264.48 467.72,271.44 457.00,276.39 C452.73,278.37 450.21,278.51 408.50,279.11 C355.22,279.89 355.43,279.85 326.50,294.16 L 313.50 300.59 L 309.50 298.54 C305.63,296.57 303.89,296.50 256.50,296.50 C208.98,296.50 207.38,296.56 203.37,298.57 L 199.24 300.63 ZM 72.00 149.90 C59.01,148.98 43.64,146.73 34.00,144.34 C26.23,142.41 17.00,138.50 17.00,137.13 C17.00,135.99 25.14,132.80 33.63,130.60 C71.41,120.82 146.20,123.37 169.43,135.22 L 173.42 137.25 L 168.78 139.61 C152.06,148.10 109.89,152.59 72.00,149.90 ZM 395.51 149.90 C373.35,148.41 349.77,143.57 342.59,139.04 L 339.69 137.20 L 343.77 135.12 C363.51,125.05 421.85,121.38 463.60,127.58 C475.63,129.37 490.19,133.27 493.92,135.70 C496.27,137.22 496.29,137.32 494.44,138.67 C491.32,140.95 477.30,144.98 465.52,146.99 C444.62,150.54 420.14,151.56 395.51,149.90 ZM 123.55 257.55 C124.90,256.20 126.00,253.93 126.00,252.50 C126.00,251.07 124.90,248.80 123.55,247.45 L 121.09 245.00 L 70.91 245.00 L 68.45 247.45 C67.10,248.80 66.00,251.07 66.00,252.50 C66.00,253.93 67.10,256.20 68.45,257.55 L 70.91 260.00 L 121.09 260.00 ZM 444.00 258.00 C445.24,256.76 446.00,254.67 446.00,252.50 C446.00,250.33 445.24,248.24 444.00,247.00 C442.11,245.11 440.67,245.00 417.43,245.00 C393.32,245.00 389.76,245.41 387.77,248.40 C386.30,250.59 387.03,255.41 389.17,257.69 C391.34,259.99 391.49,260.00 416.67,260.00 C440.67,260.00 442.11,259.89 444.00,258.00 ZM 261.08 274.08 L 264.00 271.15 L 264.00 250.21 C264.00,230.54 263.87,229.11 261.93,226.63 C259.33,223.33 253.98,223.02 251.00,226.00 C249.12,227.88 249.00,229.33 249.00,249.81 C249.00,272.55 249.16,273.47 253.50,275.85 C256.60,277.54 257.92,277.23 261.08,274.08 ZM 295.93 266.37 C297.80,263.99 298.00,262.38 298.00,249.82 C298.00,236.38 297.92,235.83 295.55,233.45 C292.55,230.45 289.13,230.32 285.63,233.07 C283.00,235.14 283.00,235.16 283.00,249.76 C283.00,263.39 283.15,264.53 285.17,266.69 C288.25,269.96 293.22,269.81 295.93,266.37 ZM 227.93 266.37 C229.80,263.99 230.00,262.38 230.00,249.82 C230.00,236.38 229.92,235.83 227.55,233.45 C224.55,230.45 221.13,230.32 217.63,233.07 C215.00,235.14 215.00,235.16 215.00,249.76 C215.00,263.39 215.15,264.53 217.17,266.69 C220.25,269.96 225.22,269.81 227.93,266.37 ZM 254.00 353.32 C253.18,353.01 251.26,351.60 249.75,350.19 C243.73,344.58 247.59,335.00 255.87,335.00 C261.28,335.00 262.82,335.74 264.63,339.24 C266.57,343.01 265.76,347.94 262.73,350.77 C260.29,353.05 256.35,354.20 254.00,353.32 Z" fill="rgba(226,227,228,1)"/>
<path d="M 94.25 179.26 L 87.00 178.91 L 87.00 172.46 L 87.00 166.00 L 94.50 166.00 L 102.00 166.00 L 102.00 173.00 C102.00,176.85 101.89,179.91 101.75,179.80 C101.61,179.69 98.24,179.45 94.25,179.26 ZM 410.41 179.08 C410.19,178.85 410.00,175.82 410.00,172.33 L 410.00 166.00 L 417.50 166.00 L 425.00 166.00 L 425.00 172.42 L 425.00 178.84 L 417.91 179.17 C414.01,179.35 410.64,179.31 410.41,179.08 Z" fill="rgba(245,131,17,1)"/>
</g>
</svg>