<svg xmlns="http://www.w3.org/2000/svg" width="512" height="512" viewBox="0 0 512 512">
<g>
<path d="M 0.00 0.00 L 512.00 0.00 L 512.00 512.00 L 0.00 512.00 ZM 289.00 365.25 C289.00,365.87 290.24,365.26 291.75,363.89 C293.26,362.53 296.75,359.41 299.50,356.96 C327.08,332.39 336.85,301.42 326.56,271.18 C322.34,258.76 311.86,240.66 309.23,241.23 C308.54,241.38 305.84,245.10 303.23,249.50 C298.39,257.69 293.29,261.82 289.71,260.44 C287.10,259.44 287.09,257.79 289.67,244.41 C295.73,212.90 289.01,189.44 266.21,162.50 C261.16,156.54 245.23,142.00 243.74,142.00 C243.48,142.00 243.21,146.08 243.14,151.07 C242.93,165.91 238.88,180.10 228.96,200.81 C222.37,214.55 212.92,230.65 203.03,244.97 C193.66,258.53 189.43,266.50 185.96,277.13 C179.24,297.68 181.58,317.05 193.15,336.78 C194.99,339.93 201.18,347.23 206.91,353.00 C217.06,363.24 220.65,365.02 215.63,357.32 C211.40,350.82 209.64,342.76 210.35,333.03 C211.69,314.50 219.92,295.35 238.51,267.50 C243.65,259.80 250.25,249.03 253.18,243.57 C256.11,238.11 259.00,233.48 259.61,233.28 C260.23,233.08 261.78,236.15 263.10,240.21 C265.78,248.44 266.21,260.98 264.59,284.18 C263.47,300.15 264.50,304.62 270.71,310.65 C276.54,316.32 280.18,317.36 292.20,316.78 L 302.11 316.30 L 304.16 320.32 C307.21,326.30 306.43,334.47 301.88,344.03 C298.11,351.94 291.70,362.45 290.01,363.49 C289.46,363.84 289.00,364.63 289.00,365.25 ZM 378.78 384.26 C380.28,385.19 382.17,385.95 383.00,385.95 C386.94,385.96 393.17,381.60 401.00,373.36 C427.76,345.17 441.68,316.65 446.57,279.99 C448.36,266.57 448.60,238.36 447.04,225.78 C444.57,205.98 435.82,183.55 423.18,164.66 C417.26,155.80 401.45,137.31 396.42,133.36 C387.51,126.35 380.83,125.08 376.36,129.55 C373.27,132.64 373.73,135.96 377.88,140.50 C379.39,142.15 384.52,147.71 389.28,152.85 C398.26,162.54 409.66,178.46 414.46,188.00 C420.05,199.09 424.77,215.16 427.04,230.79 C428.63,241.74 427.77,272.44 425.53,285.00 C420.63,312.38 407.62,337.42 386.81,359.50 C381.11,365.55 375.84,371.96 375.10,373.75 C373.42,377.81 374.82,381.80 378.78,384.26 ZM 124.50 384.14 C126.70,385.14 129.11,385.97 129.85,385.98 C132.36,386.02 136.94,382.61 137.81,380.05 C139.44,375.22 137.28,371.18 127.66,361.14 C112.69,345.50 106.55,336.79 98.59,319.92 C92.20,306.38 88.27,293.53 86.58,280.70 C80.82,236.93 86.55,205.30 105.62,175.73 C111.48,166.64 116.15,160.83 127.21,148.89 C138.11,137.12 139.37,135.11 138.05,131.62 C136.19,126.74 129.72,125.57 123.16,128.92 C112.08,134.57 92.70,157.72 81.24,179.00 C67.70,204.14 62.47,231.73 64.91,265.17 C66.75,290.33 71.09,308.51 79.78,327.50 C90.60,351.14 112.27,378.57 124.50,384.14 Z" fill="rgb(10,10,33)"/>
<path d="M 124.50 384.14 C112.27,378.57 90.60,351.14 79.78,327.50 C71.09,308.51 66.75,290.33 64.91,265.17 C62.47,231.73 67.70,204.14 81.24,179.00 C92.70,157.72 112.08,134.57 123.16,128.92 C129.72,125.57 136.19,126.74 138.05,131.62 C139.37,135.11 138.11,137.12 127.21,148.89 C116.15,160.83 111.48,166.64 105.62,175.73 C86.55,205.30 80.82,236.93 86.58,280.70 C88.27,293.53 92.20,306.38 98.59,319.92 C106.55,336.79 112.69,345.50 127.66,361.14 C137.28,371.18 139.44,375.22 137.81,380.05 C136.94,382.61 132.36,386.02 129.85,385.98 C129.11,385.97 126.70,385.14 124.50,384.14 ZM 378.78 384.26 C374.82,381.80 373.42,377.81 375.10,373.75 C375.84,371.96 381.11,365.55 386.81,359.50 C407.62,337.42 420.63,312.38 425.53,285.00 C427.77,272.44 428.63,241.74 427.04,230.79 C424.77,215.16 420.05,199.09 414.46,188.00 C409.66,178.46 398.26,162.54 389.28,152.85 C384.52,147.71 379.39,142.15 377.88,140.50 C373.73,135.96 373.27,132.64 376.36,129.55 C380.83,125.08 387.51,126.35 396.42,133.36 C401.45,137.31 417.26,155.80 423.18,164.66 C435.82,183.55 444.57,205.98 447.04,225.78 C448.60,238.36 448.36,266.57 446.57,279.99 C441.68,316.65 427.76,345.17 401.00,373.36 C393.17,381.60 386.94,385.96 383.00,385.95 C382.17,385.95 380.28,385.19 378.78,384.26 ZM 289.00 365.25 C289.00,364.63 289.46,363.84 290.01,363.49 C291.70,362.45 298.11,351.94 301.88,344.03 C306.43,334.47 307.21,326.30 304.16,320.32 L 302.11 316.30 L 292.20 316.78 C280.18,317.36 276.54,316.32 270.71,310.65 C264.50,304.62 263.47,300.15 264.59,284.18 C266.21,260.98 265.78,248.44 263.10,240.21 C261.78,236.15 260.23,233.08 259.61,233.28 C259.00,233.48 256.11,238.11 253.18,243.57 C250.25,249.03 243.65,259.80 238.51,267.50 C219.92,295.35 211.69,314.50 210.35,333.03 C209.64,342.76 211.40,350.82 215.63,357.32 C220.65,365.02 217.06,363.24 206.91,353.00 C201.18,347.23 194.99,339.93 193.15,336.78 C181.58,317.05 179.24,297.68 185.96,277.13 C189.43,266.50 193.66,258.53 203.03,244.97 C212.92,230.65 222.37,214.55 228.96,200.81 C238.88,180.10 242.93,165.91 243.14,151.07 C243.21,146.08 243.48,142.00 243.74,142.00 C245.23,142.00 261.16,156.54 266.21,162.50 C289.01,189.44 295.73,212.90 289.67,244.41 C287.09,257.79 287.10,259.44 289.71,260.44 C293.29,261.82 298.39,257.69 303.23,249.50 C305.84,245.10 308.54,241.38 309.23,241.23 C311.86,240.66 322.34,258.76 326.56,271.18 C336.85,301.42 327.08,332.39 299.50,356.96 C296.75,359.41 293.26,362.53 291.75,363.89 C290.24,365.26 289.00,365.87 289.00,365.25 Z" fill="rgb(253,253,253)"/>
</g>
</svg>