<svg xmlns="http://www.w3.org/2000/svg" width="512" height="512" viewBox="0 0 512 512">
<g>
<path d="M 175.50 505.27 C169.48,503.76 149.00,495.09 137.61,489.23 C114.47,477.32 95.30,463.30 76.47,444.51 C37.91,406.00 12.55,358.01 4.07,307.50 C-5.34,251.46 2.30,197.23 26.40,149.00 C58.84,84.08 116.03,36.06 184.36,16.40 C230.22,3.20 281.78,3.20 327.64,16.40 C418.38,42.51 489.15,119.61 507.02,211.80 C517.88,267.84 510.52,324.88 486.03,374.50 C457.53,432.26 408.16,477.87 349.73,500.44 C335.12,506.08 331.38,506.75 326.76,504.55 C320.06,501.38 320.07,501.46 319.65,452.50 C319.33,415.88 318.99,407.44 317.63,402.18 C315.47,393.85 311.74,386.12 306.98,380.09 L 303.11 375.19 L 311.80 373.99 C349.68,368.77 379.60,353.93 396.12,332.17 C405.67,319.59 413.88,298.80 417.11,279.00 C419.18,266.32 418.94,233.49 416.71,224.64 C413.03,210.06 406.38,196.56 397.49,185.65 L 393.12 180.28 L 395.20 173.89 C396.72,169.24 397.41,163.94 397.75,154.43 C398.26,140.31 397.05,131.85 392.75,119.30 C390.78,113.55 390.05,112.52 387.48,111.84 C378.44,109.42 352.64,118.66 330.00,132.42 L 320.50 138.20 L 315.00 137.15 C311.98,136.58 306.26,135.41 302.29,134.55 C275.20,128.69 236.80,128.69 209.71,134.55 C205.74,135.41 200.01,136.59 196.97,137.19 L 191.44 138.27 L 184.28 133.68 C167.07,122.65 141.78,112.50 130.00,111.89 C121.94,111.47 121.51,111.68 119.74,116.75 C112.70,136.94 111.71,157.25 116.94,174.05 L 118.88 180.28 L 114.40 185.78 C104.16,198.36 97.28,213.64 94.38,230.31 C92.58,240.59 92.90,268.56 94.94,279.50 C101.49,314.66 115.10,337.75 138.02,352.58 C155.54,363.91 174.32,370.35 200.69,374.06 L 208.88 375.21 L 205.01 380.10 C199.98,386.46 196.33,394.31 194.39,402.89 C192.87,409.63 192.73,409.83 188.58,411.42 C180.18,414.62 169.83,416.18 159.50,415.80 C150.51,415.46 148.80,415.08 142.56,411.98 C133.89,407.68 126.80,400.83 119.61,389.80 C109.12,373.70 94.39,363.43 80.32,362.39 C73.03,361.86 68.78,363.19 68.20,366.18 C67.77,368.43 73.25,374.41 79.93,378.98 C89.61,385.61 96.78,394.81 103.06,408.67 C110.01,424.02 111.38,426.32 116.68,431.64 C123.39,438.35 134.05,443.65 144.53,445.47 C157.47,447.73 173.44,448.27 183.10,446.77 L 191.70 445.44 L 192.40 469.73 C193.04,492.33 192.96,494.31 191.18,498.33 C188.48,504.44 182.58,507.04 175.50,505.27 Z" fill="rgba(0,0,0,1)"/>
</g>
</svg>