<?xml version="1.0" encoding="UTF-8"?>
<svg version="1.1" xmlns="http://www.w3.org/2000/svg" width="3840" height="3840">
<path d="M0 0 C6.43386002 0.01138736 12.86755439 0.0046088 19.30140877 -0.00687695 C50.682386 -0.05440186 81.95712007 0.47920298 113.28979492 2.26074219 C113.99939739 2.30068047 114.70899986 2.34061874 115.44010544 2.38176727 C123.97958042 2.86536665 132.51038723 3.43783282 141.03979492 4.07324219 C142.187836 4.1572226 143.33587708 4.241203 144.51870728 4.32772827 C252.03898111 12.23208447 358.70260176 29.63997013 746.28979492 160.26074219 C747.2438623 160.70885254 748.19792969 161.15696289 749.1809082 161.61865234 C776.6306488 174.55462936 804.04669441 187.87468161 830.52026367 202.71777344 C833.70365549 204.49131331 836.90207972 206.23658746 840.10229492 207.97949219 C855.68200476 216.47804021 871.02891178 225.29416794 886.2434082 234.43261719 C889.0762378 236.13258738 891.91421244 237.82350499 894.75463867 239.51074219 C905.22585886 245.74130309 915.56811011 252.15453587 925.84155273 258.70556641 C928.31546963 260.27705131 930.79766594 261.8346646 933.28198242 263.38964844 C969.33910132 286.0318223 1004.44865092 310.51094312 1038.23901367 336.40136719 C1042.71038509 339.82567205 1047.21221544 343.20690098 1051.72729492 346.57324219 C1059.01174062 352.01462434 1066.17272157 357.60276035 1073.28979492 363.26074219 C1074.12510742 363.92332031 1074.96041992 364.58589844 1075.82104492 365.26855469 C1083.06415813 371.03890154 1090.24065635 376.89229906 1097.42114258 382.74023438 C1099.03570292 384.05398951 1100.65275256 385.36468429 1102.27026367 386.67480469 C1107.96004406 391.29722598 1113.54393977 396.02973942 1119.09448242 400.81738281 C1122.65403457 403.88125171 1126.25671884 406.87675151 1129.91479492 409.82324219 C1134.96787636 413.92375452 1139.7428884 418.27658975 1144.51245117 422.69824219 C1147.39941613 425.36188356 1150.33902826 427.95222566 1153.30541992 430.52636719 C1157.34353468 434.05574308 1161.30923971 437.66676594 1165.28979492 441.26074219 C1171.60153243 446.95197094 1177.93014147 452.62307837 1184.28979492 458.26074219 C1182.89276314 461.41361086 1181.25590725 463.54423928 1178.82255924 465.97637486 C1177.73645421 467.06922178 1177.73645421 467.06922178 1176.62840766 468.1841464 C1175.82828027 468.97901976 1175.02815289 469.77389312 1174.20377922 470.59285355 C1173.35390794 471.44503251 1172.50403666 472.29721148 1171.62841171 473.17521405 C1169.25779651 475.55022612 1166.88275323 477.92064959 1164.50578055 480.28928894 C1161.92499732 482.86321553 1159.35001063 485.44292982 1156.77429688 488.0219276 C1152.25579105 492.54458589 1147.73357162 497.06350429 1143.20892715 501.5800209 C1136.48092692 508.29596875 1129.75865076 515.01762404 1123.03755313 521.74047891 C1111.73234763 533.04831455 1100.42248587 544.35148227 1089.10998154 555.65201569 C1077.90591642 566.84425497 1066.70391445 578.03855254 1055.504673 589.23561859 C1054.8088644 589.93128972 1054.1130558 590.62696084 1053.39616208 591.34371291 C1049.86264809 594.87655025 1046.32917103 598.40942454 1042.79570819 601.94231305 C1017.75492878 626.97888937 992.70951358 652.01082354 967.66137695 677.04003906 C943.32439629 701.35865701 918.98951273 725.67937033 894.6574707 750.00292969 C893.90771769 750.75241965 893.15796467 751.50190961 892.38549187 752.27411139 C884.85630548 759.80066079 877.32716176 767.32725288 869.7980493 774.85387624 C854.45978057 790.18707227 839.12122699 805.51998334 823.78250122 820.85272217 C822.72457993 821.91023159 822.72457993 821.91023159 821.64528649 822.98910483 C774.53155987 870.08442383 727.41119326 917.17309931 680.28979492 964.26074219 C679.00869029 963.31404263 677.7295227 962.36472144 676.45117188 961.41430664 C675.73862747 960.88593704 675.02608307 960.35756744 674.29194641 959.81318665 C671.79789332 957.87932753 669.64584267 955.73831976 667.47729492 953.44824219 C663.24865312 949.12261319 658.79714457 945.31443361 654.07495117 941.54199219 C651.22012259 939.20367537 648.50291149 936.76159501 645.78979492 934.26074219 C640.45992809 929.36688703 634.92069103 924.80155457 629.28979492 920.26074219 C628.10652943 919.28666353 626.92429439 918.31133219 625.74291992 917.33496094 C615.94630424 909.26318093 605.87428327 901.60770314 595.68237305 894.04345703 C593.45438883 892.38338145 591.23688431 890.71062498 589.02416992 889.03027344 C579.96371292 882.15504361 570.72492775 875.61091393 561.28979492 869.26074219 C560.48380859 868.71659668 559.67782227 868.17245117 558.84741211 867.61181641 C483.91149996 817.07928182 402.94880239 776.99649471 -181.67080688 719.87661743 C-221.94592645 727.72086152 -261.67233313 737.59801949 -300.71020508 750.26074219 C-301.55689758 750.5353125 -302.40359009 750.80988281 -303.27593994 751.09277344 C-363.10205984 770.55426567 -422.19639398 794.77546068 -477.05102539 825.76269531 C-479.98906066 827.41783527 -482.93870442 829.05105122 -485.88989258 830.68261719 C-510.80479649 844.48909787 -535.15176927 859.23743187 -558.71020508 875.26074219 C-559.3855127 875.71739258 -560.06082031 876.17404297 -560.7565918 876.64453125 C-576.71004724 887.4362708 -592.37968005 898.59942123 -607.71020508 910.26074219 C-609.22420898 911.40736328 -609.22420898 911.40736328 -610.76879883 912.57714844 C-618.30341247 918.31000664 -625.66475727 924.24263539 -632.99536133 930.23339844 C-635.92118303 932.62364101 -638.87032431 934.98152191 -641.83520508 937.32324219 C-647.65381985 941.96451183 -653.26742445 946.8417549 -658.90014648 951.70507812 C-660.65625749 953.21437666 -662.42146423 954.71214429 -664.19067383 956.20605469 C-672.23077567 963.0091304 -679.96944901 970.08245205 -687.62255859 977.31665039 C-689.09918873 978.69174169 -690.59084365 980.05078119 -692.09277344 981.39819336 C-702.28512457 990.57212484 -711.91325104 1000.31353675 -721.59576416 1010.01934814 C-723.50426649 1011.93046273 -725.4164789 1013.83784387 -727.32867146 1015.74526501 C-729.64188893 1018.05396972 -731.95126094 1020.36651341 -734.26098633 1022.67871094 C-735.10591141 1023.52161179 -735.95083649 1024.36451263 -736.82136536 1025.23295593 C-741.11261703 1029.54108203 -745.26288952 1033.91242884 -749.21894836 1038.53137207 C-751.59455267 1041.2862962 -754.09677944 1043.92065249 -756.58520508 1046.57324219 C-761.10007646 1051.42077346 -765.35051569 1056.41383663 -769.49926758 1061.58105469 C-771.81955458 1064.39327533 -774.24091642 1067.07871481 -776.71020508 1069.76074219 C-781.60394025 1075.09047835 -786.17141791 1080.62835748 -790.71020508 1086.26074219 C-791.75480143 1087.53758342 -792.80043963 1088.81357276 -793.84692383 1090.08886719 C-800.33533107 1098.00742278 -806.62332294 1106.02737861 -812.71020508 1114.26074219 C-813.62947413 1115.48307803 -814.55012419 1116.7043761 -815.47192383 1117.92480469 C-827.152028 1133.39027398 -838.42694324 1149.08517673 -849.14013672 1165.23754883 C-850.77174363 1167.69679304 -852.4095017 1170.15185251 -854.0480957 1172.60644531 C-863.73242911 1187.14524437 -873.247362 1201.81338052 -882.08520508 1216.88574219 C-882.61645996 1217.78921387 -883.14771484 1218.69268555 -883.69506836 1219.62353516 C-890.20181262 1230.74183699 -896.49957795 1241.97481819 -902.71020508 1253.26074219 C-903.30559082 1254.34033203 -903.90097656 1255.41992188 -904.5144043 1256.53222656 C-945.71476068 1331.51443926 -976.85186413 1412.03067559 -1031.52593994 1686.84075928 C-1031.70117147 1689.14210234 -1031.88285833 1691.4428626 -1032.06518555 1693.74365234 C-1035.51981381 1738.35072713 -1035.42466633 1784.38449588 -1031.89056396 1828.98138428 C-1031.70059102 1831.38224376 -1031.51812371 1833.78361501 -1031.33569336 1836.18505859 C-1026.68784369 1896.34675571 -1016.53236421 1955.79197455 -1001.71020508 2014.26074219 C-1001.5320929 2014.96656433 -1001.35398071 2015.67238647 -1001.17047119 2016.39959717 C-995.62101422 2038.36807623 -989.11894901 2060.03937345 -982.33276367 2081.65234375 C-982.1053801 2082.37708893 -981.87799652 2083.10183411 -981.64372253 2083.84854126 C-981.20732078 2085.23788618 -980.76981233 2086.62688415 -980.33100891 2088.01547241 C-979.36710077 2091.08143203 -978.48598494 2094.1430693 -977.71020508 2097.26074219 C-957.72004174 2160.57727799 -929.72605908 2223.37391179 -896.21362305 2280.6640625 C-894.63163114 2283.39645385 -893.09050289 2286.14882495 -891.55786133 2288.90917969 C-883.73160508 2302.9909672 -875.38653794 2316.68761048 -866.71020508 2330.26074219 C-865.87489258 2331.56954346 -865.87489258 2331.56954346 -865.02270508 2332.90478516 C-848.91892678 2358.07177762 -831.76353755 2382.45911662 -813.71020508 2406.26074219 C-813.07501953 2407.10064697 -813.07501953 2407.10064697 -812.42700195 2407.95751953 C-805.87483673 2416.60980427 -799.07306855 2425.04373802 -792.19848633 2433.44042969 C-790.89611129 2435.03336083 -789.59954476 2436.63103739 -788.30395508 2438.22949219 C-780.04651476 2448.40170128 -771.5186662 2458.33965623 -762.71411133 2468.04199219 C-760.89708526 2470.05382612 -759.11076116 2472.08734652 -757.33520508 2474.13574219 C-753.06552064 2479.02930746 -748.67405087 2483.80996296 -744.2644043 2488.57714844 C-743.24005049 2489.6867846 -742.21817588 2490.79871531 -741.19897461 2491.91308594 C-732.14874016 2501.8058004 -722.74260688 2511.3348011 -713.27270508 2520.82324219 C-712.35776779 2521.74206177 -712.35776779 2521.74206177 -711.42434692 2522.67944336 C-702.62374147 2531.53531679 -702.62374147 2531.53531679 -693.32519531 2539.86010742 C-691.53188082 2541.41539771 -689.87190973 2543.06628609 -688.21020508 2544.76074219 C-685.22148171 2547.79669143 -682.09314029 2550.60582878 -678.86645508 2553.38574219 C-676.5105755 2555.43433312 -674.20513048 2557.5327722 -671.89770508 2559.63574219 C-667.62710357 2563.49096604 -663.22246839 2567.13656734 -658.74926758 2570.75292969 C-655.23961897 2573.64906646 -651.82015915 2576.63770045 -648.39770508 2579.63574219 C-641.96776763 2585.24713221 -635.36838104 2590.57833409 -628.61157227 2595.7890625 C-626.56668017 2597.37183209 -624.53236188 2598.96753743 -622.49926758 2600.56542969 C-612.46658967 2608.43710396 -602.29166119 2616.09054598 -591.98364258 2623.59765625 C-589.89341003 2625.12672241 -587.81578002 2626.67114262 -585.74145508 2628.22167969 C-565.01238112 2643.59794881 -543.08997247 2657.84427402 -520.87573242 2670.97998047 C-518.37401411 2672.45957621 -515.88024418 2673.95219975 -513.38598633 2675.44433594 C-502.78683504 2681.76654003 -492.12580669 2687.95690283 -481.28588867 2693.85742188 C-479.45606738 2694.85437096 -477.62849627 2695.85545498 -475.80249023 2696.859375 C-405.00300579 2735.73789582 -329.67636835 2765.28623509 -251.71020508 2786.26074219 C-250.95255859 2786.46594482 -250.19491211 2786.67114746 -249.41430664 2786.88256836 C-195.09214084 2801.58241792 -139.17762929 2811.18147088 -83.12329102 2816.04785156 C-80.71121843 2816.26065279 -78.3005967 2816.4861301 -75.88989258 2816.71386719 C-16.44513041 2822.22881588 44.84869013 2821.19708719 104.28979492 2816.26074219 C106.11707885 2816.11440522 107.94438998 2815.96840748 109.77172852 2815.82275391 C198.49654638 2808.6511863 286.16054951 2791.05774634 426.28979492 2742.26074219 C426.93678345 2741.99279846 427.58377197 2741.72485474 428.25036621 2741.4487915 C510.61572814 2707.30769607 589.15698036 2663.37543808 666.51635742 2600.71386719 C668.13305422 2599.3891729 669.7578778 2598.07441259 671.38354492 2596.76074219 C676.65774223 2592.49397583 681.74462325 2588.08406847 686.75463867 2583.51074219 C689.38995524 2581.17184798 692.10256784 2578.96358335 694.85229492 2576.76074219 C699.16177279 2573.27674177 703.09857212 2569.60105943 706.92651367 2565.59667969 C708.77923463 2563.76539517 710.6360906 2562.10198844 712.61791992 2560.42089844 C718.81533379 2555.04399536 724.53682531 2549.16235691 730.32617188 2543.35473633 C732.3474376 2541.32811239 734.37399066 2539.30688671 736.40112305 2537.28613281 C744.88547041 2528.8206837 744.88547041 2528.8206837 752.89013672 2519.90551758 C755.22099575 2517.16646346 757.70482788 2514.5708551 760.16479492 2511.94824219 C764.628062 2507.15078591 768.85953921 2502.22911846 772.96166992 2497.11621094 C775.10399527 2494.48862733 777.30133243 2491.92658701 779.52856445 2489.37158203 C786.30397024 2481.58916925 792.5794493 2473.48423463 798.78637695 2465.24462891 C800.14756392 2463.44842798 801.52336051 2461.66553512 802.91088867 2459.88964844 C821.80694948 2435.67245691 838.69823934 2409.70608784 854.28979492 2383.26074219 C854.79671875 2382.40383789 855.30364258 2381.54693359 855.82592773 2380.6640625 C863.95488671 2366.86226276 871.38741691 2352.72108286 878.65844727 2338.45166016 C880.11092232 2335.6106172 881.58144857 2332.78002594 883.05932617 2329.95214844 C916.8091002 2264.75500808 936.98441752 2193.68583675 952.28979492 2122.26074219 C640.10979492 2122.26074219 327.92979492 2122.26074219 6.28979492 2122.26074219 C6.28979492 1897.20074219 6.28979492 1672.14074219 6.28979492 1440.26074219 C553.42979492 1440.26074219 1100.56979492 1440.26074219 1664.28979492 1440.26074219 C1666.20812193 1448.57349257 1667.97983848 1456.70400655 1669.30541992 1465.10058594 C1669.57019386 1466.74914833 1669.57019386 1466.74914833 1669.84031677 1468.43101501 C1670.41339716 1472.01908315 1670.97781789 1475.608419 1671.53979492 1479.19824219 C1671.73610504 1480.44792786 1671.93241516 1481.69761353 1672.13467407 1482.98516846 C1683.40006933 1554.95406547 1690.8999489 1627.43687881 1694.47729492 1700.19824219 C1694.53282532 1701.32604095 1694.53282532 1701.32604095 1694.58947754 1702.47662354 C1694.81337481 1707.13045132 1695.00696102 1711.78496756 1695.18264771 1716.44085693 C1695.25846171 1718.43611914 1695.33726822 1720.43126868 1695.41818237 1722.42633057 C1696.44624277 1748.20043912 1696.49127422 1773.96933184 1696.47729492 1799.76074219 C1696.47702805 1800.86533657 1696.47676117 1801.96993095 1696.47648621 1803.10799789 C1696.46595785 1837.8673125 1696.18653706 1872.54493819 1694.28979492 1907.26074219 C1694.22663086 1908.45213806 1694.1634668 1909.64353394 1694.09838867 1910.87103271 C1688.69507276 2012.70135501 1676.34227933 2113.81675439 1616.28979492 2372.26074219 C1616.00317993 2373.21579651 1615.71656494 2374.17085083 1615.42126465 2375.15484619 C1589.27615713 2462.07663148 1556.2773786 2546.40309748 1516.79858398 2628.12548828 C1515.26214106 2631.31820674 1513.73906609 2634.51699958 1512.21948242 2637.71777344 C1506.64536344 2649.44405502 1500.91783321 2661.04534297 1494.77416992 2672.48339844 C1493.36542369 2675.11923678 1491.96968457 2677.76166553 1490.57804871 2680.40657043 C1482.32964671 2696.08055935 1473.77761964 2711.50637237 1464.75756836 2726.75390625 C1462.7737532 2730.14209888 1460.87330426 2733.5729634 1458.97729492 2737.01074219 C1454.86534153 2744.40909828 1450.48868719 2751.64807762 1446.10229492 2758.88574219 C1445.44382568 2759.97467773 1444.78535645 2761.06361328 1444.10693359 2762.18554688 C1433.267434 2779.9950502 1421.91774856 2797.48710807 1410.44775391 2814.89526367 C1408.58829088 2817.71951225 1406.73490811 2820.54769174 1404.8815918 2823.37597656 C1398.67722571 2832.81553471 1392.35450662 2842.11197706 1385.59765625 2851.1652832 C1382.81564979 2854.89669755 1380.13757758 2858.69230623 1377.47729492 2862.51074219 C1367.60043702 2876.57279227 1357.3341285 2890.31798865 1346.73510742 2903.84277344 C1343.8691159 2907.50415448 1341.05075772 2911.19925728 1338.24414062 2914.90625 C1332.96451213 2921.87457453 1327.5349213 2928.65445332 1321.83666992 2935.28417969 C1319.44591375 2938.07828429 1317.10890977 2940.90707959 1314.78979492 2943.76074219 C1311.04229008 2948.36481956 1307.2225473 2952.90167012 1303.37573242 2957.42260742 C1300.46412931 2960.85116241 1297.6121979 2964.3204385 1294.78979492 2967.82324219 C1290.66289286 2972.89681712 1286.28876935 2977.6981536 1281.84448242 2982.49121094 C1279.7886577 2984.71992612 1277.77362535 2986.96842138 1275.78979492 2989.26074219 C1272.42183516 2993.14437043 1268.9475646 2996.92755062 1265.46630859 3000.70922852 C1262.65298133 3003.76706835 1259.86651322 3006.84576391 1257.10229492 3009.94824219 C1243.28174961 3025.29093022 1228.77204052 3039.9389296 1214.15991211 3054.52099609 C1211.32826591 3057.34688315 1208.5012216 3060.17732528 1205.67542267 3063.009058 C1203.46374918 3065.22436266 1201.24967819 3067.43725887 1199.03489685 3069.64945602 C1197.99131758 3070.69237634 1196.94845789 3071.7360173 1195.90638733 3072.7804451 C1190.74537145 3077.95059922 1185.56577779 3083.04856361 1179.98937988 3087.77523804 C1178.17212403 3089.36359118 1176.47929029 3091.03780299 1174.78979492 3092.76074219 C1171.86512377 3095.73131625 1168.80359932 3098.46803338 1165.64526367 3101.18652344 C1163.27349776 3103.27509342 1160.96091125 3105.41607026 1158.65136719 3107.57275391 C1153.26939362 3112.59760366 1147.78129393 3117.37206446 1142.03588867 3121.98339844 C1139.02659033 3124.47901854 1136.15062686 3127.09861738 1133.28979492 3129.76074219 C1128.71051917 3134.01607495 1123.99693193 3138.03397141 1119.12573242 3141.95605469 C1116.03391586 3144.46868798 1113.00548581 3147.04728859 1109.97729492 3149.63574219 C1104.98961406 3153.88406923 1099.89857347 3157.97442952 1094.72753906 3161.99682617 C1090.91782422 3164.96517012 1087.15878092 3167.98730884 1083.42456055 3171.05004883 C1074.89553249 3178.04463926 1066.16419514 3184.71208888 1057.28979492 3191.26074219 C1055.75717401 3192.39606595 1054.22462409 3193.53148554 1052.69213867 3194.66699219 C975.58052569 3251.71943327 893.88705118 3302.94486914 793.46508789 3351.76660156 C790.61651012 3353.10700568 787.77328736 3354.45817305 784.93186951 3355.81367493 C726.31067449 3383.76157824 665.78690721 3407.45191523 604.28979492 3428.26074219 C603.55212891 3428.51063904 602.81446289 3428.76053589 602.05444336 3429.01800537 C499.87778804 3463.56347384 393.82851609 3487.09765648 42.97729492 3520.46386719 C41.73188934 3520.46669456 40.48648376 3520.46952194 39.20333862 3520.472435 C33.2573996 3520.48577325 27.31147322 3520.49571753 21.36552143 3520.49963689 C15.37763653 3520.50361565 9.38994344 3520.51614003 3.40209961 3520.54199219 C-45.24208155 3520.74739279 -93.73870982 3519.24929763 -142.21020508 3514.94824219 C-144.0180397 3514.79242172 -144.0180397 3514.79242172 -145.86239624 3514.63345337 C-238.24310127 3506.65683758 -329.67690846 3491.40092721 -419.71020508 3469.26074219 C-420.63927673 3469.03233643 -421.56834839 3468.80393066 -422.52557373 3468.56860352 C-510.32013449 3446.90837605 -596.63034319 3417.9637459 -679.71020508 3382.26074219 C-680.96605323 3381.72452724 -682.22207755 3381.18872469 -683.47827148 3380.65332031 C-709.18105025 3369.69468502 -734.46370401 3357.89452068 -759.62475586 3345.74462891 C-762.7512909 3344.24098276 -765.88401853 3342.75102089 -769.01879883 3341.26464844 C-783.092534 3334.58109183 -796.95480681 3327.57572646 -810.71020508 3320.26074219 C-811.81799316 3319.67389648 -812.92578125 3319.08705078 -814.06713867 3318.48242188 C-830.09004138 3309.98905349 -845.97971916 3301.28651557 -861.71020508 3292.26074219 C-862.79140625 3291.64134766 -863.87260742 3291.02195312 -864.98657227 3290.38378906 C-877.63422894 3283.13270785 -890.27929965 3275.87918248 -902.71020508 3268.26074219 C-903.85005859 3267.56247314 -903.85005859 3267.56247314 -905.01293945 3266.85009766 C-911.26255643 3263.01443806 -917.49043205 3259.14457214 -923.71020508 3255.26074219 C-924.52183105 3254.75542969 -925.33345703 3254.25011719 -926.16967773 3253.72949219 C-960.15904464 3232.51979584 -993.36976411 3209.90158304 -1025.71020508 3186.26074219 C-1026.83773193 3185.43823975 -1026.83773193 3185.43823975 -1027.98803711 3184.59912109 C-1039.91234129 3175.89244645 -1051.69125279 3167.00316046 -1063.40991211 3158.02197266 C-1065.39109684 3156.50506896 -1067.37567582 3154.99283639 -1069.36254883 3153.48339844 C-1076.6960136 3147.89038513 -1083.8649435 3142.11459779 -1091.00708008 3136.28027344 C-1093.87128119 3133.94069609 -1096.75164239 3131.62334639 -1099.64770508 3129.32324219 C-1111.29168653 3120.02762674 -1122.72041441 3110.47594244 -1133.99536133 3100.73730469 C-1135.75971085 3099.21811535 -1137.53080283 3097.70714497 -1139.30395508 3096.19824219 C-1145.72240868 3090.73208656 -1152.04616048 3085.19279695 -1158.26098633 3079.49511719 C-1160.40945207 3077.53511335 -1162.57904315 3075.60729728 -1164.77270508 3073.69824219 C-1173.31439007 3066.26317226 -1181.6449954 3058.59585015 -1189.9465332 3050.89501953 C-1191.75577653 3049.21851415 -1193.56891284 3047.54628332 -1195.38208008 3045.87402344 C-1202.33672869 3039.44070195 -1209.16674924 3032.91587202 -1215.79199219 3026.14208984 C-1218.53661677 3023.35354123 -1221.32682925 3020.69903163 -1224.30395508 3018.15917969 C-1229.81075749 3013.39883882 -1234.90278481 3008.21744095 -1240.03759766 3003.0637207 C-1241.76915208 3001.32680619 -1243.50598867 2999.5953033 -1245.2434082 2997.86425781 C-1250.39193544 2992.71849766 -1255.44265162 2987.56201201 -1260.16894531 2982.02026367 C-1262.86090568 2978.94708795 -1265.79036898 2976.11540337 -1268.71020508 2973.26074219 C-1272.97904759 2969.08718634 -1277.02749357 2964.81567193 -1280.92895508 2960.29589844 C-1283.93135373 2956.86552629 -1287.07555462 2953.56989896 -1290.21020508 2950.26074219 C-1294.60887504 2945.61719782 -1298.91859674 2940.92183323 -1303.11157227 2936.09130859 C-1305.22618872 2933.66989836 -1307.40385279 2931.30953768 -1309.58520508 2928.94824219 C-1313.70927184 2924.43170381 -1317.58957373 2919.76941203 -1321.42895508 2915.01074219 C-1323.77739476 2912.1797464 -1326.2193041 2909.46690621 -1328.71020508 2906.76074219 C-1332.76559451 2902.34917834 -1336.59494247 2897.80886336 -1340.35864258 2893.14746094 C-1342.95468527 2889.96062448 -1345.60774905 2886.82738394 -1348.27270508 2883.69824219 C-1352.09382091 2879.20200368 -1355.83655268 2874.65725409 -1359.49926758 2870.03027344 C-1361.20851428 2867.88918526 -1362.93225605 2865.76429472 -1364.67114258 2863.64746094 C-1370.65989521 2856.34977037 -1376.4985573 2848.97810163 -1382.1237793 2841.39624023 C-1385.87006533 2836.35372702 -1389.71007677 2831.39222339 -1393.58520508 2826.44824219 C-1400.82139612 2817.19302018 -1407.7950967 2807.75730497 -1414.71020508 2798.26074219 C-1415.51192139 2797.16342773 -1415.51192139 2797.16342773 -1416.32983398 2796.04394531 C-1440.68953813 2762.68516252 -1463.88443962 2728.33015768 -1485.71020508 2693.26074219 C-1486.79608132 2691.52763089 -1487.88202048 2689.79455901 -1488.96801758 2688.06152344 C-1496.76110453 2675.58568268 -1504.29962696 2662.96700742 -1511.71020508 2650.26074219 C-1512.3005957 2649.24882812 -1512.89098633 2648.23691406 -1513.49926758 2647.19433594 C-1526.98736589 2624.03498416 -1540.07177221 2600.68471905 -1552.35766602 2576.86425781 C-1553.62779019 2574.4193834 -1554.91717886 2571.98626144 -1556.21801758 2569.55761719 C-1567.09635329 2549.23264979 -1576.75595022 2528.29930597 -1586.41333008 2507.37402344 C-1588.58580653 2502.67150101 -1590.78411367 2497.9825697 -1593.00708008 2493.30371094 C-1614.63726758 2447.67208698 -1633.56706296 2400.74944626 -1650.71020508 2353.26074219 C-1650.97041443 2352.54092163 -1651.23062378 2351.82110107 -1651.49871826 2351.07946777 C-1680.10389218 2271.86072595 -1702.9349611 2190.80185714 -1719.71020508 2108.26074219 C-1719.89780396 2107.34252686 -1720.08540283 2106.42431152 -1720.27868652 2105.47827148 C-1741.20709674 2002.89117184 -1753.84551324 1897.34435259 -1753.87817383 1792.55371094 C-1753.88140512 1790.04926029 -1753.88477042 1787.5448098 -1753.88825989 1785.0403595 C-1753.89419513 1779.81913823 -1753.8961059 1774.59793337 -1753.89550781 1769.37670898 C-1753.89542704 1764.12504598 -1753.90230161 1758.8734711 -1753.91601562 1753.62182617 C-1753.99867667 1721.44197919 -1753.62670743 1689.38770674 -1751.71020508 1657.26074219 C-1751.63450287 1655.95769135 -1751.55880066 1654.6546405 -1751.48080444 1653.31210327 C-1751.04106639 1645.87280787 -1750.5278309 1638.44129813 -1749.96020508 1631.01074219 C-1749.83714996 1629.37070724 -1749.83714996 1629.37070724 -1749.71160889 1627.69754028 C-1741.73104628 1522.21438373 -1724.02029949 1417.62791165 -1643.62121582 1147.65454102 C-1642.69546345 1145.22200666 -1641.77516304 1142.78746182 -1640.85571289 1140.35253906 C-1622.59073298 1092.07273283 -1601.78313746 1044.76059721 -1579.20385742 998.34960938 C-1577.76892422 995.38217314 -1576.35424156 992.40615828 -1574.94848633 989.42480469 C-1568.21052002 975.14311235 -1561.05307098 961.10464075 -1553.69573975 947.13287354 C-1552.67481904 945.19352253 -1551.65557158 943.25329817 -1550.63647461 941.31298828 C-1542.11788348 925.10505696 -1533.47629195 908.98593751 -1524.34790039 893.11083984 C-1522.61538039 890.09571783 -1520.89311364 887.07486852 -1519.17114258 884.05371094 C-1506.2484772 861.4471907 -1492.75399986 839.18868206 -1478.71020508 817.26074219 C-1478.30801758 816.6292627 -1477.90583008 815.9977832 -1477.49145508 815.34716797 C-1458.17660185 785.03269643 -1437.92154835 755.27765403 -1416.71020508 726.26074219 C-1415.88770264 725.13321533 -1415.88770264 725.13321533 -1415.04858398 723.98291016 C-1405.77228101 711.27846639 -1396.28003763 698.74508375 -1386.71020508 686.26074219 C-1385.76095034 685.0198843 -1384.8117275 683.77900201 -1383.86254883 682.53808594 C-1381.48820531 679.43804469 -1379.10201557 676.34733569 -1376.71020508 673.26074219 C-1376.29528809 672.72497559 -1375.88037109 672.18920898 -1375.45288086 671.63720703 C-1368.23543069 662.33441478 -1360.78915671 653.23173913 -1353.28051758 644.16308594 C-1351.20146488 641.64443255 -1349.14352379 639.1088522 -1347.08520508 636.57324219 C-1343.18688812 631.79816622 -1339.1792262 627.12313409 -1335.15332031 622.45581055 C-1332.08956607 618.89631266 -1329.0941233 615.29372831 -1326.14770508 611.63574219 C-1322.04485389 606.57977856 -1317.68949632 601.80216391 -1313.26489258 597.03027344 C-1311.20906786 594.80155826 -1309.19403551 592.553063 -1307.21020508 590.26074219 C-1303.41723283 585.88423575 -1299.48363661 581.63904455 -1295.55395508 577.38574219 C-1293.44288919 575.08565356 -1291.38290325 572.74628645 -1289.33520508 570.38964844 C-1285.7167432 566.23946602 -1281.98286661 562.20815357 -1278.21020508 558.19824219 C-1277.58500977 557.52986328 -1276.95981445 556.86148438 -1276.31567383 556.17285156 C-1273.32027034 552.98209568 -1270.29751089 549.83534695 -1267.17895508 546.76464844 C-1264.90458303 544.51083798 -1262.77192409 542.20081647 -1260.70214844 539.75878906 C-1255.84945598 534.18466198 -1250.59890747 529.00513915 -1245.37036133 523.78808594 C-1244.27837317 522.6954223 -1243.18653333 521.60261041 -1242.09483337 520.50965881 C-1239.81793386 518.23129381 -1237.53925855 515.95472436 -1235.25927734 513.67944336 C-1232.35678067 510.78264324 -1229.45879801 507.88137539 -1226.56214237 504.97873592 C-1224.31185078 502.72480754 -1222.05915416 500.47329492 -1219.80575371 498.22247505 C-1218.7370538 497.15443581 -1217.66907833 496.0856711 -1216.60188484 495.01612663 C-1211.31855269 489.72370811 -1206.01960621 484.49754896 -1200.31932068 479.64967346 C-1197.99134897 477.6402512 -1195.85456043 475.46305309 -1193.71020508 473.26074219 C-1190.24191646 469.75561287 -1186.70717881 466.43567524 -1182.96411133 463.22949219 C-1180.03499192 460.67095461 -1177.18668222 458.03019089 -1174.33520508 455.38574219 C-1162.92244831 444.81283546 -1151.25352164 434.5605151 -1139.43286133 424.44824219 C-1136.97856803 422.34842218 -1134.52816128 420.24421582 -1132.08129883 418.13574219 C-1126.02830616 412.92346593 -1119.94376774 407.7643107 -1113.74145508 402.72949219 C-1111.39974278 400.82232444 -1109.0676082 398.90549421 -1106.74145508 396.97949219 C-1098.4382825 390.10653115 -1090.08143528 383.32162109 -1081.57055664 376.70751953 C-1079.57016535 375.15183465 -1077.57364934 373.59125964 -1075.57739258 372.03027344 C-1058.90579757 359.00844122 -1042.13130127 346.14936943 -1024.9206543 333.84619141 C-1022.6580436 332.22332926 -1020.40375359 330.58950245 -1018.15161133 328.95214844 C-1017.00438599 328.11913208 -1017.00438599 328.11913208 -1015.83398438 327.26928711 C-1014.42173908 326.24341226 -1013.01031745 325.21640157 -1011.60009766 324.18774414 C-998.01347109 314.34010473 -984.02029559 305.04116004 -970.12036133 295.64501953 C-968.26604616 294.390496 -966.41285158 293.13431449 -964.56079102 291.87646484 C-953.05632155 284.06391007 -941.44973805 276.52462293 -929.53009033 269.36126709 C-925.75758823 267.07995155 -922.04890392 264.69849239 -918.33520508 262.32324219 C-892.69010598 246.04545093 -866.2776295 230.97159413 -839.71020508 216.26074219 C-838.7959375 215.75333496 -837.88166992 215.24592773 -836.93969727 214.72314453 C-824.39866085 207.77497996 -811.71975666 201.11064923 -798.97045898 194.55493164 C-792.89335515 191.42953967 -786.83812911 188.27654701 -780.83520508 185.01074219 C-772.08971481 180.32243813 -763.11598844 176.11729845 -754.14282227 171.88574219 C-751.14435764 170.46626989 -748.15174208 169.03557981 -745.16123962 167.59947205 C-665.20553363 129.23170776 -581.69752301 97.5264813 -496.71020508 72.26074219 C-495.80709595 71.99215393 -494.90398682 71.72356567 -493.97351074 71.44683838 C-391.14308854 40.95580701 -285.20929631 19.6437785 -127.60473633 4.35449219 C-126.85189865 4.29386597 -126.09906097 4.23323975 -125.32341003 4.17077637 C-83.57529941 0.91668924 -41.86478303 -0.07475525 0 0 Z " fill="#34A853" transform="translate(1913.710205078125,159.7392578125)"/>
<path d="M0 0 C6.43386002 0.01138736 12.86755439 0.0046088 19.30140877 -0.00687695 C50.682386 -0.05440186 81.95712007 0.47920298 113.28979492 2.26074219 C113.99939739 2.30068047 114.70899986 2.34061874 115.44010544 2.38176727 C123.97958042 2.86536665 132.51038723 3.43783282 141.03979492 4.07324219 C142.187836 4.1572226 143.33587708 4.241203 144.51870728 4.32772827 C252.03898111 12.23208447 358.70260176 29.63997013 746.28979492 160.26074219 C747.2438623 160.70885254 748.19792969 161.15696289 749.1809082 161.61865234 C776.6306488 174.55462936 804.04669441 187.87468161 830.52026367 202.71777344 C833.70365549 204.49131331 836.90207972 206.23658746 840.10229492 207.97949219 C855.68200476 216.47804021 871.02891178 225.29416794 886.2434082 234.43261719 C889.0762378 236.13258738 891.91421244 237.82350499 894.75463867 239.51074219 C905.22585886 245.74130309 915.56811011 252.15453587 925.84155273 258.70556641 C928.31546963 260.27705131 930.79766594 261.8346646 933.28198242 263.38964844 C969.33910132 286.0318223 1004.44865092 310.51094312 1038.23901367 336.40136719 C1042.71038509 339.82567205 1047.21221544 343.20690098 1051.72729492 346.57324219 C1059.01174062 352.01462434 1066.17272157 357.60276035 1073.28979492 363.26074219 C1074.12510742 363.92332031 1074.96041992 364.58589844 1075.82104492 365.26855469 C1083.06415813 371.03890154 1090.24065635 376.89229906 1097.42114258 382.74023438 C1099.03570292 384.05398951 1100.65275256 385.36468429 1102.27026367 386.67480469 C1107.96004406 391.29722598 1113.54393977 396.02973942 1119.09448242 400.81738281 C1122.65403457 403.88125171 1126.25671884 406.87675151 1129.91479492 409.82324219 C1134.96787636 413.92375452 1139.7428884 418.27658975 1144.51245117 422.69824219 C1147.39941613 425.36188356 1150.33902826 427.95222566 1153.30541992 430.52636719 C1157.34353468 434.05574308 1161.30923971 437.66676594 1165.28979492 441.26074219 C1171.60153243 446.95197094 1177.93014147 452.62307837 1184.28979492 458.26074219 C1182.89276314 461.41361086 1181.25590725 463.54423928 1178.82255924 465.97637486 C1177.73645421 467.06922178 1177.73645421 467.06922178 1176.62840766 468.1841464 C1175.82828027 468.97901976 1175.02815289 469.77389312 1174.20377922 470.59285355 C1173.35390794 471.44503251 1172.50403666 472.29721148 1171.62841171 473.17521405 C1169.25779651 475.55022612 1166.88275323 477.92064959 1164.50578055 480.28928894 C1161.92499732 482.86321553 1159.35001063 485.44292982 1156.77429688 488.0219276 C1152.25579105 492.54458589 1147.73357162 497.06350429 1143.20892715 501.5800209 C1136.48092692 508.29596875 1129.75865076 515.01762404 1123.03755313 521.74047891 C1111.73234763 533.04831455 1100.42248587 544.35148227 1089.10998154 555.65201569 C1077.90591642 566.84425497 1066.70391445 578.03855254 1055.504673 589.23561859 C1054.8088644 589.93128972 1054.1130558 590.62696084 1053.39616208 591.34371291 C1049.86264809 594.87655025 1046.32917103 598.40942454 1042.79570819 601.94231305 C1017.75492878 626.97888937 992.70951358 652.01082354 967.66137695 677.04003906 C943.32439629 701.35865701 918.98951273 725.67937033 894.6574707 750.00292969 C893.90771769 750.75241965 893.15796467 751.50190961 892.38549187 752.27411139 C884.85630548 759.80066079 877.32716176 767.32725288 869.7980493 774.85387624 C854.45978057 790.18707227 839.12122699 805.51998334 823.78250122 820.85272217 C822.72457993 821.91023159 822.72457993 821.91023159 821.64528649 822.98910483 C774.53155987 870.08442383 727.41119326 917.17309931 680.28979492 964.26074219 C679.00869029 963.31404263 677.7295227 962.36472144 676.45117188 961.41430664 C675.73862747 960.88593704 675.02608307 960.35756744 674.29194641 959.81318665 C671.79789332 957.87932753 669.64584267 955.73831976 667.47729492 953.44824219 C663.24865312 949.12261319 658.79714457 945.31443361 654.07495117 941.54199219 C651.22012259 939.20367537 648.50291149 936.76159501 645.78979492 934.26074219 C640.45992809 929.36688703 634.92069103 924.80155457 629.28979492 920.26074219 C628.10652943 919.28666353 626.92429439 918.31133219 625.74291992 917.33496094 C615.94630424 909.26318093 605.87428327 901.60770314 595.68237305 894.04345703 C593.45438883 892.38338145 591.23688431 890.71062498 589.02416992 889.03027344 C579.96371292 882.15504361 570.72492775 875.61091393 561.28979492 869.26074219 C560.48380859 868.71659668 559.67782227 868.17245117 558.84741211 867.61181641 C483.91149996 817.07928182 402.94880239 776.99649471 -181.67080688 719.87661743 C-221.94592645 727.72086152 -261.67233313 737.59801949 -300.71020508 750.26074219 C-301.55689758 750.5353125 -302.40359009 750.80988281 -303.27593994 751.09277344 C-363.10205984 770.55426567 -422.19639398 794.77546068 -477.05102539 825.76269531 C-479.98906066 827.41783527 -482.93870442 829.05105122 -485.88989258 830.68261719 C-510.80479649 844.48909787 -535.15176927 859.23743187 -558.71020508 875.26074219 C-559.3855127 875.71739258 -560.06082031 876.17404297 -560.7565918 876.64453125 C-576.71004724 887.4362708 -592.37968005 898.59942123 -607.71020508 910.26074219 C-609.22420898 911.40736328 -609.22420898 911.40736328 -610.76879883 912.57714844 C-618.30341247 918.31000664 -625.66475727 924.24263539 -632.99536133 930.23339844 C-635.92118303 932.62364101 -638.87032431 934.98152191 -641.83520508 937.32324219 C-647.65381985 941.96451183 -653.26742445 946.8417549 -658.90014648 951.70507812 C-660.65625749 953.21437666 -662.42146423 954.71214429 -664.19067383 956.20605469 C-672.23077567 963.0091304 -679.96944901 970.08245205 -687.62255859 977.31665039 C-689.09918873 978.69174169 -690.59084365 980.05078119 -692.09277344 981.39819336 C-702.28512457 990.57212484 -711.91325104 1000.31353675 -721.59576416 1010.01934814 C-723.50426649 1011.93046273 -725.4164789 1013.83784387 -727.32867146 1015.74526501 C-729.64188893 1018.05396972 -731.95126094 1020.36651341 -734.26098633 1022.67871094 C-735.10591141 1023.52161179 -735.95083649 1024.36451263 -736.82136536 1025.23295593 C-741.11261703 1029.54108203 -745.26288952 1033.91242884 -749.21894836 1038.53137207 C-751.59455267 1041.2862962 -754.09677944 1043.92065249 -756.58520508 1046.57324219 C-761.10007646 1051.42077346 -765.35051569 1056.41383663 -769.49926758 1061.58105469 C-771.81955458 1064.39327533 -774.24091642 1067.07871481 -776.71020508 1069.76074219 C-781.60394025 1075.09047835 -786.17141791 1080.62835748 -790.71020508 1086.26074219 C-791.75480143 1087.53758342 -792.80043963 1088.81357276 -793.84692383 1090.08886719 C-800.33533107 1098.00742278 -806.62332294 1106.02737861 -812.71020508 1114.26074219 C-813.62947413 1115.48307803 -814.55012419 1116.7043761 -815.47192383 1117.92480469 C-827.152028 1133.39027398 -838.42694324 1149.08517673 -849.14013672 1165.23754883 C-850.77174363 1167.69679304 -852.4095017 1170.15185251 -854.0480957 1172.60644531 C-863.73242911 1187.14524437 -873.247362 1201.81338052 -882.08520508 1216.88574219 C-882.61645996 1217.78921387 -883.14771484 1218.69268555 -883.69506836 1219.62353516 C-890.20181262 1230.74183699 -896.49957795 1241.97481819 -902.71020508 1253.26074219 C-903.30559082 1254.34033203 -903.90097656 1255.41992188 -904.5144043 1256.53222656 C-945.71476068 1331.51443926 -976.85186413 1412.03067559 -1031.52593994 1686.84075928 C-1031.70117147 1689.14210234 -1031.88285833 1691.4428626 -1032.06518555 1693.74365234 C-1035.51981381 1738.35072713 -1035.42466633 1784.38449588 -1031.89056396 1828.98138428 C-1031.70059102 1831.38224376 -1031.51812371 1833.78361501 -1031.33569336 1836.18505859 C-1026.68784369 1896.34675571 -1016.53236421 1955.79197455 -1001.71020508 2014.26074219 C-1001.5320929 2014.96656433 -1001.35398071 2015.67238647 -1001.17047119 2016.39959717 C-996.6573832 2034.26543153 -991.51923704 2051.92458778 -986.10473633 2069.53417969 C-985.71882324 2070.79069336 -985.33291016 2072.04720703 -984.93530273 2073.34179688 C-984.07055083 2076.13266372 -983.17383975 2078.91152607 -982.26245117 2081.6875 C-982.02604416 2082.4167569 -981.78963715 2083.14601379 -981.54606628 2083.89736938 C-981.08988566 2085.30180315 -980.6265889 2086.70395118 -980.15522766 2088.10336304 C-978.59808121 2092.92437057 -978.59808121 2092.92437057 -979.71020508 2096.26074219 C-981.28442383 2097.47949219 -981.28442383 2097.47949219 -983.39770508 2098.76074219 C-987.51752462 2101.40131944 -991.38410517 2104.27859748 -995.21020508 2107.32324219 C-1000.4429684 2111.47888197 -1005.709528 2115.58328804 -1011.02270508 2119.63574219 C-1011.73491211 2120.1791626 -1012.44711914 2120.72258301 -1013.1809082 2121.2824707 C-1014.63270038 2122.38973943 -1016.08468679 2123.49675353 -1017.53686523 2124.60351562 C-1021.09762977 2127.31868859 -1024.65370823 2130.03998316 -1028.21020508 2132.76074219 C-1029.62684864 2133.84410574 -1031.04351532 2134.92743905 -1032.46020508 2136.01074219 C-1033.16145508 2136.54699219 -1033.86270508 2137.08324219 -1034.58520508 2137.63574219 C-1040.96020503 2142.51074215 -1040.96020503 2142.51074215 -1043.08618164 2144.13647461 C-1044.49961159 2145.21734236 -1045.91302311 2146.2982342 -1047.32641602 2147.37915039 C-1050.91745209 2150.12540723 -1054.50882988 2152.87121522 -1058.10083008 2155.61621094 C-1065.52160892 2161.28780619 -1072.93487324 2166.96873667 -1080.33520508 2172.66699219 C-1084.28697949 2175.70681866 -1088.24884304 2178.73342762 -1092.21020508 2181.76074219 C-1104.64461287 2191.26584412 -1117.03070599 2200.83042226 -1129.37963867 2210.44628906 C-1133.15537776 2213.38587558 -1136.93288252 2216.32319091 -1140.71020508 2219.26074219 C-1141.44940186 2219.83574463 -1142.18859863 2220.41074707 -1142.95019531 2221.00317383 C-1146.74956406 2223.95860578 -1150.54960826 2226.91316267 -1154.35083008 2229.86621094 C-1161.1494986 2235.14896012 -1167.94488989 2240.43531551 -1174.71020508 2245.76074219 C-1182.24703917 2251.69348238 -1189.82118379 2257.57796137 -1197.39575195 2263.46240234 C-1201.16836142 2266.39373581 -1204.93920863 2269.32733417 -1208.71020508 2272.26074219 C-1210.21019631 2273.42742013 -1211.71019632 2274.59408678 -1213.21020508 2275.76074219 C-1213.95270508 2276.33824219 -1214.69520508 2276.91574219 -1215.46020508 2277.51074219 C-1240.2102051 2296.76074221 -1240.2102051 2296.76074221 -1242.46118164 2298.51147461 C-1243.9579615 2299.67565478 -1245.45470642 2300.83987989 -1246.95141602 2302.00415039 C-1250.75039566 2304.95923392 -1254.55001973 2307.91348233 -1258.35083008 2310.86621094 C-1265.1494986 2316.14896012 -1271.94488989 2321.43531551 -1278.71020508 2326.76074219 C-1286.24703917 2332.69348238 -1293.82118379 2338.57796137 -1301.39575195 2344.46240234 C-1305.16836142 2347.39373581 -1308.93920863 2350.32733417 -1312.71020508 2353.26074219 C-1314.21019631 2354.42742013 -1315.71019632 2355.59408678 -1317.21020508 2356.76074219 C-1317.95270508 2357.33824219 -1318.69520508 2357.91574219 -1319.46020508 2358.51074219 C-1326.21020511 2363.76074222 -1326.21020511 2363.76074222 -1328.46118164 2365.51147461 C-1329.9579615 2366.67565478 -1331.45470642 2367.83987989 -1332.95141602 2369.00415039 C-1336.75039566 2371.95923392 -1340.55001973 2374.91348233 -1344.35083008 2377.86621094 C-1351.1494986 2383.14896012 -1357.94488989 2388.43531551 -1364.71020508 2393.76074219 C-1372.24703917 2399.69348238 -1379.82118379 2405.57796137 -1387.39575195 2411.46240234 C-1391.16836142 2414.39373581 -1394.93920863 2417.32733417 -1398.71020508 2420.26074219 C-1400.21019631 2421.42742013 -1401.71019632 2422.59408678 -1403.21020508 2423.76074219 C-1403.95270508 2424.33824219 -1404.69520508 2424.91574219 -1405.46020508 2425.51074219 C-1412.21020508 2430.76074219 -1412.21020508 2430.76074219 -1414.46118164 2432.51147461 C-1415.9579615 2433.67565478 -1417.45470642 2434.83987989 -1418.95141602 2436.00415039 C-1422.75039566 2438.95923392 -1426.55001973 2441.91348233 -1430.35083008 2444.86621094 C-1437.1494986 2450.14896012 -1443.94488989 2455.43531551 -1450.71020508 2460.76074219 C-1458.24703917 2466.69348238 -1465.82118379 2472.57796137 -1473.39575195 2478.46240234 C-1477.16836142 2481.39373581 -1480.93920863 2484.32733417 -1484.71020508 2487.26074219 C-1486.21019631 2488.42742013 -1487.71019632 2489.59408678 -1489.21020508 2490.76074219 C-1489.95270508 2491.33824219 -1490.69520508 2491.91574219 -1491.46020508 2492.51074219 C-1516.21020503 2511.76074215 -1516.21020503 2511.76074215 -1518.46118164 2513.51147461 C-1519.9579615 2514.67565478 -1521.45470642 2515.83987989 -1522.95141602 2517.00415039 C-1526.75039566 2519.95923392 -1530.55001973 2522.91348233 -1534.35083008 2525.86621094 C-1535.49720947 2526.75711426 -1535.49720947 2526.75711426 -1536.66674805 2527.66601562 C-1538.18111138 2528.84281489 -1539.69575436 2530.01925441 -1541.21069336 2531.1953125 C-1544.75781777 2533.9518364 -1548.29551032 2536.71882415 -1551.81176758 2539.51464844 C-1552.45082031 2540.02165283 -1553.08987305 2540.52865723 -1553.74829102 2541.05102539 C-1554.93372972 2541.99304267 -1556.11685214 2542.93798566 -1557.29711914 2543.88647461 C-1559.98503042 2546.0210651 -1562.55361103 2547.88830999 -1565.71020508 2549.26074219 C-1574.79887816 2532.70013115 -1582.73557524 2515.61531476 -1590.67706299 2498.48590088 C-1591.67781268 2496.33050821 -1592.68231221 2494.17690951 -1593.68823242 2492.02392578 C-1610.46406452 2456.0963656 -1625.88044585 2419.55619634 -1639.88061523 2382.45843506 C-1640.7149992 2380.24804193 -1641.55236095 2378.03879194 -1642.38989258 2375.82958984 C-1657.64723816 2335.50509089 -1671.58138671 2294.63657372 -1683.71020508 2253.26074219 C-1683.94294128 2252.46861328 -1684.17567749 2251.67648438 -1684.41546631 2250.86035156 C-1709.66410784 2164.73866035 -1728.42848904 2076.6892587 -1752.71020508 1844.26074219 C-1752.77099998 1842.98746976 -1752.77099998 1842.98746976 -1752.83302307 1841.68847466 C-1753.59780689 1825.30432032 -1753.87306217 1808.95431363 -1753.87817383 1792.55371094 C-1753.88140512 1790.04926029 -1753.88477042 1787.5448098 -1753.88825989 1785.0403595 C-1753.89419513 1779.81913823 -1753.8961059 1774.59793337 -1753.89550781 1769.37670898 C-1753.89542704 1764.12504598 -1753.90230161 1758.8734711 -1753.91601562 1753.62182617 C-1753.99867667 1721.44197919 -1753.62670743 1689.38770674 -1751.71020508 1657.26074219 C-1751.63450287 1655.95769135 -1751.55880066 1654.6546405 -1751.48080444 1653.31210327 C-1751.04106639 1645.87280787 -1750.5278309 1638.44129813 -1749.96020508 1631.01074219 C-1749.83714996 1629.37070724 -1749.83714996 1629.37070724 -1749.71160889 1627.69754028 C-1741.73104628 1522.21438373 -1724.02029949 1417.62791165 -1643.62121582 1147.65454102 C-1642.69546345 1145.22200666 -1641.77516304 1142.78746182 -1640.85571289 1140.35253906 C-1622.59073298 1092.07273283 -1601.78313746 1044.76059721 -1579.20385742 998.34960938 C-1577.76892422 995.38217314 -1576.35424156 992.40615828 -1574.94848633 989.42480469 C-1568.21052002 975.14311235 -1561.05307098 961.10464075 -1553.69573975 947.13287354 C-1552.67481904 945.19352253 -1551.65557158 943.25329817 -1550.63647461 941.31298828 C-1542.11788348 925.10505696 -1533.47629195 908.98593751 -1524.34790039 893.11083984 C-1522.61538039 890.09571783 -1520.89311364 887.07486852 -1519.17114258 884.05371094 C-1506.2484772 861.4471907 -1492.75399986 839.18868206 -1478.71020508 817.26074219 C-1478.30801758 816.6292627 -1477.90583008 815.9977832 -1477.49145508 815.34716797 C-1458.17660185 785.03269643 -1437.92154835 755.27765403 -1416.71020508 726.26074219 C-1415.88770264 725.13321533 -1415.88770264 725.13321533 -1415.04858398 723.98291016 C-1405.77228101 711.27846639 -1396.28003763 698.74508375 -1386.71020508 686.26074219 C-1385.76095034 685.0198843 -1384.8117275 683.77900201 -1383.86254883 682.53808594 C-1381.48820531 679.43804469 -1379.10201557 676.34733569 -1376.71020508 673.26074219 C-1376.29528809 672.72497559 -1375.88037109 672.18920898 -1375.45288086 671.63720703 C-1368.23543069 662.33441478 -1360.78915671 653.23173913 -1353.28051758 644.16308594 C-1351.20146488 641.64443255 -1349.14352379 639.1088522 -1347.08520508 636.57324219 C-1343.18688812 631.79816622 -1339.1792262 627.12313409 -1335.15332031 622.45581055 C-1332.08956607 618.89631266 -1329.0941233 615.29372831 -1326.14770508 611.63574219 C-1322.04485389 606.57977856 -1317.68949632 601.80216391 -1313.26489258 597.03027344 C-1311.20906786 594.80155826 -1309.19403551 592.553063 -1307.21020508 590.26074219 C-1303.41723283 585.88423575 -1299.48363661 581.63904455 -1295.55395508 577.38574219 C-1293.44288919 575.08565356 -1291.38290325 572.74628645 -1289.33520508 570.38964844 C-1285.7167432 566.23946602 -1281.98286661 562.20815357 -1278.21020508 558.19824219 C-1277.58500977 557.52986328 -1276.95981445 556.86148438 -1276.31567383 556.17285156 C-1273.32027034 552.98209568 -1270.29751089 549.83534695 -1267.17895508 546.76464844 C-1264.90458303 544.51083798 -1262.77192409 542.20081647 -1260.70214844 539.75878906 C-1255.84945598 534.18466198 -1250.59890747 529.00513915 -1245.37036133 523.78808594 C-1244.27837317 522.6954223 -1243.18653333 521.60261041 -1242.09483337 520.50965881 C-1239.81793386 518.23129381 -1237.53925855 515.95472436 -1235.25927734 513.67944336 C-1232.35678067 510.78264324 -1229.45879801 507.88137539 -1226.56214237 504.97873592 C-1224.31185078 502.72480754 -1222.05915416 500.47329492 -1219.80575371 498.22247505 C-1218.7370538 497.15443581 -1217.66907833 496.0856711 -1216.60188484 495.01612663 C-1211.31855269 489.72370811 -1206.01960621 484.49754896 -1200.31932068 479.64967346 C-1197.99134897 477.6402512 -1195.85456043 475.46305309 -1193.71020508 473.26074219 C-1190.24191646 469.75561287 -1186.70717881 466.43567524 -1182.96411133 463.22949219 C-1180.03499192 460.67095461 -1177.18668222 458.03019089 -1174.33520508 455.38574219 C-1162.92244831 444.81283546 -1151.25352164 434.5605151 -1139.43286133 424.44824219 C-1136.97856803 422.34842218 -1134.52816128 420.24421582 -1132.08129883 418.13574219 C-1126.02830616 412.92346593 -1119.94376774 407.7643107 -1113.74145508 402.72949219 C-1111.39974278 400.82232444 -1109.0676082 398.90549421 -1106.74145508 396.97949219 C-1098.4382825 390.10653115 -1090.08143528 383.32162109 -1081.57055664 376.70751953 C-1079.57016535 375.15183465 -1077.57364934 373.59125964 -1075.57739258 372.03027344 C-1058.90579757 359.00844122 -1042.13130127 346.14936943 -1024.9206543 333.84619141 C-1022.6580436 332.22332926 -1020.40375359 330.58950245 -1018.15161133 328.95214844 C-1017.00438599 328.11913208 -1017.00438599 328.11913208 -1015.83398438 327.26928711 C-1014.42173908 326.24341226 -1013.01031745 325.21640157 -1011.60009766 324.18774414 C-998.01347109 314.34010473 -984.02029559 305.04116004 -970.12036133 295.64501953 C-968.26604616 294.390496 -966.41285158 293.13431449 -964.56079102 291.87646484 C-953.05632155 284.06391007 -941.44973805 276.52462293 -929.53009033 269.36126709 C-925.75758823 267.07995155 -922.04890392 264.69849239 -918.33520508 262.32324219 C-892.69010598 246.04545093 -866.2776295 230.97159413 -839.71020508 216.26074219 C-838.7959375 215.75333496 -837.88166992 215.24592773 -836.93969727 214.72314453 C-824.39866085 207.77497996 -811.71975666 201.11064923 -798.97045898 194.55493164 C-792.89335515 191.42953967 -786.83812911 188.27654701 -780.83520508 185.01074219 C-772.08971481 180.32243813 -763.11598844 176.11729845 -754.14282227 171.88574219 C-751.14435764 170.46626989 -748.15174208 169.03557981 -745.16123962 167.59947205 C-665.20553363 129.23170776 -581.69752301 97.5264813 -496.71020508 72.26074219 C-495.80709595 71.99215393 -494.90398682 71.72356567 -493.97351074 71.44683838 C-391.14308854 40.95580701 -285.20929631 19.6437785 -127.60473633 4.35449219 C-126.85189865 4.29386597 -126.09906097 4.23323975 -125.32341003 4.17077637 C-83.57529941 0.91668924 -41.86478303 -0.07475525 0 0 Z " fill="#EA4334" transform="translate(1913.710205078125,159.7392578125)"/>
<path d="M0 0 C547.14 0 1094.28 0 1658 0 C1659.91832701 8.31275038 1661.69004355 16.44326437 1663.015625 24.83984375 C1663.19214096 25.93888535 1663.36865692 27.03792694 1663.55052185 28.17027283 C1664.12360224 31.75834096 1664.68802296 35.34767681 1665.25 38.9375 C1665.44631012 40.18718567 1665.64262024 41.43687134 1665.84487915 42.72442627 C1677.11027441 114.69332328 1684.61015398 187.17613662 1688.1875 259.9375 C1688.22452026 260.68936584 1688.26154053 261.44123169 1688.29968262 262.21588135 C1688.52357989 266.86970913 1688.71716609 271.52422537 1688.89285278 276.18011475 C1688.96866679 278.17537695 1689.0474733 280.1705265 1689.12838745 282.16558838 C1690.15644785 307.93969694 1690.20147929 333.70858965 1690.1875 359.5 C1690.18723312 360.60459438 1690.18696625 361.70918877 1690.18669128 362.84725571 C1690.17616293 397.60657031 1689.89674214 432.28419601 1688 467 C1687.93683594 468.19139587 1687.87367187 469.38279175 1687.80859375 470.61029053 C1682.40527783 572.44061282 1670.05248441 673.5560122 1610 932 C1609.71338501 932.95505432 1609.42677002 933.91010864 1609.13146973 934.894104 C1582.98636221 1021.81588929 1549.98758368 1106.14235529 1510.50878906 1187.86474609 C1508.97234614 1191.05746455 1507.44927117 1194.2562574 1505.9296875 1197.45703125 C1500.35556851 1209.18331283 1494.62803828 1220.78460078 1488.484375 1232.22265625 C1487.07562877 1234.85849459 1485.67988965 1237.50092334 1484.28825378 1240.14582825 C1476.03985178 1255.81981716 1467.48782472 1271.24563018 1458.46777344 1286.49316406 C1456.48395828 1289.88135669 1454.58350933 1293.31222122 1452.6875 1296.75 C1448.57554661 1304.1483561 1444.19889227 1311.38733543 1439.8125 1318.625 C1439.15403076 1319.71393555 1438.49556152 1320.80287109 1437.81713867 1321.92480469 C1426.97763908 1339.73430801 1415.62795363 1357.22636588 1404.15795898 1374.63452148 C1402.29849596 1377.45877006 1400.44511319 1380.28694955 1398.59179688 1383.11523438 C1392.38743079 1392.55479252 1386.0647117 1401.85123487 1379.30786133 1410.90454102 C1376.52585487 1414.63595537 1373.84778266 1418.43156404 1371.1875 1422.25 C1361.3106421 1436.31205008 1351.04433358 1450.05724646 1340.4453125 1463.58203125 C1337.57932098 1467.24341229 1334.7609628 1470.9385151 1331.9543457 1474.64550781 C1326.67471721 1481.61383235 1321.24512637 1488.39371113 1315.546875 1495.0234375 C1313.15611883 1497.81754211 1310.81911485 1500.6463374 1308.5 1503.5 C1304.75249516 1508.10407738 1300.93275237 1512.64092793 1297.0859375 1517.16186523 C1294.17433439 1520.59042022 1291.32240298 1524.05969631 1288.5 1527.5625 C1284.37309794 1532.63607493 1279.99897442 1537.43741142 1275.5546875 1542.23046875 C1273.49886278 1544.45918393 1271.48383043 1546.70767919 1269.5 1549 C1266.13204024 1552.88362824 1262.65776967 1556.66680844 1259.17651367 1560.44848633 C1256.36318641 1563.50632616 1253.57671829 1566.58502172 1250.8125 1569.6875 C1236.99195469 1585.03018803 1222.48224559 1599.67818741 1207.87011719 1614.26025391 C1205.03847099 1617.08614097 1202.21142668 1619.91658309 1199.38562775 1622.74831581 C1197.17395426 1624.96362047 1194.95988327 1627.17651668 1192.74510193 1629.38871384 C1191.70152265 1630.43163415 1190.65866297 1631.47527511 1189.61659241 1632.51970291 C1183.91976366 1638.22661863 1178.15849773 1643.78905442 1172 1649 C1170.66643124 1650.14555933 1169.33308966 1651.29138318 1168 1652.4375 C1167.01 1653.283125 1166.02 1654.12875 1165 1655 C1124.50000002 1623.50000002 1124.50000002 1623.50000002 1122.2487793 1621.74902344 C1120.75288338 1620.58556688 1119.25695255 1619.42215522 1117.76098633 1618.25878906 C1113.94790224 1615.29338002 1110.13547936 1612.32712738 1106.32421875 1609.359375 C1099.72798614 1604.22405297 1093.13031163 1599.0912807 1086.5 1594 C1079.08386871 1588.30530446 1071.70801416 1582.55912408 1064.33056641 1576.81445312 C1060.55482736 1573.87486664 1056.77736693 1570.93749416 1053 1568 C1048.44050616 1564.45427972 1043.8814516 1560.90800104 1039.32421875 1557.359375 C1032.72798614 1552.22405297 1026.13031163 1547.0912807 1019.5 1542 C1010.5147248 1535.10039094 1001.58557012 1528.12848881 992.64746094 1521.16796875 C981.59301287 1512.55907251 981.59301287 1512.55907251 970.5 1504 C963.08386871 1498.30530446 955.70801416 1492.55912408 948.33056641 1486.81445312 C944.55482736 1483.87486664 940.77736693 1480.93749416 937 1478 C932.44050616 1474.45427972 927.8814516 1470.90800104 923.32421875 1467.359375 C916.72798614 1462.22405297 910.13031163 1457.0912807 903.5 1452 C894.5147248 1445.10039094 885.58557012 1438.12848881 876.64746094 1431.16796875 C865.59301287 1422.55907251 865.59301287 1422.55907251 854.5 1414 C845.5147248 1407.10039094 836.58557012 1400.12848881 827.64746094 1393.16796875 C816.59301287 1384.55907251 816.59301287 1384.55907251 805.5 1376 C798.08386871 1370.30530446 790.70801416 1364.55912408 783.33056641 1358.81445312 C779.55482736 1355.87486664 775.77736693 1352.93749416 772 1350 C767.44050616 1346.45427972 762.8814516 1342.90800104 758.32421875 1339.359375 C751.72798614 1334.22405297 745.13031163 1329.0912807 738.5 1324 C729.5147248 1317.10039094 720.58557012 1310.12848881 711.64746094 1303.16796875 C700.59301287 1294.55907251 700.59301287 1294.55907251 689.5 1286 C682.08386871 1280.30530446 674.70801416 1274.55912408 667.33056641 1268.81445312 C663.55482736 1265.87486664 659.77736693 1262.93749416 656 1260 C651.44050616 1256.45427972 646.8814516 1252.90800104 642.32421875 1249.359375 C635.72798614 1244.22405297 629.13031163 1239.0912807 622.5 1234 C620.9386857 1232.79914219 619.37738431 1231.59826752 617.81640625 1230.39697266 C616.4706716 1229.36198695 615.12420426 1228.32795376 613.77734375 1227.29443359 C611.34876097 1225.42906483 608.92412742 1223.55865378 606.5 1221.6875 C605.35047852 1220.80674805 605.35047852 1220.80674805 604.17773438 1219.90820312 C600.17671838 1216.81281055 596.47680135 1213.6768554 593 1210 C594.09054687 1209.28457031 595.18109375 1208.56914062 596.3046875 1207.83203125 C618.49725019 1193.20020053 639.69125145 1177.32445939 660.2265625 1160.453125 C661.8432593 1159.12843071 663.46808288 1157.8136704 665.09375 1156.5 C670.36794731 1152.23323364 675.45482833 1147.82332628 680.46484375 1143.25 C683.10016031 1140.91110579 685.81277292 1138.70284117 688.5625 1136.5 C692.87197787 1133.01599958 696.8087772 1129.34031724 700.63671875 1125.3359375 C702.48943971 1123.50465298 704.34629568 1121.84124625 706.328125 1120.16015625 C712.52553887 1114.78325318 718.24703038 1108.90161472 724.03637695 1103.09399414 C726.05764268 1101.0673702 728.08419574 1099.04614453 730.11132812 1097.02539062 C738.59567549 1088.55994151 738.59567549 1088.55994151 746.6003418 1079.64477539 C748.93120082 1076.90572127 751.41503296 1074.31011291 753.875 1071.6875 C758.33826707 1066.89004372 762.56974429 1061.96837627 766.671875 1056.85546875 C768.81420035 1054.22788515 771.01153751 1051.66584482 773.23876953 1049.11083984 C780.01417532 1041.32842706 786.28965437 1033.22349244 792.49658203 1024.98388672 C793.857769 1023.18768579 795.23356558 1021.40479293 796.62109375 1019.62890625 C815.51715456 995.41171472 832.40844442 969.44534565 848 943 C848.50692383 942.1430957 849.01384766 941.28619141 849.53613281 940.40332031 C857.66509179 926.60152057 865.09762198 912.46034067 872.36865234 898.19091797 C873.8211274 895.34987502 875.29165365 892.51928376 876.76953125 889.69140625 C910.51930528 824.49426589 930.69462259 753.42509456 946 682 C633.82 682 321.64 682 0 682 C0 456.94 0 231.88 0 0 Z " fill="#4185F3" transform="translate(1920,1600)"/>
<path d="M0 0 C0.33 0.66 0.66 1.32 1 2 C2.32265976 2.68759972 3.6577818 3.35140728 5 4 C6.25538906 4.88944433 7.4863921 5.81398201 8.6953125 6.765625 C9.40171875 7.31863281 10.108125 7.87164063 10.8359375 8.44140625 C11.59132813 9.03824219 12.34671875 9.63507813 13.125 10.25 C14.75253232 11.5261333 16.38013853 12.80217238 18.0078125 14.078125 C18.83829102 14.73103516 19.66876953 15.38394531 20.52441406 16.05664062 C24.33914307 19.05124052 28.16980686 22.02522369 32 25 C33.49358633 26.16133392 34.98707551 27.32279279 36.48046875 28.484375 C37.59301025 29.3496582 37.59301025 29.3496582 38.72802734 30.23242188 C41.04441457 32.03455421 43.36016558 33.83750141 45.67578125 35.640625 C52.27201386 40.77594703 58.86968837 45.9087193 65.5 51 C72.91613129 56.69469554 80.29198584 62.44087592 87.66943359 68.18554688 C91.44517264 71.12513336 95.22263307 74.06250584 99 77 C103.55949384 80.54572028 108.1185484 84.09199896 112.67578125 87.640625 C119.27201386 92.77594703 125.86968837 97.9087193 132.5 103 C141.4852752 109.89960906 150.41442988 116.87151119 159.35253906 123.83203125 C170.40698713 132.44092749 170.40698713 132.44092749 181.5 141 C190.4852752 147.89960906 199.41442988 154.87151119 208.35253906 161.83203125 C219.40698713 170.44092749 219.40698713 170.44092749 230.5 179 C237.91613129 184.69469554 245.29198584 190.44087592 252.66943359 196.18554688 C256.44517266 199.12513338 260.22265535 202.06247715 264 205 C265.50000877 206.16665539 267.00000876 207.33332207 268.5 208.5 C269.2425 209.0775 269.985 209.655 270.75 210.25 C277.5 215.5 277.5 215.5 279.7512207 217.25097656 C281.24711662 218.41443312 282.74304745 219.57784478 284.23901367 220.74121094 C288.05209776 223.70661998 291.86452064 226.67287262 295.67578125 229.640625 C302.27201386 234.77594703 308.86968837 239.9087193 315.5 245 C324.4852752 251.89960906 333.41442988 258.87151119 342.35253906 265.83203125 C353.40698713 274.44092749 353.40698713 274.44092749 364.5 283 C373.4852752 289.89960906 382.41442988 296.87151119 391.35253906 303.83203125 C402.40698713 312.44092749 402.40698713 312.44092749 413.5 321 C420.91613129 326.69469554 428.29198584 332.44087592 435.66943359 338.18554688 C439.44517264 341.12513336 443.22263307 344.06250584 447 347 C451.55949384 350.54572028 456.1185484 354.09199896 460.67578125 357.640625 C467.27201386 362.77594703 473.86968837 367.9087193 480.5 373 C487.91613129 378.69469554 495.29198584 384.44087592 502.66943359 390.18554688 C506.44517264 393.12513336 510.22263307 396.06250584 514 399 C518.55949384 402.54572028 523.1185484 406.09199896 527.67578125 409.640625 C534.27201386 414.77594703 540.86968837 419.9087193 547.5 425 C554.95427004 430.72465379 562.37289629 436.49474158 569.78417969 442.27490234 C571.92828078 443.94416395 574.07691215 445.60742525 576.2265625 447.26953125 C577.50531511 448.2628834 578.78396677 449.25636551 580.0625 450.25 C580.65216553 450.70366943 581.24183105 451.15733887 581.84936523 451.62475586 C585.88648379 454.77296758 585.88648379 454.77296758 587 457 C586.21733514 459.8976231 585.3586933 462.71418335 584.421875 465.5625 C583.83707001 467.38837666 583.2526987 469.21439226 582.66870117 471.04052734 C582.3559726 472.01028503 582.04324402 472.98004272 581.72103882 473.97918701 C574.28474627 497.11281328 567.80338028 520.40794777 562 544 C561.6976947 545.2253244 561.6976947 545.2253244 561.38928223 546.47540283 C547.64094682 602.34105841 538.54259345 659.20864433 534.18426514 716.58001709 C534.00903361 718.88136015 533.82734675 721.18212042 533.64501953 723.48291016 C530.19039127 768.08998494 530.28553875 814.12375369 533.81964111 858.72064209 C534.00961406 861.12150157 534.19208137 863.52287282 534.37451172 865.92431641 C539.02236138 926.08601353 549.17784087 985.53123236 564 1044 C564.17811218 1044.70582214 564.35622437 1045.41164429 564.53973389 1046.13885498 C569.05282187 1064.00468934 574.19096803 1081.66384559 579.60546875 1099.2734375 C579.99138184 1100.52995117 580.37729492 1101.78646484 580.77490234 1103.08105469 C581.63965425 1105.87192153 582.53636533 1108.65078388 583.44775391 1111.42675781 C583.68416092 1112.15601471 583.92056793 1112.88527161 584.16413879 1113.6366272 C584.62031941 1115.04106096 585.08361617 1116.44320899 585.55497742 1117.84262085 C587.11212387 1122.66362838 587.11212387 1122.66362838 586 1126 C584.42578125 1127.21875 584.42578125 1127.21875 582.3125 1128.5 C578.19268046 1131.14057725 574.3260999 1134.0178553 570.5 1137.0625 C565.26723668 1141.21813978 560.00067707 1145.32254585 554.6875 1149.375 C553.97529297 1149.91842041 553.26308594 1150.46184082 552.52929688 1151.02172852 C551.07750469 1152.12899724 549.62551829 1153.23601135 548.17333984 1154.34277344 C544.6125753 1157.0579464 541.05649684 1159.77924098 537.5 1162.5 C536.08335644 1163.58336355 534.66668976 1164.66669686 533.25 1165.75 C532.54875 1166.28625 531.8475 1166.8225 531.125 1167.375 C524.75000002 1172.24999999 524.75000002 1172.24999999 522.62402344 1173.87573242 C521.21059349 1174.95660017 519.79718196 1176.03749201 518.38378906 1177.1184082 C514.79275299 1179.86466505 511.2013752 1182.61047303 507.609375 1185.35546875 C500.18859616 1191.02706401 492.77533184 1196.70799449 485.375 1202.40625 C481.42322559 1205.44607647 477.46136204 1208.47268543 473.5 1211.5 C461.06559221 1221.00510194 448.67949909 1230.56968008 436.33056641 1240.18554688 C432.55482732 1243.12513339 428.77732256 1246.06244872 425 1249 C423.89120483 1249.86250366 423.89120483 1249.86250366 422.76000977 1250.74243164 C418.96064102 1253.69786359 415.16059682 1256.65242048 411.359375 1259.60546875 C404.56070648 1264.88821794 397.76531519 1270.17457332 391 1275.5 C383.46316591 1281.43274019 375.88902129 1287.31721918 368.31445312 1293.20166016 C364.54184366 1296.13299363 360.77099645 1299.06659198 357 1302 C355.50000877 1303.16667794 354.00000876 1304.3333446 352.5 1305.5 C351.7575 1306.0775 351.015 1306.655 350.25 1307.25 C325.50000001 1326.5 325.50000001 1326.5 323.24902344 1328.25073242 C321.75224357 1329.41491259 320.25549866 1330.5791377 318.75878906 1331.7434082 C314.95980942 1334.69849173 311.16018535 1337.65274014 307.359375 1340.60546875 C300.56070648 1345.88821794 293.76531519 1351.17457332 287 1356.5 C279.46316591 1362.43274019 271.88902129 1368.31721918 264.31445312 1374.20166016 C260.54184366 1377.13299363 256.77099645 1380.06659198 253 1383 C251.50000877 1384.16667794 250.00000876 1385.3333446 248.5 1386.5 C247.7575 1387.0775 247.015 1387.655 246.25 1388.25 C239.5 1393.5 239.5 1393.5 237.24902344 1395.25073242 C235.75224357 1396.41491259 234.25549866 1397.5791377 232.75878906 1398.7434082 C228.95980942 1401.69849173 225.16018535 1404.65274014 221.359375 1407.60546875 C214.56070648 1412.88821794 207.76531519 1418.17457332 201 1423.5 C193.46316591 1429.43274019 185.88902129 1435.31721918 178.31445312 1441.20166016 C174.54184366 1444.13299363 170.77099645 1447.06659198 167 1450 C165.50000877 1451.16667794 164.00000876 1452.3333446 162.5 1453.5 C161.7575 1454.0775 161.015 1454.655 160.25 1455.25 C153.50000002 1460.49999999 153.50000002 1460.49999999 151.24902344 1462.25073242 C149.75224357 1463.41491259 148.25549866 1464.5791377 146.75878906 1465.7434082 C142.95980942 1468.69849173 139.16018535 1471.65274014 135.359375 1474.60546875 C128.56070648 1479.88821794 121.76531519 1485.17457332 115 1490.5 C107.46316591 1496.43274019 99.88902129 1502.31721918 92.31445312 1508.20166016 C88.54184366 1511.13299363 84.77099645 1514.06659198 81 1517 C79.50000877 1518.16667794 78.00000876 1519.3333446 76.5 1520.5 C75.7575 1521.0775 75.015 1521.655 74.25 1522.25 C49.5 1541.5 49.5 1541.5 47.24902344 1543.25073242 C45.75224357 1544.41491259 44.25549866 1545.5791377 42.75878906 1546.7434082 C38.95980942 1549.69849173 35.16018535 1552.65274014 31.359375 1555.60546875 C30.21299561 1556.49637207 30.21299561 1556.49637207 29.04345703 1557.40527344 C27.5290937 1558.58207271 26.01445072 1559.75851222 24.49951172 1560.93457031 C20.95238731 1563.69109421 17.41469476 1566.45808196 13.8984375 1569.25390625 C13.25938477 1569.76091064 12.62033203 1570.26791504 11.96191406 1570.7902832 C10.77647536 1571.73230048 9.59335294 1572.67724347 8.41308594 1573.62573242 C5.72517466 1575.76032291 3.15659405 1577.62756781 0 1579 C-9.08867308 1562.43938896 -17.02537017 1545.35457258 -24.96685791 1528.22515869 C-25.96760761 1526.06976603 -26.97210714 1523.91616733 -27.97802734 1521.76318359 C-44.75385944 1485.83562342 -60.17024078 1449.29545416 -74.17041016 1412.19769287 C-75.00479412 1409.98729975 -75.84215587 1407.77804975 -76.6796875 1405.56884766 C-91.93703308 1365.2443487 -105.87118163 1324.37583154 -118 1283 C-118.23273621 1282.20787109 -118.46547241 1281.41574219 -118.70526123 1280.59960938 C-143.95390276 1194.47791817 -162.71828396 1106.42851652 -187 874 C-187.04052994 873.15115171 -187.08105988 872.30230343 -187.12281799 871.42773247 C-187.88760181 855.04357813 -188.1628571 838.69357144 -188.16796875 822.29296875 C-188.17120005 819.7885181 -188.17456534 817.28406762 -188.17805481 814.77961731 C-188.18399005 809.55839605 -188.18590082 804.33719118 -188.18530273 799.1159668 C-188.18522196 793.86430379 -188.19209654 788.61272892 -188.20581055 783.36108398 C-188.2884716 751.181237 -187.91650235 719.12696456 -186 687 C-185.92429779 685.69694916 -185.84859558 684.39389832 -185.77059937 683.05136108 C-185.33086131 675.61206568 -184.81762582 668.18055594 -184.25 660.75 C-184.12694489 659.10996506 -184.12694489 659.10996506 -184.00140381 657.4367981 C-176.0208412 551.95364154 -158.31009441 447.36716946 -77.91101074 177.39379883 C-76.98525837 174.96126447 -76.06495796 172.52671963 -75.14550781 170.09179688 C-56.89528787 121.85100565 -36.10704738 74.57469915 -13.55078125 28.19873047 C-10.92810528 22.78904839 -8.33961117 17.36306784 -5.75 11.9375 C-4.84909934 10.05071392 -3.94807116 8.16398871 -3.046875 6.27734375 C-2.67401367 5.49609131 -2.30115234 4.71483887 -1.91699219 3.90991211 C-1.28874258 2.60139329 -0.64914083 1.29828166 0 0 Z " fill="#FABB05" transform="translate(348,1130)"/>
</svg>
