<?xml version="1.0" encoding="UTF-8"?>
<svg version="1.1" xmlns="http://www.w3.org/2000/svg" width="512" height="512">
<path d="M0 0 C24.09 0 48.18 0 73 0 C73.99 3.96 73.99 3.96 75 8 C75.66 8 76.32 8 77 8 C77.144375 7.05125 77.28875 6.1025 77.4375 5.125 C78 2 78 2 79 0 C102.76 0 126.52 0 151 0 C151 4.62 151 9.24 151 14 C101.17 14 51.34 14 0 14 C0 9.38 0 4.76 0 0 Z " fill="#0071C5" transform="translate(305,237)"/>
<path d="M0 0 C46.2 0 92.4 0 140 0 C138 10 138 10 135 14 C132.52251148 14.49219131 132.52251148 14.49219131 129.51411438 14.48101807 C128.37407959 14.48651672 127.2340448 14.49201538 126.0594635 14.49768066 C124.18211769 14.47610901 124.18211769 14.47610901 122.2668457 14.45410156 C120.9496756 14.45468567 119.63250549 14.45526978 118.27542114 14.45587158 C114.66186006 14.45702068 111.04882856 14.43348049 107.43539071 14.40557575 C103.65976909 14.38059427 99.88413573 14.37822268 96.10844421 14.37347412 C88.95794305 14.36103471 81.8076861 14.32820024 74.65729254 14.28807616 C66.51714634 14.24338831 58.37698855 14.22137896 50.23675025 14.20129442 C33.49101977 14.15946828 16.74555066 14.08829333 0 14 C0 9.38 0 4.76 0 0 Z " fill="#0071C5" transform="translate(131,309)"/>
<path d="M0 0 C17.5499719 -0.09253476 35.09984661 -0.1639469 52.65000629 -0.20724869 C60.79857492 -0.2278875 68.94698933 -0.25603308 77.09545898 -0.30175781 C84.1964022 -0.34158546 91.29723376 -0.36742322 98.39828557 -0.37635398 C102.15945104 -0.38157571 105.92029702 -0.39387546 109.68136024 -0.42292023 C113.87666717 -0.45505664 118.07141617 -0.45596205 122.2668457 -0.45410156 C123.51840958 -0.46848267 124.76997345 -0.48286377 126.0594635 -0.49768066 C127.19949829 -0.49218201 128.33953308 -0.48668335 129.51411438 -0.48101807 C130.50688542 -0.48470524 131.49965647 -0.48839241 132.52251148 -0.49219131 C135 0 135 0 138 4 C138.99 8.95 138.99 8.95 140 14 C93.8 14 47.6 14 0 14 C0 9.38 0 4.76 0 0 Z " fill="#0071C5" transform="translate(131,189)"/>
<path d="M0 0 C41.25 0 82.5 0 125 0 C122.93787174 4.12425651 122.21182468 4.84752073 118.4375 7.0625 C117.63183594 7.54847656 116.82617188 8.03445313 115.99609375 8.53515625 C108.43736306 12.2307547 101.8141621 13.4367502 93.43139648 13.34057617 C92.41571091 13.34101425 91.40002533 13.34145233 90.3535614 13.34190369 C87.02587059 13.3398284 83.6986956 13.31655675 80.37109375 13.29296875 C78.05225398 13.28736832 75.73341064 13.28310034 73.41456604 13.28010559 C67.33346631 13.26869207 61.25258407 13.2392549 55.17156982 13.20599365 C48.95750876 13.1752174 42.74341231 13.16158413 36.52929688 13.14648438 C24.35276942 13.1143819 12.17640285 13.06322785 0 13 C0 8.71 0 4.42 0 0 Z " fill="#0071C5" transform="translate(131,333)"/>
<path d="M0 0 C13.33530252 -0.11621397 26.67048315 -0.20487766 40.0061903 -0.25906086 C46.19954088 -0.28507546 52.39254317 -0.32032485 58.58569336 -0.37719727 C64.57038577 -0.43180702 70.55474465 -0.46148163 76.53966713 -0.47438622 C78.81487586 -0.48357422 81.09006781 -0.50151548 83.36513329 -0.52865028 C98.81046971 -0.70542238 111.05294954 -0.2204786 123.70703125 9.66796875 C125 11 125 11 125 13 C83.75 13 42.5 13 0 13 C0 8.71 0 4.42 0 0 Z " fill="#0071C5" transform="translate(131,166)"/>
<path d="M0 0 C12.63919396 -0.18556728 25.27806254 -0.32761258 37.91834259 -0.41449738 C43.78817446 -0.45620371 49.65707266 -0.51275018 55.52636719 -0.60351562 C61.19338622 -0.69060201 66.85950873 -0.73830839 72.52714539 -0.75901794 C74.68656017 -0.77377107 76.84592725 -0.80258195 79.00495911 -0.84584045 C95.91370027 -1.1710732 95.91370027 -1.1710732 101.07983398 1.72875977 C103.12751688 3.72836961 104.57403671 5.53129078 106 8 C106.99 9.485 106.99 9.485 108 11 C108 11.99 108 12.98 108 14 C72.36 14 36.72 14 0 14 C0 9.38 0 4.76 0 0 Z " fill="#0071C5" transform="translate(156,261)"/>
<path d="M0 0 C35.64 0 71.28 0 108 0 C106.99194386 4.03222456 106.25737723 5.17800328 103.5625 8.125 C102.94503906 8.80820313 102.32757813 9.49140625 101.69140625 10.1953125 C98.13311657 13.99191719 98.13311657 13.99191719 94.03903198 14.24050903 C92.28497709 14.24633795 90.53086519 14.24092292 88.77685547 14.22705078 C87.8207135 14.22734283 86.86457153 14.22763489 85.87945557 14.22793579 C82.70860828 14.22653876 79.53799391 14.21095999 76.3671875 14.1953125 C74.17286304 14.1915837 71.97853692 14.1887361 69.78421021 14.18673706 C64.00062486 14.17909015 58.21713951 14.15943259 52.43359375 14.1373291 C46.53517001 14.11689343 40.63673016 14.10774023 34.73828125 14.09765625 C23.15881016 14.07618769 11.57941339 14.04203902 0 14 C0 9.38 0 4.76 0 0 Z " fill="#0071C5" transform="translate(156,237)"/>
<path d="M0 0 C29.37 0 58.74 0 89 0 C89 4.62 89 9.24 89 14 C59.63 14 30.26 14 0 14 C0 9.38 0 4.76 0 0 Z " fill="#0071C5" transform="translate(31,309)"/>
<path d="M0 0 C29.04 0 58.08 0 88 0 C88 4.62 88 9.24 88 14 C58.96 14 29.92 14 0 14 C0 9.38 0 4.76 0 0 Z " fill="#0071C5" transform="translate(31,189)"/>
<path d="M0 0 C26.73 0 53.46 0 81 0 C81 4.62 81 9.24 81 14 C52.95 14 24.9 14 -4 14 C-1 3 -1 3 0 0 Z " fill="#0071C5" transform="translate(400,189)"/>
<path d="M0 0 C29.37 0 58.74 0 89 0 C89 4.29 89 8.58 89 13 C59.63 13 30.26 13 0 13 C0 8.71 0 4.42 0 0 Z " fill="#0071C5" transform="translate(31,333)"/>
<path d="M0 0 C26.4 0 52.8 0 80 0 C85 12 85 12 85 14 C56.95 14 28.9 14 0 14 C0 9.38 0 4.76 0 0 Z " fill="#0071C5" transform="translate(280,189)"/>
<path d="M0 0 C29.04 0 58.08 0 88 0 C88 4.29 88 8.58 88 13 C58.96 13 29.92 13 0 13 C0 8.71 0 4.42 0 0 Z " fill="#0071C5" transform="translate(31,166)"/>
<path d="M0 0 C23.76 0 47.52 0 72 0 C76 10 76 10 76 13 C50.92 13 25.84 13 0 13 C0 8.71 0 4.42 0 0 Z " fill="#0071C5" transform="translate(280,166)"/>
<path d="M0 0 C23.76 0 47.52 0 72 0 C72 4.29 72 8.58 72 13 C46.92 13 21.84 13 -4 13 C-3 8 -3 8 0 0 Z " fill="#0071C5" transform="translate(409,166)"/>
<path d="M0 0 C21.12 0 42.24 0 64 0 C64 4.62 64 9.24 64 14 C41.56 14 19.12 14 -4 14 C-2 5 -2 5 0 0 Z " fill="#0071C5" transform="translate(392,213)"/>
<path d="M0 0 C21.12 0 42.24 0 64 0 C68 11 68 11 68 14 C45.56 14 23.12 14 0 14 C0 9.38 0 4.76 0 0 Z " fill="#0071C5" transform="translate(305,213)"/>
<path d="M0 0 C21.12 0 42.24 0 64 0 C64 4.62 64 9.24 64 14 C42.88 14 21.76 14 0 14 C0 9.38 0 4.76 0 0 Z " fill="#0071C5" transform="translate(417,309)"/>
<path d="M0 0 C21.12 0 42.24 0 64 0 C64 4.62 64 9.24 64 14 C42.88 14 21.76 14 0 14 C0 9.38 0 4.76 0 0 Z " fill="#0071C5" transform="translate(280,309)"/>
<path d="M0 0 C21.12 0 42.24 0 64 0 C64 4.29 64 8.58 64 13 C42.88 13 21.76 13 0 13 C0 8.71 0 4.42 0 0 Z " fill="#0071C5" transform="translate(417,333)"/>
<path d="M0 0 C21.12 0 42.24 0 64 0 C64 4.29 64 8.58 64 13 C42.88 13 21.76 13 0 13 C0 8.71 0 4.42 0 0 Z " fill="#0071C5" transform="translate(280,333)"/>
<path d="M0 0 C20.46 0 40.92 0 62 0 C59 11 59 11 58 14 C40.18 14 22.36 14 4 14 C0 3 0 3 0 0 Z " fill="#0071C5" transform="translate(350,261)"/>
<path d="M0 0 C14.85 0 29.7 0 45 0 C43 9 43 9 41 14 C29.12 14 17.24 14 5 14 C1 4 1 4 0 0 Z " fill="#0071C5" transform="translate(358,285)"/>
<path d="M0 0 C12.87 0 25.74 0 39 0 C41 8 41 8 41 14 C27.47 14 13.94 14 0 14 C0 9.38 0 4.76 0 0 Z " fill="#0071C5" transform="translate(231,285)"/>
<path d="M0 0 C13.53 0 27.06 0 41 0 C40 10 40 10 39 14 C26.13 14 13.26 14 0 14 C0 9.38 0 4.76 0 0 Z " fill="#0071C5" transform="translate(231,213)"/>
<path d="M0 0 C12.87 0 25.74 0 39 0 C39 4.62 39 9.24 39 14 C26.13 14 13.26 14 0 14 C0 9.38 0 4.76 0 0 Z " fill="#0071C5" transform="translate(417,285)"/>
<path d="M0 0 C12.87 0 25.74 0 39 0 C39 4.62 39 9.24 39 14 C26.13 14 13.26 14 0 14 C0 9.38 0 4.76 0 0 Z " fill="#0071C5" transform="translate(305,285)"/>
<path d="M0 0 C12.87 0 25.74 0 39 0 C39 4.62 39 9.24 39 14 C26.13 14 13.26 14 0 14 C0 9.38 0 4.76 0 0 Z " fill="#0071C5" transform="translate(156,285)"/>
<path d="M0 0 C12.87 0 25.74 0 39 0 C39 4.62 39 9.24 39 14 C26.13 14 13.26 14 0 14 C0 9.38 0 4.76 0 0 Z " fill="#0071C5" transform="translate(56,285)"/>
<path d="M0 0 C12.87 0 25.74 0 39 0 C39 4.62 39 9.24 39 14 C26.13 14 13.26 14 0 14 C0 9.38 0 4.76 0 0 Z " fill="#0071C5" transform="translate(417,261)"/>
<path d="M0 0 C12.87 0 25.74 0 39 0 C39 4.62 39 9.24 39 14 C26.13 14 13.26 14 0 14 C0 9.38 0 4.76 0 0 Z " fill="#0071C5" transform="translate(305,261)"/>
<path d="M0 0 C12.87 0 25.74 0 39 0 C39 4.62 39 9.24 39 14 C26.13 14 13.26 14 0 14 C0 9.38 0 4.76 0 0 Z " fill="#0071C5" transform="translate(56,261)"/>
<path d="M0 0 C12.87 0 25.74 0 39 0 C39 4.62 39 9.24 39 14 C26.13 14 13.26 14 0 14 C0 9.38 0 4.76 0 0 Z " fill="#0071C5" transform="translate(56,237)"/>
<path d="M0 0 C12.87 0 25.74 0 39 0 C39 4.62 39 9.24 39 14 C26.13 14 13.26 14 0 14 C0 9.38 0 4.76 0 0 Z " fill="#0071C5" transform="translate(156,213)"/>
<path d="M0 0 C12.87 0 25.74 0 39 0 C39 4.62 39 9.24 39 14 C26.13 14 13.26 14 0 14 C0 9.38 0 4.76 0 0 Z " fill="#0071C5" transform="translate(56,213)"/>
<path d="M0 0 C9.24 0 18.48 0 28 0 C25 10 25 10 23 14 C17.06 14 11.12 14 5 14 C2.75117454 9.13963529 1.05637923 5.28189614 0 0 Z " fill="#0071C5" transform="translate(367,309)"/>
<path d="M0 0 C3.3 0 6.6 0 10 0 C8.125 9.10714286 8.125 9.10714286 6 13 C5.01 12.67 4.02 12.34 3 12 C2.05078125 10.0390625 2.05078125 10.0390625 1.3125 7.625 C1.06113281 6.83351563 0.80976563 6.04203125 0.55078125 5.2265625 C0 3 0 3 0 0 Z " fill="#0071C5" transform="translate(376,333)"/>
</svg>
