<svg xmlns="http://www.w3.org/2000/svg" width="860" height="947" viewBox="0 0 860 947">
<g>
<path d="M 329.75 862.73 C327.63,861.47 312.11,844.71 293.87,824.00 C276.20,803.92 259.74,785.36 257.30,782.75 L 252.86 778.00 L 160.54 778.00 C71.41,778.00 67.99,777.93 61.81,776.02 C49.48,772.21 41.19,764.79 35.14,752.13 L 31.50 744.50 L 31.23 607.11 C30.93,455.95 30.65,463.61 37.01,452.48 C43.01,442.00 55.42,433.39 67.93,431.01 C70.91,430.45 73.54,429.79 73.78,429.55 C74.02,429.31 72.57,426.40 70.55,423.08 C57.07,400.89 44.95,366.59 40.49,338.00 C38.25,323.64 37.43,291.38 38.93,276.43 C45.83,207.51 81.13,145.37 137.39,103.08 C183.31,68.56 244.45,50.66 301.80,54.94 C341.85,57.93 378.11,69.12 409.83,88.28 C423.69,96.65 423.00,96.74 423.00,86.67 C423.00,64.69 435.68,47.92 456.50,42.36 C460.57,41.27 492.17,41.02 627.23,41.01 L 792.96 41.00 L 799.71 43.22 C812.18,47.31 822.64,57.35 827.31,69.70 L 829.50 75.50 L 829.80 313.00 C830.03,489.09 829.81,551.92 828.96,556.00 C825.59,572.15 811.04,586.33 794.20,589.88 C790.63,590.64 769.11,591.00 728.20,591.00 L 667.49 591.00 L 626.00 632.57 C603.17,655.43 583.28,674.78 581.80,675.57 C577.84,677.67 570.13,677.38 566.19,674.98 C564.28,673.81 562.07,671.17 560.96,668.73 C559.18,664.81 559.04,661.83 559.02,627.75 L 559.00 591.00 L 542.00 591.00 L 525.00 591.00 L 525.00 663.86 C525.00,709.24 524.61,738.76 523.98,742.11 C521.64,754.46 514.34,765.23 504.14,771.40 C492.95,778.16 494.93,778.00 420.32,778.00 C367.24,778.00 352.96,778.26 352.79,779.25 C352.68,779.94 352.56,796.70 352.54,816.50 C352.50,850.45 352.39,852.73 350.50,856.50 C349.10,859.29 347.15,861.18 344.04,862.75 C338.43,865.58 334.52,865.58 329.75,862.73 ZM 322.00 782.75 C322.01,760.48 322.17,758.24 323.96,755.30 C328.37,748.07 322.81,748.56 408.00,748.00 C493.19,747.44 487.63,747.93 492.04,740.70 C493.93,737.61 493.99,735.09 494.00,664.25 L 494.00 591.00 L 464.46 591.00 C437.05,591.00 434.64,590.86 431.06,589.03 C428.94,587.95 426.26,585.53 425.10,583.66 C423.07,580.37 423.00,579.11 423.00,543.13 C423.00,512.49 422.76,506.00 421.64,506.00 C420.89,506.00 418.54,507.18 416.41,508.62 C404.12,516.97 379.79,528.37 361.50,534.36 C318.83,548.33 268.27,550.00 224.02,538.90 L 212.53 536.02 L 206.02 540.41 C202.43,542.83 195.68,547.45 191.00,550.69 C186.32,553.93 178.23,559.48 173.00,563.02 C167.77,566.56 155.40,575.05 145.50,581.88 C125.78,595.48 122.94,597.00 117.18,597.00 C110.02,597.00 103.00,589.75 103.00,582.36 C103.00,580.61 107.01,560.58 111.91,537.84 C116.81,515.10 121.26,494.34 121.80,491.70 L 122.78 486.89 L 109.83 473.95 L 96.89 461.00 L 85.19 461.00 C71.83,461.00 68.04,462.25 64.27,467.90 L 62.00 471.30 L 62.00 604.50 L 62.00 737.70 L 64.29 741.10 C68.84,747.86 62.52,747.45 169.50,748.00 C244.59,748.39 266.99,748.78 268.69,749.75 C269.89,750.44 275.49,756.29 281.12,762.75 C299.85,784.22 320.49,806.98 321.25,806.99 C321.66,807.00 322.00,796.09 322.00,782.75 ZM 622.51 592.90 C639.00,576.34 653.95,562.17 655.72,561.40 C658.37,560.25 670.44,560.00 724.02,560.00 C795.84,560.00 793.05,560.24 797.04,553.70 C798.96,550.55 798.99,546.82 798.99,316.00 C798.99,82.56 798.98,81.49 796.97,78.19 C792.95,71.59 804.41,72.00 625.78,72.00 C466.59,72.01 463.44,72.04 460.30,73.96 C454.59,77.44 454.08,79.65 453.96,101.37 L 453.85 120.96 L 461.87 129.23 C483.66,151.70 500.99,177.81 512.81,206.00 C526.81,239.38 533.78,280.92 531.10,314.92 C528.28,350.77 521.41,376.97 507.07,406.58 C495.22,431.07 480.73,452.08 463.28,470.11 L 453.98 479.71 L 454.24 519.61 L 454.50 559.50 L 517.00 560.00 L 579.50 560.50 L 583.14 562.77 C589.64,566.81 590.00,568.62 590.00,597.40 C590.00,617.28 590.28,623.00 591.26,623.00 C591.95,623.00 606.01,609.45 622.51,592.90 ZM 163.85 532.00 C173.88,525.12 186.73,516.27 192.41,512.32 C205.60,503.16 208.33,502.38 218.09,505.01 C222.16,506.10 228.73,507.87 232.68,508.93 C249.80,513.54 264.65,515.37 285.00,515.38 C305.96,515.39 317.97,513.99 336.40,509.37 C375.66,499.53 410.23,480.01 437.97,452.03 C520.83,368.44 521.65,235.39 439.84,150.96 C408.50,118.62 366.72,96.32 323.63,88.93 C283.88,82.11 241.06,86.00 207.67,99.46 C175.71,112.34 154.48,126.32 130.99,149.93 C90.64,190.48 69.00,243.04 69.01,300.50 C69.01,333.71 75.61,362.77 89.89,392.50 C103.31,420.43 117.73,439.16 146.12,465.50 C153.01,471.89 154.87,474.23 155.39,477.13 C155.85,479.69 154.74,486.57 151.60,500.63 C149.15,511.56 146.42,524.33 145.51,529.00 C144.61,533.67 143.42,538.95 142.87,540.73 C141.75,544.31 142.46,546.44 144.38,545.26 C145.07,544.84 153.83,538.88 163.85,532.00 ZM 285.51 734.49 C279.46,729.30 274.38,724.64 274.22,724.15 C273.77,722.80 288.29,704.57 290.09,704.22 C291.81,703.89 313.31,722.30 313.82,724.54 C314.45,727.34 300.79,744.03 297.91,743.97 C297.13,743.95 291.55,739.69 285.51,734.49 ZM 261.50 691.30 C253.97,690.62 240.75,687.89 232.63,685.34 C218.76,680.99 209.48,675.59 200.41,666.56 C191.03,657.23 185.94,648.09 183.39,636.00 C181.23,625.81 181.97,606.65 184.98,595.00 C187.44,585.44 193.29,572.00 194.98,572.00 C195.60,572.00 197.46,572.71 199.13,573.57 C201.32,574.70 201.98,575.60 201.50,576.82 C200.24,580.01 197.19,595.52 196.54,602.02 C195.07,616.79 201.08,632.38 212.08,642.34 C222.08,651.39 234.21,656.84 254.00,661.19 C268.69,664.42 301.22,664.87 322.50,662.13 C350.29,658.56 383.22,650.63 387.33,646.53 C390.22,643.64 385.23,628.51 373.94,605.92 L 368.15 594.33 L 370.53 590.15 C374.10,583.85 383.15,571.00 384.00,571.00 C384.89,571.00 391.99,585.48 396.20,595.91 C404.36,616.10 406.63,636.59 402.24,650.50 C399.28,659.90 394.70,667.59 390.89,669.56 C374.48,678.04 334.51,688.14 306.14,690.97 C296.48,691.93 270.56,692.12 261.50,691.30 ZM 529.24 417.25 C529.74,415.45 603.23,230.89 607.39,221.00 L 609.70 215.50 L 615.10 214.85 C624.86,213.67 640.50,213.90 642.16,215.25 C643.01,215.94 647.56,226.18 652.27,238.00 C656.98,249.82 668.59,278.85 678.06,302.50 C687.52,326.15 697.19,350.45 699.55,356.50 C701.90,362.55 708.30,378.52 713.77,392.00 C719.24,405.48 723.50,417.07 723.24,417.78 C722.88,418.75 719.29,418.99 708.16,418.78 L 693.55 418.50 L 685.31 397.50 C680.77,385.95 675.81,373.35 674.27,369.50 L 671.48 362.50 L 625.83 362.24 L 580.17 361.98 L 578.58 366.24 C577.71,368.58 574.94,375.90 572.44,382.50 C569.93,389.10 566.03,399.45 563.78,405.50 C561.52,411.55 559.24,417.06 558.72,417.75 C558.03,418.65 553.68,419.00 543.26,419.00 C529.94,419.00 528.81,418.86 529.24,417.25 ZM 661.00 335.31 C661.00,334.93 657.01,324.47 652.14,312.06 C638.65,277.72 628.25,250.76 627.50,248.19 C626.79,245.74 625.15,245.68 623.86,248.06 C623.43,248.85 620.41,256.70 617.14,265.50 C613.88,274.30 609.61,285.55 607.66,290.50 C598.77,313.06 591.10,334.36 591.59,335.14 C592.21,336.15 661.00,336.32 661.00,335.31 ZM 232.10 430.24 C231.47,428.73 228.95,424.36 226.49,420.54 C224.03,416.71 222.35,413.31 222.76,412.97 C223.17,412.63 228.23,411.08 234.00,409.52 C249.39,405.37 260.23,401.40 271.50,395.78 C280.93,391.07 298.00,380.49 298.00,379.35 C298.00,379.06 294.72,374.47 290.71,369.15 C279.25,353.93 265.48,328.02 267.73,325.92 C269.82,323.98 284.23,318.83 285.12,319.72 C285.65,320.25 288.55,326.04 291.56,332.59 C299.04,348.87 308.98,364.87 311.67,364.96 C314.11,365.04 322.20,352.80 329.82,337.50 C334.68,327.72 341.74,308.41 340.80,307.46 C340.53,307.20 324.38,306.73 304.91,306.41 C276.32,305.95 269.17,306.10 267.78,307.17 C266.83,307.90 263.63,313.45 260.67,319.50 C255.69,329.66 246.92,344.79 237.48,359.50 C230.82,369.87 213.85,390.97 208.10,396.01 L 202.60 400.84 L 199.55 398.26 C196.34,395.56 185.38,390.00 183.25,390.00 C182.56,390.00 182.00,389.65 182.00,389.22 C182.00,388.79 188.20,382.16 195.78,374.47 C216.21,353.76 229.56,335.72 241.45,312.76 C252.64,291.16 263.02,261.62 260.35,258.95 C259.54,258.14 251.16,258.15 228.87,258.99 C212.17,259.62 197.60,260.22 196.50,260.32 C194.61,260.49 194.50,259.89 194.50,249.00 L 194.50 237.50 L 199.50 237.61 C202.25,237.67 218.10,238.08 234.72,238.52 C263.06,239.27 264.98,239.21 265.61,237.56 C265.99,236.59 266.34,227.70 266.39,217.80 L 266.50 199.79 L 271.50 200.42 C274.25,200.77 281.13,201.33 286.79,201.68 C292.44,202.02 297.33,202.72 297.64,203.23 C297.95,203.73 297.29,205.13 296.17,206.32 C293.24,209.45 292.11,213.00 289.82,226.34 C288.43,234.41 288.11,238.51 288.81,239.21 C289.50,239.90 306.97,239.85 343.66,239.03 C373.27,238.36 399.08,237.75 401.00,237.66 L 404.50 237.50 L 404.50 249.00 L 404.50 260.50 L 401.50 260.35 C399.85,260.27 388.60,259.69 376.50,259.05 C364.40,258.41 338.55,258.02 319.06,258.19 L 283.63 258.50 L 282.78 262.00 C280.90,269.77 276.59,283.58 275.67,284.79 C275.02,285.64 275.03,286.43 275.70,287.10 C276.36,287.76 292.64,288.01 322.96,287.81 L 369.20 287.50 L 368.64 291.59 C367.77,297.99 357.65,327.48 352.72,338.00 C346.78,350.68 337.73,366.24 332.36,373.00 C328.08,378.38 328.03,378.54 329.94,380.12 C332.60,382.32 350.53,389.38 361.15,392.41 C373.11,395.82 383.10,397.80 395.20,399.14 C400.87,399.77 405.66,400.41 405.85,400.57 C406.04,400.74 405.08,402.36 403.72,404.18 C400.21,408.85 397.46,414.61 395.49,421.37 L 393.80 427.19 L 390.22 426.51 C383.50,425.25 362.71,418.89 353.59,415.30 C341.62,410.59 323.70,401.63 317.70,397.36 C314.93,395.38 312.40,394.25 311.70,394.68 C311.04,395.09 307.43,397.79 303.67,400.69 C289.07,411.96 270.19,421.66 247.89,429.34 C235.04,433.77 233.59,433.85 232.10,430.24 Z" fill="rgba(3,116,254,1)"/>
</g>
</svg>