<svg xmlns="http://www.w3.org/2000/svg" width="900" height="900" viewBox="0 0 900 900">
<g>
<path d="M 0.00 0.00 L 900.00 0.00 L 900.00 900.00 L 0.00 900.00 ZM 373.67 697.33 C374.03,697.70 397.41,698.00 425.62,698.00 L 476.92 698.00 L 477.26 601.25 C477.57,516.30 477.81,503.69 479.23,497.86 C484.59,475.86 496.71,460.88 516.02,452.36 C522.24,449.62 523.13,449.51 538.00,449.50 C553.27,449.50 553.60,449.55 560.05,452.60 C563.65,454.31 568.34,457.23 570.47,459.10 C578.15,465.83 584.21,477.78 587.20,492.13 C587.97,495.77 588.51,529.62 588.91,597.50 L 589.50 697.50 L 641.15 697.76 L 692.80 698.02 L 693.50 686.76 C693.88,680.57 693.99,630.72 693.74,576.00 C693.31,480.74 693.20,475.95 691.18,463.50 C688.18,445.02 684.67,433.52 677.73,419.50 C664.20,392.16 640.47,372.35 611.06,363.86 C588.36,357.30 557.90,357.39 537.00,364.08 C526.41,367.47 510.78,375.50 502.22,381.95 C492.54,389.25 480.33,402.01 476.97,408.35 C475.61,410.91 474.17,413.00 473.75,413.00 C473.34,413.00 473.00,402.88 473.00,390.50 L 473.00 368.00 L 373.00 368.00 L 373.00 532.33 C373.00,622.72 373.30,696.97 373.67,697.33 ZM 207.67 696.33 C208.03,696.70 231.43,697.00 259.67,697.00 L 311.00 697.00 L 311.00 368.00 L 207.00 368.00 L 207.00 531.83 C207.00,621.94 207.30,695.97 207.67,696.33 ZM 246.70 320.95 C257.92,323.37 260.50,323.39 271.68,321.08 C293.17,316.64 308.63,303.07 316.17,282.00 C318.16,276.45 318.50,273.61 318.48,262.50 C318.47,251.37 318.13,248.57 316.11,243.00 C312.59,233.32 307.75,225.93 300.45,219.10 C271.91,192.40 223.92,200.26 206.35,234.50 C204.09,238.90 201.66,244.98 200.93,248.00 C199.22,255.16 199.20,270.03 200.89,277.00 C206.23,299.09 223.90,316.04 246.70,320.95 Z" fill="rgb(11,101,194)"/>
<path d="M 373.67 697.33 C373.30,696.97 373.00,622.72 373.00,532.33 L 373.00 368.00 L 423.00 368.00 L 473.00 368.00 L 473.00 390.50 C473.00,402.88 473.34,413.00 473.75,413.00 C474.17,413.00 475.61,410.91 476.97,408.35 C480.33,402.01 492.54,389.25 502.22,381.95 C510.78,375.50 526.41,367.47 537.00,364.08 C557.90,357.39 588.36,357.30 611.06,363.86 C640.47,372.35 664.20,392.16 677.73,419.50 C684.67,433.52 688.18,445.02 691.18,463.50 C693.20,475.95 693.31,480.74 693.74,576.00 C693.99,630.72 693.88,680.57 693.50,686.76 L 692.80 698.02 L 641.15 697.76 L 589.50 697.50 L 588.91 597.50 C588.51,529.62 587.97,495.77 587.20,492.13 C584.21,477.78 578.15,465.83 570.47,459.10 C568.34,457.23 563.65,454.31 560.05,452.60 C553.60,449.55 553.27,449.50 538.00,449.50 C523.13,449.51 522.24,449.62 516.02,452.36 C496.71,460.88 484.59,475.86 479.23,497.86 C477.81,503.69 477.57,516.30 477.26,601.25 L 476.92 698.00 L 425.62 698.00 C397.41,698.00 374.03,697.70 373.67,697.33 ZM 207.67 696.33 C207.30,695.97 207.00,621.94 207.00,531.83 L 207.00 368.00 L 259.00 368.00 L 311.00 368.00 L 311.00 532.50 L 311.00 697.00 L 259.67 697.00 C231.43,697.00 208.03,696.70 207.67,696.33 ZM 246.70 320.95 C223.90,316.04 206.23,299.09 200.89,277.00 C199.20,270.03 199.22,255.16 200.93,248.00 C201.66,244.98 204.09,238.90 206.35,234.50 C223.92,200.26 271.91,192.40 300.45,219.10 C307.75,225.93 312.59,233.32 316.11,243.00 C318.13,248.57 318.47,251.37 318.48,262.50 C318.50,273.61 318.16,276.45 316.17,282.00 C308.63,303.07 293.17,316.64 271.68,321.08 C260.50,323.39 257.92,323.37 246.70,320.95 Z" fill="rgb(253,254,254)"/>
</g>
</svg>