<?xml version="1.0" standalone="no"?>
<!DOCTYPE svg PUBLIC "-//W3C//DTD SVG 20010904//EN" "http://www.w3.org/TR/2001/REC-SVG-20010904/DTD/svg10.dtd">

<svg version="1.0"
    xmlns="http://www.w3.org/2000/svg"
    width="350"
    height="350"
    viewBox="0 0 331.000000 272.000000"
    preserveAspectRatio="xMidYMid meet">

    <!-- Circular Background -->
    <circle
        cx="160"
        cy="135"
        r="160"
        fill="#b8b0ff" />

    <!-- Original Icon -->
    <g transform="translate(0.000000,272.000000) scale(0.100000,-0.100000)"
        fill="#000000"
        stroke="none">

        <path
            d="M1568 2338 c-530 -469 -1251 -1113 -1267 -1132 -12 -15 19 -16 384
-16 l397 0 -34 -47 c-193 -268 -581 -819 -585 -830 -4 -11 74 -13 463 -13
l469 0 110 98 c990 881 1295 1149 1332 1175 l45 32 -407 5 -406 5 28 40 c59
81 560 791 577 818 l18 27 -470 0 -470 0 -184 -162z m1012 103 c0 -4 -113
-168 -251 -362 -138 -195 -270 -380 -292 -411 l-41 -58 -103 0 -103 0 0 270
c0 149 -2 270 -4 270 -3 0 -128 -77 -278 -171 -150 -95 -398 -250 -551 -346
-153 -96 -280 -173 -282 -171 -2 1 246 225 551 496 l554 492 400 0 c220 0 400
-4 400 -9z m-936 -453 c-17 -27 -421 -597 -486 -685 l-39 -53 -326 0 c-280 0
-325 2 -313 14 8 8 168 110 355 227 187 117 446 279 575 361 129 81 236 148
238 148 2 0 0 -6 -4 -12z m96 -213 l0 -224 105 -3 105 -3 -193 -271 c-105
-149 -226 -318 -267 -377 l-75 -105 -3 229 -2 229 -105 0 c-58 0 -105 2 -105
5 0 13 523 745 532 745 4 0 8 -101 8 -225z m940 -229 c0 -2 -35 -26 -77 -52
-43 -26 -303 -189 -578 -362 -275 -173 -506 -317 -514 -320 -17 -6 -1 17 283
416 l229 322 329 0 c180 0 328 -2 328 -4z m-210 -211 c0 -2 -181 -165 -402
-362 -222 -196 -470 -417 -552 -490 l-149 -133 -399 0 c-312 0 -398 3 -398 13
0 6 42 70 93 142 52 72 182 255 291 408 l197 277 99 0 100 0 2 -274 3 -275
235 149 c436 274 875 550 878 550 1 0 2 -2 2 -5z" />
    </g>
</svg>