<?xml version="1.0" encoding="UTF-8"?>
<svg version="1.1" xmlns="http://www.w3.org/2000/svg" width="250" height="326">
<path d="M0 0 C82.5 0 165 0 250 0 C250.0825 33.165 250.165 66.33 250.25 100.5 C250.28641602 110.95236328 250.32283203 121.40472656 250.36035156 132.17382812 C250.37841797 144.98730469 250.37841797 144.98730469 250.3817749 150.9954834 C250.38548511 155.170701 250.40040917 159.34571291 250.42230225 163.52087402 C250.44993847 168.86286933 250.45792805 174.20456975 250.4522891 179.54662991 C250.45346653 181.49695205 250.46127951 183.44728555 250.47686052 185.39754581 C250.71237457 216.33859411 237.97990551 243.73573999 216.921875 266.21875 C215.84274659 267.28849468 214.75024106 268.34532761 213.6328125 269.375 C211.80500958 271.13169816 211.80500958 271.13169816 209.7109375 273.875 C207.03224764 277.12020129 203.92026323 279.57572708 200.5 282 C199.85111816 282.46510986 199.20223633 282.93021973 198.53369141 283.40942383 C196.36433603 284.95211599 194.1832334 286.47702244 192 288 C191.24686523 288.53157715 190.49373047 289.0631543 189.71777344 289.61083984 C175.46561819 299.62050684 160.51441145 308.0516465 145.19189453 316.27197266 C142.44960024 317.7565955 139.7330277 319.27428342 137.02734375 320.82421875 C135.9916626 321.40840576 135.9916626 321.40840576 134.93505859 322.00439453 C133.23480231 322.96513909 131.54085602 323.93702929 129.84765625 324.91015625 C126.31324373 326.26283264 124.66257173 325.86892433 121 325 C117.97070313 323.63647461 117.97070313 323.63647461 114.78125 321.90234375 C114.20607635 321.59255585 113.63090271 321.28276794 113.03829956 320.96359253 C111.18731731 319.96360217 109.34351823 318.95117489 107.5 317.9375 C106.2224333 317.24194406 104.94460024 316.54687717 103.66650391 315.85229492 C101.18610446 314.50162192 98.70908703 313.14506551 96.23535156 311.78222656 C93.72063654 310.39697002 91.20152339 309.02063161 88.6796875 307.6484375 C68.41038001 296.38771112 46.99685935 282.86662873 32 265 C30.87464844 263.74123047 30.87464844 263.74123047 29.7265625 262.45703125 C9.48841604 239.31404042 -0.6985663 213.14824894 -0.45410156 182.54882812 C-0.45287335 180.51438172 -0.45341508 178.47993362 -0.45556259 176.44548798 C-0.45645791 171.04493084 -0.43343903 165.64473522 -0.40512085 160.2442627 C-0.38217634 155.15859967 -0.3812595 150.07302028 -0.37841797 144.98730469 C-0.35750956 130.15815608 -0.30166447 115.32907335 -0.25 100.5 C-0.1675 67.335 -0.085 34.17 0 0 Z " fill="#0F0E10" transform="translate(0,0)"/>
<path d="M0 0 C23.76 0 47.52 0 72 0 C72 20.13 72 40.26 72 61 C98.07 61 124.14 61 151 61 C151.04125 68.693125 151.0825 76.38625 151.125 84.3125 C151.14320801 86.71829346 151.16141602 89.12408691 151.18017578 91.6027832 C151.18602573 93.54378029 151.19112009 95.48477987 151.1953125 97.42578125 C151.20554443 98.40591187 151.21577637 99.38604248 151.22631836 100.39587402 C151.22888214 110.71894764 149.27861798 119.16414605 146 129 C121.58 129 97.16 129 72 129 C72 154.74 72 180.48 72 207 C64.08 211.455 64.08 211.455 56 216 C54.25460938 217.02351562 52.50921875 218.04703125 50.7109375 219.1015625 C49.97746094 219.52824219 49.24398437 219.95492187 48.48828125 220.39453125 C47.03321782 221.24174933 45.58564916 222.10192826 44.14453125 222.97265625 C43.42394531 223.38644531 42.70335937 223.80023438 41.9609375 224.2265625 C41.34009277 224.59346191 40.71924805 224.96036133 40.07958984 225.33837891 C36.19912461 226.57294815 32.94296078 225.4368568 29.3503418 223.77246094 C28.47547119 223.26489258 27.60060059 222.75732422 26.69921875 222.234375 C25.72146484 221.67363281 24.74371094 221.11289062 23.73632812 220.53515625 C22.73021484 219.94605469 21.72410156 219.35695313 20.6875 218.75 C18.69153699 217.59873164 16.69544495 216.44768695 14.69921875 215.296875 C13.82096436 214.78479492 12.94270996 214.27271484 12.0378418 213.74511719 C8.04949512 211.45397341 4.02076705 209.23375947 0 207 C0 181.26 0 155.52 0 129 C-24.42 129 -48.84 129 -74 129 C-77.80164221 117.59507337 -79.15740509 109.34483914 -79.09765625 97.71875 C-79.09664917 96.78321289 -79.09564209 95.84767578 -79.09460449 94.88378906 C-79.08941202 91.42251339 -79.07545105 87.96125533 -79.0625 84.5 C-79.041875 76.745 -79.02125 68.99 -79 61 C-52.93 61 -26.86 61 0 61 C0 40.87 0 20.74 0 0 Z " fill="#DD1F36" transform="translate(89,88)"/>
<path d="M0 0 C75.9 0 151.8 0 230 0 C230 24.09 230 48.18 230 73 C154.1 73 78.2 73 0 73 C0 48.91 0 24.82 0 0 Z " fill="#1E4199" transform="translate(10,11)"/>
<path d="M0 0 C82.5 0 165 0 250 0 C250.0825 33.165 250.165 66.33 250.25 100.5 C250.28641602 110.95236328 250.32283203 121.40472656 250.36035156 132.17382812 C250.37841797 144.98730469 250.37841797 144.98730469 250.3817749 150.9954834 C250.38548511 155.170701 250.40040917 159.34571291 250.42230225 163.52087402 C250.44993847 168.86286933 250.45792805 174.20456975 250.4522891 179.54662991 C250.45346653 181.49695205 250.46127951 183.44728555 250.47686052 185.39754581 C250.71237457 216.33859411 237.97990551 243.73573999 216.921875 266.21875 C215.84274659 267.28849468 214.75024106 268.34532761 213.6328125 269.375 C211.80500958 271.13169816 211.80500958 271.13169816 209.7109375 273.875 C207.03224764 277.12020129 203.92026323 279.57572708 200.5 282 C199.85111816 282.46510986 199.20223633 282.93021973 198.53369141 283.40942383 C196.36433603 284.95211599 194.1832334 286.47702244 192 288 C191.24686523 288.53157715 190.49373047 289.0631543 189.71777344 289.61083984 C175.46561819 299.62050684 160.51441145 308.0516465 145.19189453 316.27197266 C142.44960024 317.7565955 139.7330277 319.27428342 137.02734375 320.82421875 C135.9916626 321.40840576 135.9916626 321.40840576 134.93505859 322.00439453 C133.23480231 322.96513909 131.54085602 323.93702929 129.84765625 324.91015625 C126.31324373 326.26283264 124.66257173 325.86892433 121 325 C117.97070313 323.63647461 117.97070313 323.63647461 114.78125 321.90234375 C114.20607635 321.59255585 113.63090271 321.28276794 113.03829956 320.96359253 C111.18731731 319.96360217 109.34351823 318.95117489 107.5 317.9375 C106.2224333 317.24194406 104.94460024 316.54687717 103.66650391 315.85229492 C101.18610446 314.50162192 98.70908703 313.14506551 96.23535156 311.78222656 C93.72063654 310.39697002 91.20152339 309.02063161 88.6796875 307.6484375 C68.41038001 296.38771112 46.99685935 282.86662873 32 265 C30.87464844 263.74123047 30.87464844 263.74123047 29.7265625 262.45703125 C9.48841604 239.31404042 -0.6985663 213.14824894 -0.45410156 182.54882812 C-0.45287335 180.51438172 -0.45341508 178.47993362 -0.45556259 176.44548798 C-0.45645791 171.04493084 -0.43343903 165.64473522 -0.40512085 160.2442627 C-0.38217634 155.15859967 -0.3812595 150.07302028 -0.37841797 144.98730469 C-0.35750956 130.15815608 -0.30166447 115.32907335 -0.25 100.5 C-0.1675 67.335 -0.085 34.17 0 0 Z M5 6 C4.896875 37.1025 4.79375 68.205 4.6875 100.25 C4.64197998 110.03946289 4.59645996 119.82892578 4.54956055 129.91503906 C4.53282951 138.75631276 4.53282951 138.75631276 4.52278137 147.59759521 C4.51815786 151.50936312 4.49956141 155.42078535 4.47212219 159.3324585 C4.43742559 164.34636703 4.42761687 169.35978428 4.43463862 174.37380171 C4.43317378 176.19871902 4.42349826 178.02365633 4.40392435 179.84846926 C4.09724104 209.87254244 15.50072755 236.76336187 35.37890625 259.05859375 C36.97190431 260.84626519 38.53189135 262.66512039 40.02734375 264.53515625 C47.25352104 273.33535236 56.71279305 279.56361883 66 286 C66.70688965 286.49145508 67.4137793 286.98291016 68.14208984 287.48925781 C78.72371311 294.76810881 89.87649815 300.87867768 101.21484375 306.890625 C104.81835113 308.8063388 108.3706283 310.77443882 111.87890625 312.859375 C112.6052124 313.28782715 113.33151855 313.7162793 114.07983398 314.15771484 C115.39619238 314.94121287 116.70506795 315.73749537 118.00415039 316.54931641 C122.18327537 319.01967206 124.35099543 319.13080982 129 318 C131.8992812 316.75016523 131.8992812 316.75016523 134.78125 315.12109375 C136.40401855 314.24046265 136.40401855 314.24046265 138.05957031 313.34204102 C139.19491211 312.71354248 140.33025391 312.08504395 141.5 311.4375 C142.68560696 310.78719487 143.87148092 310.1373763 145.05761719 309.48803711 C147.36769697 308.22110161 149.67382208 306.94768013 151.97851562 305.67089844 C154.32711036 304.37211189 156.68197598 303.08894268 159.046875 301.8203125 C170.2087131 295.69491354 180.60679842 288.33124508 191 281 C192.02915527 280.27562744 192.02915527 280.27562744 193.07910156 279.53662109 C201.45062098 273.57764971 208.44586112 266.87183734 215 259 C215.42909668 258.48566406 215.85819336 257.97132813 216.30029297 257.44140625 C235.67328508 233.90919925 245.89527862 207.74219227 245.56762695 177.19628906 C245.56608998 175.28150356 245.56677173 173.36671524 245.56945324 171.451931 C245.5705676 166.39129794 245.5418989 161.33127362 245.50640106 156.27078247 C245.47761568 151.49674876 245.47656884 146.72285223 245.47302246 141.94873047 C245.44693769 128.04907513 245.37713142 114.14952955 245.3125 100.25 C245.209375 69.1475 245.10625 38.045 245 6 C165.8 6 86.6 6 5 6 Z " fill="#FDFDFD" transform="translate(0,0)"/>
<path d="M0 0 C3 0 3 0 5.3125 2.1875 C6.199375 3.115625 7.08625 4.04375 8 5 C9.09791046 5.84155873 10.20206846 6.67503317 11.3125 7.5 C14 10 14 10 14.16796875 12.65625 C14.11253906 13.4296875 14.05710938 14.203125 14 15 C16.25028329 14.85860519 18.50022206 14.71171997 20.75 14.5625 C22.00296875 14.48128906 23.2559375 14.40007813 24.546875 14.31640625 C27.18317553 14.07484478 29.48037294 13.75716066 32 13 C36.9805886 18.22354415 36.9805886 18.22354415 37.0625 21.5 C35.73437348 24.62500359 33.9820065 27.25076518 32 30 C28.125 29.125 28.125 29.125 27 28 C24.81707226 27.76518307 22.62796826 27.58636677 20.4375 27.4375 C19.23996094 27.35371094 18.04242188 27.26992188 16.80859375 27.18359375 C15.88175781 27.12300781 14.95492187 27.06242187 14 27 C14 29.97 14 32.94 14 36 C16.06277107 35.85805236 18.12521031 35.71127784 20.1875 35.5625 C21.33605469 35.48128906 22.48460937 35.40007813 23.66796875 35.31640625 C26.51598171 35.04596188 29.21210482 34.62478253 32 34 C32 34.99 32 35.98 32 37 C33.43990623 39.17032476 33.43990623 39.17032476 35 41 C33.5 44 33.5 44 32 47 C26.06 46.67 20.12 46.34 14 46 C13.67 45.01 13.34 44.02 13 43 C12.67 47.62 12.34 52.24 12 57 C-9.12 57 -30.24 57 -52 57 C-51.505 59.475 -51.505 59.475 -51 62 C-54.59610969 64.39740646 -56.30092327 64.23987692 -60.5625 64.1875 C-61.71878906 64.18105469 -62.87507813 64.17460938 -64.06640625 64.16796875 C-67 64 -67 64 -69 63 C-68.67 60.69 -68.34 58.38 -68 56 C-69.24547607 56.0714624 -70.49095215 56.1429248 -71.77416992 56.21655273 C-85.29775737 56.95021598 -98.77158729 57.12231068 -112.3125 57.0625 C-114.33658741 57.05746455 -116.36067606 57.05290533 -118.38476562 57.04882812 C-123.25654217 57.03800835 -128.12825654 57.02086194 -133 57 C-133.12662639 50.64645635 -133.21427701 44.29323711 -133.2746582 37.9387207 C-133.29982499 35.77648764 -133.33396158 33.61433982 -133.37719727 31.45239258 C-133.43775296 28.34695428 -133.46618787 25.24263903 -133.48828125 22.13671875 C-133.52699089 20.68346443 -133.52699089 20.68346443 -133.56648254 19.20085144 C-133.56753201 16.69788561 -133.54203752 14.44377678 -133 12 C-130.46948242 9.86645508 -130.46948242 9.86645508 -128 9 C-127.99589111 10.16571533 -127.99178223 11.33143066 -127.98754883 12.5324707 C-127.96578824 16.85469877 -127.91153137 21.17601248 -127.84741211 25.49780273 C-127.8242051 27.36880738 -127.80983005 29.23994317 -127.80444336 31.11108398 C-127.79517318 33.80015028 -127.75422841 36.48714645 -127.70703125 39.17578125 C-127.7109639 40.01337479 -127.71489655 40.85096832 -127.71894836 41.71394348 C-127.70816383 44.35286023 -127.70816383 44.35286023 -127 48 C-124.13947548 50.49010541 -122.78466887 51 -119 51 C-119.969375 50.525625 -120.93875 50.05125 -121.9375 49.5625 C-125 48 -125 48 -126 47 C-126.1259732 43.99363045 -126.18868855 41.0114947 -126.203125 38.00390625 C-126.20882507 37.1000267 -126.21452515 36.19614716 -126.22039795 35.26487732 C-126.22986229 33.34904151 -126.2363876 31.43318931 -126.24023438 29.51733398 C-126.24994769 26.57832632 -126.28096047 23.64001543 -126.3125 20.70117188 C-126.31902888 18.84375417 -126.32427981 16.98633145 -126.328125 15.12890625 C-126.3466452 13.80385826 -126.3466452 13.80385826 -126.36553955 12.45204163 C-126.35644531 9.97485352 -126.35644531 9.97485352 -126 6 C-125.01 5.34 -124.02 4.68 -123 4 C-122.67 17.2 -122.34 30.4 -122 44 C-117.09712407 45.96273945 -117.09712407 45.96273945 -112.24487305 46.14770508 C-111.33009689 46.13141556 -110.41532074 46.11512604 -109.4728241 46.0983429 C-108.49565933 46.07233505 -107.51849457 46.04632721 -106.51171875 46.01953125 C-104.42253845 45.98936269 -102.33334499 45.96009397 -100.24414062 45.93164062 C-96.96551541 45.87594595 -93.6875544 45.81250132 -90.40942383 45.73266602 C-87.23512065 45.65978965 -84.06161802 45.61881546 -80.88671875 45.58203125 C-79.91562668 45.54995071 -78.94453461 45.51787018 -77.9440155 45.4848175 C-71.56850203 45.43768205 -66.78435846 46.54070347 -62 51 C-62 51.66 -62 52.32 -62 53 C-58.81765895 51.24545615 -58.81765895 51.24545615 -56 49 C-57.485 48.505 -57.485 48.505 -59 48 C-59 35.79 -59 23.58 -59 11 C-48.7532541 5.87662705 -48.7532541 5.87662705 -42.77734375 5.8671875 C-41.59881836 5.86525391 -41.59881836 5.86525391 -40.39648438 5.86328125 C-39.58501953 5.86714844 -38.77355469 5.87101562 -37.9375 5.875 C-37.12216797 5.87113281 -36.30683594 5.86726563 -35.46679688 5.86328125 C-34.68240234 5.86457031 -33.89800781 5.86585937 -33.08984375 5.8671875 C-32.37691162 5.86831543 -31.66397949 5.86944336 -30.92944336 5.87060547 C-29 6 -29 6 -26 7 C-26 6.34 -26 5.68 -26 5 C-24.865625 4.96261719 -23.73125 4.92523437 -22.5625 4.88671875 C-10.45990482 5.01460537 -10.45990482 5.01460537 0 0 Z " fill="#171512" transform="translate(186,14)"/>
<path d="M0 0 C25.08 0 50.16 0 76 0 C76 19.14 76 38.28 76 58 C50.92 58 25.84 58 0 58 C0 38.86 0 19.72 0 0 Z " fill="#FEFEFE" transform="translate(164,88)"/>
<path d="M0 0 C25.08 0 50.16 0 76 0 C76 19.14 76 38.28 76 58 C50.92 58 25.84 58 0 58 C0 38.86 0 19.72 0 0 Z " fill="#FEFEFE" transform="translate(10,88)"/>
<path d="M0 0 C2.4375 1.5625 2.4375 1.5625 4 3 C4.33 1.68 4.66 0.36 5 -1 C5.66 -1 6.32 -1 7 -1 C7.495 0.485 7.495 0.485 8 2 C9.051875 1.505 9.051875 1.505 10.125 1 C13.57331879 -0.19941523 15.35823363 -0.54970058 19 0 C25.8112417 3.32228592 32.74921753 7.6238263 37 14 C36.66674962 17.19920361 36.01713841 19.94858478 35 23 C36.32 23 37.64 23 39 23 C38.34 24.65 37.68 26.3 37 28 C38.2375 28.7425 38.2375 28.7425 39.5 29.5 C42 32 42 32 42.625 35.375 C42.17123873 42.66268105 39.24895365 52.75104635 34 58 C31.23857697 58.52799676 28.83634455 58.18598981 26 58 C26 59.65 26 61.3 26 63 C24.35 62.67 22.7 62.34 21 62 C20.773125 62.763125 20.54625 63.52625 20.3125 64.3125 C18.63622502 67.74487258 17.47384193 68.42015314 14 70 C10.9901748 70.42643142 8.03534041 70.41934751 5 70.375 C4.2059375 70.38660156 3.411875 70.39820313 2.59375 70.41015625 C-2.03586357 70.38700818 -5.31165312 70.10864599 -9 67 C-9.8125 63.8125 -9.8125 63.8125 -10 61 C-12.475 61.495 -12.475 61.495 -15 62 C-15 60.35 -15 58.7 -15 57 C-16.85625 57.1546875 -16.85625 57.1546875 -18.75 57.3125 C-21.9078383 57.27914255 -22.70781451 57.23537164 -25.25 55.1875 C-29.1840757 48.02186212 -33.11249188 39.3257033 -31 31 C-27.78947368 28 -27.78947368 28 -25 28 C-25.495 27.38125 -25.99 26.7625 -26.5 26.125 C-28 24 -28 24 -28 22 C-26.35 22 -24.7 22 -23 22 C-23.350625 21.278125 -23.70125 20.55625 -24.0625 19.8125 C-25.14299728 16.57100817 -24.98919726 15.23104632 -24 12 C-21.68383051 9.26432023 -18.8334162 7.18359394 -16 5 C-15.24589844 4.40058594 -14.49179688 3.80117187 -13.71484375 3.18359375 C-8.91438212 -0.36528955 -6.02042156 -2.00680719 0 0 Z " fill="#0A0304" transform="translate(119,150)"/>
<path d="M0 0 C22.77 0 45.54 0 69 0 C68.03453847 4.82730763 66.45508661 8.30288664 64.0625 12.5 C63.46405273 13.55405029 63.46405273 13.55405029 62.85351562 14.62939453 C56.57092106 25.43340533 48.61982909 34.97304543 40 44 C39.43611572 44.60175049 38.87223145 45.20350098 38.29125977 45.82348633 C33.35005166 50.9588067 28.07295859 55.06459648 22.1875 59.0625 C21.31182373 59.66594238 20.43614746 60.26938477 19.53393555 60.89111328 C1.88399872 73 1.88399872 73 0 73 C0 48.91 0 24.82 0 0 Z " fill="#FBFBFB" transform="translate(164,220)"/>
<path d="M0 0 C22.77 0 45.54 0 69 0 C69 24.09 69 48.18 69 73 C62.32962416 69.29423564 56.25192236 65.60732481 50.0625 61.25 C49.18368164 60.63237793 48.30486328 60.01475586 47.39941406 59.37841797 C41.17636652 54.95203566 35.43788452 50.37465331 30 45 C29.00226562 44.07574219 29.00226562 44.07574219 27.984375 43.1328125 C16.30090562 32.04731596 6.64500867 17.64401597 0 3 C0 2.01 0 1.02 0 0 Z " fill="#FBFBFB" transform="translate(17,220)"/>
<path d="M0 0 C3.3 0.99 6.6 1.98 10 3 C16.0789116 3.58767025 22.33147231 3.66533471 28.25 2 C38.9592061 -0.85578829 50.20832884 2.10416442 60 7 C60 19.54 60 32.08 60 45 C55.545 43.02 55.545 43.02 51 41 C48.28756824 40.45824957 48.28756824 40.45824957 45.83496094 40.57763672 C44.93082458 40.58439423 44.02668823 40.59115173 43.09515381 40.59811401 C42.1510968 40.62503326 41.20703979 40.65195251 40.234375 40.6796875 C39.23794983 40.69009064 38.24152466 40.70049377 37.21490479 40.71121216 C34.05931699 40.74656706 30.90508095 40.80888711 27.75 40.875 C24.58077382 40.93037238 21.41173658 40.97975471 18.24224854 41.0173645 C16.27768209 41.04174169 14.3132112 41.0768139 12.34906006 41.12399292 C11.01176849 41.14358566 11.01176849 41.14358566 9.64746094 41.16357422 C8.86852478 41.18008026 8.08958862 41.1965863 7.28704834 41.21359253 C5 41 5 41 0 39 C0 26.13 0 13.26 0 0 Z " fill="#FAFAFB" transform="translate(65,18)"/>
<path d="M0 0 C0.33 0 0.66 0 1 0 C1 13.2 1 26.4 1 40 C-5.74749063 42.24916354 -5.74749063 42.24916354 -9.80859375 42.17944336 C-10.709729 42.16960922 -11.61086426 42.15977509 -12.53930664 42.14964294 C-13.49571045 42.12990921 -14.45211426 42.11017548 -15.4375 42.08984375 C-17.48697685 42.06942713 -19.53645611 42.0492522 -21.5859375 42.02929688 C-24.79860967 41.98578272 -28.01111576 41.93731395 -31.22363281 41.88354492 C-34.33658277 41.83518796 -37.44931034 41.80537339 -40.5625 41.77734375 C-41.99710571 41.7447068 -41.99710571 41.7447068 -43.46069336 41.71141052 C-48.82538332 41.671631 -52.28170372 42.16427039 -57 45 C-57.66 45 -58.32 45 -59 45 C-59 32.79 -59 20.58 -59 8 C-48.75343103 2.87671552 -48.75343103 2.87671552 -42.8828125 2.8671875 C-42.11066406 2.86589844 -41.33851563 2.86460938 -40.54296875 2.86328125 C-39.74503906 2.86714844 -38.94710937 2.87101562 -38.125 2.875 C-37.33480469 2.87113281 -36.54460937 2.86726563 -35.73046875 2.86328125 C-31.35940738 2.87055423 -27.31252949 3.22457976 -23 4 C-15.21390726 4.50800103 -8.15893622 4.35357935 -1 1 C-0.67 0.67 -0.34 0.34 0 0 Z " fill="#F9F9F9" transform="translate(186,17)"/>
<path d="M0 0 C1.65 0 3.3 0 5 0 C5 0.66 5 1.32 5 2 C5.99 2 6.98 2 8 2 C8 3.32 8 4.64 8 6 C6.68 6.33 5.36 6.66 4 7 C4 7.66 4 8.32 4 9 C4.89460938 9.09796875 5.78921875 9.1959375 6.7109375 9.296875 C15.61236324 10.39769098 23.46248397 11.97498931 31 17 C30.67 17.66 30.34 18.32 30 19 C29.27296875 18.73445313 28.5459375 18.46890625 27.796875 18.1953125 C20.58235721 15.66098189 13.57468425 14.02070213 6 13 C6 13.66 6 14.32 6 15 C7.258125 14.938125 8.51625 14.87625 9.8125 14.8125 C17.67942783 14.8125 25.18681184 17.13305537 32 21 C32 21.66 32 22.32 32 23 C31.3915625 22.80664062 30.783125 22.61328125 30.15625 22.4140625 C21.8541568 19.94785246 13.58030892 18.91508941 5 18 C5 18.66 5 19.32 5 20 C6.32 20 7.64 20 9 20 C8.67 22.97 8.34 25.94 8 29 C6.68 28.67 5.36 28.34 4 28 C4.33 29.65 4.66 31.3 5 33 C6.65 33.33 8.3 33.66 10 34 C10.99 32.35 11.98 30.7 13 29 C12.34 29 11.68 29 11 29 C11 27.68 11 26.36 11 25 C11.99 25 12.98 25 14 25 C14.33 23.68 14.66 22.36 15 21 C15.99 21 16.98 21 18 21 C18.144375 22.093125 18.28875 23.18625 18.4375 24.3125 C18.88288104 27.93122987 18.88288104 27.93122987 20 31 C19.67 31.66 19.34 32.32 19 33 C18.34 33 17.68 33 17 33 C17 32.34 17 31.68 17 31 C16.34 31 15.68 31 15 31 C15.495 33.97 15.495 33.97 16 37 C20.12973628 36.43260132 20.12973628 36.43260132 24 35 C24.33 34.01 24.66 33.02 25 32 C24.01 32 23.02 32 22 32 C22.66 30.35 23.32 28.7 24 27 C24.99 27 25.98 27 27 27 C27.495 25.515 27.495 25.515 28 24 C28.99 24 29.98 24 31 24 C30.33178835 28.98665408 28.28590462 33.23328878 26.1875 37.75 C25.84396484 38.52988281 25.50042969 39.30976563 25.14648438 40.11328125 C24.80294922 40.85449219 24.45941406 41.59570312 24.10546875 42.359375 C23.79762451 43.03452148 23.48978027 43.70966797 23.17260742 44.40527344 C22 46 22 46 19.9934082 46.79003906 C18 47 18 47 16 46 C15.375 43.9375 15.375 43.9375 15 42 C13.35 41.67 11.7 41.34 10 41 C10.33 41.99 10.66 42.98 11 44 C0.605 44.495 0.605 44.495 -10 45 C-9.67 43.68 -9.34 42.36 -9 41 C-10.98491642 41.26676204 -10.98491642 41.26676204 -13 42 C-13.33 42.99 -13.66 43.98 -14 45 C-13.01 45.33 -12.02 45.66 -11 46 C-13.475 46.495 -13.475 46.495 -16 47 C-17.64954167 43.89779023 -19.2939881 40.79290789 -20.9375 37.6875 C-21.40607422 36.80642578 -21.87464844 35.92535156 -22.35742188 35.01757812 C-23.0293457 33.74624023 -23.0293457 33.74624023 -23.71484375 32.44921875 C-24.12855225 31.66893311 -24.54226074 30.88864746 -24.96850586 30.0847168 C-26.29605803 27.40164746 -27.02581081 25.4674625 -26.859375 22.453125 C-26 20 -26 20 -23.953125 18.671875 C-16.63027269 16.17448606 -9.72487975 15.24562416 -2 15 C-2 14.34 -2 13.68 -2 13 C-10.55461348 14.48000061 -18.84093785 15.94035169 -27 19 C-22.08905575 12.90365541 -15.46720701 10.6626265 -7.83984375 9.53125 C-5.22456288 9.28828197 -2.6242457 9.10151821 0 9 C0 8.34 0 7.68 0 7 C-1.32 6.67 -2.64 6.34 -4 6 C-4 4.68 -4 3.36 -4 2 C-2.68 2 -1.36 2 0 2 C0 1.34 0 0.68 0 0 Z " fill="#F5A656" transform="translate(123,100)"/>
<path d="M0 0 C2.58545679 0.49720323 4.33660346 1.19440466 6.64453125 2.52734375 C10.56473813 4.24785364 13.87090295 4.37523913 18.0625 4.25 C18.75666016 4.24484375 19.45082031 4.2396875 20.16601562 4.234375 C23.91007341 4.17748523 27.34511146 3.74124104 31 3 C41.02313731 2.26914624 49.00930349 2.57957641 58.265625 7.00390625 C62.67903485 8.61164841 65.30155142 7.2993351 69.5 5.5 C74.90756554 3.18247191 79.4423939 2.8826392 85.3125 2.9375 C86.56675781 2.94652344 87.82101563 2.95554687 89.11328125 2.96484375 C90.06589844 2.97644531 91.01851563 2.98804688 92 3 C92.495 3.99 92.495 3.99 93 5 C92.17757812 5.03738281 91.35515625 5.07476563 90.5078125 5.11328125 C81.20114509 5.66136443 73.61671005 7.55331598 65 11 C64.67 23.21 64.34 35.42 64 48 C65.98 48.495 65.98 48.495 68 49 C66.1875 51 66.1875 51 64 53 C61 53 61 53 59.0625 51.125 C58.381875 50.42375 57.70125 49.7225 57 49 C53.9993458 47.16774587 51.81992684 46.76223321 48.32666016 46.82055664 C47.40535309 46.83039078 46.48404602 46.84022491 45.53482056 46.85035706 C44.5462204 46.87009079 43.55762024 46.88982452 42.5390625 46.91015625 C40.43750233 46.93057973 38.33593973 46.95075429 36.234375 46.97070312 C32.92730347 47.01417844 29.62039511 47.06257503 26.31347656 47.11645508 C23.11784407 47.16482321 19.92242879 47.19463831 16.7265625 47.22265625 C15.7420108 47.24441422 14.75745911 47.26617218 13.74307251 47.28858948 C12.35165543 47.29861244 12.35165543 47.29861244 10.93212891 47.30883789 C10.12256744 47.32153214 9.31300598 47.33422638 8.47891235 47.3473053 C6 47 6 47 0 44 C-0.33 31.13 -0.66 18.26 -1 5 C-2.45022944 6.22152662 -2.45022944 6.22152662 -2.11352539 9.87719727 C-2.11336621 11.60694167 -2.10766849 13.33669081 -2.09765625 15.06640625 C-2.09553383 16.42934059 -2.09553383 16.42934059 -2.09336853 17.81980896 C-2.08775193 20.73407221 -2.07519665 23.64825981 -2.0625 26.5625 C-2.05748714 28.53320202 -2.05292386 30.50390524 -2.04882812 32.47460938 C-2.03777711 37.31643559 -2.02050138 42.15820495 -2 47 C1.3 48.32 4.6 49.64 8 51 C8 51.33 8 51.66 8 52 C4.01718275 52.31862538 1.46566767 52.21470435 -2.19189453 50.52832031 C-5.41268759 47.62843047 -5.41268759 47.62843047 -5.77294922 44.05761719 C-5.81376844 42.47119292 -5.82249091 40.88372446 -5.8046875 39.296875 C-5.81839386 38.45908508 -5.83210022 37.62129517 -5.84622192 36.75811768 C-5.88354536 34.08820003 -5.87980587 31.42014165 -5.875 28.75 C-5.89312529 26.9374709 -5.91392746 25.12496644 -5.9375 23.3125 C-5.98937241 18.87468812 -6.00442924 14.43809843 -6 10 C-6.99 10.66 -7.98 11.32 -9 12 C-9.49460115 14.69332437 -9.49460115 14.69332437 -9.4765625 17.85546875 C-9.52296875 19.62567383 -9.52296875 19.62567383 -9.5703125 21.43164062 C-9.58835937 22.67107422 -9.60640625 23.91050781 -9.625 25.1875 C-9.94096599 40.14059052 -9.94096599 40.14059052 -11 46 C-12.13179687 46.06058594 -13.26359375 46.12117188 -14.4296875 46.18359375 C-15.91147145 46.26799917 -17.3932416 46.35264717 -18.875 46.4375 C-19.62136719 46.47681641 -20.36773437 46.51613281 -21.13671875 46.55664062 C-25.19986864 46.71573624 -25.19986864 46.71573624 -29 48 C-30.32 46.35 -31.64 44.7 -33 43 C-31.50163895 39.88801935 -29.80066242 36.9465385 -28 34 C-27.01 34.33 -26.02 34.66 -25 35 C-22.60745424 35.22560676 -20.21071877 35.40848595 -17.8125 35.5625 C-16.54019531 35.64628906 -15.26789062 35.73007812 -13.95703125 35.81640625 C-12.98121094 35.87699219 -12.00539063 35.93757813 -11 36 C-11 33.03 -11 30.06 -11 27 C-13.25056722 27.11433363 -15.50046674 27.24186436 -17.75 27.375 C-19.00296875 27.44460937 -20.2559375 27.51421875 -21.546875 27.5859375 C-24.60998121 27.95323304 -26.41974266 28.39711286 -29 30 C-33.81450948 24.82440231 -33.81450948 24.82440231 -34.5625 21.5 C-33.79478366 18.08792736 -32.06948245 15.78086704 -30 13 C-29.32582031 13.15339844 -28.65164062 13.30679687 -27.95703125 13.46484375 C-24.53122048 14.08483857 -21.16106553 14.3352574 -17.6875 14.5625 C-16.43324219 14.64628906 -15.17898437 14.73007812 -13.88671875 14.81640625 C-12.93410156 14.87699219 -11.98148438 14.93757813 -11 15 C-11.04769531 14.23171875 -11.09539063 13.4634375 -11.14453125 12.671875 C-11 10 -11 10 -8.6875 7.25 C-6 5 -6 5 -3 4 C-1.31461399 2.00334686 -1.31461399 2.00334686 0 0 Z M2 4 C2 16.87 2 29.74 2 43 C6.85410694 44.95456186 6.85410694 44.95456186 11.64746094 45.16357422 C12.9847525 45.14398148 12.9847525 45.14398148 14.34906006 45.12399292 C15.77729095 45.08968674 15.77729095 45.08968674 17.234375 45.0546875 C19.27343061 45.02938601 21.31249348 45.00466476 23.3515625 44.98046875 C26.54873592 44.93095717 29.74552607 44.87509375 32.94238281 44.80810547 C36.03973683 44.74730733 39.13661077 44.71202958 42.234375 44.6796875 C43.17843201 44.65276825 44.12248901 44.625849 45.09515381 44.59811401 C45.99929016 44.59135651 46.90342651 44.584599 47.83496094 44.57763672 C48.61707947 44.56272186 49.399198 44.54780701 50.20501709 44.53244019 C53 45 53 45 62 49 C62 36.46 62 23.92 62 11 C49.87794781 6.15117912 41.02539088 2.96805803 28.3203125 6.54296875 C18.87091917 8.40421289 11.18410757 6.75523227 2 4 Z " fill="#101013" transform="translate(63,14)"/>
<path d="M0 0 C5 4 5 4 5.60127258 6.18939209 C5.584618 7.37519867 5.584618 7.37519867 5.56762695 8.58496094 C5.56702271 9.49810059 5.56641846 10.41124023 5.5657959 11.35205078 C5.52742615 12.77880127 5.52742615 12.77880127 5.48828125 14.234375 C5.48324585 15.11496582 5.47821045 15.99555664 5.47302246 16.90283203 C5.44690413 20.18555355 5.37709653 23.46781018 5.3125 26.75 C5.1578125 37.76375 5.1578125 37.76375 5 49 C-16.12 49 -37.24 49 -59 49 C-58.505 51.475 -58.505 51.475 -58 54 C-61.59610969 56.39740646 -63.30092327 56.23987692 -67.5625 56.1875 C-68.71878906 56.18105469 -69.87507813 56.17460938 -71.06640625 56.16796875 C-74 56 -74 56 -76 55 C-75.67 52.69 -75.34 50.38 -75 48 C-76.24547607 48.0714624 -77.49095215 48.1429248 -78.77416992 48.21655273 C-92.29775737 48.95021598 -105.77158729 49.12231068 -119.3125 49.0625 C-121.33658741 49.05746455 -123.36067606 49.05290533 -125.38476562 49.04882812 C-130.25654217 49.03800835 -135.12825654 49.02086194 -140 49 C-140.12662639 42.64645635 -140.21427701 36.29323711 -140.2746582 29.9387207 C-140.29982499 27.77648764 -140.33396158 25.61433982 -140.37719727 23.45239258 C-140.43775296 20.34695428 -140.46618787 17.24263903 -140.48828125 14.13671875 C-140.52699089 12.68346443 -140.52699089 12.68346443 -140.56648254 11.20085144 C-140.56753201 8.69788561 -140.54203752 6.44377678 -140 4 C-137.46948242 1.86645508 -137.46948242 1.86645508 -135 1 C-134.99589111 2.16571533 -134.99178223 3.33143066 -134.98754883 4.5324707 C-134.96578824 8.85469877 -134.91153137 13.17601248 -134.84741211 17.49780273 C-134.8242051 19.36880738 -134.80983005 21.23994317 -134.80444336 23.11108398 C-134.79517318 25.80015028 -134.75422841 28.48714645 -134.70703125 31.17578125 C-134.7109639 32.01337479 -134.71489655 32.85096832 -134.71894836 33.71394348 C-134.70816383 36.35286023 -134.70816383 36.35286023 -134 40 C-129.86316339 43.58654974 -125.42374312 44.12571092 -120.11328125 44.1328125 C-119.17419922 44.13410156 -118.23511719 44.13539062 -117.26757812 44.13671875 C-116.29240234 44.13285156 -115.31722656 44.12898438 -114.3125 44.125 C-113.35666016 44.12886719 -112.40082031 44.13273437 -111.41601562 44.13671875 C-106.29722397 44.12974017 -101.34650729 43.8586162 -96.27075195 43.22265625 C-92.00081715 42.80397218 -87.72344781 42.89662155 -83.4375 42.9375 C-82.06754883 42.94426758 -82.06754883 42.94426758 -80.66992188 42.95117188 C-78.44654262 42.9628126 -76.22330879 42.97916149 -74 43 C-73.79503906 43.56589844 -73.59007813 44.13179687 -73.37890625 44.71484375 C-73.10949219 45.44832031 -72.84007813 46.18179688 -72.5625 46.9375 C-72.29566406 47.66839844 -72.02882813 48.39929688 -71.75390625 49.15234375 C-71.14613052 50.98305678 -71.14613052 50.98305678 -70 52 C-67.66055264 51.71269945 -65.3260857 51.38063221 -63 51 C-62.01 48.36 -61.02 45.72 -60 43 C-56.66668561 42.97062562 -53.33340517 42.95307666 -50 42.9375 C-49.06542969 42.92912109 -48.13085938 42.92074219 -47.16796875 42.91210938 C-43.05865722 42.89774115 -39.0393331 42.91777196 -34.96484375 43.484375 C-30.14598403 44.11106415 -25.41676174 44.26000258 -20.5625 44.3125 C-19.67240234 44.34150391 -18.78230469 44.37050781 -17.86523438 44.40039062 C-16.54168945 44.41295898 -16.54168945 44.41295898 -15.19140625 44.42578125 C-14.40967041 44.44036377 -13.62793457 44.45494629 -12.82250977 44.4699707 C-8.81660817 43.92407814 -8.81660817 43.92407814 -1 40 C-0.67 26.8 -0.34 13.6 0 0 Z " fill="#EFEFEF" transform="translate(193,22)"/>
<path d="M0 0 C5.28 0 10.56 0 16 0 C16 3.11257569 15.82638376 5.10765685 15 8 C15.7425 7.67 16.485 7.34 17.25 7 C20 6 20 6 24 6 C24.12117188 6.69867188 24.24234375 7.39734375 24.3671875 8.1171875 C24.61855469 9.48230469 24.61855469 9.48230469 24.875 10.875 C25.11863281 12.23238281 25.11863281 12.23238281 25.3671875 13.6171875 C25.83044703 16.16505988 25.83044703 16.16505988 28 18 C27.625 20.125 27.625 20.125 27 22 C25.02 22 23.04 22 21 22 C21 22.99 21 23.98 21 25 C22.32 25.66 23.64 26.32 25 27 C25 27.99 25 28.98 25 30 C24.18595703 30.36351562 24.18595703 30.36351562 23.35546875 30.734375 C17.80914453 33.30892676 17.80914453 33.30892676 14 38 C12.68 37.67 11.36 37.34 10 37 C10 35.35 10 33.7 10 32 C8.68 32 7.36 32 6 32 C6 33.65 6 35.3 6 37 C4.515 37.495 4.515 37.495 3 38 C1.3515625 36.890625 1.3515625 36.890625 -0.375 35.25 C-3.09616372 32.7657104 -5.7480362 30.77379844 -9 29 C-8.67 28.01 -8.34 27.02 -8 26 C-7.01 25.67 -6.02 25.34 -5 25 C-5 24.01 -5 23.02 -5 22 C-7.31 21.67 -9.62 21.34 -12 21 C-11.50996298 18.79483341 -10.91277645 16.78484857 -10.0625 14.6875 C-8.80746563 11.51300131 -7.90309908 8.28986095 -7 5 C-5.68 5.33 -4.36 5.66 -3 6 C-3 6.66 -3 7.32 -3 8 C-1.68 8 -0.36 8 1 8 C0.67 5.36 0.34 2.72 0 0 Z " fill="#F8F7F7" transform="translate(117,165)"/>
<path d="M0 0 C0.33 0 0.66 0 1 0 C1.02489435 4.00186193 1.04295127 8.00369328 1.05493164 12.00561523 C1.05993113 13.36434719 1.06673291 14.72307385 1.07543945 16.08178711 C1.08769842 18.04538585 1.09273487 20.00902541 1.09765625 21.97265625 C1.10551147 23.74008179 1.10551147 23.74008179 1.11352539 25.54321289 C0.99692685 29.09357576 0.5655059 32.49542884 0 36 C-1.13179687 36.06058594 -2.26359375 36.12117188 -3.4296875 36.18359375 C-4.91147145 36.26799917 -6.3932416 36.35264717 -7.875 36.4375 C-8.62136719 36.47681641 -9.36773437 36.51613281 -10.13671875 36.55664062 C-14.19986864 36.71573624 -14.19986864 36.71573624 -18 38 C-19.32 36.35 -20.64 34.7 -22 33 C-20.50163895 29.88801935 -18.80066242 26.9465385 -17 24 C-16.01 24.33 -15.02 24.66 -14 25 C-11.60745424 25.22560676 -9.21071877 25.40848595 -6.8125 25.5625 C-4.90404297 25.68818359 -4.90404297 25.68818359 -2.95703125 25.81640625 C-1.98121094 25.87699219 -1.00539063 25.93757813 0 26 C0 23.03 0 20.06 0 17 C-2.25056722 17.11433363 -4.50046674 17.24186436 -6.75 17.375 C-8.00296875 17.44460937 -9.2559375 17.51421875 -10.546875 17.5859375 C-13.60998121 17.95323304 -15.41974266 18.39711286 -18 20 C-22.81450948 14.82440231 -22.81450948 14.82440231 -23.5625 11.5 C-22.79478366 8.08792736 -21.06948245 5.78086704 -19 3 C-18.32582031 3.15339844 -17.65164062 3.30679687 -16.95703125 3.46484375 C-13.53122048 4.08483857 -10.16106553 4.3352574 -6.6875 4.5625 C-5.43324219 4.64628906 -4.17898437 4.73007812 -2.88671875 4.81640625 C-1.45779297 4.90728516 -1.45779297 4.90728516 0 5 C0 3.35 0 1.7 0 0 Z " fill="#020101" transform="translate(52,24)"/>
<path d="M0 0 C0.33 0 0.66 0 1 0 C1.33 13.2 1.66 26.4 2 40 C6.90287593 41.96273945 6.90287593 41.96273945 11.75512695 42.14770508 C12.66990311 42.13141556 13.58467926 42.11512604 14.5271759 42.0983429 C15.50434067 42.07233505 16.48150543 42.04632721 17.48828125 42.01953125 C19.57746155 41.98936269 21.66665501 41.96009397 23.75585938 41.93164062 C27.03448459 41.87594595 30.3124456 41.81250132 33.59057617 41.73266602 C36.76487935 41.65978965 39.93838198 41.61881546 43.11328125 41.58203125 C44.08437332 41.54995071 45.05546539 41.51787018 46.0559845 41.4848175 C52.43149797 41.43768205 57.21564154 42.54070347 62 47 C62 47.66 62 48.32 62 49 C63.65 48.34 65.3 47.68 67 47 C68.125 52.75 68.125 52.75 67 55 C65.00045254 55.04254356 62.99958364 55.04080783 61 55 C60 54 60 54 59.5625 50.5 C59.376875 49.345 59.19125 48.19 59 47 C56.7256196 45.8628098 55.45423597 45.87106375 52.9296875 45.8671875 C51.70765625 45.86525391 51.70765625 45.86525391 50.4609375 45.86328125 C49.60757813 45.86714844 48.75421875 45.87101562 47.875 45.875 C46.62976563 45.86919922 46.62976563 45.86919922 45.359375 45.86328125 C40.90122811 45.87026894 36.64702336 46.14657265 32.22412109 46.76416016 C27.29262954 47.28708231 22.32908713 47.22674137 17.375 47.25 C15.71597656 47.2809375 15.71597656 47.2809375 14.0234375 47.3125 C8.27801553 47.34012222 3.92988544 47.33145842 -1 44 C-3.14181645 41.85818355 -2.16423544 36.97422074 -2.16796875 34.00390625 C-2.17129715 33.1000267 -2.17462555 32.19614716 -2.17805481 31.26487732 C-2.18312796 29.34903473 -2.18546302 27.43318328 -2.18530273 25.51733398 C-2.18748813 22.57846582 -2.20563665 19.63997348 -2.22460938 16.70117188 C-2.22754337 14.84375129 -2.22952813 12.98632891 -2.23046875 11.12890625 C-2.23765427 10.24554092 -2.24483978 9.3621756 -2.25224304 8.45204163 C-2.22882139 2.22882139 -2.22882139 2.22882139 0 0 Z " fill="#F1A956" transform="translate(62,18)"/>
<path d="M0 0 C3 0 3 0 5.25 2.1875 C7 5 7 5 6.9375 7.5 C5.91057457 10.23846782 4.60418269 12.55885242 3 15 C2.32582031 14.84660156 1.65164062 14.69320312 0.95703125 14.53515625 C-2.46877952 13.91516143 -5.83893447 13.6647426 -9.3125 13.4375 C-10.56675781 13.35371094 -11.82101563 13.26992188 -13.11328125 13.18359375 C-14.06589844 13.12300781 -15.01851563 13.06242187 -16 13 C-16 16.96 -16 20.92 -16 25 C-36.6971428 25.11795829 -57.32127347 24.98707645 -78 24 C-78.103125 24.78375 -78.20625 25.5675 -78.3125 26.375 C-79 29 -79 29 -82 31 C-84.60245498 31.14221065 -87.09117684 31.18802932 -89.6875 31.125 C-90.38939453 31.11597656 -91.09128906 31.10695313 -91.81445312 31.09765625 C-93.54311525 31.07413704 -95.27160145 31.03826713 -97 31 C-97 30.34 -97 29.68 -97 29 C-96.08476563 28.93941406 -95.16953125 28.87882812 -94.2265625 28.81640625 C-92.44378906 28.69072266 -92.44378906 28.69072266 -90.625 28.5625 C-88.84996094 28.44068359 -88.84996094 28.44068359 -87.0390625 28.31640625 C-84.08481099 28.18915064 -84.08481099 28.18915064 -82 27 C-82 25.35 -82 23.7 -82 22 C-60.88 22 -39.76 22 -18 22 C-18 17.38 -18 12.76 -18 8 C-17.67 6.35 -17.34 4.7 -17 3 C-16.67 3 -16.34 3 -16 3 C-16 5.64 -16 8.28 -16 11 C-14.95199219 10.98839844 -13.90398437 10.97679687 -12.82421875 10.96484375 C-11.44531428 10.95546345 -10.06640789 10.9463635 -8.6875 10.9375 C-7.99720703 10.92912109 -7.30691406 10.92074219 -6.59570312 10.91210938 C-3.4516975 10.89692094 -1.00579981 10.99806673 2 12 C3.39261878 9.32778425 3.39261878 9.32778425 4 6 C2.25651307 2.6330885 2.25651307 2.6330885 0 0 Z " fill="#000000" transform="translate(216,49)"/>
<path d="M0 0 C0.66 0.33 1.32 0.66 2 1 C2 14.53 2 28.06 2 42 C-7.00647991 46.50323996 -7.00647991 46.50323996 -11.08203125 46.4609375 C-12.00177734 46.45835938 -12.92152344 46.45578125 -13.86914062 46.453125 C-14.84044922 46.42734375 -15.81175781 46.4015625 -16.8125 46.375 C-17.83408203 46.36210938 -18.85566406 46.34921875 -19.90820312 46.3359375 C-32.29981106 46.09663065 -44.65766568 45.08024155 -57 44 C-56 42 -56 42 -54.21038818 41.38011169 C-51.96176704 40.99342523 -49.91409175 40.8930749 -47.63378906 40.91821289 C-46.77899963 40.9247438 -45.92421021 40.93127472 -45.04351807 40.93800354 C-44.12681335 40.94943893 -43.21010864 40.96087433 -42.265625 40.97265625 C-40.30989763 40.98530755 -38.35416837 40.99766813 -36.3984375 41.00976562 C-33.32643673 41.03452401 -30.25453556 41.06245054 -27.18261719 41.09594727 C-24.21028034 41.12632116 -21.23806844 41.14398022 -18.265625 41.16015625 C-17.35701721 41.17361588 -16.44840942 41.1870755 -15.51226807 41.20094299 C-14.64487 41.20432175 -13.77747192 41.2077005 -12.88378906 41.21118164 C-12.1319635 41.21863907 -11.38013794 41.2260965 -10.60552979 41.23377991 C-7.00724439 40.91092548 -3.50487294 39.87621824 0 39 C0 26.13 0 13.26 0 0 Z " fill="#F0A855" transform="translate(189,19)"/>
<path d="M0 0 C0.66 0.33 1.32 0.66 2 1 C1.34 1.9075 0.68 2.815 0 3.75 C-2.34939828 6.93175815 -2.34939828 6.93175815 -2 11 C-0.5833253 12.7511573 -0.5833253 12.7511573 1 14 C1.33 13.67 1.66 13.34 2 13 C4.69654854 12.92680379 7.36691458 12.90757463 10.0625 12.9375 C11.20041992 12.94426758 11.20041992 12.94426758 12.36132812 12.95117188 C14.24091871 12.9629932 16.12046899 12.98092922 18 13 C18 10.69 18 8.38 18 6 C18.33 6 18.66 6 19 6 C19 11.94 19 17.88 19 24 C39.13 24 59.26 24 80 24 C80 24.66 80 25.32 80 26 C64.06099736 26.65142011 48.140195 27.10499776 32.1875 27.125 C31.47956299 27.12749756 30.77162598 27.12999512 30.04223633 27.13256836 C28.04248895 27.13839445 26.04272236 27.13581363 24.04296875 27.1328125 C22.89852295 27.13168457 21.75407715 27.13055664 20.57495117 27.12939453 C18 27 18 27 17 26 C16.92773498 24.14712498 16.9161878 22.29166122 16.9375 20.4375 C16.94652344 19.42558594 16.95554687 18.41367188 16.96484375 17.37109375 C16.97644531 16.58863281 16.98804687 15.80617188 17 15 C14.93722893 15.14194764 12.87478969 15.28872216 10.8125 15.4375 C9.66394531 15.51871094 8.51539063 15.59992187 7.33203125 15.68359375 C4.48401829 15.95403812 1.78789518 16.37521747 -1 17 C-3.82561627 13.20307814 -5.56638908 10.81430721 -5 6 C-4.34 6 -3.68 6 -3 6 C-2.690625 5.195625 -2.38125 4.39125 -2.0625 3.5625 C-1 1 -1 1 0 0 Z " fill="#000102" transform="translate(34,47)"/>
<path d="M0 0 C0.88300781 0.00902344 1.76601562 0.01804687 2.67578125 0.02734375 C3.67158203 0.04474609 3.67158203 0.04474609 4.6875 0.0625 C4.6875 0.7225 4.6875 1.3825 4.6875 2.0625 C3.0375 2.0625 1.3875 2.0625 -0.3125 2.0625 C0.0175 5.0325 0.3475 8.0025 0.6875 11.0625 C2.0075 10.7325 3.3275 10.4025 4.6875 10.0625 C4.730221 11.72861905 4.72813832 13.39632885 4.6875 15.0625 C3.6875 16.0625 3.6875 16.0625 0.625 16.125 C-0.344375 16.104375 -1.31375 16.08375 -2.3125 16.0625 C-2.6425 14.4125 -2.9725 12.7625 -3.3125 11.0625 C-2.6525 11.0625 -1.9925 11.0625 -1.3125 11.0625 C-1.3125 9.7425 -1.3125 8.4225 -1.3125 7.0625 C-2.3025 7.0625 -3.2925 7.0625 -4.3125 7.0625 C-4.9725 6.0725 -5.6325 5.0825 -6.3125 4.0625 C-7.3025 3.7325 -8.2925 3.4025 -9.3125 3.0625 C-8.9825 5.7025 -8.6525 8.3425 -8.3125 11.0625 C-8.9725 11.0625 -9.6325 11.0625 -10.3125 11.0625 C-9.9825 12.0525 -9.6525 13.0425 -9.3125 14.0625 C-8.6525 14.3925 -7.9925 14.7225 -7.3125 15.0625 C-6.9825 14.4025 -6.6525 13.7425 -6.3125 13.0625 C-5.3125 14.0625 -5.3125 14.0625 -5.1875 16.5625 C-5.3125 19.0625 -5.3125 19.0625 -6.3125 20.0625 C-12.9125 19.4625 -12.9125 19.4625 -15.3125 17.0625 C-15.3125 15.7425 -15.3125 14.4225 -15.3125 13.0625 C-14.6525 13.0625 -13.9925 13.0625 -13.3125 13.0625 C-13.6425 11.7425 -13.9725 10.4225 -14.3125 9.0625 C-15.6325 9.0625 -16.9525 9.0625 -18.3125 9.0625 C-18.3125 7.7425 -18.3125 6.4225 -18.3125 5.0625 C-18.9725 4.7325 -19.6325 4.4025 -20.3125 4.0625 C-18.75090941 3.58037786 -17.18818072 3.10194127 -15.625 2.625 C-14.31982422 2.22474609 -14.31982422 2.22474609 -12.98828125 1.81640625 C-8.56726003 0.57077545 -4.5992463 -0.06132328 0 0 Z " fill="#E02739" transform="translate(118.3125,117.9375)"/>
<path d="M0 0 C3.1875 0 3.1875 0 6 1 C6.66 1.66 7.32 2.32 8 3 C7.625 5.625 7.625 5.625 7 8 C6.01 8.33 5.02 8.66 4 9 C3.01 10.485 3.01 10.485 2 12 C0.68 12 -0.64 12 -2 12 C-2.0825 12.61875 -2.165 13.2375 -2.25 13.875 C-3 16 -3 16 -5 17.125 C-5.66 17.41375 -6.32 17.7025 -7 18 C-7.33 18.66 -7.66 19.32 -8 20 C-10.375 19.75 -10.375 19.75 -13 19 C-14.63769092 16.8412256 -15.03871147 15.63873932 -14.875 12.9375 C-13.70851175 10.35456172 -12.40883977 9.47206875 -10 8 C-9.195625 7.731875 -8.39125 7.46375 -7.5625 7.1875 C-4.84923936 5.93013532 -4.24931766 5.15890661 -2.5625 2.8125 C-1.716875 1.884375 -0.87125 0.95625 0 0 Z " fill="#D11C33" transform="translate(112,152)"/>
<path d="M0 0 C3.78009498 0.6153643 4.98645261 2.73645261 7.6875 5.4375 C10.93800369 7.28778672 14.28590061 8.88531387 17.6875 10.4375 C17.8125 16.1875 17.8125 16.1875 16.6875 18.4375 C14.3125 18.5625 14.3125 18.5625 11.6875 18.4375 C11.0275 17.7775 10.3675 17.1175 9.6875 16.4375 C7.61875966 15.7949765 7.61875966 15.7949765 5.6875 15.4375 C5.6875 14.1175 5.6875 12.7975 5.6875 11.4375 C4.3675 11.7675 3.0475 12.0975 1.6875 12.4375 C1.0275 11.4475 0.3675 10.4575 -0.3125 9.4375 C-2.86433404 8.23299696 -2.86433404 8.23299696 -5.3125 7.4375 C-4.26557918 0.80700147 -4.26557918 0.80700147 0 0 Z " fill="#D71C35" transform="translate(134.3125,152.5625)"/>
<path d="M0 0 C2.00349261 0.31165441 4.00326516 0.64763503 6 1 C7.32 1 8.64 1 10 1 C10.33 1.33 10.66 1.66 11 2 C10.28 8.72 10.28 8.72 9 10 C6.95888202 10.04733027 4.91632775 10.03719959 2.875 10 C-1.89093522 9.95805558 -6.32046388 10.12938863 -11 11 C-12.5625 9.3125 -12.5625 9.3125 -14 7 C-13.6875 4.25 -13.6875 4.25 -13 2 C-9.51438119 0.83812706 -6.65601233 0.93352705 -3 1 C-2.34 1 -1.68 1 -1 1 C-0.67 0.67 -0.34 0.34 0 0 Z " fill="#D61C34" transform="translate(126,206)"/>
<path d="M0 0 C0.763125 0.20625 1.52625 0.4125 2.3125 0.625 C2.43625 1.429375 2.56 2.23375 2.6875 3.0625 C2.89375 3.908125 3.1 4.75375 3.3125 5.625 C3.9725 5.955 4.6325 6.285 5.3125 6.625 C4.9825 8.275 4.6525 9.925 4.3125 11.625 C5.3025 11.955 6.2925 12.285 7.3125 12.625 C7.456875 13.3675 7.60125 14.11 7.75 14.875 C8.24881867 17.55311274 8.24881867 17.55311274 9 19.8125 C9.103125 20.410625 9.20625 21.00875 9.3125 21.625 C7.3125 23.625 7.3125 23.625 3.6875 23.75 C2.57375 23.70875 1.46 23.6675 0.3125 23.625 C-1.01125073 20.71274839 -1.71282057 18.39289475 -2.0625 15.1875 C-2.46344617 11.49769669 -2.46344617 11.49769669 -4.8125 8.4375 C-6.6875 5.625 -6.6875 5.625 -6.625 3.375 C-4.9775547 0.29976877 -3.38637855 -0.47251794 0 0 Z " fill="#D61C34" transform="translate(96.6875,180.375)"/>
<path d="M0 0 C6.72 0.72 6.72 0.72 8 2 C7.62056512 6.09789669 7.30694043 8.53958935 5 12 C4.6325272 14.57648542 4.49630771 17.12536129 4.34375 19.72265625 C4 22 4 22 2 24 C-1 24.25 -1 24.25 -4 24 C-4.66 23.34 -5.32 22.68 -6 22 C-5.9765625 19.8359375 -5.9765625 19.8359375 -5.625 17.375 C-5.51414063 16.55773437 -5.40328125 15.74046875 -5.2890625 14.8984375 C-5.19367188 14.27195313 -5.09828125 13.64546875 -5 13 C-4.01 12.67 -3.02 12.34 -2 12 C-2.33 10.35 -2.66 8.7 -3 7 C-2.34 7 -1.68 7 -1 7 C-1.020625 6.030625 -1.04125 5.06125 -1.0625 4.0625 C-1 1 -1 1 0 0 Z " fill="#D71C35" transform="translate(150,181)"/>
<path d="M0 0 C3 0 3 0 5.3125 2.1875 C6.199375 3.115625 7.08625 4.04375 8 5 C9.9645991 6.71439073 11.97727146 8.35359305 14 10 C13.67 10.66 13.34 11.32 13 12 C10.50638429 10.79618552 8.31856917 9.54571278 6 8 C6 20.87 6 33.74 6 47 C5.67 47 5.34 47 5 47 C4.67 33.47 4.34 19.94 4 6 C3.67 18.54 3.34 31.08 3 44 C2.67 44 2.34 44 2 44 C1.67 30.8 1.34 17.6 1 4 C-2.63 5.32 -6.26 6.64 -10 8 C-13.8125 8.42578125 -13.8125 8.42578125 -17 8.3125 C-18.0725 8.28800781 -19.145 8.26351563 -20.25 8.23828125 C-23 8 -23 8 -26 7 C-26 6.34 -26 5.68 -26 5 C-24.865625 4.96261719 -23.73125 4.92523437 -22.5625 4.88671875 C-10.45990482 5.01460537 -10.45990482 5.01460537 0 0 Z " fill="#45321E" transform="translate(186,14)"/>
<path d="M0 0 C1.75140143 0.45294865 3.50107344 0.91258748 5.25 1.375 C6.71179688 1.75785156 6.71179688 1.75785156 8.203125 2.1484375 C11 3 11 3 13.21484375 4.11328125 C15.83328378 5.41390682 17.22906192 4.83772547 20 4 C21.7325 3.2575 21.7325 3.2575 23.5 2.5 C28.90756554 0.18247191 33.4423939 -0.1173608 39.3125 -0.0625 C40.56675781 -0.05347656 41.82101563 -0.04445313 43.11328125 -0.03515625 C44.06589844 -0.02355469 45.01851562 -0.01195313 46 0 C46.495 0.99 46.495 0.99 47 2 C46.17757812 2.03738281 45.35515625 2.07476563 44.5078125 2.11328125 C35.20114509 2.66136443 27.61671005 4.55331598 19 8 C19 20.54 19 33.08 19 46 C18.01 46 17.02 46 16 46 C16 33.46 16 20.92 16 8 C9.97875936 6.19362781 4.09094735 4.46633918 -2 3 C-1.34 2.01 -0.68 1.02 0 0 Z " fill="#3B3C3D" transform="translate(109,17)"/>
<path d="M0 0 C0.99 0.33 1.98 0.66 3 1 C5.56634861 1.22718496 8.11678107 1.41608184 10.6875 1.5625 C11.7403418 1.62727539 11.7403418 1.62727539 12.81445312 1.69335938 C14.54275206 1.7991736 16.2713511 1.90006581 18 2 C18 4.64 18 7.28 18 10 C16.86820313 10.06058594 15.73640625 10.12117188 14.5703125 10.18359375 C13.08852855 10.26799917 11.6067584 10.35264717 10.125 10.4375 C9.00544922 10.49647461 9.00544922 10.49647461 7.86328125 10.55664062 C3.80013136 10.71573624 3.80013136 10.71573624 0 12 C-1.32 10.35 -2.64 8.7 -4 7 C-2.79618552 4.50638429 -1.54571278 2.31856917 0 0 Z " fill="#DF9C4F" transform="translate(34,50)"/>
<path d="M0 0 C1.65 1.65 3.3 3.3 5 5 C3.5 8 3.5 8 2 11 C-3.94 10.67 -9.88 10.34 -16 10 C-16 7.36 -16 4.72 -16 2 C-14.92878906 1.93941406 -13.85757813 1.87882812 -12.75390625 1.81640625 C-11.35675609 1.73201463 -9.95962143 1.64736594 -8.5625 1.5625 C-7.50192383 1.50352539 -7.50192383 1.50352539 -6.41992188 1.44335938 C-2.91309581 1.52375562 -2.91309581 1.52375562 0 0 Z " fill="#E49F51" transform="translate(216,50)"/>
<path d="M0 0 C6.758618 -0.0255578 13.51722332 -0.04295331 20.27587891 -0.05493164 C22.57048 -0.05993042 24.86507795 -0.06673164 27.15966797 -0.07543945 C30.4762449 -0.0877017 33.79277937 -0.09327302 37.109375 -0.09765625 C38.62419464 -0.10539818 38.62419464 -0.10539818 40.1696167 -0.11329651 C47.15813716 -0.11383507 54.04529944 0.32148442 61 1 C61 1.33 61 1.66 61 2 C42.19 2 23.38 2 4 2 C3.67 3.65 3.34 5.3 3 7 C-0.68087353 9.45391569 -3.44355588 9.22802759 -7.6875 9.125 C-8.7403418 9.11146484 -8.7403418 9.11146484 -9.81445312 9.09765625 C-11.54311525 9.07413704 -13.27160145 9.03826713 -15 9 C-15 8.34 -15 7.68 -15 7 C-14.08476563 6.93941406 -13.16953125 6.87882812 -12.2265625 6.81640625 C-10.44378906 6.69072266 -10.44378906 6.69072266 -8.625 6.5625 C-6.84996094 6.44068359 -6.84996094 6.44068359 -5.0390625 6.31640625 C-2.08481099 6.18915064 -2.08481099 6.18915064 0 5 C0 3.35 0 1.7 0 0 Z " fill="#000000" transform="translate(134,71)"/>
<path d="M0 0 C0.99 0.66 1.98 1.32 3 2 C5.58885171 2.29991069 8.09149082 2.50865225 10.6875 2.625 C11.7403418 2.68300781 11.7403418 2.68300781 12.81445312 2.7421875 C14.54254655 2.8362334 16.27123675 2.9191968 18 3 C18 5.31 18 7.62 18 10 C16.95199219 10.06058594 15.90398438 10.12117188 14.82421875 10.18359375 C13.44529952 10.26801738 12.06639395 10.35266447 10.6875 10.4375 C9.65206055 10.49647461 9.65206055 10.49647461 8.59570312 10.55664062 C5.52838465 10.74927415 2.93031848 11.02322717 0 12 C-4 7.25 -4 7.25 -4 5 C-3.02149805 3.97895449 -2.02019573 2.9793879 -1 2 C-0.67 1.34 -0.34 0.68 0 0 Z " fill="#EDA654" transform="translate(34,29)"/>
<path d="M0 0 C0.99 0 1.98 0 3 0 C5.35723489 2.53184488 6 3.47190093 6 7 C5.34 7 4.68 7 4 7 C3.34 8.32 2.68 9.64 2 11 C1.01 10.67 0.02 10.34 -1 10 C-3.39254576 9.77439324 -5.78928123 9.59151405 -8.1875 9.4375 C-9.45980469 9.35371094 -10.73210937 9.26992188 -12.04296875 9.18359375 C-13.50669922 9.09271484 -13.50669922 9.09271484 -15 9 C-15 6.69 -15 4.38 -15 2 C-14.00097656 1.93941406 -13.00195312 1.87882812 -11.97265625 1.81640625 C-10.68230469 1.73261719 -9.39195312 1.64882813 -8.0625 1.5625 C-6.77472656 1.48128906 -5.48695313 1.40007813 -4.16015625 1.31640625 C-1.13976043 1.35080812 -1.13976043 1.35080812 0 0 Z " fill="#F1A855" transform="translate(215,30)"/>
<path d="M0 0 C0.33 0 0.66 0 1 0 C1.0988093 5.64163077 1.17143996 11.28275899 1.21972656 16.92504883 C1.23985348 18.84473441 1.2671579 20.76435862 1.30175781 22.68383789 C1.3502293 25.44172296 1.37295742 28.19879827 1.390625 30.95703125 C1.41127014 31.81649857 1.43191528 32.67596588 1.45318604 33.56147766 C1.45543141 39.51152467 1.45543141 39.51152467 -0.85742188 41.9921875 C-6.78095201 44.77846056 -11.79582915 45.35169413 -18.25 45.3125 C-19.14227295 45.31121094 -20.0345459 45.30992188 -20.95385742 45.30859375 C-32.71158993 45.14770799 -44.36001039 43.5610401 -56 42 C-56 41.67 -56 41.34 -56 41 C-53.85424137 40.97252941 -51.70837559 40.95339537 -49.5625 40.9375 C-48.36753906 40.92589844 -47.17257813 40.91429687 -45.94140625 40.90234375 C-43.13302313 40.97192708 -40.54559498 41.1427965 -37.77734375 41.48828125 C-32.1877562 42.15650431 -26.62438914 42.22180757 -21 42.25 C-19.97132813 42.270625 -18.94265625 42.29125 -17.8828125 42.3125 C-16.86960938 42.31765625 -15.85640625 42.3228125 -14.8125 42.328125 C-13.91144531 42.3374707 -13.01039063 42.34681641 -12.08203125 42.35644531 C-7.9198907 41.98186785 -7.9198907 41.98186785 0 39 C0 26.13 0 13.26 0 0 Z " fill="#1A150F" transform="translate(192,22)"/>
<path d="M0 0 C0.66 0 1.32 0 2 0 C2.3403125 0.9590625 2.3403125 0.9590625 2.6875 1.9375 C3.85250896 4.27193661 3.85250896 4.27193661 6.625 4.75 C7.40875 4.8325 8.1925 4.915 9 5 C8.690625 5.53625 8.38125 6.0725 8.0625 6.625 C6.82172561 9.3984957 6.4090325 12.00042837 6 15 C5.113125 14.79375 4.22625 14.5875 3.3125 14.375 C-0.2252711 13.97449761 -1.86632967 14.43316484 -5 16 C-4.9071875 14.39125 -4.9071875 14.39125 -4.8125 12.75 C-5.00543309 8.89133813 -5.39665076 7.71182212 -8 5 C-6.02 5 -4.04 5 -2 5 C-1.34 3.35 -0.68 1.7 0 0 Z " fill="#F7B263" transform="translate(124,175)"/>
<path d="M0 0 C4.2186429 0.70724307 8.39362392 0.61174909 12.65625 0.4453125 C12.65625 1.4353125 12.65625 2.4253125 12.65625 3.4453125 C7.12537226 5.28893841 1.9469063 4.57556291 -3.65625 3.4453125 C-12.87660082 1.66237173 -21.25269516 2.23663974 -30.34375 4.4453125 C-29.34375 1.4453125 -29.34375 1.4453125 -26.09375 -0.2421875 C-17.6082415 -3.1263496 -8.57814959 -1.79131947 0 0 Z " fill="#8B8C8E" transform="translate(165.34375,49.5546875)"/>
<path d="M0 0 C0.495 1.485 0.495 1.485 1 3 C-0.19625 2.67 -1.3925 2.34 -2.625 2 C-9.83618514 0.38862582 -17.65267955 0.24746783 -24.93359375 1.5078125 C-28.59712 2.09584347 -32.17783293 2.10907284 -35.875 2.0625 C-36.90753906 2.05573242 -36.90753906 2.05573242 -37.9609375 2.04882812 C-39.64066335 2.03716336 -41.32034375 2.01923271 -43 2 C-42.67 1.01 -42.34 0.02 -42 -1 C-7.96405283 -4.59682859 -7.96405283 -4.59682859 0 0 Z " fill="#8A8B8E" transform="translate(116,42)"/>
<path d="M0 0 C0 0.66 0 1.32 0 2 C-6.75 1.125 -6.75 1.125 -9 0 C-16.07886955 -0.44242935 -22.67909899 -0.04040023 -29.57421875 1.55078125 C-34.10985992 2.3907148 -39.78014183 3.10992909 -44 1 C-43.67 0.01 -43.34 -0.98 -43 -2 C-42.154375 -1.97679687 -41.30875 -1.95359375 -40.4375 -1.9296875 C-33.10278311 -1.70660546 -33.10278311 -1.70660546 -25.9375 -3 C-16.73614199 -5.67323664 -8.43652563 -4.18093305 0 0 Z " fill="#848588" transform="translate(117,52)"/>
<path d="M0 0 C0.495 1.485 0.495 1.485 1 3 C-0.19625 2.67 -1.3925 2.34 -2.625 2 C-9.83618514 0.38862582 -17.65267955 0.24746783 -24.93359375 1.5078125 C-28.59712 2.09584347 -32.17783293 2.10907284 -35.875 2.0625 C-36.90753906 2.05573242 -36.90753906 2.05573242 -37.9609375 2.04882812 C-39.64066335 2.03716336 -41.32034375 2.01923271 -43 2 C-42.67 1.01 -42.34 0.02 -42 -1 C-40.35451172 -1.09087891 -40.35451172 -1.09087891 -38.67578125 -1.18359375 C-37.22134346 -1.26804498 -35.76691695 -1.35269066 -34.3125 -1.4375 C-33.59126953 -1.47681641 -32.87003906 -1.51613281 -32.12695312 -1.55664062 C-5.44132771 -3.14071885 -5.44132771 -3.14071885 0 0 Z " fill="#949597" transform="translate(116,31)"/>
<path d="M0 0 C4.45903214 0.80559376 8.95150174 0.59976147 13.46484375 0.4453125 C13.13484375 1.4353125 12.80484375 2.4253125 12.46484375 3.4453125 C10.02726962 3.47229672 7.5899946 3.49214349 5.15234375 3.5078125 C4.46205078 3.51619141 3.77175781 3.52457031 3.06054688 3.53320312 C-0.08345875 3.54839156 -2.52935644 3.44724577 -5.53515625 2.4453125 C-13.78996679 2.01970476 -21.54269575 2.20181482 -29.53515625 4.4453125 C-29.53515625 3.4553125 -29.53515625 2.4653125 -29.53515625 1.4453125 C-20.05523996 -3.10504732 -10.04178205 -2.37260075 0 0 Z " fill="#727376" transform="translate(164.53515625,40.5546875)"/>
<path d="M0 0 C4.45903214 0.80559376 8.95150174 0.59976147 13.46484375 0.4453125 C13.13484375 1.4353125 12.80484375 2.4253125 12.46484375 3.4453125 C10.02726962 3.47229672 7.5899946 3.49214349 5.15234375 3.5078125 C4.46205078 3.51619141 3.77175781 3.52457031 3.06054688 3.53320312 C-0.08345875 3.54839156 -2.52935644 3.44724577 -5.53515625 2.4453125 C-13.78996679 2.01970476 -21.54269575 2.20181482 -29.53515625 4.4453125 C-29.53515625 3.4553125 -29.53515625 2.4653125 -29.53515625 1.4453125 C-20.05523996 -3.10504732 -10.04178205 -2.37260075 0 0 Z " fill="#727376" transform="translate(164.53515625,29.5546875)"/>
<path d="M0 0 C3.561056 0.677773 6.28719079 2.14767029 9.421875 3.94140625 C10.95908203 4.81635742 10.95908203 4.81635742 12.52734375 5.70898438 C13.59082031 6.32064453 14.65429688 6.93230469 15.75 7.5625 C16.82894531 8.17802734 17.90789062 8.79355469 19.01953125 9.42773438 C21.68216602 10.94755688 24.34217696 12.47178344 27 14 C21.82028612 15.72657129 16.90858245 12.99133068 11.875 11.3125 C10.75222656 10.95994141 9.62945312 10.60738281 8.47265625 10.24414062 C7.40660156 9.89158203 6.34054688 9.53902344 5.2421875 9.17578125 C4.2610498 8.85520752 3.27991211 8.53463379 2.26904297 8.2043457 C0 7 0 7 -0.89013672 5.05151367 C-1 3 -1 3 0 0 Z " fill="#F49D54" transform="translate(162,196)"/>
<path d="M0 0 C7.11131264 -0.1391722 14.05382537 0.26507455 21.125 1 C22.55972656 1.14308594 22.55972656 1.14308594 24.0234375 1.2890625 C26.34943754 1.5216625 28.67488959 1.75869679 31 2 C28.01782377 3.98811749 27.01539128 4.30941125 23.61328125 4.6328125 C22.75669922 4.71660156 21.90011719 4.80039063 21.01757812 4.88671875 C20.12490234 4.96535156 19.23222656 5.04398438 18.3125 5.125 C17.00249023 5.25455078 17.00249023 5.25455078 15.66601562 5.38671875 C10.41989828 5.88037878 5.26835493 6.08586376 0 6 C0 4.02 0 2.04 0 0 Z " fill="#F49B54" transform="translate(164,181)"/>
<path d="M0 0 C2.97 0.495 2.97 0.495 6 1 C5.48151875 6.22629098 2.79710724 10.11713855 0.125 14.5 C-0.54595703 15.61955078 -0.54595703 15.61955078 -1.23046875 16.76171875 C-2.4805168 18.84513217 -3.73928409 20.9230311 -5 23 C-6.00063148 24.66628762 -7.00097312 26.33274985 -8 28 C-9 26 -9 26 -8.28735352 23.38623047 C-7.90506592 22.30744629 -7.52277832 21.22866211 -7.12890625 20.1171875 C-6.51499023 18.36728516 -6.51499023 18.36728516 -5.88867188 16.58203125 C-5.45103516 15.35871094 -5.01339844 14.13539063 -4.5625 12.875 C-4.12873047 11.64394531 -3.69496094 10.41289062 -3.24804688 9.14453125 C-2.17205477 6.09391626 -1.08910366 3.04595357 0 0 Z " fill="#F4A055" transform="translate(105,221)"/>
<path d="M0 0 C-0.53890869 0.28198242 -1.07781738 0.56396484 -1.63305664 0.85449219 C-4.11024481 2.15164958 -6.58637685 3.45081084 -9.0625 4.75 C-9.91005859 5.1934375 -10.75761719 5.636875 -11.63085938 6.09375 C-15.46255326 8.10575914 -19.26507655 10.13420563 -22.99609375 12.328125 C-26 14 -26 14 -28 14 C-28.66 12.02 -29.32 10.04 -30 8 C-26.21359437 6.68842894 -22.42334896 5.38871329 -18.62915039 4.09985352 C-17.33897685 3.65973773 -16.04989876 3.216397 -14.76196289 2.76977539 C-12.91062881 2.12840763 -11.05496741 1.49957396 -9.19921875 0.87109375 C-8.08377686 0.48880615 -6.96833496 0.10651855 -5.8190918 -0.28735352 C-3 -1 -3 -1 0 0 Z " fill="#F49C54" transform="translate(190,157)"/>
<path d="M0 0 C3.64795474 0.6509039 7.02569081 1.61798056 10.51953125 2.84765625 C11.54111328 3.20537109 12.56269531 3.56308594 13.61523438 3.93164062 C14.67033203 4.30482422 15.72542969 4.67800781 16.8125 5.0625 C17.88693359 5.43955078 18.96136719 5.81660156 20.06835938 6.20507812 C22.71330118 7.13374658 25.35712054 8.06548189 28 9 C27.67 10.98 27.34 12.96 27 15 C23.438944 14.322227 20.71280921 12.85232971 17.578125 11.05859375 C16.55332031 10.47529297 15.52851562 9.89199219 14.47265625 9.29101562 C13.40917969 8.67935547 12.34570312 8.06769531 11.25 7.4375 C10.17105469 6.82197266 9.09210938 6.20644531 7.98046875 5.57226562 C5.31783398 4.05244312 2.65782304 2.52821656 0 1 C0 0.67 0 0.34 0 0 Z " fill="#F4A155" transform="translate(60,157)"/>
<path d="M0 0 C0.99902344 1.9777832 0.99902344 1.9777832 1.859375 4.55078125 C2.17003906 5.47697266 2.48070312 6.40316406 2.80078125 7.35742188 C3.11402344 8.33259766 3.42726562 9.30777344 3.75 10.3125 C4.07871094 11.27607422 4.40742188 12.23964844 4.74609375 13.23242188 C7.33748524 21.12140482 7.33748524 21.12140482 6 25 C3.79953501 21.21571557 1.61686959 17.42146632 -0.5625 13.625 C-1.19091797 12.54476562 -1.81933594 11.46453125 -2.46679688 10.3515625 C-3.05654297 9.3203125 -3.64628906 8.2890625 -4.25390625 7.2265625 C-4.80377197 6.27346191 -5.3536377 5.32036133 -5.92016602 4.33837891 C-6.45468384 3.18088135 -6.45468384 3.18088135 -7 2 C-5.26578631 -1.46842738 -3.40984787 -1.13661596 0 0 Z " fill="#F49F54" transform="translate(143,221)"/>
<path d="M0 0 C0 1.98 0 3.96 0 6 C-6.92326453 6.11455246 -13.67445441 5.6746729 -20.5625 5 C-22.07553711 4.85691406 -22.07553711 4.85691406 -23.61914062 4.7109375 C-26.07980981 4.47769871 -28.5400466 4.24065109 -31 4 C-31 3.67 -31 3.34 -31 3 C-27.14674943 2.49276851 -23.29227297 1.99551801 -19.4375 1.5 C-18.35146484 1.35691406 -17.26542969 1.21382812 -16.14648438 1.06640625 C-10.72018862 0.37368764 -5.47091369 -0.18838153 0 0 Z " fill="#F49F54" transform="translate(85,181)"/>
<path d="M0 0 C0.99 0.33 1.98 0.66 3 1 C3.33 2.65 3.66 4.3 4 6 C0.19461421 7.30959645 -3.61395783 8.60940354 -7.42578125 9.90014648 C-8.72259855 10.34081098 -10.01850639 10.78416121 -11.31347656 11.23022461 C-13.17272738 11.87014286 -15.03554004 12.49968291 -16.8984375 13.12890625 C-18.01911621 13.51119385 -19.13979492 13.89348145 -20.29443359 14.28735352 C-23 15 -23 15 -25 14 C-24.34926514 13.64695801 -23.69853027 13.29391602 -23.02807617 12.93017578 C-20.08041684 11.32992013 -17.13394736 9.72748599 -14.1875 8.125 C-12.65125977 7.29162109 -12.65125977 7.29162109 -11.08398438 6.44140625 C-10.10107422 5.90644531 -9.11816406 5.37148437 -8.10546875 4.8203125 C-7.19949951 4.32805176 -6.29353027 3.83579102 -5.36010742 3.32861328 C-3.52737382 2.29688304 -1.74995424 1.16663616 0 0 Z " fill="#F4A055" transform="translate(85,197)"/>
<path d="M0 0 C1.65 0 3.3 0 5 0 C4.86076952 4.06275446 4.71246082 8.12512857 4.5625 12.1875 C4.52318359 13.33798828 4.48386719 14.48847656 4.44335938 15.67382812 C4.40146484 16.78564453 4.35957031 17.89746094 4.31640625 19.04296875 C4.27974854 20.06414795 4.24309082 21.08532715 4.20532227 22.13745117 C4.01159937 24.83828463 3.59548047 27.36166128 3 30 C2.67 30 2.34 30 2 30 C0.75155935 19.96788765 -0.35762486 10.13270429 0 0 Z " fill="#F6A857" transform="translate(121,224)"/>
<path d="M0 0 C3.07538384 0.21209544 4.07072616 1.06881465 6.3125 3.25 C8 6 8 6 8 8.4375 C6.75253348 11.63413296 5.00147402 14.22376184 3 17 C1.68 16.67 0.36 16.34 -1 16 C-1 15.01 -1 14.02 -1 13 C-0.360625 12.87625 0.27875 12.7525 0.9375 12.625 C1.618125 12.41875 2.29875 12.2125 3 12 C3.33 11.34 3.66 10.68 4 10 C4.66 10 5.32 10 6 10 C5.505 9.21625 5.01 8.4325 4.5 7.625 C3 5 3 5 3 3 C2.48953125 3.32742187 1.9790625 3.65484375 1.453125 3.9921875 C-1.86772037 5.35648384 -4.67372568 5.1912273 -8.25 5.125 C-9.51328125 5.10695313 -10.7765625 5.08890625 -12.078125 5.0703125 C-13.04234375 5.04710937 -14.0065625 5.02390625 -15 5 C-15 4.01 -15 3.02 -15 2 C-14.00097656 1.93941406 -13.00195312 1.87882812 -11.97265625 1.81640625 C-10.68230469 1.73261719 -9.39195312 1.64882813 -8.0625 1.5625 C-6.77472656 1.48128906 -5.48695313 1.40007813 -4.16015625 1.31640625 C-1.13976043 1.35080812 -1.13976043 1.35080812 0 0 Z " fill="#121011" transform="translate(215,27)"/>
<path d="M0 0 C3.875 1.875 3.875 1.875 5 3 C8.51745287 2.74751373 8.51745287 2.74751373 12 2 C12.33 1.34 12.66 0.68 13 0 C13.99 0 14.98 0 16 0 C16.33 1.65 16.66 3.3 17 5 C13.40389031 7.39740646 11.69907673 7.23987692 7.4375 7.1875 C6.28121094 7.18105469 5.12492187 7.17460938 3.93359375 7.16796875 C1 7 1 7 -1 6 C-0.67 4.02 -0.34 2.04 0 0 Z " fill="#E7E7E7" transform="translate(118,71)"/>
<path d="M0 0 C0.33 0 0.66 0 1 0 C1.33 2.97 1.66 5.94 2 9 C7.94 9 13.88 9 20 9 C20 9.33 20 9.66 20 10 C24.29 10.33 28.58 10.66 33 11 C33 11.33 33 11.66 33 12 C28.46102295 12.02465392 23.92208457 12.04283789 19.38305664 12.05493164 C17.83780234 12.0599714 16.29255284 12.0668032 14.74731445 12.07543945 C12.53074971 12.08752076 10.31424782 12.09323173 8.09765625 12.09765625 C7.05545677 12.10539818 7.05545677 12.10539818 5.99220276 12.11329651 C4.3277067 12.11349277 2.66334501 12.06189129 1 12 C0 11 0 11 -0.09765625 8.49609375 C-0.08605469 7.48675781 -0.07445312 6.47742188 -0.0625 5.4375 C-0.05347656 4.42558594 -0.04445312 3.41367188 -0.03515625 2.37109375 C-0.02355469 1.58863281 -0.01195312 0.80617187 0 0 Z " fill="#0F1525" transform="translate(51,62)"/>
<path d="M0 0 C3.87302138 1.14430177 7.00263439 2.23320098 10 5 C10 5.66 10 6.32 10 7 C11.65 6.34 13.3 5.68 15 5 C16.125 10.75 16.125 10.75 15 13 C13.00045254 13.04254356 10.99958364 13.04080783 9 13 C8 12 8 12 7.5625 8.5 C7.376875 7.345 7.19125 6.19 7 5 C4.43106162 3.71553081 2.23423663 3.67022856 -0.625 3.4375 C-1.62789063 3.35371094 -2.63078125 3.26992188 -3.6640625 3.18359375 C-4.43492188 3.12300781 -5.20578125 3.06242187 -6 3 C-6 2.67 -6 2.34 -6 2 C-4.02 2 -2.04 2 0 2 C0 1.34 0 0.68 0 0 Z " fill="#EAA453" transform="translate(114,60)"/>
<path d="M0 0 C0 0.99 0 1.98 0 3 C-7.91913416 6.22134271 -16.68511703 7.77162766 -25 5 C-25 4.34 -25 3.68 -25 3 C-23.84242188 2.95101563 -22.68484375 2.90203125 -21.4921875 2.8515625 C-19.9531033 2.77648522 -18.4140419 2.70093957 -16.875 2.625 C-15.73417969 2.57859375 -15.73417969 2.57859375 -14.5703125 2.53125 C-9.57308532 2.27277273 -4.78930309 0 0 0 Z " fill="#0C0F15" transform="translate(185,16)"/>
<path d="M0 0 C0.33 0 0.66 0 1 0 C1.495 8.415 1.495 8.415 2 17 C-9.55 17 -21.1 17 -33 17 C-33 16.67 -33 16.34 -33 16 C-27.06 15.67 -21.12 15.34 -15 15 C-15 14.67 -15 14.34 -15 14 C-10.05 14 -5.1 14 0 14 C0 9.38 0 4.76 0 0 Z " fill="#171C27" transform="translate(198,57)"/>
<path d="M0 0 C0.67417969 0.15339844 1.34835938 0.30679687 2.04296875 0.46484375 C5.46877952 1.08483857 8.83893447 1.3352574 12.3125 1.5625 C13.56675781 1.64628906 14.82101563 1.73007812 16.11328125 1.81640625 C17.54220703 1.90728516 17.54220703 1.90728516 19 2 C19 2.99 19 3.98 19 5 C16.54137599 5.05383848 14.0839245 5.09359038 11.625 5.125 C10.57699219 5.15013672 10.57699219 5.15013672 9.5078125 5.17578125 C7.67102514 5.19344267 5.83398037 5.10303261 4 5 C3.34 4.34 2.68 3.68 2 3 C1.319375 3.99 1.319375 3.99 0.625 5 C0.08875 5.66 -0.4475 6.32 -1 7 C-1.66 7 -2.32 7 -3 7 C-1.02 9.97 -1.02 9.97 1 13 C0.34 13.66 -0.32 14.32 -1 15 C-2.88299526 12.88163033 -3.91939601 11.43756449 -4.4375 8.625 C-3.84527198 5.07163187 -2.12646136 2.85743246 0 0 Z " fill="#261F1B" transform="translate(33,27)"/>
<path d="M0 0 C0.33 0 0.66 0 1 0 C1 13.2 1 26.4 1 40 C-4.99171898 42.56787956 -6.94190213 43.37293086 -12.9375 43.1875 C-14.08089844 43.16042969 -15.22429687 43.13335937 -16.40234375 43.10546875 C-17.25957031 43.07066406 -18.11679688 43.03585938 -19 43 C-19 42.67 -19 42.34 -19 42 C-17.69675781 41.80083984 -17.69675781 41.80083984 -16.3671875 41.59765625 C-15.21476563 41.42105469 -14.06234375 41.24445312 -12.875 41.0625 C-11.73804688 40.88847656 -10.60109375 40.71445312 -9.4296875 40.53515625 C-6.28315133 40.04418193 -3.1412807 39.52354678 0 39 C0 26.13 0 13.26 0 0 Z " fill="#000000" transform="translate(187,18)"/>
<path d="M0 0 C3.00099588 -0.10890711 5.99796378 -0.18773555 9 -0.25 C9.83917969 -0.28351562 10.67835937 -0.31703125 11.54296875 -0.3515625 C16.94480777 -0.43531194 20.56453304 0.30176039 25.2109375 3.109375 C28.18055497 4.58769986 30.74484367 4.27126303 34 4 C32.1875 6.5 32.1875 6.5 30 9 C27 9 27 9 25.0625 7.125 C24.0415625 6.073125 24.0415625 6.073125 23 5 C20.13654967 3.30300019 17.75197565 2.67924094 14.453125 2.3671875 C13.60878906 2.28339844 12.76445313 2.19960938 11.89453125 2.11328125 C10.58548828 1.99533203 10.58548828 1.99533203 9.25 1.875 C8.36183594 1.78863281 7.47367187 1.70226563 6.55859375 1.61328125 C4.37297064 1.40176934 2.18691762 1.19759773 0 1 C0 0.67 0 0.34 0 0 Z " fill="#14100D" transform="translate(97,58)"/>
<path d="M0 0 C0.33 0 0.66 0 1 0 C1.0988093 5.64163077 1.17143996 11.28275899 1.21972656 16.92504883 C1.23985348 18.84473441 1.2671579 20.76435862 1.30175781 22.68383789 C1.3502293 25.44172296 1.37295742 28.19879827 1.390625 30.95703125 C1.41127014 31.81649857 1.43191528 32.67596588 1.45318604 33.56147766 C1.45542492 39.49433182 1.45542492 39.49433182 -0.82128906 42.0222168 C-3.52367172 43.23501852 -6.06663059 43.66666257 -9 44 C-9 43.34 -9 42.68 -9 42 C-6.03 41.01 -3.06 40.02 0 39 C0 26.13 0 13.26 0 0 Z " fill="#010100" transform="translate(192,22)"/>
<path d="M0 0 C1.65 0 3.3 0 5 0 C3.375 6.75 3.375 6.75 0 9 C-2.60245498 9.14221065 -5.09117684 9.18802932 -7.6875 9.125 C-8.7403418 9.11146484 -8.7403418 9.11146484 -9.81445312 9.09765625 C-11.54311525 9.07413704 -13.27160145 9.03826713 -15 9 C-15 8.34 -15 7.68 -15 7 C-14.08476563 6.93941406 -13.16953125 6.87882812 -12.2265625 6.81640625 C-10.44378906 6.69072266 -10.44378906 6.69072266 -8.625 6.5625 C-6.84996094 6.44068359 -6.84996094 6.44068359 -5.0390625 6.31640625 C-2.08481099 6.18915064 -2.08481099 6.18915064 0 5 C0 3.35 0 1.7 0 0 Z " fill="#040509" transform="translate(134,71)"/>
<path d="M0 0 C0 0.33 0 0.66 0 1 C-7.91960165 2.16338 -15.58069547 1.91770051 -23.5625 1.5625 C-25.50479492 1.48418945 -25.50479492 1.48418945 -27.48632812 1.40429688 C-30.65785276 1.2755634 -33.82898496 1.14064343 -37 1 C-37 0.67 -37 0.34 -37 0 C-24.5899568 -1.25646855 -12.43161732 -0.75131468 0 0 Z " fill="#45392C" transform="translate(177,59)"/>
<path d="M0 0 C0.69287109 0.00451172 1.38574219 0.00902344 2.09960938 0.01367188 C3.79561068 0.02536844 5.49156703 0.04330076 7.1875 0.0625 C7.5175 0.7225 7.8475 1.3825 8.1875 2.0625 C7.36507812 2.12308594 6.54265625 2.18367188 5.6953125 2.24609375 C-1.151719 2.76001644 -7.9844587 3.33808027 -14.8125 4.0625 C-12.8125 1.0625 -12.8125 1.0625 -10.67578125 0.37890625 C-7.10925367 -0.01521208 -3.58204961 -0.04456138 0 0 Z " fill="#03050A" transform="translate(101.8125,16.9375)"/>
<path d="M0 0 C6.93 0 13.86 0 21 0 C20.67 2.31 20.34 4.62 20 7 C20.66 7 21.32 7 22 7 C22 7.99 22 8.98 22 10 C18.125 8.125 18.125 8.125 17 7 C17 5.02 17 3.04 17 1 C11.39 1 5.78 1 0 1 C0 0.67 0 0.34 0 0 Z " fill="#323335" transform="translate(97,70)"/>
<path d="M0 0 C0 0.33 0 0.66 0 1 C-26.17654243 2.40027356 -26.17654243 2.40027356 -36 1 C-36 0.67 -36 0.34 -36 0 C-23.8831855 -1.09999014 -12.12728142 -0.80765706 0 0 Z " fill="#4B3D2E" transform="translate(110,59)"/>
<path d="M0 0 C0.33 0 0.66 0 1 0 C1.33 5.28 1.66 10.56 2 16 C8.64248536 17.91610155 15.11059329 18.56367091 22 19 C22 19.33 22 19.66 22 20 C19.29105233 20.08144943 16.58458737 20.14070614 13.875 20.1875 C13.11445312 20.21263672 12.35390625 20.23777344 11.5703125 20.26367188 C10.82265625 20.27333984 10.075 20.28300781 9.3046875 20.29296875 C8.2835083 20.31653442 8.2835083 20.31653442 7.24169922 20.34057617 C5 20 5 20 -1 17 C-0.67 11.39 -0.34 5.78 0 0 Z " fill="#231F1A" transform="translate(64,41)"/>
<path d="M0 0 C0 0.33 0 0.66 0 1 C2.31 1.33 4.62 1.66 7 2 C7 2.33 7 2.66 7 3 C5.97519531 3.13277344 4.95039063 3.26554687 3.89453125 3.40234375 C2.5338426 3.58064088 1.17316615 3.75903123 -0.1875 3.9375 C-0.86103516 4.02451172 -1.53457031 4.11152344 -2.22851562 4.20117188 C-5.85081166 4.67825477 -9.42803585 5.23012035 -13 6 C-13 5.01 -13 4.02 -13 3 C-4.57142857 -0.42857143 -4.57142857 -0.42857143 0 0 Z " fill="#919294" transform="translate(148,39)"/>
<path d="M0 0 C0 0.33 0 0.66 0 1 C2.31 1.33 4.62 1.66 7 2 C7 2.33 7 2.66 7 3 C5.97519531 3.13277344 4.95039063 3.26554687 3.89453125 3.40234375 C2.5338426 3.58064088 1.17316615 3.75903123 -0.1875 3.9375 C-0.86103516 4.02451172 -1.53457031 4.11152344 -2.22851562 4.20117188 C-5.85081166 4.67825477 -9.42803585 5.23012035 -13 6 C-13 5.01 -13 4.02 -13 3 C-4.57142857 -0.42857143 -4.57142857 -0.42857143 0 0 Z " fill="#909194" transform="translate(148,28)"/>
<path d="M0 0 C2.0625 0.4375 2.0625 0.4375 4 1 C1.09488246 3.82179677 -0.46544831 4.94119343 -4.55078125 5.390625 C-5.79214844 5.34421875 -7.03351563 5.2978125 -8.3125 5.25 C-10.19388672 5.19585937 -10.19388672 5.19585937 -12.11328125 5.140625 C-13.06589844 5.09421875 -14.01851562 5.0478125 -15 5 C-15 4.01 -15 3.02 -15 2 C-14.00097656 1.93941406 -13.00195312 1.87882812 -11.97265625 1.81640625 C-10.68230469 1.73261719 -9.39195312 1.64882813 -8.0625 1.5625 C-6.77472656 1.48128906 -5.48695313 1.40007813 -4.16015625 1.31640625 C-1.13976043 1.35080812 -1.13976043 1.35080812 0 0 Z " fill="#251E1A" transform="translate(215,27)"/>
<path d="M0 0 C3.26008643 3.16952847 6.22237877 6.39937989 9 10 C4.76570244 8.68938409 0.92592596 7.05643741 -3 5 C-2.01 3.35 -1.02 1.7 0 0 Z " fill="#F49B53" transform="translate(159,204)"/>
<path d="M0 0 C0.66 0.33 1.32 0.66 2 1 C1.34 1.9075 0.68 2.815 0 3.75 C-2.34939828 6.93175815 -2.34939828 6.93175815 -2 11 C-0.77045984 12.81299492 -0.77045984 12.81299492 1 14 C1.99 14 2.98 14 4 14 C3.01 15.485 3.01 15.485 2 17 C1.01 17 0.02 17 -1 17 C-3.42603384 14.01944414 -4.91332443 11.99676908 -5.25 8.125 C-5.1675 7.42375 -5.085 6.7225 -5 6 C-4.34 6 -3.68 6 -3 6 C-2.690625 5.195625 -2.38125 4.39125 -2.0625 3.5625 C-1 1 -1 1 0 0 Z " fill="#0B0A0D" transform="translate(34,47)"/>
<path d="M0 0 C1.25425781 0.01804688 2.50851563 0.03609375 3.80078125 0.0546875 C5.22970703 0.08949219 5.22970703 0.08949219 6.6875 0.125 C6.6875 0.455 6.6875 0.785 6.6875 1.125 C0.02083333 2.45833333 -6.64583333 3.79166667 -13.3125 5.125 C-12.3125 2.125 -12.3125 2.125 -10.20703125 0.9453125 C-6.69447119 -0.05014987 -3.64632339 -0.06815558 0 0 Z " fill="#797A7C" transform="translate(148.3125,48.875)"/>
<path d="M0 0 C4.05281712 1.22527029 7.44360764 2.69880494 11 5 C10.34 6.65 9.68 8.3 9 10 C5.73991357 6.83047153 2.77762123 3.60062011 0 0 Z " fill="#F49D54" transform="translate(81,154)"/>
<path d="M0 0 C0 0.99 0 1.98 0 3 C-2.67643957 3.89214652 -4.25384378 4.13540211 -7 4.125 C-8.0209375 4.12886719 -8.0209375 4.12886719 -9.0625 4.1328125 C-11 4 -11 4 -14 3 C-14 2.34 -14 1.68 -14 1 C-12.04175306 0.83232136 -10.08339945 0.66588795 -8.125 0.5 C-6.48917969 0.36078125 -6.48917969 0.36078125 -4.8203125 0.21875 C-3.21670436 0.09437042 -1.60842449 0 0 0 Z " fill="#808184" transform="translate(178,50)"/>
<path d="M0 0 C0 3.19610552 -0.54671542 4.41717626 -2 7.1875 C-2.37125 7.90292969 -2.7425 8.61835938 -3.125 9.35546875 C-3.41375 9.89816406 -3.7025 10.44085938 -4 11 C-5.32 10.34 -6.64 9.68 -8 9 C-6.4169423 4.7257442 -3.49431596 2.73468206 0 0 Z " fill="#F39953" transform="translate(154,141)"/>
<path d="M0 0 C0 0.66 0 1.32 0 2 C-1.27875 1.690625 -2.5575 1.38125 -3.875 1.0625 C-8.88758722 -0.06114833 -13.88510956 -0.59422581 -19 -1 C-19 -1.33 -19 -1.66 -19 -2 C-5.89693593 -3.93129062 -5.89693593 -3.93129062 0 0 Z " fill="#7E7F82" transform="translate(117,32)"/>
<path d="M0 0 C1.89685547 0.05220703 1.89685547 0.05220703 3.83203125 0.10546875 C5.74048828 0.14607422 5.74048828 0.14607422 7.6875 0.1875 C9.15123047 0.23970703 9.15123047 0.23970703 10.64453125 0.29296875 C10.97453125 0.95296875 11.30453125 1.61296875 11.64453125 2.29296875 C5.70453125 2.62296875 -0.23546875 2.95296875 -6.35546875 3.29296875 C-3.35546875 0.29296875 -3.35546875 0.29296875 0 0 Z " fill="#010203" transform="translate(144.35546875,16.70703125)"/>
<path d="M0 0 C3 0 3 0 5.25 2.1875 C7 5 7 5 7 7.5 C5.80003733 10.49990667 4.13325995 12.5914807 2 15 C2 14.34 2 13.68 2 13 C1.34 12.67 0.68 12.34 0 12 C0.66 12 1.32 12 2 12 C3.39261878 9.32778425 3.39261878 9.32778425 4 6 C2.25651307 2.6330885 2.25651307 2.6330885 0 0 Z " fill="#1B1613" transform="translate(216,49)"/>
<path d="M0 0 C1.32 0.66 2.64 1.32 4 2 C2.49776416 6.20626034 -0.28550034 7.73900021 -4 10 C-2.8905928 6.51329166 -1.73662334 3.22515763 0 0 Z " fill="#F5A155" transform="translate(99,216)"/>
<path d="M0 0 C4.87664009 -0.34833144 7.77050005 0.58314288 12 3 C12 3.66 12 4.32 12 5 C7.428721 4.45144652 3.32564205 3.58255197 -1 2 C-0.67 1.34 -0.34 0.68 0 0 Z " fill="#7E7F81" transform="translate(105,49)"/>
<path d="M0 0 C0.66 0.33 1.32 0.66 2 1 C0.71372289 2.17260611 -0.57919783 3.3379283 -1.875 4.5 C-2.59429687 5.1496875 -3.31359375 5.799375 -4.0546875 6.46875 C-6 8 -6 8 -8 8 C-8.33 6.68 -8.66 5.36 -9 4 C-7.54618103 3.30300448 -6.08677047 2.61766134 -4.625 1.9375 C-3.40683594 1.36322266 -3.40683594 1.36322266 -2.1640625 0.77734375 C-1.44992188 0.52082031 -0.73578125 0.26429688 0 0 Z " fill="#F39552" transform="translate(166,155)"/>
<path d="M0 0 C5.80205656 5.64524422 5.80205656 5.64524422 8 9 C8 9.66 8 10.32 8 11 C6.68 11.33 5.36 11.66 4 12 C3.3291288 10.3767313 2.66342971 8.75132422 2 7.125 C1.62875 6.22007812 1.2575 5.31515625 0.875 4.3828125 C0 2 0 2 0 0 Z " fill="#F29452" transform="translate(95,140)"/>
<path d="M0 0 C1.07894531 0.03480469 2.15789062 0.06960937 3.26953125 0.10546875 C4.35621094 0.13253906 5.44289063 0.15960937 6.5625 0.1875 C7.80966797 0.23970703 7.80966797 0.23970703 9.08203125 0.29296875 C9.08203125 0.95296875 9.08203125 1.61296875 9.08203125 2.29296875 C4.13203125 2.62296875 -0.81796875 2.95296875 -5.91796875 3.29296875 C-2.91796875 0.29296875 -2.91796875 0.29296875 0 0 Z " fill="#747578" transform="translate(97.91796875,27.70703125)"/>
<path d="M0 0 C5.445 1.485 5.445 1.485 11 3 C11 3.99 11 4.98 11 6 C6.71 5.01 2.42 4.02 -2 3 C-1.34 2.01 -0.68 1.02 0 0 Z " fill="#191A1E" transform="translate(109,17)"/>
<path d="M0 0 C0.99 3.63 1.98 7.26 3 11 C0.66666667 8.66666667 -1.66666667 6.33333333 -4 4 C-4 3.01 -4 2.02 -4 1 C-2 0 -2 0 0 0 Z " fill="#F39853" transform="translate(150,216)"/>
<path d="M0 0 C3.465 1.98 3.465 1.98 7 4 C7 5.32 7 6.64 7 8 C6.01 8.33 5.02 8.66 4 9 C0 2.25 0 2.25 0 0 Z " fill="#F09B53" transform="translate(89,148)"/>
<path d="M0 0 C-1.26941497 3.91402949 -2.51167694 5.79072873 -6 8 C-6.66 6.68 -7.32 5.36 -8 4 C-2.25 0 -2.25 0 0 0 Z " fill="#F4A055" transform="translate(160,149)"/>
<path d="M0 0 C1.32 0 2.64 0 4 0 C2.84414715 3.91211733 1.64465038 6.8745041 -1 10 C-1.125 2.25 -1.125 2.25 0 0 Z " fill="#F18E51" transform="translate(114,223)"/>
<path d="M0 0 C0.66 0 1.32 0 2 0 C2.33 1.32 2.66 2.64 3 4 C-1.95 5.485 -1.95 5.485 -7 7 C-4.66666667 4.66666667 -2.33333333 2.33333333 0 0 Z " fill="#F49E54" transform="translate(89,205)"/>
<path d="M0 0 C1.77049689 -0.05410687 3.54146849 -0.09284119 5.3125 -0.125 C6.29863281 -0.14820313 7.28476563 -0.17140625 8.30078125 -0.1953125 C11 0 11 0 14 2 C13.67 3.98 13.34 5.96 13 8 C12.67 8 12.34 8 12 8 C11.67 6.35 11.34 4.7 11 3 C7.37 2.34 3.74 1.68 0 1 C0 0.67 0 0.34 0 0 Z " fill="#0C0906" transform="translate(108,63)"/>
<path d="M0 0 C-0.33 0.99 -0.66 1.98 -1 3 C-4.42264319 4.42610133 -8.09879533 4.09901205 -11.75 4.0625 C-12.92046875 4.05347656 -14.0909375 4.04445313 -15.296875 4.03515625 C-16.18890625 4.02355469 -17.0809375 4.01195312 -18 4 C-18 3.67 -18 3.34 -18 3 C-16.64455078 2.80083984 -16.64455078 2.80083984 -15.26171875 2.59765625 C-14.08222656 2.42105469 -12.90273437 2.24445312 -11.6875 2.0625 C-9.92986328 1.80146484 -9.92986328 1.80146484 -8.13671875 1.53515625 C-5.34373045 1.05864392 -2.81601468 0 0 0 Z " fill="#16130F" transform="translate(186,57)"/>
<path d="M0 0 C4.29 0.33 8.58 0.66 13 1 C12.67 1.66 12.34 2.32 12 3 C7.71 3 3.42 3 -1 3 C-0.67 2.01 -0.34 1.02 0 0 Z " fill="#757679" transform="translate(74,41)"/>
<path d="M0 0 C2.31 0.33 4.62 0.66 7 1 C6.01 1.495 6.01 1.495 5 2 C5 2.66 5 3.32 5 4 C-0.61 3.67 -6.22 3.34 -12 3 C-12 2.67 -12 2.34 -12 2 C-6.06 1.505 -6.06 1.505 0 1 C0 0.67 0 0.34 0 0 Z " fill="#47494F" transform="translate(155,17)"/>
<path d="M0 0 C2.79872437 2.52788007 4.45773019 4.20411134 5 8 C2.50638429 6.79618552 0.31856917 5.54571278 -2 4 C-1.34 2.68 -0.68 1.36 0 0 Z " fill="#F5A255" transform="translate(154,211)"/>
<path d="M0 0 C0.99 0.33 1.98 0.66 3 1 C3 1.99 3 2.98 3 4 C-1.22222222 7 -1.22222222 7 -4 7 C-2.92598892 4.08482708 -2.22189824 2.22189824 0 0 Z " fill="#F49F54" transform="translate(94,211)"/>
<path d="M0 0 C3.3 0 6.6 0 10 0 C8.1875 2.5 8.1875 2.5 6 5 C5.01 5 4.02 5 3 5 C1.3125 2.5 1.3125 2.5 0 0 Z " fill="#0A0704" transform="translate(121,62)"/>
<path d="M0 0 C-0.33 0.99 -0.66 1.98 -1 3 C-4.63 3 -8.26 3 -12 3 C-12.33 2.34 -12.66 1.68 -13 1 C-11.39602723 0.83147753 -9.7918131 0.66525114 -8.1875 0.5 C-7.29417969 0.4071875 -6.40085938 0.314375 -5.48046875 0.21875 C-3 0 -3 0 0 0 Z " fill="#727376" transform="translate(178,41)"/>
<path d="M0 0 C-0.33 0.99 -0.66 1.98 -1 3 C-4.63 3 -8.26 3 -12 3 C-12.33 2.34 -12.66 1.68 -13 1 C-11.39602723 0.83147753 -9.7918131 0.66525114 -8.1875 0.5 C-7.29417969 0.4071875 -6.40085938 0.314375 -5.48046875 0.21875 C-3 0 -3 0 0 0 Z " fill="#727376" transform="translate(178,30)"/>
<path d="M0 0 C3.96 0.33 7.92 0.66 12 1 C12 1.66 12 2.32 12 3 C7.71 3 3.42 3 -1 3 C-0.67 2.01 -0.34 1.02 0 0 Z " fill="#767779" transform="translate(74,30)"/>
<path d="M0 0 C-2.52956528 3.0916909 -5.22454612 3.90931332 -9 5 C-9 3.68 -9 2.36 -9 1 C-5.8035914 -0.06546953 -3.34252724 -0.07427838 0 0 Z " fill="#F28F51" transform="translate(173,173)"/>
<path d="M0 0 C4.43090471 1.20842856 6.98112756 2.51668565 10 6 C9.01 6.495 9.01 6.495 8 7 C7.62230469 6.51917969 7.24460937 6.03835937 6.85546875 5.54296875 C4.35468595 3.46337042 2.52693196 3.50158423 -0.6875 3.3125 C-1.68136719 3.24675781 -2.67523438 3.18101563 -3.69921875 3.11328125 C-4.45847656 3.07589844 -5.21773438 3.03851563 -6 3 C-6 2.67 -6 2.34 -6 2 C-4.02 2 -2.04 2 0 2 C0 1.34 0 0.68 0 0 Z " fill="#CC8F48" transform="translate(114,60)"/>
<path d="M0 0 C1.65 0 3.3 0 5 0 C5.33 1.65 5.66 3.3 6 5 C3.69 4.67 1.38 4.34 -1 4 C-0.67 2.68 -0.34 1.36 0 0 Z " fill="#E33B3D" transform="translate(133,141)"/>
<path d="M0 0 C0 0.66 0 1.32 0 2 C-0.51046875 1.84660156 -1.0209375 1.69320312 -1.546875 1.53515625 C-4.7749338 0.83094597 -7.95418001 0.65111796 -11.25 0.4375 C-12.51328125 0.35371094 -13.7765625 0.26992188 -15.078125 0.18359375 C-16.04234375 0.12300781 -17.0065625 0.06242187 -18 0 C-18 -0.33 -18 -0.66 -18 -1 C-15.93906592 -1.223293 -13.8761161 -1.42802887 -11.8125 -1.625 C-10.66394531 -1.74101563 -9.51539063 -1.85703125 -8.33203125 -1.9765625 C-4.96669584 -2.00023426 -2.98778294 -1.47419799 0 0 Z " fill="#03060C" transform="translate(218,62)"/>
<path d="M0 0 C0.66 0.33 1.32 0.66 2 1 C2 1.99 2 2.98 2 4 C-1.3 4.33 -4.6 4.66 -8 5 C-2.85714286 1.14285714 -2.85714286 1.14285714 0 0 Z " fill="#F29352" transform="translate(84,190)"/>
<path d="M0 0 C2.97 0 5.94 0 9 0 C8.67 1.32 8.34 2.64 8 4 C2.25 2.25 2.25 2.25 0 0 Z " fill="#F49D54" transform="translate(77,174)"/>
<path d="M0 0 C0.66 0.33 1.32 0.66 2 1 C-0.23775234 4.3566285 -0.93320048 4.57996014 -4.625 5.6875 C-5.44226563 5.93886719 -6.25953125 6.19023438 -7.1015625 6.44921875 C-7.72804688 6.63097656 -8.35453125 6.81273438 -9 7 C-3.51752022 1.21293801 -3.51752022 1.21293801 0 0 Z " fill="#F39652" transform="translate(105,112)"/>
<path d="M0 0 C0.66 0 1.32 0 2 0 C1.67 0.99 1.34 1.98 1 3 C0.34 3 -0.32 3 -1 3 C0.98 5.97 0.98 5.97 3 9 C2.34 9.66 1.68 10.32 1 11 C-1.01544839 8.73262056 -1.94914998 7.42714016 -2.3125 4.375 C-2 2 -2 2 0 0 Z " fill="#151213" transform="translate(31,31)"/>
<path d="M0 0 C0 0.66 0 1.32 0 2 C-4.455 3.485 -4.455 3.485 -9 5 C-8.67 3.68 -8.34 2.36 -8 1 C-4.70594381 -0.82039948 -3.63772813 -1.21257604 0 0 Z " fill="#0E1117" transform="translate(139,19)"/>
<path d="M0 0 C0 2.97 0 5.94 0 9 C-2.15377564 6.37801226 -3.40072174 4.35595828 -4 1 C-2 0 -2 0 0 0 Z " fill="#F39953" transform="translate(134,223)"/>
<path d="M0 0 C2.97 0.33 5.94 0.66 9 1 C7.68 1.33 6.36 1.66 5 2 C5 2.66 5 3.32 5 4 C2.36 3.67 -0.28 3.34 -3 3 C-2.01 2.67 -1.02 2.34 0 2 C0 1.34 0 0.68 0 0 Z " fill="#939496" transform="translate(159,49)"/>
<path d="M0 0 C0.99 0 1.98 0 3 0 C2.67 3.63 2.34 7.26 2 11 C1.67 11 1.34 11 1 11 C0.67 7.37 0.34 3.74 0 0 Z " fill="#F0874F" transform="translate(122,243)"/>
<path d="M0 0 C2.35171131 0.59861742 4.6859378 1.26924352 7 2 C7.33 2.66 7.66 3.32 8 4 C5.36 4 2.72 4 0 4 C0 2.68 0 1.36 0 0 Z " fill="#F5A456" transform="translate(164,190)"/>
<path d="M0 0 C0 0.99 0 1.98 0 3 C-1.65 3 -3.3 3 -5 3 C-5.33 2.01 -5.66 1.02 -6 0 C-3.50907189 -1.24546405 -2.58919267 -0.7767578 0 0 Z " fill="#E3363C" transform="translate(128,137)"/>
<path d="M0 0 C-3.63 0 -7.26 0 -11 0 C-10 -2 -10 -2 -8.125 -2.6875 C-4.64038587 -3.19994325 -2.87607416 -1.91738277 0 0 Z " fill="#E09D50" transform="translate(143,63)"/>
<path d="M0 0 C1.32 0 2.64 0 4 0 C3.67 1.65 3.34 3.3 3 5 C1.68 4.67 0.36 4.34 -1 4 C-0.67 2.68 -0.34 1.36 0 0 Z " fill="#E12F3A" transform="translate(110,141)"/>
<path d="M0 0 C1.32 0.66 2.64 1.32 4 2 C2.68 2.33 1.36 2.66 0 3 C0.33 3.66 0.66 4.32 1 5 C-0.65 5.33 -2.3 5.66 -4 6 C-4 5.01 -4 4.02 -4 3 C-2 1.3125 -2 1.3125 0 0 Z " fill="#4C3A25" transform="translate(133,59)"/>
<path d="M0 0 C1 3 1 3 0.22265625 4.82421875 C-0.8515625 6.54947917 -1.92578125 8.27473958 -3 10 C-3.33 9.34 -3.66 8.68 -4 8 C-1.48571429 1.48571429 -1.48571429 1.48571429 0 0 Z " fill="#F0864F" transform="translate(100,239)"/>
<path d="M0 0 C2.97 0.495 2.97 0.495 6 1 C6.33 1.99 6.66 2.98 7 4 C4.03 3.505 4.03 3.505 1 3 C0.67 2.01 0.34 1.02 0 0 Z " fill="#7C7D80" transform="translate(110,41)"/>
<path d="M0 0 C2.31 0.33 4.62 0.66 7 1 C6.67 1.99 6.34 2.98 6 4 C3.69 3.67 1.38 3.34 -1 3 C-0.67 2.01 -0.34 1.02 0 0 Z " fill="#87888B" transform="translate(160,40)"/>
<path d="M0 0 C2.31 0.33 4.62 0.66 7 1 C6.67 1.99 6.34 2.98 6 4 C3.69 3.67 1.38 3.34 -1 3 C-0.67 2.01 -0.34 1.02 0 0 Z " fill="#86878A" transform="translate(160,29)"/>
<path d="M0 0 C-0.33 0.66 -0.66 1.32 -1 2 C-4.96 1.67 -8.92 1.34 -13 1 C-13 0.67 -13 0.34 -13 0 C-11.58456585 -0.19658808 -10.16755969 -0.38187546 -8.75 -0.5625 C-7.96109375 -0.66691406 -7.1721875 -0.77132813 -6.359375 -0.87890625 C-3.99467126 -1.00027349 -2.2488963 -0.69633257 0 0 Z " fill="#929395" transform="translate(111,30)"/>
<path d="M0 0 C0.66 0.33 1.32 0.66 2 1 C-0.625 5.875 -0.625 5.875 -4 7 C-3.43628586 3.73045798 -2.50037734 2.17424117 0 0 Z " fill="#121315" transform="translate(57,19)"/>
<path d="M0 0 C1.98 0.66 3.96 1.32 6 2 C6 2.99 6 3.98 6 5 C3.36 4.01 0.72 3.02 -2 2 C-1.34 1.34 -0.68 0.68 0 0 Z " fill="#F39A53" transform="translate(147,114)"/>
<path d="M0 0 C-2.5654594 2.5654594 -4.47686668 2.54046087 -8 3 C-8 2.34 -8 1.68 -8 1 C-3.375 -1.125 -3.375 -1.125 0 0 Z " fill="#1F1811" transform="translate(191,63)"/>
<path d="M0 0 C-0.33 0.99 -0.66 1.98 -1 3 C-2.65 3.33 -4.3 3.66 -6 4 C-6 3.01 -6 2.02 -6 1 C-3 0 -3 0 0 0 Z " fill="#7D7E80" transform="translate(141,41)"/>
<path d="M0 0 C-0.33 0.99 -0.66 1.98 -1 3 C-2.65 3.33 -4.3 3.66 -6 4 C-6 3.01 -6 2.02 -6 1 C-3 0 -3 0 0 0 Z " fill="#7D7E80" transform="translate(141,30)"/>
</svg>
