<?xml version="1.0" encoding="UTF-8"?>
<svg version="1.1" xmlns="http://www.w3.org/2000/svg" width="3840" height="2551">
<path d="M0 0 C2.57404731 0.01176682 5.14806551 0.01824665 7.72213364 0.02360535 C32.58010206 0.08402443 57.32053565 0.51457729 82.05968857 3.15867615 C84.23579642 3.38950732 86.41283875 3.6083576 88.59045029 3.82450867 C166.15442175 11.59675429 242.9644019 30.67994424 403.64123154 104.91972351 C406.78390248 106.71587715 409.95647548 108.45284314 413.1343956 110.18559265 C451.09673947 130.92490512 486.78631636 156.27823807 521.20763779 182.38652039 C521.76757431 182.80997742 522.32751083 183.23343445 522.90441513 183.66972351 C530.90694957 189.7298486 538.71661388 196.00451313 546.48888779 202.35527039 C549.4387517 204.76501837 552.40943857 207.1462262 555.39513779 209.51152039 C559.77738891 213.0040863 564.05151285 216.61514109 568.31725693 220.24809265 C571.78455486 223.19725929 575.29076873 226.08925164 578.83263779 228.94902039 C583.59570996 232.82464971 588.14128028 236.89886327 592.66076279 241.05448914 C594.79705528 243.0105729 596.95544436 244.92839736 599.14513779 246.82402039 C603.09664831 250.2562359 606.94280313 253.8003599 610.79211044 257.34599304 C613.50181687 259.83749097 616.23006648 262.29797863 619.02013779 264.69902039 C623.02131787 268.17063252 626.89491683 271.77578739 630.77013779 275.38652039 C631.39573593 275.96829041 632.02133408 276.55006042 632.66588974 277.14945984 C635.7253662 280.00955379 638.73389845 282.90213903 641.67248154 285.88652039 C643.93302346 288.16748175 646.24796194 290.30786546 648.69787216 292.38285828 C654.35450504 297.30716844 659.60479353 302.63944303 664.89904404 307.94511414 C666.0141279 309.05952257 667.12936001 310.17378268 668.2447319 311.28790283 C670.57017541 313.6118806 672.8938229 315.93763502 675.21618271 318.26469421 C678.17351682 321.2277249 681.13531907 324.18624209 684.09849262 327.14343166 C686.39874376 329.44004671 688.6965801 331.73906604 690.99372292 334.03878975 C692.08409076 335.12981845 693.17518459 336.22012215 694.26705742 337.3096447 C699.61630637 342.64990032 704.90864591 347.9988233 709.80503464 353.76373291 C711.97788022 356.2776775 714.33019999 358.5650223 716.70763779 360.88652039 C720.45133355 364.54212919 723.92619698 368.32109228 727.35119247 372.27616882 C730.50232274 375.85827955 733.79768832 379.30253386 737.08263779 382.76152039 C742.88114712 388.89482737 748.59800021 395.0797628 754.20763779 401.38652039 C755.74859854 403.09549049 757.29027666 404.80381401 758.83263779 406.51152039 C763.6189852 411.83334557 768.34428539 417.20164573 772.99279404 422.64433289 C774.02271257 423.85008715 775.05266131 425.05581561 776.08263779 426.26152039 C776.60229111 426.87003845 777.12194443 427.47855652 777.65734482 428.10551453 C780.68656312 431.64275896 783.75912362 435.13044616 786.89513779 438.57402039 C790.64912955 442.71079842 794.17910235 446.9937327 797.69201279 451.33573914 C800.63689139 454.90709036 803.66493204 458.39855132 806.70763779 461.88652039 C811.99776099 467.956891 817.14616271 474.12353627 822.20763779 480.38652039 C823.60215483 482.09592838 824.99803006 483.80422911 826.39513779 485.51152039 C827.1337706 486.4151532 827.87240341 487.31878601 828.63341904 488.24980164 C830.5818501 490.62827427 832.53992711 492.99860487 834.50060654 495.36698914 C840.54027234 502.66790377 846.53372955 509.99281091 852.35094833 517.47270203 C856.00503954 522.16416321 859.7880592 526.73391946 863.62560654 531.27714539 C865.20763779 533.38652039 865.20763779 533.38652039 865.20763779 535.38652039 C870.09438147 530.85018274 873.9599177 525.64304472 877.95763779 520.32402039 C878.67065048 519.3817157 879.38366318 518.43941101 880.11828232 517.46855164 C884.482036 511.69659049 888.82317609 505.9076462 893.15685654 500.11308289 C901.69516546 488.76119788 910.47224468 477.58685115 919.20763779 466.38652039 C919.69909286 465.75568542 920.19054794 465.12485046 920.6968956 464.47489929 C927.10032926 456.26082409 933.62239092 448.15005183 940.20373154 440.07792664 C942.63879957 437.0900898 945.05501192 434.08805006 947.45763779 431.07402039 C953.88928269 423.01768022 960.4475267 415.0756335 967.12316513 407.22099304 C970.00271519 403.82756022 972.83946251 400.40411055 975.64513779 396.94902039 C980.52697174 390.95728458 985.55313787 385.09533856 990.6031456 379.2454071 C992.24138929 377.34741753 993.87684379 375.44704652 995.51232529 373.54667664 C1001.26059739 366.87918745 1007.06910319 360.28401802 1013.01623154 353.79277039 C1014.92135587 351.70086915 1016.7920284 349.58688653 1018.64513779 347.44902039 C1022.46209348 343.0545584 1026.41430949 338.78635807 1030.36388779 334.51152039 C1032.46765033 332.21958921 1034.51959071 329.88802125 1036.55920029 327.53886414 C1040.30131392 323.24715943 1044.17322171 319.08820824 1048.08263779 314.94902039 C1048.78445175 314.20402283 1049.48626572 313.45902527 1050.20934677 312.69145203 C1054.43167794 308.22307451 1058.69580503 303.81127212 1063.11779404 299.53886414 C1064.93831364 297.66389909 1066.63292503 295.74544574 1068.33459091 293.76396179 C1072.14460872 289.3992337 1076.16478481 285.28477383 1080.26623154 281.19511414 C1081.01421509 280.44617386 1081.76219864 279.69723358 1082.53284836 278.92559814 C1084.10396243 277.35380814 1085.67632171 275.7832619 1087.24987411 274.21391296 C1089.63863624 271.83050735 1092.02201224 269.44180971 1094.40490341 267.05253601 C1095.94169229 265.51640802 1097.47879139 263.9805903 1099.01623154 262.44511414 C1099.71856415 261.74075729 1100.42089676 261.03640045 1101.14451218 260.31069946 C1105.13034797 256.34340754 1109.21351092 252.55164459 1113.48316574 248.89080811 C1115.84159144 246.83351131 1118.02507885 244.6280674 1120.20763779 242.38652039 C1123.65200722 238.90561976 1127.16088673 235.61148419 1130.87951279 232.42948914 C1134.05031309 229.64705867 1137.12456915 226.76545521 1140.20763779 223.88652039 C1145.13376675 219.29550224 1150.09104922 214.76558268 1155.20763779 210.38652039 C1156.25332779 209.48691689 1157.29888847 208.58716305 1158.34435654 207.68730164 C1161.36066305 205.09368382 1164.38315672 202.50739573 1167.40832138 199.92411804 C1168.56846039 198.93272653 1169.72770873 197.94029134 1170.88586044 196.94657898 C1178.59187159 190.33513216 1186.45537511 183.96976984 1194.47228622 177.73954773 C1196.14232182 176.43744626 1197.80525379 175.12691644 1199.46545029 173.81230164 C1214.60224876 161.83013111 1229.86289669 150.10261057 1245.88341904 139.32011414 C1249.59733315 136.81804931 1253.2193368 134.21907994 1256.83263779 131.57402039 C1280.05905268 114.74825531 1305.24895087 100.45465823 1330.20763779 86.38652039 C1331.03231552 85.9185907 1331.85699326 85.45066101 1332.70666122 84.96855164 C1344.95011989 78.03334379 1357.41957264 71.747335 1370.17296982 65.80448914 C1373.25207306 64.36575771 1376.32185896 62.90838022 1379.39123154 61.44902039 C1440.6553003 32.51351491 1506.03708029 13.00029887 1573.20763779 4.13652039 C1574.34926376 3.98537781 1575.49088974 3.83423523 1576.66711044 3.67851257 C1580.50964409 3.20055598 1584.3556527 2.7790097 1588.20763779 2.38652039 C1589.04412857 2.29931732 1589.88061935 2.21211426 1590.74245834 2.12226868 C1609.01395929 0.27564301 1627.22422506 0.02397502 1645.56739807 0.06846237 C1647.92915795 0.07410162 1650.29091065 0.07692311 1652.65267563 0.07954407 C1675.21407368 0.11593158 1697.64009779 0.4658176 1720.06829453 3.13328552 C1722.3155227 3.39929076 1724.56388843 3.65356148 1726.81261826 3.90653992 C1813.08487363 13.72102176 1895.67961837 38.76628075 2017.20763779 98.38652039 C2018.88518827 99.32572025 2020.56274129 100.26491559 2022.24036789 101.20397949 C2037.54531792 109.78363298 2052.54232791 118.74407268 2067.20763779 128.38652039 C2068.19779892 129.03653015 2069.18796005 129.68653992 2070.20812607 130.35624695 C2094.56801721 146.38623049 2118.46871473 163.11125671 2141.20763779 181.38652039 C2141.84797958 181.90069519 2142.48832138 182.41487 2143.14806747 182.94462585 C2150.72136262 189.03730336 2158.23012032 195.19867517 2165.62585068 201.50590515 C2168.94462015 204.33338734 2172.30947793 207.09274327 2175.70763779 209.82402039 C2181.09337193 214.20336917 2186.15580577 218.88696877 2191.22716904 223.62089539 C2193.47362468 225.71562962 2195.75237207 227.75981708 2198.08263779 229.76152039 C2207.91935879 238.29632243 2217.27215473 247.36190111 2226.4222374 256.62260437 C2229.32219152 259.54578135 2232.23849522 262.36173709 2235.39513779 265.01152039 C2239.14115039 268.18851841 2242.36267552 271.7619845 2245.6409874 275.41337585 C2249.60562093 279.80107511 2253.75400078 283.9783952 2257.95763779 288.13652039 C2262.22432467 292.36533726 2266.40705899 296.58379902 2270.28185654 301.17948914 C2273.1248338 304.43766794 2276.1150079 307.55458395 2279.08263779 310.69902039 C2283.97180599 315.8951635 2288.61185534 321.19994829 2293.06701279 326.77714539 C2295.35884244 329.57083554 2297.75995591 332.22860816 2300.20763779 334.88652039 C2304.27069054 339.30642061 2308.10736666 343.85479192 2311.87560654 348.52714539 C2313.9124155 351.02453929 2315.99093834 353.47868503 2318.09240341 355.92167664 C2323.39511139 362.09679008 2328.39159972 368.46180856 2333.30260849 374.95195007 C2336.83995149 379.62109673 2340.45580635 384.21187714 2344.14513779 388.76152039 C2351.13199297 397.41527264 2357.67316106 406.38903451 2364.20763779 415.38652039 C2364.76628525 416.15431824 2365.32493271 416.92211609 2365.90050888 417.71318054 C2367.54694283 419.97757119 2369.1906319 422.24391701 2370.83263779 424.51152039 C2371.29790878 425.15387634 2371.76317978 425.7962323 2372.2425499 426.45805359 C2373.90468968 428.76253088 2375.55747427 431.07344744 2377.20763779 433.38652039 C2377.80951416 434.22964279 2377.80951416 434.22964279 2378.42354965 435.08979797 C2386.41382289 446.29930225 2394.20105911 457.63971897 2401.8987999 469.05180359 C2403.76776906 471.82051134 2405.64286753 474.58500028 2407.51818466 477.34941101 C2414.67491294 487.93221322 2421.53572541 498.64028165 2428.11904526 509.58827209 C2430.31108546 513.20930792 2432.60758106 516.7630057 2434.89513779 520.32402039 C2442.63583358 532.49533932 2449.92462279 544.93820906 2457.20763779 557.38652039 C2457.85700302 558.4954364 2458.50636826 559.60435242 2459.17541122 560.74687195 C2467.62868984 575.21194102 2475.77767968 589.81382157 2483.69298935 604.57939148 C2485.10582868 607.19783549 2486.53777567 609.80430062 2487.98107529 612.40605164 C2531.26055222 690.52153409 2567.26489838 772.97044528 2614.36767197 902.92845154 C2615.21197002 905.39919819 2616.05968992 907.8687515 2616.9078331 910.33818054 C2653.79549629 1017.92884325 2680.74204737 1129.01239271 2732.39513779 1540.13652039 C2732.45053223 1541.29542282 2732.45053223 1541.29542282 2732.50704575 1542.47773743 C2733.72560917 1568.47950787 2734.36828298 1594.45840138 2734.37560654 1620.48808289 C2734.37703976 1621.86249687 2734.37863779 1623.2369107 2734.38039207 1624.61132431 C2734.38954562 1631.81503964 2734.39374014 1639.01873693 2734.39294052 1646.22245789 C2734.39240957 1652.0567959 2734.39944555 1657.89106664 2734.41344833 1663.72538757 C2734.49374684 1697.98946748 2734.27311695 1732.17067443 2732.20763779 1766.38652039 C2732.16763279 1767.06315483 2732.12762779 1767.73978928 2732.08641052 1768.4369278 C2731.60621473 1776.5521716 2731.03711438 1784.65758896 2730.39513779 1792.76152039 C2730.31082504 1793.84652832 2730.2265123 1794.93153625 2730.13964462 1796.04942322 C2724.44262311 1869.01512177 2713.85865376 1941.32121491 2696.20763779 2012.38652039 C2695.92210037 2013.53643463 2695.92210037 2013.53643463 2695.63079453 2014.70957947 C2678.74787305 2082.42968674 2654.92752793 2147.7300174 2624.20763779 2210.38652039 C2623.65317978 2211.52266785 2623.09872177 2212.65881531 2622.52746201 2213.82939148 C2608.60169499 2242.30587526 2593.3044751 2270.31150748 2575.20763779 2296.38652039 C2574.70264755 2297.11935242 2574.19765732 2297.85218445 2573.67736435 2298.60722351 C2566.45055447 2309.08671621 2559.08833727 2319.38899871 2551.20763779 2329.38652039 C2550.3393791 2330.51069386 2549.4722235 2331.63572004 2548.60607529 2332.76152039 C2538.65891014 2345.63974018 2527.9177359 2357.79055422 2516.80822372 2369.6726532 C2515.06474266 2371.53952889 2513.32735832 2373.411966 2511.59045029 2375.28495789 C2510.35884464 2376.6106322 2509.12707669 2377.93615575 2507.89513779 2379.26152039 C2507.33254257 2379.86802429 2506.76994736 2380.4745282 2506.1903038 2381.09941101 C2500.56426486 2387.13541452 2494.81847969 2392.92808296 2488.56310654 2398.31230164 C2486.19159396 2400.40064853 2483.87918482 2402.54126821 2481.57018661 2404.69804382 C2476.25588518 2409.65836832 2470.86621223 2414.44114998 2465.19201279 2418.99198914 C2462.97736236 2420.76892724 2460.78271398 2422.56147841 2458.59826279 2424.37480164 C2413.6769444 2461.53744489 2361.54403236 2490.5063032 2307.20763779 2511.38652039 C2306.19878525 2511.77646179 2305.18993271 2512.1664032 2304.15050888 2512.56816101 C2246.31390174 2534.71794955 2183.96353037 2546.799407 2122.20763779 2550.38652039 C2121.23884689 2550.44847092 2121.23884689 2550.44847092 2120.25048447 2550.51167297 C2104.28413093 2551.52349369 2088.32651265 2551.58806508 2072.33263779 2551.57402039 C2071.30948156 2551.57362007 2071.30948156 2551.57362007 2070.26565552 2551.57321167 C2047.52608495 2551.56206549 2024.88302271 2551.18808956 2002.20763779 2549.38652039 C2001.41983932 2549.32571289 2000.63204086 2549.2649054 1999.82036972 2549.20225525 C1921.86745532 2543.16145187 1846.5017674 2525.10863327 1632.98107529 2399.83964539 C1631.36437849 2398.5149511 1629.7395549 2397.20019078 1628.11388779 2395.88652039 C1622.77997532 2391.57144513 1617.61334231 2387.12194907 1612.53966904 2382.50370789 C1610.44939889 2380.60600869 1608.33777664 2378.73918624 1606.20763779 2376.88652039 C1590.16161952 2362.88214261 1574.83689985 2348.18330081 1559.79796982 2333.10722351 C1557.18697424 2330.49081399 1554.57060219 2327.87986493 1551.95373154 2325.26933289 C1550.26721251 2323.58215381 1548.5810033 2321.89466497 1546.89513779 2320.20683289 C1546.12524521 2319.43896454 1545.35535263 2318.67109619 1544.56212997 2317.87995911 C1540.4468664 2313.74697099 1536.50038331 2309.52607196 1532.69298935 2305.10768127 C1531.00630605 2303.15322591 1529.26446998 2301.26039747 1527.48888779 2299.38652039 C1526.8662706 2298.72652039 1526.24365341 2298.06652039 1525.60216904 2297.38652039 C1524.97697372 2296.72652039 1524.35177841 2296.06652039 1523.70763779 2295.38652039 C1518.75087028 2290.15380912 1513.92055864 2284.84004309 1509.20763779 2279.38652039 C1508.18420594 2278.20813005 1507.16076861 2277.02974449 1506.13732529 2275.85136414 C1504.56094686 2274.03183726 1502.98535499 2272.21163121 1501.40978622 2270.3914032 C1498.54254055 2267.07954784 1495.67240345 2263.77034736 1492.79357529 2260.46855164 C1487.24211101 2254.09551589 1481.76041431 2247.68735014 1476.44201279 2241.11698914 C1474.39937749 2238.62083166 1472.32264706 2236.16047146 1470.2281456 2233.70805359 C1465.508703 2228.18194629 1460.9392777 2222.56563618 1456.47594833 2216.83085632 C1452.92675163 2212.27754866 1449.29916273 2207.79349006 1445.64513779 2203.32402039 C1440.94994243 2197.57129306 1436.36329657 2191.7560349 1431.85998154 2185.85136414 C1429.30959329 2182.50869842 1426.72284841 2179.19506037 1424.13463974 2175.88163757 C1417.5452742 2167.44339301 1411.06726825 2158.93079066 1404.67101669 2150.34550476 C1403.20335011 2148.3807806 1401.72826013 2146.42186695 1400.25060654 2144.46464539 C1394.47524839 2136.80935696 1388.7977407 2129.09192408 1383.20177841 2121.30448914 C1379.84350139 2116.63556782 1376.44921255 2111.99595999 1373.02355576 2107.37626648 C1365.82672546 2097.67026562 1358.85128951 2087.82572218 1351.95763779 2077.90263367 C1349.05102065 2073.72356053 1346.12845286 2069.55567599 1343.20763779 2065.38652039 C1342.04875112 2063.73029313 1340.88989701 2062.07404309 1339.73107529 2060.41777039 C1337.3232836 2056.97768343 1334.91128935 2053.54058935 1332.49670029 2050.10527039 C1331.88310654 2049.23128601 1331.26951279 2048.35730164 1330.63732529 2047.45683289 C1329.48482965 2045.8153997 1328.33128887 2044.17469951 1327.17638779 2042.53495789 C1323.58894477 2037.42241832 1320.10385873 2032.24909296 1316.64904404 2027.04618835 C1313.61247355 2022.48375571 1310.53917388 2017.94614828 1307.46935654 2013.40605164 C1306.22391049 2011.56295494 1304.97846784 2009.71985594 1303.73302841 2007.87675476 C1301.81886105 2005.04443139 1299.90421724 2002.21243557 1297.98815536 1999.38139343 C1290.3107271 1988.03580563 1282.71893441 1976.64643052 1275.3201561 1965.11701965 C1273.81749633 1962.77966341 1272.30090123 1960.45153465 1270.78185654 1958.12480164 C1263.42770478 1946.85165298 1256.17534463 1935.51672091 1248.96496201 1924.15116882 C1247.23985114 1921.43719891 1245.50813039 1918.72757502 1243.77404404 1916.01933289 C1235.44162224 1902.99510938 1227.30370268 1889.85850278 1219.22668076 1876.67460632 C1217.26033634 1873.47234192 1215.2846462 1870.2760703 1213.30529404 1867.08183289 C1205.58909088 1854.61801469 1198.01988436 1842.07818979 1190.55758286 1829.46141052 C1185.0005383 1820.06600364 1179.39106688 1810.7060045 1173.70763779 1801.38652039 C1167.22473182 1790.75444065 1160.84337857 1780.06534788 1154.50164413 1769.348526 C1148.92458234 1759.92639951 1143.28607246 1750.54514038 1137.58263779 1741.19902039 C1131.49110024 1731.21613853 1125.53323326 1721.16248575 1119.64257431 1711.05992126 C1114.1206155 1701.59447484 1108.48820161 1692.2030125 1102.77990341 1682.84892273 C1097.01725864 1673.4034047 1091.34248642 1663.90878433 1085.70763779 1654.38652039 C1079.76732516 1644.34942489 1073.77909607 1634.3448435 1067.70763779 1624.38652039 C1060.77162447 1613.00628461 1053.94527383 1601.5639509 1047.15295029 1590.09745789 C1042.36296794 1582.01188297 1037.55152653 1573.93997769 1032.70763779 1565.88652039 C1027.45518737 1557.15378777 1022.24409196 1548.39742106 1017.05041122 1539.62968445 C1010.32177958 1528.2714089 1003.53853745 1516.95028252 996.66619492 1505.67835999 C990.53263839 1495.61455814 984.50364515 1485.4912364 978.50164413 1475.348526 C972.92458234 1465.92639951 967.28607246 1456.54514038 961.58263779 1447.19902039 C955.49110024 1437.21613853 949.53323326 1427.16248575 943.64257431 1417.05992126 C938.1206155 1407.59447484 932.48820161 1398.2030125 926.77990341 1388.84892273 C921.01725864 1379.4034047 915.34248642 1369.90878433 909.70763779 1360.38652039 C903.76732615 1350.34942658 897.77920892 1340.34477378 891.70763779 1330.38652039 C884.682266 1318.86083076 877.76476365 1307.2736858 870.88927841 1295.65800476 C870.14125204 1294.39432075 869.39320538 1293.13064875 868.64513779 1291.86698914 C868.27747803 1291.24585739 867.90981827 1290.62472565 867.5310173 1289.98477173 C864.94787644 1285.62491164 862.34590612 1281.27666461 859.73498154 1276.93339539 C856.64592746 1271.79463908 853.57627941 1266.64488824 850.52404404 1261.48417664 C840.20344589 1243.97252379 840.20344589 1243.97252379 829.52282333 1226.67973328 C824.89371682 1219.36315889 820.56041623 1211.86959482 816.20763779 1204.38652039 C813.95293951 1207.26500046 812.10899479 1210.20165413 810.34435654 1213.40214539 C809.79449081 1214.39351501 809.24462509 1215.38488464 808.67809677 1216.40629578 C808.08972031 1217.4722699 807.50134384 1218.53824402 806.89513779 1219.63652039 C802.0817992 1228.30404736 797.17904 1236.9073055 792.14513779 1245.44902039 C786.88351993 1254.39545833 781.868512 1263.45054813 776.9612999 1272.59550476 C772.04739629 1281.73723387 766.90690745 1290.73813293 761.73009872 1299.73271179 C759.07773373 1304.3560613 756.45450525 1308.99582682 753.83263779 1313.63652039 C753.29582382 1314.58647888 752.75900986 1315.53643738 752.2059288 1316.5151825 C748.16711545 1323.67028637 744.15410635 1330.83966402 740.14513779 1338.01152039 C735.39151401 1346.51552994 730.59103396 1354.99051716 725.74206161 1363.44047546 C721.88895165 1370.16577662 718.10584888 1376.9286376 714.33263779 1383.69902039 C709.67772073 1392.04844862 704.92719022 1400.33326618 700.08263779 1408.57402039 C695.11876545 1417.02380833 690.33420194 1425.5502835 685.67370224 1434.17070007 C680.52540902 1443.6844253 675.19173454 1453.09004238 669.84875107 1462.4954071 C667.12801399 1467.28846996 664.41836641 1472.08779259 661.70763779 1476.88652039 C660.62435809 1478.80321737 659.54102475 1480.71988403 658.45763779 1482.63652039 C657.92138779 1483.58527039 657.38513779 1484.53402039 656.83263779 1485.51152039 C655.20763779 1488.38652039 653.58263779 1491.26152039 651.95763779 1494.13652039 C651.42162949 1495.08486755 650.88562119 1496.03321472 650.33337021 1497.01029968 C649.24768124 1498.93108384 648.1619062 1500.85181936 647.07604599 1502.77250671 C644.40305356 1507.50078492 641.73145692 1512.2298395 639.06310654 1516.96073914 C632.82853631 1528.00990631 626.55337244 1539.03508543 620.24911118 1550.04460144 C615.44008867 1558.44596994 610.67736417 1566.87208162 605.95763779 1575.32402039 C600.31578141 1585.42698954 594.60366666 1595.48711603 588.84728622 1605.52519226 C586.05188853 1610.40340266 583.26392904 1615.28586293 580.47515488 1620.16786194 C578.76648279 1623.15888366 577.05734805 1626.14964099 575.34826279 1629.14042664 C574.6562033 1630.35152564 573.96414601 1631.5626259 573.27209091 1632.77372742 C569.19005956 1639.91728228 569.19005956 1639.91728228 568.1895256 1641.66821289 C567.52463475 1642.83177443 566.85974827 1643.99533848 566.19486618 1645.15890503 C564.53361764 1648.06613451 562.87229252 1650.97332018 561.21081161 1653.88041687 C558.19989143 1659.14880321 555.18953598 1664.41750824 552.18198776 1669.68782043 C543.51885013 1684.86870585 534.81612157 1700.02615477 526.07091904 1715.15995789 C524.18728729 1718.42176046 522.30641458 1721.68513882 520.42638779 1724.94902039 C513.8131306 1736.42815369 507.17404129 1747.89131939 500.48791122 1759.32817078 C496.09336241 1766.85113711 491.74027504 1774.3974303 487.39513779 1781.94902039 C483.26323822 1789.12545013 479.11496945 1796.28527364 474.82165146 1803.36650085 C471.25164669 1809.27083306 467.7839889 1815.23461339 464.30581284 1821.19328308 C456.71457659 1834.19405305 448.9681212 1847.09226934 441.12951279 1859.94511414 C437.77235624 1865.45017234 434.45065035 1870.97535285 431.14513779 1876.51152039 C419.71133311 1895.62495179 407.91064462 1914.5159763 396.08410263 1933.38798523 C394.15891917 1936.46437129 392.23921005 1939.54411362 390.32091904 1942.62480164 C383.05790276 1954.28479324 375.73154944 1965.89321893 368.20763779 1977.38652039 C367.45484049 1978.53770496 366.70207604 1979.688911 365.94933701 1980.84013367 C349.9511562 2005.30064755 333.90588566 2029.71304047 317.12609482 2053.64775085 C315.26203974 2056.30885672 313.40384014 2058.97394773 311.54748154 2061.64042664 C304.40352351 2071.89262963 297.15401036 2082.06187703 289.81212997 2092.17314148 C288.20259459 2094.39347741 286.59870992 2096.61778081 284.99670029 2098.84355164 C277.72616535 2108.9427412 270.37410966 2118.97899246 262.9781456 2128.98661804 C261.20395815 2131.3915081 259.4354313 2133.80045875 257.66857529 2136.21073914 C250.5438161 2145.92380901 243.30997469 2155.5418849 235.96740341 2165.09111023 C233.35415573 2168.49978875 230.75776428 2171.92121733 228.15954208 2175.34135437 C218.64312486 2187.86248497 208.99203137 2200.24454684 199.04284286 2212.42460632 C195.53841817 2216.72192723 192.10579027 2221.06745375 188.70763779 2225.44902039 C184.29290714 2231.12568082 179.64992564 2236.57290222 174.91173935 2241.98124695 C171.68683054 2245.6649294 168.53629879 2249.39092054 165.45763779 2253.19902039 C161.93383044 2257.55233713 158.24001136 2261.70731659 154.46545029 2265.84355164 C152.08531466 2268.52429263 149.83031938 2271.28156173 147.58263779 2274.07402039 C144.51867326 2277.86142098 141.35664061 2281.35633511 137.85998154 2284.74198914 C136.19918178 2286.39493642 134.67141388 2288.10903676 133.14513779 2289.88652039 C127.97592232 2295.87132319 122.52133313 2301.59378697 117.10802841 2307.35673523 C115.29495966 2309.2932529 113.49218079 2311.23879577 111.69201279 2313.18730164 C103.0608699 2322.49251567 94.17195724 2331.52893875 85.20763779 2340.51152039 C84.6230983 2341.09864807 84.03855881 2341.68577576 83.436306 2342.29069519 C71.95469262 2353.81244631 71.95469262 2353.81244631 65.84240341 2358.96611023 C64.04350079 2360.52913524 62.37583418 2362.18540558 60.70763779 2363.88652039 C57.74028456 2366.90065621 54.63418486 2369.68569371 51.43029404 2372.44511414 C48.87786896 2374.674561 46.38876265 2376.9665342 43.89513779 2379.26152039 C39.42890264 2383.33511947 34.838424 2387.19479742 30.13341904 2390.98808289 C27.48492296 2393.15921318 24.8954094 2395.3801789 22.3140831 2397.62968445 C14.53195658 2404.40228525 6.42953293 2410.67737801 -1.80847549 2416.88310242 C-3.60467642 2418.24428939 -5.38756928 2419.62008597 -7.16345596 2421.00761414 C-35.86200936 2443.40036804 -66.8921494 2462.91709876 -98.79236221 2480.38652039 C-99.71210831 2480.89038269 -100.6318544 2481.394245 -101.57947159 2481.91337585 C-177.00807446 2522.92400866 -261.42262403 2544.56150178 -395.66736221 2551.57402039 C-396.32556458 2551.57375351 -396.98376694 2551.57348663 -397.66191483 2551.57321167 C-420.09041056 2551.56182449 -442.43003267 2551.19620258 -464.79236221 2549.38652039 C-465.57711929 2549.32335632 -466.36187637 2549.26019226 -467.17041397 2549.19511414 C-504.7540453 2546.1256808 -542.01735038 2540.76007167 -578.79236221 2532.38652039 C-579.45564529 2532.23590149 -580.11892838 2532.08528259 -580.80231094 2531.93009949 C-622.01149217 2522.52672964 -662.43370414 2509.1672925 -700.79236221 2491.38652039 C-701.81104385 2490.91633484 -702.82972549 2490.44614929 -703.87927628 2489.9617157 C-736.87247033 2474.6519615 -768.37593478 2456.81848895 -797.79236221 2435.38652039 C-798.38146378 2434.9579071 -798.97056534 2434.52929382 -799.57751846 2434.08769226 C-814.37893029 2423.2630453 -828.92449729 2411.83226687 -842.47986221 2399.48417664 C-844.45620594 2397.69144593 -846.45692951 2395.93856812 -848.47986221 2394.19902039 C-861.92281012 2382.46010813 -875.42216464 2370.13652661 -886.96423721 2356.49589539 C-888.9538052 2354.20024002 -891.01453093 2351.98365835 -893.08850479 2349.76445007 C-898.93225506 2343.50774265 -904.43400363 2337.06695764 -909.79236221 2330.38652039 C-910.77512871 2329.19378697 -911.75961152 2328.00246638 -912.74548721 2326.81230164 C-921.16124342 2316.6210041 -929.06140136 2306.10434045 -936.79236221 2295.38652039 C-937.30121964 2294.68446472 -937.81007706 2293.98240906 -938.3343544 2293.25907898 C-989.46729107 2222.55945164 -1026.53413932 2142.46637226 -1101.69861221 1797.00370789 C-1101.78955154 1795.93275375 -1101.78955154 1795.93275375 -1101.88232803 1794.84016418 C-1105.37670916 1752.10801893 -1106.16921153 1709.43326222 -1106.10747194 1666.57248592 C-1106.10483956 1664.49363375 -1106.10323511 1662.41478331 -1106.10198975 1660.33592987 C-1106.07631218 1617.61660883 -1105.64009827 1575.02665781 -1102.79236221 1532.38652039 C-1102.70393044 1531.02704524 -1102.61584376 1529.66754761 -1102.52807999 1528.30802917 C-1096.93285482 1441.69629479 -1087.12581177 1355.43632204 -888.60562515 692.13267517 C-886.17981386 687.19642686 -883.81088899 682.23519277 -881.46472549 677.26054382 C-866.67898221 645.93057217 -850.00421937 615.43592337 -832.79236221 585.38652039 C-832.18746964 584.32900574 -831.58257706 583.27149109 -830.9593544 582.18193054 C-818.60900402 560.61181112 -805.87327569 539.32935752 -792.62439346 518.29911804 C-790.94429641 515.62806822 -789.2735612 512.95141736 -787.60486221 510.27323914 C-780.06078994 498.22745433 -772.17532741 486.41974893 -764.22986221 474.63652039 C-763.71087357 473.86522797 -763.19188492 473.09393555 -762.65716934 472.29927063 C-755.37603923 461.48896406 -747.87184016 450.86407512 -740.19847488 440.32899475 C-738.09923602 437.4290012 -736.03958033 434.5022026 -733.97986221 431.57402039 C-727.16702146 421.99292588 -719.95021353 412.71058862 -712.79236221 403.38652039 C-711.83773783 402.13927554 -710.88328547 400.89189899 -709.92908096 399.64433289 C-707.56016885 396.55062841 -705.17882165 393.46671803 -702.79236221 390.38652039 C-702.1460585 389.55096619 -702.1460585 389.55096619 -701.48669815 388.6985321 C-696.03900794 381.66666455 -690.48172434 374.75771572 -684.70227432 367.9954071 C-682.04322533 364.88091465 -679.45016486 361.72929482 -676.91736221 358.51152039 C-669.27129973 348.87151553 -661.02801364 339.69295751 -652.76892471 330.57792664 C-650.9227966 328.53113242 -649.10242937 326.46520482 -647.29236221 324.38652039 C-636.58892672 312.12267517 -625.65833176 299.9304047 -613.95251846 288.60917664 C-612.06663963 286.6687335 -610.30170724 284.68384617 -608.53454971 282.63652039 C-604.81257365 278.35269916 -600.87799754 274.32387817 -596.85486221 270.32402039 C-596.19035049 269.65564148 -595.52583878 268.98726257 -594.84119034 268.29862976 C-590.91281888 264.37787881 -586.86642408 260.66641183 -582.66516495 257.0410614 C-579.91401512 254.61053834 -577.35388533 252.01372358 -574.79236221 249.38652039 C-570.97497246 245.5220759 -567.11201369 241.806504 -562.97204971 238.28495789 C-560.65454575 236.26648669 -558.40996597 234.18273714 -556.16443253 232.08500671 C-550.73590902 227.01445106 -545.20045692 222.18535188 -539.40564346 217.53105164 C-536.79388598 215.38777083 -534.2887092 213.16271709 -531.79236221 210.88652039 C-527.59579126 207.07145588 -523.28458738 203.44387164 -518.87439346 199.87870789 C-516.65316852 198.0825843 -514.44335844 196.27643503 -512.24158096 194.45683289 C-502.48484396 186.41886046 -492.46783702 178.77306517 -482.30945206 171.2507782 C-479.86947604 169.44363398 -477.43414796 167.63037797 -474.99939346 165.81620789 C-459.00329019 153.92799533 -442.76411826 142.42655704 -425.93298721 131.74736023 C-423.73497825 130.3500402 -421.54467621 128.94117359 -419.35486221 127.53105164 C-406.72303124 119.43289572 -393.81413011 111.83862686 -380.79236221 104.38652039 C-380.00538956 103.93567078 -379.2184169 103.48482117 -378.40759659 103.02030945 C-304.0801378 60.6278452 -223.51923964 29.86702287 -57.56970596 1.76542664 C-56.74362146 1.70090176 -55.91753696 1.63637688 -55.0664196 1.5698967 C-36.70959968 0.16905955 -18.40281089 -0.09097086 0 0 Z M1347.20763779 440.38652039 C1346.43492538 441.0318573 1346.43492538 441.0318573 1345.64660263 441.69023132 C1339.23148814 447.05297017 1332.89825176 452.48556545 1326.71935654 458.12089539 C1324.66859309 459.97072866 1322.59815585 461.78921838 1320.51330185 463.60014343 C1308.14498383 474.41757161 1296.45639631 485.97390509 1284.85876083 497.60502625 C1282.61878593 499.85043619 1280.37341082 502.09034878 1278.12755966 504.32987976 C1276.67346237 505.78463685 1275.21967476 507.23970357 1273.76623154 508.69511414 C1272.7801516 509.67815773 1272.7801516 509.67815773 1271.77415085 510.68106079 C1267.95840047 514.51594755 1264.32156421 518.45745209 1260.79359055 522.559021 C1258.17682448 525.57433048 1255.43808493 528.47448266 1252.70763779 531.38652039 C1248.11565666 536.31164906 1243.58587334 541.26934213 1239.20763779 546.38652039 C1238.31972479 547.42046717 1237.43169273 548.45431171 1236.54357529 549.48808289 C1234.49293801 551.87661118 1232.4451701 554.26756433 1230.39904404 556.65995789 C1228.28732844 559.12826413 1226.16999139 561.59155348 1224.04748154 564.05058289 C1219.05425652 569.84096639 1214.11851659 575.65396624 1209.37951279 581.65605164 C1207.69678443 583.77156804 1205.99924015 585.87031863 1204.28576279 587.96073914 C1197.5327994 596.20248008 1190.96237513 604.55625037 1184.52013779 613.04277039 C1181.7204006 616.72698511 1178.8792543 620.3769199 1176.02575302 624.01957703 C1168.82610715 633.21361792 1161.85667784 642.55916966 1154.96642685 651.98661804 C1153.19755045 654.40028475 1151.41913613 656.80660823 1149.63732529 659.21073914 C1142.51430457 668.82554827 1135.52280808 678.51954945 1128.6578331 688.32011414 C1126.75298032 691.03436901 1124.83618147 693.7400742 1122.91930771 696.44584656 C1120.88167578 699.3254864 1118.85202272 702.21071602 1116.82238388 705.09599304 C1115.74729207 706.62101744 1114.66949626 708.14413925 1113.58898544 709.66532898 C1100.30041007 728.37939444 1087.790692 747.60924073 1075.19987106 766.79574585 C1061.62001829 787.47657327 1061.62001829 787.47657327 1057.87218857 792.54472351 C1055.97485483 795.12167091 1055.97485483 795.12167091 1056.45194626 797.31604004 C1057.27727193 799.5773074 1058.30341392 801.34997145 1059.63415146 803.35600281 C1060.14445908 804.1312883 1060.65476669 804.90657379 1061.18053818 805.70535278 C1061.73991074 806.54244278 1062.29928329 807.37953278 1062.87560654 808.24198914 C1063.45858505 809.1239949 1064.04156357 810.00600067 1064.6422081 810.91473389 C1066.55444602 813.80478489 1068.4747475 816.68938149 1070.39513779 819.57402039 C1071.71699183 821.5688172 1073.03835893 823.56393677 1074.35924911 825.55937195 C1080.44482769 834.74563997 1086.55591046 843.91488289 1092.67638779 853.07792664 C1093.16972107 853.81677597 1093.66305435 854.55562531 1094.17133713 855.31686401 C1096.43522563 858.70652959 1098.70195769 862.09419905 1100.97594833 865.47709656 C1106.11669197 873.14101597 1111.06945653 880.90408301 1115.93737411 888.74394226 C1118.71245314 893.20931951 1121.57364369 897.61589897 1124.45763779 902.01152039 C1130.86673225 911.82852665 1137.16517247 921.71362803 1143.44591904 931.61308289 C1145.18590749 934.35231082 1146.93032849 937.08865887 1148.67638779 939.82402039 C1156.63206487 952.29120319 1164.4971356 964.81276636 1172.32091904 977.36308289 C1174.1861627 980.35210689 1176.05552209 983.3385126 1177.92638779 986.32402039 C1186.41809766 999.8786109 1194.82661731 1013.4826147 1203.19591904 1027.11308289 C1205.18638381 1030.35193625 1207.18068877 1033.58839003 1209.17638779 1036.82402039 C1217.84483194 1050.88141849 1226.44600972 1064.97830002 1235.00355148 1079.10334778 C1237.46019915 1083.15708399 1239.92400096 1087.20640577 1242.39123154 1091.25370789 C1250.3171938 1104.2619639 1258.15597248 1117.31793838 1265.91509628 1130.42643738 C1271.45430999 1139.78263773 1277.04738548 1149.10307002 1282.70763779 1158.38652039 C1289.19090566 1169.01980883 1295.57241121 1179.71018769 1301.9156456 1190.42753601 C1307.4546885 1199.7833607 1313.04759917 1209.1034205 1318.70763779 1218.38652039 C1325.19090566 1229.01980883 1331.57241121 1239.71018769 1337.9156456 1250.42753601 C1343.4546885 1259.7833607 1349.04759917 1269.1034205 1354.70763779 1278.38652039 C1360.77929981 1288.34472896 1366.76673211 1298.34977422 1372.70763779 1308.38652039 C1380.74790888 1321.96696512 1388.90083634 1335.47506655 1397.11486435 1348.95097351 C1400.29800124 1354.17448739 1403.47048226 1359.40447245 1406.6439476 1364.63386536 C1408.41082824 1367.54517569 1410.17842221 1370.45605287 1411.94591904 1373.36698914 C1414.81871186 1378.09851906 1417.69102919 1382.83033739 1420.56310654 1387.56230164 C1424.11461732 1393.41359592 1427.6670618 1399.26432236 1431.2203331 1405.11454773 C1432.49848489 1407.21894457 1433.7764916 1409.32342954 1435.05431747 1411.42802429 C1442.40886367 1423.53888897 1449.80611196 1435.62250257 1457.24035263 1447.68461609 C1461.6490929 1454.84175203 1466.03147545 1462.01432448 1470.39513779 1469.19902039 C1476.41351596 1479.104957 1482.49871586 1488.9680892 1488.61193466 1498.8157196 C1491.25062912 1503.06685985 1493.88574954 1507.32021065 1496.52013779 1511.57402039 C1497.04800888 1512.4260907 1497.57587997 1513.27816101 1498.11974716 1514.15605164 C1501.82844426 1520.14668304 1505.51981699 1526.14780062 1509.20666122 1532.15190125 C1514.98615418 1541.56169805 1520.79285198 1550.95089241 1526.70666122 1560.27690125 C1530.66973572 1566.52692789 1534.60005241 1572.79694715 1538.52013779 1579.07402039 C1539.14839462 1580.07989197 1539.77665146 1581.08576355 1540.42394638 1582.12211609 C1542.99791772 1586.24407706 1545.57101851 1590.36658118 1548.14416122 1594.48905945 C1560.48161822 1614.25270452 1572.91705255 1633.951082 1585.43420029 1653.60136414 C1587.17234496 1656.33109355 1588.90901885 1659.06175223 1590.64513779 1661.79277039 C1603.79470002 1682.47642344 1616.99127168 1703.1258865 1630.41027451 1723.6360321 C1632.09778427 1726.21841257 1633.78074285 1728.80367615 1635.46154404 1731.39042664 C1653.0445887 1758.44026757 1670.73971454 1785.4245425 1688.83263779 1812.13652039 C1689.51229599 1813.14001022 1689.51229599 1813.14001022 1690.20568466 1814.16377258 C1699.39053373 1827.71408027 1708.66376931 1841.20408598 1718.02013779 1854.63652039 C1718.69536484 1855.60613708 1719.37059189 1856.57575378 1720.06628036 1857.57475281 C1721.44672651 1859.55634796 1722.82749938 1861.53771555 1724.20861435 1863.5188446 C1725.50018298 1865.37164934 1726.7912351 1867.22481428 1728.08166122 1869.07841492 C1736.33768706 1880.9355683 1744.69157579 1892.71458043 1753.20763779 1904.38652039 C1753.75887314 1905.14255554 1754.31010849 1905.8985907 1754.87804794 1906.67753601 C1763.58190558 1918.5973272 1772.46845004 1930.37178329 1781.44640732 1942.08622742 C1782.96331102 1944.06741215 1784.47554358 1946.05199112 1785.98498154 1948.03886414 C1792.06830288 1956.01521254 1798.36502893 1963.80496102 1804.71935654 1971.56620789 C1806.02173157 1973.15913903 1807.31829811 1974.75681559 1808.61388779 1976.35527039 C1817.03214172 1986.7255832 1825.70821807 1996.86708048 1834.75841904 2006.69120789 C1836.72372497 2008.85398475 1838.65310593 2011.03751737 1840.57091904 2013.24198914 C1849.37702407 2023.33111068 1858.69521093 2032.96462 1868.14513779 2042.44902039 C1868.83011337 2043.13858826 1869.51508896 2043.82815613 1870.22082138 2044.53862 C1874.15092711 2048.45681631 1878.19048289 2052.18730145 1882.39245224 2055.8120575 C1884.75859216 2057.86440939 1887.04199175 2060.0005482 1889.33263779 2062.13652039 C1895.13760481 2067.42834115 1901.24367477 2072.2588973 1907.46984482 2077.04277039 C1909.12205826 2078.32034594 1910.75859154 2079.61532153 1912.39123154 2080.91777039 C1925.7709311 2091.47453708 1940.20355501 2100.33747473 1955.20763779 2108.38652039 C1955.82364853 2108.7224823 1956.43965927 2109.05844421 1957.07433701 2109.40458679 C2017.65304983 2142.23072682 2095.11034954 2144.13624777 2160.36120224 2125.17582703 C2195.30543403 2114.57274064 2228.99779276 2097.32263156 2254.68273544 2070.8938446 C2256.20763779 2069.38652039 2256.20763779 2069.38652039 2258.70763779 2067.44902039 C2261.58533489 2065.07492028 2263.86898086 2062.45353891 2266.28185654 2059.61698914 C2267.54469344 2058.15435248 2268.83855636 2056.71782226 2270.16466904 2055.31230164 C2331.71053692 1989.88413411 2352.39732544 1889.83780736 2368.2336998 1660.76652527 C2368.20447713 1658.0978861 2368.17913858 1655.42921917 2368.15343857 1652.76054382 C2367.21175387 1560.73882323 2360.83836529 1468.94307189 2164.65978622 752.09941101 C2163.26385722 749.49154902 2161.88225898 746.87643422 2160.50489426 744.25872803 C2152.31555697 728.69572551 2143.87755926 713.33654958 2134.88683701 698.21708679 C2133.20243638 695.37775256 2131.53316777 692.53001883 2129.86779404 689.67948914 C2112.74350512 660.4123842 2094.17043533 631.8057109 2074.20763779 604.38652039 C2073.65704697 603.62774597 2073.10645615 602.86897156 2072.53918076 602.08720398 C2061.38338867 586.74069297 2049.69476391 571.89808527 2037.69298935 557.20829773 C2036.35708882 555.56982143 2035.02802095 553.92577991 2033.69982529 552.28105164 C2029.3858094 546.95241529 2024.93988363 541.78872819 2020.32482529 536.71855164 C2018.4271261 534.62828149 2016.56030364 532.51665924 2014.70763779 530.38652039 C2010.59299453 525.67202026 2006.42227871 521.01188343 2002.20763779 516.38652039 C2001.73535751 515.86767273 2001.26307724 515.34882507 2000.77648544 514.81425476 C1993.15962822 506.47466583 1985.3073549 498.38426565 1977.33263779 490.38652039 C1976.4531749 489.50246521 1975.57371201 488.61841003 1974.66759872 487.70756531 C1970.25615 483.30656431 1965.78453994 479.0507831 1961.05724716 474.99101257 C1958.08969224 472.41672918 1955.25243159 469.70670701 1952.39513779 467.01152039 C1947.39872795 462.33644671 1942.29549166 457.88180349 1936.94982529 453.60527039 C1934.5353156 451.65165001 1932.17900565 449.64485328 1929.83263779 447.61039734 C1909.54522245 430.09665207 1887.13686219 414.73538288 1864.3375206 400.69902039 C1862.44202323 399.53095598 1860.55461889 398.35100094 1858.66857529 397.16777039 C1830.39339257 379.74765781 1800.38984911 365.72990947 1769.20763779 354.38652039 C1768.25018661 354.03492859 1767.29273544 353.68333679 1766.3062706 353.3210907 C1721.97599007 337.21919875 1674.38956709 329.12852141 1627.27013779 329.19902039 C1626.13403061 329.19992676 1626.13403061 329.19992676 1624.97497177 329.20085144 C1521.1561266 329.42368531 1425.69215057 374.61993595 1347.20763779 440.38652039 Z M-70.79236221 423.63652039 C-71.84592911 423.84559021 -72.899496 424.05466003 -73.98498917 424.27006531 C-129.09316689 435.55787266 -181.19941545 459.58505003 -226.79236221 492.38652039 C-227.53937393 492.92244812 -228.28638565 493.45837585 -229.05603409 494.01054382 C-249.13935803 508.47482767 -268.18615773 524.18097835 -286.31677628 541.0242157 C-287.76506448 542.36131831 -289.22782373 543.68269184 -290.69079971 545.00370789 C-297.88463974 551.51225294 -304.79807849 558.28687509 -311.66736221 565.13652039 C-312.5593129 566.02387878 -313.45126358 566.91123718 -314.37024307 567.82548523 C-318.81654264 572.28221526 -323.12259535 576.79596451 -327.22351456 581.57255554 C-329.62836971 584.35314592 -332.15270983 587.01813446 -334.66736221 589.69902039 C-339.11024101 594.4740964 -343.31559128 599.37471771 -347.39783096 604.46464539 C-349.67337692 607.24133116 -352.01499828 609.93960207 -354.38806534 612.63237 C-361.35280508 620.54376342 -367.7804998 628.770061 -374.11999893 637.18632507 C-376.39012627 640.17295099 -378.7070834 643.12162111 -381.02453995 646.07157898 C-388.54825221 655.65779211 -395.75906168 665.4358194 -402.79236221 675.38652039 C-403.41369034 676.26437195 -404.03501846 677.14222351 -404.67517471 678.04667664 C-414.72180702 692.2760702 -424.39231652 706.72266135 -433.79236221 721.38652039 C-434.32845108 722.22167175 -434.86453995 723.05682312 -435.41687393 723.9172821 C-459.31092259 761.22133238 -480.61338331 799.96846901 -500.79236221 839.38652039 C-501.33215714 840.43742859 -501.87195206 841.48833679 -502.4281044 842.5710907 C-511.4643233 860.20957026 -519.75279043 878.14472042 -527.8308754 896.23570251 C-528.79295099 898.38783746 -529.75827229 900.53848884 -530.72449112 902.68876648 C-539.27562812 921.73130179 -547.42010774 940.88549245 -554.9940834 960.34068298 C-555.82337185 962.4659922 -556.65764185 964.58929162 -557.49304581 966.71220398 C-592.52891037 1055.81222014 -620.35566958 1147.61327356 -647.79236221 1271.38652039 C-648.01754532 1272.4778125 -648.24272842 1273.56910461 -648.47473526 1274.69346619 C-663.42024382 1347.28836171 -674.87239555 1420.57892076 -681.79236221 1494.38652039 C-681.88132767 1495.32854309 -681.97029312 1496.2705658 -682.0619545 1497.24113464 C-690.86450735 1590.75171073 -695.69938818 1686.15286937 -650.79236221 1937.38652039 C-650.42256241 1938.44032898 -650.0527626 1939.49413757 -649.67175674 1940.57987976 C-630.04961616 1995.93174535 -596.15931687 2051.57214842 -547.79236221 2086.38652039 C-546.6457135 2087.2382884 -545.49989496 2088.09117501 -544.35486221 2088.94511414 C-531.32833505 2098.56153658 -517.46456689 2106.55869304 -502.79236221 2113.38652039 C-501.73420303 2113.87934509 -501.73420303 2113.87934509 -500.6546669 2114.38212585 C-435.10366785 2144.42999992 -352.92074451 2143.99295559 -285.61853409 2119.46122742 C-254.55908202 2107.65026439 -225.90208734 2090.90400338 -199.79236221 2070.38652039 C-198.69528803 2069.54331461 -197.59759671 2068.70091137 -196.49939346 2067.85917664 C-184.44561099 2058.5674381 -173.02284909 2048.55933704 -161.86096573 2038.21977234 C-159.92740082 2036.43027184 -157.98432052 2034.6537501 -156.03259659 2032.88383484 C-149.1857578 2026.67107184 -142.54139747 2020.29298305 -136.01770401 2013.74223328 C-134.46651494 2012.1856265 -132.90996829 2010.63451867 -131.35290909 2009.08378601 C-126.53123871 2004.2653679 -121.81142209 1999.40396826 -117.37756729 1994.22123718 C-114.61226299 1991.02067322 -111.69285973 1987.96413219 -108.79236221 1984.88652039 C-104.02579684 1979.80048179 -99.3181366 1974.68925175 -94.79236221 1969.38652039 C-93.89420571 1968.34200786 -92.99573787 1967.29776301 -92.09704971 1966.25370789 C-89.50199513 1963.23621238 -86.91443127 1960.21239936 -84.32995987 1957.18583679 C-83.33856836 1956.02569779 -82.34613317 1954.86644944 -81.35242081 1953.70829773 C-75.785692 1947.21996387 -70.37125769 1940.64495546 -65.12585831 1933.8938446 C-61.45875233 1929.18968158 -57.66968314 1924.59627653 -53.85486221 1920.01152039 C-48.83139223 1913.95787454 -44.0089326 1907.79504072 -39.32947159 1901.47245789 C-35.58642896 1896.41910311 -31.73828931 1891.45755555 -27.85486221 1886.51152039 C-22.07070344 1879.12276493 -16.53434538 1871.58258468 -11.07361221 1863.95292664 C-7.6916246 1859.23054189 -4.24614254 1854.55653466 -0.79236221 1849.88652039 C8.79627981 1836.8963543 18.26482117 1823.85229256 27.33288193 1810.49198914 C31.03402182 1805.05512308 34.83515564 1799.7024563 38.70763779 1794.38652039 C44.8374661 1785.96445309 50.73287765 1777.39583497 56.58263779 1768.77763367 C58.71207536 1765.64426354 60.85146238 1762.51776525 62.99206161 1759.39201355 C64.58927351 1757.0593841 66.18569923 1754.72621919 67.78185654 1752.39286804 C69.92375007 1749.26214914 72.0668598 1746.13227146 74.21154404 1743.00346375 C82.08516023 1731.51332296 89.91581535 1719.99477993 97.70763779 1708.44902039 C98.31904617 1707.54330292 98.93045456 1706.63758545 99.56039047 1705.704422 C112.30744404 1686.81033608 124.85652363 1667.78825749 137.36680222 1648.7368927 C141.56117331 1642.3552541 145.79184843 1635.99842275 150.03350449 1629.64814758 C154.23395446 1623.35644907 158.38814145 1617.03593986 162.52013779 1610.69902039 C163.23379501 1609.60597595 163.94745224 1608.51293152 164.68273544 1607.38676453 C166.14582309 1605.14581206 167.60827323 1602.90444746 169.07043076 1600.66288757 C171.12693086 1597.5102452 173.18469848 1594.35843389 175.24279404 1591.20683289 C182.15881004 1580.61317688 189.05485309 1570.00697616 195.91906357 1559.37968445 C197.19958564 1557.39897544 198.48251281 1555.41984635 199.76623154 1553.44120789 C205.98226628 1543.85640824 212.14673712 1534.23923055 218.2996788 1524.61381531 C222.12610013 1518.63046077 225.96579535 1512.65632238 229.83263779 1506.69902039 C235.75103404 1497.5762623 241.57910566 1488.39637088 247.40929794 1479.21708679 C250.33937549 1474.60517815 253.27368357 1469.99596337 256.20763779 1465.38652039 C257.37432553 1463.55320046 258.54099217 1461.71986712 259.70763779 1459.88652039 C294.70763778 1404.8865204 294.70763778 1404.8865204 296.45812607 1402.13578796 C297.62320727 1400.30492285 298.78824642 1398.47403098 299.95324326 1396.64311218 C302.893821 1392.02179326 305.83515871 1387.40096119 308.77795029 1382.78105164 C316.28127407 1370.99966122 323.75678654 1359.20115666 331.20763779 1347.38652039 C340.43296201 1332.75814482 349.70684041 1318.16121812 358.99865341 1303.57499695 C365.08368417 1294.02183117 371.16463853 1284.46634499 377.20763779 1274.88652039 C383.25627419 1265.29775935 389.34328286 1255.73361905 395.43420029 1246.17167664 C397.17234496 1243.44194722 398.90901885 1240.71128854 400.64513779 1237.98027039 C412.66976228 1219.06659158 424.72359 1200.17162054 436.92199326 1181.36943054 C438.69037662 1178.64196953 440.45485978 1175.91199331 442.21960068 1173.18217468 C448.31406141 1163.75611908 454.43064287 1154.34449818 460.55041122 1144.93486023 C462.7296553 1141.58380695 464.90813695 1138.23225843 467.08654404 1134.88066101 C468.71275437 1132.37864824 470.33910254 1129.87672509 471.96545029 1127.37480164 C474.10655573 1124.08084272 476.24714524 1120.78654938 478.38732529 1117.49198914 C484.78703496 1107.64145563 491.19812049 1097.79842247 497.61681747 1087.96025085 C503.82513932 1078.44306299 510.01769762 1068.91566995 516.20763779 1059.38652039 C523.66790776 1047.90175212 531.13772297 1036.42331378 538.62121201 1024.95365906 C542.65608823 1018.76854345 546.68472726 1012.57942452 550.70763779 1006.38652039 C555.36644383 999.21471306 560.03443643 992.04895569 564.70763779 984.88652039 C571.55305518 974.39435609 578.38325168 963.89237249 585.20763779 953.38652039 C587.33240313 950.11553453 589.45739435 946.84469563 591.58263779 943.57402039 C592.10809189 942.76521423 592.63354599 941.95640808 593.17492294 941.12309265 C596.17264187 936.51076524 599.17580969 931.90205145 602.18420029 927.29667664 C603.18894394 925.75814026 603.18894394 925.75814026 604.21398544 924.18852234 C605.50723523 922.2087384 606.80114106 920.22938279 608.09582138 918.25053406 C609.2665001 916.45829959 610.4329139 914.66326961 611.59435654 912.86503601 C612.64065582 911.2575859 613.70484217 909.66158412 614.78966904 908.07987976 C615.25759872 907.38185242 615.72552841 906.68382507 616.20763779 905.96464539 C616.62013779 905.36555359 617.03263779 904.76646179 617.45763779 904.1492157 C618.45745467 901.79938565 618.11438382 900.74463762 617.20763779 898.38652039 C616.21284882 896.61849532 616.21284882 896.61849532 614.94201279 894.90995789 C614.23540512 893.91814514 614.23540512 893.91814514 613.51452255 892.90629578 C613.00075058 892.1985199 612.48697861 891.49074402 611.95763779 890.76152039 C611.42259628 890.0144281 610.88755478 889.26733582 610.3362999 888.49760437 C608.63294507 886.12271323 606.92086131 883.75429936 605.20763779 881.38652039 C604.13049826 879.89065457 603.0536695 878.39456492 601.97716904 876.89823914 C599.27279367 873.1434687 596.55948146 869.39524051 593.84435654 865.64823914 C592.22254714 863.40712305 590.60498647 861.16300724 588.98888779 858.91777039 C581.71600181 848.81703081 574.36254974 838.77854608 566.96496201 828.7688446 C565.23003989 826.41688989 563.50108635 824.06067199 561.77404404 821.70292664 C554.95631882 812.40329748 548.04334559 803.18382248 541.03722763 794.02519226 C536.97449538 788.71352774 532.95044726 783.37586521 528.95763779 778.01152039 C524.61333325 772.18593681 520.13559734 766.48301196 515.57262802 760.82743835 C512.33061805 756.80621686 509.15303457 752.74321319 506.02013779 748.63652039 C502.33388562 743.81285826 498.55104673 739.0816268 494.68810654 734.39823914 C491.67681203 730.74200596 488.69208331 727.06467338 485.70763779 723.38652039 C484.58403183 722.00363316 483.46033554 720.62081933 482.33654404 719.23808289 C480.48820368 716.9636298 478.64178624 714.68768914 476.79748154 712.40995789 C472.17167049 706.71794356 467.4378562 701.13001718 462.64660263 695.57743835 C459.62129374 692.06377327 456.67027823 688.50504424 453.77013779 684.88652039 C449.16961902 679.21338523 444.19872729 673.920319 439.20373154 668.59745789 C436.96849045 666.21292554 434.78063499 663.79889978 432.64513779 661.32402039 C425.77487239 653.3770716 418.606775 645.68178567 411.11133957 638.32266235 C409.39765666 636.5797773 407.81649968 634.79435893 406.24059677 632.92778015 C401.10707663 627.02634439 395.52601419 621.56087147 389.99279404 616.03886414 C388.81112479 614.85651961 387.62960388 613.67402682 386.44822311 612.49139404 C383.98301056 610.02471505 381.51601893 607.55983335 379.04772568 605.09623718 C375.90309295 601.95730107 372.76297223 598.81389568 369.62418079 595.66911983 C367.18859546 593.22990033 364.7506079 590.79309298 362.31191444 588.35698128 C361.1538994 587.19962762 359.99661086 586.04154651 358.84010124 584.88268852 C353.32293439 579.3567759 347.81626969 573.86263302 341.8611412 568.8019104 C338.946082 566.30663543 336.18583718 563.64391365 333.39513779 561.01152039 C328.42925076 556.36462263 323.35512871 551.9435659 318.04357529 547.69120789 C315.35631997 545.50735026 312.73339938 543.26693064 310.11828232 540.99809265 C303.55925136 535.30803913 296.85824024 529.88846224 289.91466904 524.6726532 C288.1512038 523.34400119 286.3977881 522.00283628 284.64513779 520.65995789 C267.65679138 507.70296954 250.17749528 495.5064425 231.67150497 484.8132782 C229.19808882 483.38099084 226.73768103 481.92809799 224.27795029 480.47245789 C160.7547179 443.17662069 85.83448351 418.47473411 11.69982529 418.18339539 C10.53548965 418.17769531 9.37115402 418.17199524 8.17153549 418.16612244 C5.71596796 418.1567329 3.26038818 418.15016274 0.80480576 418.14628601 C-2.85933324 418.13667263 -6.52288775 418.10562793 -10.18689346 418.07402039 C-30.58847579 417.98224059 -50.77199209 419.5841328 -70.79236221 423.63652039 Z " fill="#0075F0" transform="translate(1105.7923622131348,-0.3865203857421875)"/>
</svg>
