<svg version="1.1" id="Layer_1" xmlns="http://www.w3.org/2000/svg" xmlns:xlink="http://www.w3.org/1999/xlink" x="0px" y="0px"
	 width="100%" viewBox="0 0 1161 830" enable-background="new 0 0 1161 830" xml:space="preserve">
<path fill="#FFCB05" opacity="1.000000" stroke="none" 
	d="
M439.000000,831.000000 
	C294.311310,831.000000 149.622650,831.000000 4.466985,830.531372 
	C4.000000,755.585144 3.999659,681.107544 4.000597,606.630005 
	C4.000680,600.003052 4.004568,600.000671 10.831799,600.000366 
	C35.324417,599.999329 59.817059,600.014954 84.309616,599.976074 
	C86.654648,599.972351 89.650208,600.818665 89.964493,596.943726 
	C89.983681,596.983337 89.905083,596.943909 90.327225,596.946899 
	C94.804848,596.132996 92.904137,592.878967 92.905991,590.843994 
	C93.011520,474.874146 93.000107,358.904236 92.998657,242.934341 
	C92.998642,241.601624 93.361717,240.102036 92.872284,238.977646 
	C92.233452,237.510025 90.911957,236.339539 89.423080,235.023926 
	C60.641510,234.948883 32.321045,234.891129 4.000391,234.375732 
	C4.000136,159.434296 3.999629,84.950516 4.000789,10.466724 
	C4.000889,4.005770 4.006024,4.000805 10.496193,4.000743 
	C119.972298,3.999708 229.448395,3.999931 338.924500,4.000838 
	C340.257477,4.000850 341.630981,3.815140 342.911926,4.076689 
	C344.161011,4.331733 345.779022,4.710860 346.441528,5.616181 
	C355.342285,17.779539 364.114868,30.036852 372.897034,42.286797 
	C380.354675,52.689201 387.711853,63.164455 395.243683,73.512703 
	C404.298553,85.953438 413.570679,98.236267 422.599792,110.695381 
	C430.205902,121.190857 437.512421,131.903320 445.109863,142.405197 
	C453.181671,153.562775 461.521667,164.526352 469.592896,175.684311 
	C477.189880,186.186676 484.502075,196.895081 492.099518,207.397095 
	C500.171204,218.554596 508.513519,229.516327 516.584717,240.674164 
	C524.181824,251.176712 531.510681,261.873047 539.082825,272.393921 
	C548.351501,285.271790 557.676575,298.110657 567.127502,310.854919 
	C571.224915,316.380066 575.697693,321.626801 580.052063,327.340302 
	C583.633057,330.743134 584.861145,326.719910 586.017517,325.214111 
	C592.073608,317.328064 597.730103,309.135834 603.549500,301.067291 
	C620.040039,278.203308 636.518188,255.330322 653.046387,232.493500 
	C670.934570,207.777374 688.898010,183.115646 706.783508,158.397552 
	C722.918823,136.098282 738.956238,113.728119 755.103882,91.437805 
	C775.044617,63.911575 795.168945,36.517010 814.901917,8.843050 
	C817.614258,5.039243 820.297302,3.919864 824.659180,3.923723 
	C934.320801,4.020749 1043.982422,4.007372 1153.644165,3.958153 
	C1156.429565,3.956903 1159.214722,3.333336 1162.000000,3.000001 
	C1162.000000,80.022011 1162.000000,157.044022 1161.531372,234.533020 
	C1131.812134,235.000000 1102.561646,235.000000 1073.000488,235.000000 
	C1073.000488,236.607727 1073.000366,237.581329 1073.000488,238.554932 
	C1073.014038,357.998077 1073.027710,477.441193 1073.076294,597.285889 
	C1075.058472,598.458313 1077.001709,599.888611 1078.953369,599.900146 
	C1104.358154,600.050720 1129.764160,600.025391 1155.169556,599.956543 
	C1157.447144,599.950378 1159.723267,599.333374 1162.000000,599.000000 
	C1162.000000,676.282959 1162.000000,753.565979 1162.000000,831.000000 
	C1017.311340,831.000000 872.622681,831.000000 727.466980,830.531372 
	C727.000000,755.584717 726.999634,681.106812 727.000549,606.628845 
	C727.000610,600.002991 727.004517,600.000671 733.832886,600.000427 
	C759.991821,599.999390 786.150696,600.013977 812.309570,599.976135 
	C814.654602,599.972717 817.650208,600.818787 817.964478,596.943787 
	C817.983582,596.983337 817.905090,596.943909 818.327271,596.946899 
	C819.499634,595.415771 820.903870,593.882568 820.906067,592.347290 
	C821.013428,518.246887 821.005798,444.146332 820.960327,370.045837 
	C820.959351,368.441589 820.368774,366.837738 820.053223,365.233704 
	C819.354431,365.526978 818.655640,365.820282 817.602173,366.074463 
	C816.335999,366.692902 815.177917,367.170898 814.549011,368.034332 
	C798.984192,389.403259 783.512817,410.840271 767.944458,432.206665 
	C755.731323,448.968140 743.389954,465.636139 731.143372,482.373383 
	C718.613647,499.497589 706.132385,516.657349 693.625366,533.798218 
	C680.056824,552.393860 666.508484,571.004333 652.905151,589.574463 
	C634.959106,614.072998 616.989380,638.554077 598.982849,663.007996 
	C593.773071,670.083130 588.402222,677.039612 582.820801,683.863770 
	C570.543213,667.196045 558.602905,650.676331 546.546387,634.241821 
	C514.887207,591.086609 483.107269,548.019836 451.507629,504.821136 
	C420.397034,462.290985 389.450134,419.641144 358.427490,377.046661 
	C355.597870,373.161530 352.889893,369.171631 349.812592,365.492004 
	C348.761322,364.234985 346.954834,360.543915 345.023926,365.576935 
	C345.018250,442.986908 345.029877,519.935791 345.076447,597.286133 
	C347.055054,598.458435 348.995148,599.889771 350.942993,599.900391 
	C377.967407,600.047607 404.992920,600.023865 432.017944,599.956726 
	C434.290558,599.951050 436.561615,599.334534 438.903076,599.465637 
	C438.981812,676.953003 438.990906,753.976501 439.000000,831.000000 
z"/>
<path fill="#FFFFFF" opacity="1.000000" stroke="none" 
	d="
M345.041504,596.884644 
	C345.029877,519.935791 345.018250,442.986908 345.381378,365.537109 
	C346.193146,365.227295 346.800781,365.294617 347.042389,365.627563 
	C353.747833,374.867340 360.380554,384.159973 367.098114,393.390900 
	C380.742065,412.139740 394.403076,430.876312 408.103790,449.583679 
	C426.048065,474.085388 444.047119,498.546997 462.004333,523.039246 
	C474.264923,539.761841 486.502228,556.501465 498.735474,573.244019 
	C513.853699,593.934998 528.962036,614.633362 544.065063,635.335449 
	C555.900208,651.558228 567.712646,667.797607 579.562073,684.010010 
	C580.630310,685.471497 581.897339,686.644775 583.105225,684.050537 
	C588.402222,677.039612 593.773071,670.083130 598.982849,663.007996 
	C616.989380,638.554077 634.959106,614.072998 652.905151,589.574463 
	C666.508484,571.004333 680.056824,552.393860 693.625366,533.798218 
	C706.132385,516.657349 718.613647,499.497589 731.143372,482.373383 
	C743.389954,465.636139 755.731323,448.968140 767.944458,432.206665 
	C783.512817,410.840271 798.984192,389.403259 814.549011,368.034332 
	C815.177917,367.170898 816.335999,366.692902 817.620361,366.535126 
	C817.995361,392.192017 818.009155,417.349121 817.997620,442.506195 
	C817.973999,493.985443 817.936707,545.464661 817.905090,596.943909 
	C817.905090,596.943909 817.983582,596.983337 817.501343,596.984131 
	C786.105835,596.984985 755.192627,596.984985 724.000000,596.984985 
	C724.000000,675.444458 724.000000,753.222229 724.000000,831.000000 
	C629.312439,831.000000 534.624878,831.000000 439.468658,831.000000 
	C438.990906,753.976501 438.981812,676.953003 438.945770,599.035400 
	C437.309662,597.760864 435.701691,597.054016 434.091217,597.048340 
	C404.408173,596.943787 374.724792,596.923096 345.041504,596.884644 
z"/>
<path fill="#FFFFFF" opacity="1.000000" stroke="none" 
	d="
M346.000000,0.999998 
	C502.690765,1.000000 659.381531,1.000000 816.437134,1.335415 
	C816.190674,2.630277 815.627258,3.624500 814.960754,4.544016 
	C800.871826,23.981987 786.743408,43.391441 772.681519,62.848988 
	C760.726990,79.390465 748.876160,96.006912 736.925659,112.551323 
	C722.296814,132.803772 707.596619,153.004654 692.955811,173.248459 
	C680.609131,190.320023 668.326050,207.437607 655.973877,224.505173 
	C640.273438,246.199371 624.552368,267.878723 608.799255,289.534698 
	C600.338074,301.166412 591.814392,312.753082 583.221558,324.287567 
	C582.738403,324.936157 581.367798,324.923706 580.241821,324.940491 
	C575.178589,317.744141 570.359802,310.770935 565.376404,303.917511 
	C539.361694,268.141022 513.224243,232.453400 487.287842,196.620331 
	C465.288391,166.226501 443.574768,135.625916 421.606049,105.209702 
	C396.478180,70.419563 371.208221,35.732082 346.000000,0.999998 
z"/>
<path fill="#FFFFFF" opacity="1.000000" stroke="none" 
	d="
M4.000580,234.833359 
	C32.321045,234.891129 60.641510,234.948883 89.471603,235.487610 
	C89.987488,352.795074 89.994576,469.621552 89.995987,586.448059 
	C89.996033,589.946655 89.936722,593.445312 89.905083,596.943909 
	C89.905083,596.943909 89.983681,596.983337 89.501328,596.984131 
	C59.679317,596.989990 30.339659,596.994995 1.000000,597.000000 
	C1.000000,476.645782 1.000000,356.291534 1.376729,235.468353 
	C2.502499,234.944031 3.251539,234.888687 4.000580,234.833359 
z"/>
<path fill="#FFFFFF" opacity="1.000000" stroke="none" 
	d="
M1073.041260,596.884338 
	C1073.027710,477.441193 1073.014038,357.998077 1073.000488,238.554932 
	C1073.000366,237.581329 1073.000488,236.607727 1073.000488,235.000000 
	C1102.561646,235.000000 1131.812134,235.000000 1161.531372,235.000000 
	C1162.000000,355.354218 1162.000000,475.708466 1161.531372,596.531372 
	C1131.722290,596.961426 1102.381714,596.922913 1073.041260,596.884338 
z"/>
<path fill="#FFCB05" opacity="1.000000" stroke="none" 
	d="
M4.000391,234.375732 
	C3.251539,234.888687 2.502499,234.944031 1.376729,234.999695 
	C1.000000,157.058960 1.000000,79.117912 1.000000,1.000000 
	C115.687500,1.000000 230.375092,1.000000 345.531342,0.999998 
	C371.208221,35.732082 396.478180,70.419563 421.606049,105.209702 
	C443.574768,135.625916 465.288391,166.226501 487.287842,196.620331 
	C513.224243,232.453400 539.361694,268.141022 565.376404,303.917511 
	C570.359802,310.770935 575.178589,317.744141 580.110840,325.380554 
	C580.098877,326.399384 580.049438,326.699707 580.000000,327.000000 
	C575.697693,321.626801 571.224915,316.380066 567.127502,310.854919 
	C557.676575,298.110657 548.351501,285.271790 539.082825,272.393921 
	C531.510681,261.873047 524.181824,251.176712 516.584717,240.674164 
	C508.513519,229.516327 500.171204,218.554596 492.099518,207.397095 
	C484.502075,196.895081 477.189880,186.186676 469.592896,175.684311 
	C461.521667,164.526352 453.181671,153.562775 445.109863,142.405197 
	C437.512421,131.903320 430.205902,121.190857 422.599792,110.695381 
	C413.570679,98.236267 404.298553,85.953438 395.243683,73.512703 
	C387.711853,63.164455 380.354675,52.689201 372.897034,42.286797 
	C364.114868,30.036852 355.342285,17.779539 346.441528,5.616181 
	C345.779022,4.710860 344.161011,4.331733 342.911926,4.076689 
	C341.630981,3.815140 340.257477,4.000850 338.924500,4.000838 
	C229.448395,3.999931 119.972298,3.999708 10.496193,4.000743 
	C4.006024,4.000805 4.000889,4.005770 4.000789,10.466724 
	C3.999629,84.950516 4.000136,159.434296 4.000391,234.375732 
z"/>
<path fill="#FFCB05" opacity="1.000000" stroke="none" 
	d="
M580.052063,327.340302 
	C580.049438,326.699707 580.098877,326.399384 580.279297,325.658966 
	C581.367798,324.923706 582.738403,324.936157 583.221558,324.287567 
	C591.814392,312.753082 600.338074,301.166412 608.799255,289.534698 
	C624.552368,267.878723 640.273438,246.199371 655.973877,224.505173 
	C668.326050,207.437607 680.609131,190.320023 692.955811,173.248459 
	C707.596619,153.004654 722.296814,132.803772 736.925659,112.551323 
	C748.876160,96.006912 760.726990,79.390465 772.681519,62.848988 
	C786.743408,43.391441 800.871826,23.981987 814.960754,4.544016 
	C815.627258,3.624500 816.190674,2.630277 816.901001,1.335415 
	C930.500000,1.000000 1044.000000,0.996151 1157.500000,1.041495 
	C1159.000122,1.042095 1160.500000,1.666657 1162.000000,2.499997 
	C1159.214722,3.333336 1156.429565,3.956903 1153.644165,3.958153 
	C1043.982422,4.007372 934.320801,4.020749 824.659180,3.923723 
	C820.297302,3.919864 817.614258,5.039243 814.901917,8.843050 
	C795.168945,36.517010 775.044617,63.911575 755.103882,91.437805 
	C738.956238,113.728119 722.918823,136.098282 706.783508,158.397552 
	C688.898010,183.115646 670.934570,207.777374 653.046387,232.493500 
	C636.518188,255.330322 620.040039,278.203308 603.549500,301.067291 
	C597.730103,309.135834 592.073608,317.328064 586.017517,325.214111 
	C584.861145,326.719910 583.633057,330.743134 580.052063,327.340302 
z"/>
<path fill="#FFCB05" opacity="1.000000" stroke="none" 
	d="
M724.375000,831.000000 
	C724.000000,753.222229 724.000000,675.444458 724.000000,596.984985 
	C755.192627,596.984985 786.105835,596.984985 817.482178,596.944580 
	C817.650208,600.818787 814.654602,599.972717 812.309570,599.976135 
	C786.150696,600.013977 759.991821,599.999390 733.832886,600.000427 
	C727.004517,600.000671 727.000610,600.002991 727.000549,606.628845 
	C726.999634,681.106812 727.000000,755.584717 727.000000,830.531372 
	C726.250000,831.000000 725.500000,831.000000 724.375000,831.000000 
z"/>
<path fill="#FFCB05" opacity="1.000000" stroke="none" 
	d="
M1.000000,597.468628 
	C30.339659,596.994995 59.679317,596.989990 89.482140,596.944580 
	C89.650208,600.818665 86.654648,599.972351 84.309616,599.976074 
	C59.817059,600.014954 35.324417,599.999329 10.831799,600.000366 
	C4.004568,600.000671 4.000680,600.003052 4.000597,606.630005 
	C3.999659,681.107544 4.000000,755.585144 4.000000,830.531372 
	C3.001849,831.000000 2.003698,831.000000 1.002774,831.000000 
	C1.000000,753.312439 1.000000,675.624878 1.000000,597.468628 
z"/>
<path fill="#FFCB05" opacity="1.000000" stroke="none" 
	d="
M1073.076294,597.285889 
	C1102.381714,596.922913 1131.722290,596.961426 1161.531372,597.000000 
	C1162.000000,597.444458 1162.000000,597.888916 1162.000000,598.666748 
	C1159.723267,599.333374 1157.447144,599.950378 1155.169556,599.956543 
	C1129.764160,600.025391 1104.358154,600.050720 1078.953369,599.900146 
	C1077.001709,599.888611 1075.058472,598.458313 1073.076294,597.285889 
z"/>
<path fill="#FFCB05" opacity="1.000000" stroke="none" 
	d="
M90.327225,596.946899 
	C89.936722,593.445312 89.996033,589.946655 89.995987,586.448059 
	C89.994576,469.621552 89.987488,352.795074 89.932709,235.504898 
	C90.911957,236.339539 92.233452,237.510025 92.872284,238.977646 
	C93.361717,240.102036 92.998642,241.601624 92.998657,242.934341 
	C93.000107,358.904236 93.011520,474.874146 92.905991,590.843994 
	C92.904137,592.878967 94.804848,596.132996 90.327225,596.946899 
z"/>
<path fill="#FFCB05" opacity="1.000000" stroke="none" 
	d="
M582.820801,683.863770 
	C581.897339,686.644775 580.630310,685.471497 579.562073,684.010010 
	C567.712646,667.797607 555.900208,651.558228 544.065063,635.335449 
	C528.962036,614.633362 513.853699,593.934998 498.735474,573.244019 
	C486.502228,556.501465 474.264923,539.761841 462.004333,523.039246 
	C444.047119,498.546997 426.048065,474.085388 408.103790,449.583679 
	C394.403076,430.876312 380.742065,412.139740 367.098114,393.390900 
	C360.380554,384.159973 353.747833,374.867340 347.042389,365.627563 
	C346.800781,365.294617 346.193146,365.227295 345.398651,365.075989 
	C346.954834,360.543915 348.761322,364.234985 349.812592,365.492004 
	C352.889893,369.171631 355.597870,373.161530 358.427490,377.046661 
	C389.450134,419.641144 420.397034,462.290985 451.507629,504.821136 
	C483.107269,548.019836 514.887207,591.086609 546.546387,634.241821 
	C558.602905,650.676331 570.543213,667.196045 582.820801,683.863770 
z"/>
<path fill="#FFCB05" opacity="1.000000" stroke="none" 
	d="
M818.327271,596.946899 
	C817.936707,545.464661 817.973999,493.985443 817.997620,442.506195 
	C818.009155,417.349121 817.995361,392.192017 817.974976,366.574280 
	C818.655640,365.820282 819.354431,365.526978 820.053223,365.233704 
	C820.368774,366.837738 820.959351,368.441589 820.960327,370.045837 
	C821.005798,444.146332 821.013428,518.246887 820.906067,592.347290 
	C820.903870,593.882568 819.499634,595.415771 818.327271,596.946899 
z"/>
<path fill="#FFCB05" opacity="1.000000" stroke="none" 
	d="
M345.076447,597.286133 
	C374.724792,596.923096 404.408173,596.943787 434.091217,597.048340 
	C435.701691,597.054016 437.309662,597.760864 438.876099,598.571533 
	C436.561615,599.334534 434.290558,599.951050 432.017944,599.956726 
	C404.992920,600.023865 377.967407,600.047607 350.942993,599.900391 
	C348.995148,599.889771 347.055054,598.458435 345.076447,597.286133 
z"/>
</svg>