<svg xmlns="http://www.w3.org/2000/svg" width="1024" height="1024" viewBox="0 0 1024 1024">
<g>
<path d="M 488.00 539.00 L 488.00 1024.00 L 0.00 1024.00 L 0.00 539.00 Z" fill="rgb(1,164,238)"/>
<path d="M 542.00 482.05 C542.00,484.61 544.04,484.57 544.71,482.00 C545.00,480.90 545.97,479.99 546.87,479.98 C547.95,479.97 548.11,479.72 547.35,479.23 C547.34,479.23 547.34,479.23 547.34,479.23 C547.34,478.83 654.09,478.62 785.10,478.76 L 1024.00 479.01 L 1024.00 488.00 L 539.00 488.00 L 539.00 0.00 L 542.00 0.00 L 542.00 237.57 C542.00,453.33 542.15,475.29 543.59,476.73 C545.04,478.18 545.04,478.40 543.59,479.21 C542.72,479.70 542.00,480.98 542.00,482.05 Z" fill="rgb(129,183,3)"/>
<path d="M 542.00 482.05 C542.00,480.98 542.72,479.70 543.59,479.21 C545.04,478.40 545.04,478.18 543.59,476.73 C542.15,475.29 542.00,453.33 542.00,237.57 L 542.00 0.00 L 1024.00 0.00 L 1024.00 479.01 L 785.10 478.76 C654.09,478.62 547.34,478.83 547.34,479.23 C547.34,479.23 547.34,479.23 547.35,479.23 C548.11,479.72 547.95,479.97 546.87,479.98 C545.97,479.99 545.00,480.90 544.71,482.00 C544.04,484.57 542.00,484.61 542.00,482.05 Z" fill="rgb(128,185,0)"/>
<path d="M 0.00 0.00 L 488.00 0.00 L 488.00 488.00 L 0.00 488.00 Z" fill="rgb(243,78,36)"/>
<path d="M 539.00 1024.00 L 539.00 539.00 L 1024.00 539.00 L 1024.00 1024.00 L 539.00 1024.00 Z" fill="rgb(254,185,2)"/>
<path d="M 488.00 781.50 L 488.00 539.00 L 244.00 539.00 L 0.00 539.00 L 0.00 513.50 L 0.00 488.00 L 244.00 488.00 L 488.00 488.00 L 488.00 244.00 L 488.00 0.00 L 513.50 0.00 L 539.00 0.00 L 539.00 244.00 L 539.00 488.00 L 781.50 488.00 L 1024.00 488.00 L 1024.00 513.50 L 1024.00 539.00 L 781.50 539.00 L 539.00 539.00 L 539.00 781.50 L 539.00 1024.00 L 513.50 1024.00 L 488.00 1024.00 L 488.00 781.50 Z" fill="rgb(253,254,253)"/>
</g>
</svg>