<?xml version="1.0" encoding="UTF-8"?>
<svg version="1.1" xmlns="http://www.w3.org/2000/svg" width="1200" height="1200">
<path d="M0 0 C189.09 0 378.18 0 573 0 C573 188.76 573 377.52 573 572 C383.91 572 194.82 572 0 572 C0 383.24 0 194.48 0 0 Z " fill="#F34E23" transform="translate(0,0)"/>
<path d="M0 0 C188.76 0 377.52 0 572 0 C572 187.77 572 375.54 572 569 C383.24 569 194.48 569 0 569 C0 381.23 0 193.46 0 0 Z " fill="#00A3EF" transform="translate(0,631)"/>
<path d="M0 0 C187.77 0 375.54 0 569 0 C569 188.76 569 377.52 569 572 C381.23 572 193.46 572 0 572 C0 383.24 0 194.48 0 0 Z " fill="#80B800" transform="translate(631,0)"/>
<path d="M0 0 C187.77 0 375.54 0 569 0 C569 187.77 569 375.54 569 569 C381.23 569 193.46 569 0 569 C0 381.23 0 193.46 0 0 Z " fill="#FFB801" transform="translate(631,631)"/>
</svg>
