<svg xmlns="http://www.w3.org/2000/svg" width="512" height="512" viewBox="0 0 512 512">
<g>
<path d="M 184.00 464.10 L 184.00 452.19 L 198.25 451.82 C213.62,451.43 215.91,450.79 221.41,445.34 C228.04,438.78 227.95,439.57 227.98,386.25 L 228.00 338.00 L 206.25 337.99 C170.56,337.98 155.04,334.31 135.00,321.12 C127.49,316.18 114.68,303.81 109.36,296.35 C103.44,288.05 96.55,273.25 93.83,262.96 C91.63,254.61 91.59,253.41 91.05,169.00 C90.45,75.38 90.86,81.44 84.60,74.70 C80.17,69.93 74.58,68.05 64.75,68.02 L 56.00 68.00 L 56.00 56.00 L 56.00 44.00 L 67.75 44.03 C94.61,44.11 111.41,50.51 128.10,67.00 C137.73,76.51 143.29,85.45 147.73,98.50 L 150.45 106.50 L 151.05 178.50 C151.71,257.45 151.46,254.23 157.97,268.60 C169.22,293.40 193.92,311.19 220.46,313.59 L 228.00 314.28 L 228.00 199.75 L 228.00 85.23 L 225.21 79.88 C223.17,75.99 221.08,73.71 217.54,71.52 C212.80,68.58 212.27,68.49 198.33,68.18 L 184.00 67.85 L 184.00 55.92 L 184.00 43.99 L 258.25 44.24 L 332.50 44.50 L 332.78 56.25 L 333.06 68.00 L 319.50 68.00 C304.06,68.00 300.75,68.91 294.72,74.78 C287.67,81.65 288.00,75.48 288.00,201.33 L 288.00 314.29 L 295.30 313.68 C314.54,312.05 334.74,301.39 347.27,286.26 C352.89,279.47 358.88,268.27 362.12,258.50 C364.44,251.51 364.45,251.40 365.02,180.00 C365.53,116.06 365.77,107.87 367.33,102.56 C371.92,86.92 378.96,75.01 389.39,65.26 C405.29,50.38 423.35,44.00 449.57,44.00 L 460.00 44.00 L 460.00 56.00 L 460.00 68.00 L 452.25 68.01 C442.26,68.01 437.76,69.32 433.03,73.59 C424.99,80.85 425.56,74.00 424.98,170.50 L 424.46 256.50 L 421.72 265.28 C412.49,294.94 394.66,315.84 367.85,328.42 C351.30,336.18 345.44,337.21 314.75,337.75 L 288.00 338.21 L 288.00 384.66 C288.00,416.63 288.36,432.55 289.16,435.73 C290.68,441.75 297.87,449.35 303.50,450.89 C305.70,451.50 313.25,451.99 320.28,451.99 L 333.06 452.00 L 332.78 463.75 L 332.50 475.50 L 258.25 475.76 L 184.00 476.01 L 184.00 464.10 Z" fill="rgba(19,107,177,1)"/>
</g>
</svg>