<svg xmlns="http://www.w3.org/2000/svg" fill="none" viewBox="0 0 29.223 38.29787234042553" style="max-height: 500px" width="29.223" height="38.29787234042553">
<g clip-path="url(#clip0_101_3464)">
<path fill="#171616" d="M30.8463 23.5841L33.8853 22.891C34.1832 24.9306 35.6133 25.9603 37.818 25.9603C40.0227 25.9603 41.2145 25.0098 41.2145 23.5643C41.2145 19.4059 31.4025 22.7128 31.4025 15.8217C31.4025 12.891 33.9448 10.8118 37.7187 10.8118C40.857 10.8118 43.598 12.495 44.1343 15.5841L41.2542 16.4158C40.9563 14.6732 39.5659 13.7227 37.6194 13.7227C35.6729 13.7227 34.5407 14.6138 34.5407 15.8613C34.5407 19.6237 44.5116 16.297 44.5116 23.3069C44.5116 26.6336 41.8104 28.8712 37.679 28.8712C33.8853 28.8712 31.2634 26.9306 30.8463 23.6039V23.5841Z" data-darkreader-inline-fill="" style="--darkreader-inline-fill: var(--darkreader-background-171616, #111213);"/>
<path fill="#171616" d="M48.4047 11.2277H51.6025V13.6039H51.8607C52.4169 12.8514 53.9463 10.8118 57.303 10.8118C62.07 10.8118 65.6253 14.594 65.6253 19.8019C65.6253 25.0098 62.2487 28.8514 57.5215 28.8514C54.1846 28.8514 52.536 27.0098 51.9004 25.9603H51.6422V35.9999H48.3649V11.2277H48.4047ZM62.2885 19.7821C62.2885 16.1584 59.9447 13.8217 56.9058 13.8217C53.6682 13.8217 51.6224 16.5544 51.6224 19.7821C51.6224 23.6039 54.0257 25.8019 56.9653 25.8019C59.905 25.8019 62.2885 23.3267 62.2885 19.7821Z" data-darkreader-inline-fill="" style="--darkreader-inline-fill: var(--darkreader-background-171616, #111213);"/>
<path fill="#171616" d="M69.1807 11.2277H72.4183V13.9208H72.6566C73.2525 12.4752 74.9408 10.7921 77.2846 10.7921H78.516V14.0594H76.8675C73.8881 14.0594 72.4779 16.3366 72.4779 19.5841V28.4158H69.2006V11.2277H69.1807Z" data-darkreader-inline-fill="" style="--darkreader-inline-fill: var(--darkreader-background-171616, #111213);"/>
<path fill="#171616" d="M83.6803 14.0594H80.542V11.2277H86.9575V28.4356H83.6803V14.0594ZM83.144 6.15839C83.144 4.97027 84.0775 4.01978 85.3288 4.01978C86.5802 4.01978 87.5336 4.97027 87.5336 6.15839C87.5336 7.40591 86.6 8.35641 85.3288 8.35641C84.0576 8.35641 83.144 7.40591 83.144 6.15839Z" data-darkreader-inline-fill="" style="--darkreader-inline-fill: var(--darkreader-background-171616, #111213);"/>
<path fill="#171616" d="M92.2012 11.2277H95.4785V13.4653H95.7367C96.4717 12.0198 98.1798 10.7921 100.702 10.7921C104.595 10.7921 107.019 13.6831 107.019 17.3861V28.4158H103.741V17.9406C103.741 15.5049 101.954 13.8614 99.7688 13.8614C97.3655 13.8614 95.4785 15.7425 95.4785 18.2376V28.4158H92.2012V11.2277Z" data-darkreader-inline-fill="" style="--darkreader-inline-fill: var(--darkreader-background-171616, #111213);"/>
<path fill="#171616" d="M113.077 23.3861V14.0594H109.938V11.2277H113.275V6.31683H116.354V11.2277H121.439V14.0594H116.354V23.3465C116.354 24.8911 116.99 25.5446 118.499 25.5446H121.24V28.4158H118.459C115.222 28.4158 113.077 26.9307 113.077 23.3861Z" data-darkreader-inline-fill="" style="--darkreader-inline-fill: var(--darkreader-background-171616, #111213);"/>
<path fill="#171616" d="M123.921 19.8613C123.921 14.4158 127.795 10.8118 132.423 10.8118C137.686 10.8118 140.745 14.5346 140.745 19.6831V20.7128H127.298C127.338 24.0792 129.384 26.0396 132.581 26.0396C134.727 26.0396 136.753 24.8514 137.348 22.7128L140.427 23.4653C139.374 26.8514 136.355 28.8712 132.601 28.8712C127.338 28.8712 123.941 25.1485 123.941 19.8811L123.921 19.8613ZM137.408 18.2178C137.249 15.2871 135.025 13.6633 132.423 13.6633C129.821 13.6633 127.556 15.5643 127.338 18.2178H137.408Z" data-darkreader-inline-fill="" style="--darkreader-inline-fill: var(--darkreader-background-171616, #111213);"/>
<path fill="#171616" d="M143.685 11.2277H146.922V13.9208H147.16C147.756 12.4752 149.445 10.7921 151.788 10.7921H153.02V14.0594H151.371C148.392 14.0594 146.982 16.3366 146.982 19.5841V28.4158H143.704V11.2277H143.685Z" data-darkreader-inline-fill="" style="--darkreader-inline-fill: var(--darkreader-background-171616, #111213);"/>
<path fill="#00D6C5" d="M24.0871 6.00733L18.0618 0.000427246L0.000176011 18.0071L6.02541 24.0141L24.0871 6.00733Z" data-darkreader-inline-fill="" style="--darkreader-inline-fill: var(--darkreader-background-00d6c5, #00ab9e);"/>
<path fill="#03776C" d="M0 18L15.0557 15.0099L6.0183 24L0 18Z" data-darkreader-inline-fill="" style="--darkreader-inline-fill: var(--darkreader-background-03776c, #025f56);"/>
<path fill="#00D6C5" d="M24.0969 17.9976L18.0717 11.9907L0.010004 29.9974L6.03524 36.0043L24.0969 17.9976Z" data-darkreader-inline-fill="" style="--darkreader-inline-fill: var(--darkreader-background-00d6c5, #00ab9e);"/>
</g>
<defs>
<clipPath id="clip0_101_3464">
<rect fill="white" height="36" width="153" data-darkreader-inline-fill="" style="--darkreader-inline-fill: var(--darkreader-text-ffffff, #e8e6e3);"/>
</clipPath>
</defs>
</svg>