<svg xmlns="http://www.w3.org/2000/svg" width="512" height="512" viewBox="0 0 512 512">
<g>
<path d="M 246.14 498.97 C224.49,496.87 198.70,490.81 179.61,483.32 C156.57,474.29 130.32,458.67 111.48,442.78 L 101.46 434.33 L 92.98 439.65 C81.35,446.94 64.20,455.26 54.00,458.56 C47.20,460.76 43.51,461.33 35.50,461.41 C26.70,461.49 24.83,461.19 19.95,458.90 C8.15,453.36 1.43,443.57 0.32,430.26 C-1.16,412.63 10.95,384.50 35.09,349.48 L 39.93 342.46 L 36.91 333.48 C18.42,278.56 20.08,219.35 41.61,165.71 C60.25,119.25 94.27,77.82 136.00,50.74 C220.80,-4.30 333.21,-0.10 414.70,61.15 C466.12,99.80 499.62,156.55 509.67,222.00 C512.11,237.94 512.13,273.93 509.69,290.00 C501.00,347.36 474.42,397.59 432.38,436.07 C395.87,469.50 351.76,490.23 301.50,497.58 C289.02,499.41 258.57,500.17 246.14,498.97 ZM 250.50 483.97 C263.23,485.10 286.46,484.37 300.00,482.42 C339.28,476.75 373.82,462.46 406.00,438.57 C414.85,432.00 440.00,408.63 440.00,406.98 C440.00,406.57 436.13,402.47 431.41,397.87 C413.52,380.45 406.30,364.52 402.61,334.31 C401.54,325.64 400.21,319.86 397.99,314.31 C396.28,310.01 394.49,306.11 394.03,305.64 C393.56,305.17 391.55,305.32 389.51,306.00 C386.45,307.01 385.13,306.94 381.61,305.59 C378.00,304.22 373.69,299.68 352.56,274.99 C338.91,259.04 327.45,246.00 327.09,246.00 C326.73,246.00 323.84,248.63 320.66,251.84 L 314.88 257.68 L 319.06 279.31 C321.35,291.21 322.96,302.01 322.64,303.31 C322.31,304.61 321.15,306.82 320.05,308.21 C317.30,311.71 300.11,321.95 295.81,322.64 C292.90,323.12 291.94,323.94 290.25,327.42 C288.75,330.51 284.86,334.32 275.54,341.81 C268.57,347.41 262.20,352.00 261.39,352.00 C258.43,352.00 254.02,348.91 253.39,346.41 C252.33,342.17 254.40,339.51 265.94,330.30 L 276.97 321.50 L 276.99 312.22 C277.00,304.25 276.64,302.22 274.47,297.94 L 271.94 292.95 L 254.65 309.26 C233.82,328.91 205.02,354.66 186.55,370.14 L 173.00 381.50 L 173.00 386.06 C173.00,389.57 174.49,393.80 179.50,404.54 L 186.00 418.46 L 186.00 430.70 C186.00,441.77 186.18,443.03 187.93,443.96 C190.65,445.42 205.31,445.29 206.80,443.80 C207.64,442.96 208.00,437.36 208.00,425.01 C208.00,403.64 208.07,403.46 220.91,391.37 L 230.00 382.81 L 230.00 374.91 C230.00,368.33 230.34,366.66 232.00,365.00 C234.78,362.22 239.52,362.42 242.55,365.45 C244.76,367.67 245.00,368.71 244.98,376.20 C244.95,387.42 243.29,390.68 232.13,401.49 L 223.00 410.32 L 223.00 427.84 C223.00,448.22 221.90,452.05 214.71,456.82 C210.96,459.30 209.74,459.52 198.58,459.81 C187.01,460.10 186.27,460.00 181.04,457.31 C172.68,453.01 171.00,449.04 171.00,433.54 L 171.00 421.39 L 164.45 407.94 C160.85,400.55 157.48,394.61 156.96,394.75 C156.44,394.88 149.60,399.86 141.76,405.81 C133.92,411.76 124.68,418.59 121.23,420.98 L 114.95 425.32 L 117.23 427.77 C120.88,431.70 140.75,446.26 150.12,451.86 C179.70,469.55 214.92,480.82 250.50,483.97 ZM 206.00 252.27 C208.38,253.18 223.83,253.09 224.40,252.16 C224.68,251.70 222.24,250.05 218.98,248.49 C211.05,244.70 207.89,241.27 207.32,235.83 C206.90,231.92 207.46,230.50 213.13,221.11 C219.90,209.91 223.17,207.01 229.07,207.00 C231.03,207.00 241.58,208.80 252.50,211.00 C263.42,213.20 272.45,215.00 272.56,215.00 C272.67,215.00 275.28,212.13 278.36,208.62 L 283.97 202.23 L 254.65 177.13 C238.52,163.32 224.81,150.87 224.17,149.46 C221.18,142.91 223.47,137.70 233.69,127.81 C242.01,119.77 244.71,118.42 250.81,119.26 C256.79,120.09 274.26,129.07 275.97,132.18 C277.86,135.65 276.49,139.87 272.80,141.94 C270.29,143.35 269.66,143.23 262.81,140.12 C254.36,136.28 251.30,134.83 248.92,135.56 C247.46,136.01 246.25,137.27 244.22,139.30 C240.13,143.39 239.73,144.15 241.02,145.39 C245.48,149.66 294.26,191.00 294.82,190.98 C295.71,190.96 319.35,166.00 318.87,165.59 C318.67,165.42 313.77,163.17 308.00,160.60 C296.92,155.67 294.00,153.32 294.00,149.34 C294.00,146.37 298.15,142.00 300.97,142.00 C302.10,142.00 309.15,144.74 316.63,148.10 C328.61,153.46 330.41,154.02 331.71,152.72 C333.00,151.42 332.99,150.88 331.59,148.17 C330.66,146.38 330.00,142.63 330.00,139.16 C330.00,133.84 330.44,132.57 334.25,126.87 L 338.50 120.51 L 339.50 96.29 L 345.26 84.89 C348.43,78.63 351.01,72.38 351.00,71.00 C350.99,69.62 350.30,66.03 349.47,63.00 C348.60,59.80 348.05,54.15 348.16,49.50 L 348.36 41.50 L 338.75 38.25 C327.72,34.52 309.50,30.39 300.00,29.48 L 293.50 28.85 L 288.83 36.18 C286.25,40.20 283.43,45.97 282.56,49.00 C280.08,57.58 277.04,62.14 272.30,64.43 C269.83,65.61 267.88,67.34 267.56,68.61 C266.75,71.86 260.54,76.81 256.28,77.61 C247.84,79.19 232.09,73.22 228.50,67.08 C227.40,65.20 222.39,59.58 217.38,54.58 C212.36,49.59 207.21,43.59 205.94,41.25 C204.67,38.91 203.08,37.00 202.40,37.00 C200.84,37.00 184.32,42.79 181.09,44.47 C178.72,45.70 178.79,45.80 186.54,52.11 C200.89,63.79 201.00,64.01 201.00,81.49 L 201.00 94.05 L 203.57 95.02 C204.98,95.56 208.96,96.00 212.42,96.00 C219.57,96.00 223.88,98.21 227.66,103.82 C231.91,110.13 231.92,125.80 227.68,132.20 C225.48,135.52 178.21,171.64 172.35,174.48 C169.91,175.65 165.42,176.00 152.53,176.00 C142.96,176.00 135.05,176.44 133.93,177.04 C132.21,177.96 132.00,179.22 132.00,188.84 L 132.00 199.61 L 143.84 211.30 L 155.69 223.00 L 173.00 223.00 C189.65,223.00 190.49,223.10 194.57,225.49 C200.27,228.83 202.99,234.49 203.02,243.07 C203.03,249.81 203.52,251.33 206.00,252.27 ZM 440.39 385.78 C444.81,390.34 449.08,393.94 449.88,393.78 C452.43,393.29 464.77,374.06 472.83,358.00 C490.22,323.39 498.13,287.01 496.65,248.50 C495.35,214.38 487.94,184.91 473.02,154.50 C451.41,110.44 418.58,76.72 374.72,53.50 C369.00,50.48 364.03,48.00 363.66,48.00 C362.48,48.00 362.96,55.58 364.61,62.89 C366.80,72.57 365.94,77.02 359.43,89.78 L 354.00 100.41 L 353.99 109.95 C353.99,120.96 352.87,125.85 349.06,131.48 C344.02,138.94 344.67,138.53 356.65,126.79 C370.30,113.42 376.59,109.75 388.83,108.02 C403.26,105.98 413.32,109.57 418.65,118.66 C420.94,122.57 421.47,124.83 421.82,132.07 C422.30,142.16 420.23,149.91 414.53,159.38 C410.63,165.85 411.20,166.18 419.63,162.30 C438.00,153.86 458.38,165.55 460.63,185.81 C461.00,189.14 460.41,193.01 458.60,199.19 C456.20,207.34 456.14,208.13 457.52,212.06 C462.37,225.81 455.10,232.35 425.50,240.90 C416.33,243.55 408.29,248.48 404.64,253.70 L 401.69 257.90 L 406.48 268.84 C411.86,281.16 412.00,284.47 407.34,290.01 L 404.75 293.09 L 408.97 302.17 C413.67,312.28 416.09,321.74 418.48,339.31 C421.30,359.99 426.88,371.84 440.39,385.78 ZM 143.01 315.48 C152.53,322.32 160.81,327.63 161.41,327.27 C163.46,326.04 193.43,299.50 206.88,287.00 C214.28,280.12 221.94,273.06 223.91,271.29 L 227.50 268.08 L 217.00 268.04 C205.07,267.98 199.91,266.87 195.25,263.35 C190.47,259.75 188.68,255.55 188.05,246.50 L 187.50 238.50 L 169.50 237.99 C155.25,237.59 150.88,237.13 148.50,235.81 C143.60,233.08 120.24,208.89 118.54,204.78 C117.43,202.11 117.01,197.60 117.02,188.78 C117.05,174.88 118.39,170.37 123.89,165.75 C128.61,161.78 132.88,161.01 150.36,161.01 L 166.23 161.00 L 190.61 142.92 L 215.00 124.83 L 215.00 111.00 L 209.68 111.00 C202.43,111.00 194.96,108.61 191.76,105.27 C187.09,100.40 186.00,96.19 186.00,83.10 L 186.00 71.13 L 178.25 64.90 C173.99,61.47 168.91,57.18 166.97,55.35 L 163.45 52.03 L 152.29 58.64 C116.40,79.89 86.20,111.28 66.48,147.82 L 63.60 153.15 L 72.18 161.05 C83.34,171.32 84.00,172.98 84.00,190.78 L 84.00 204.52 L 104.10 224.51 C115.16,235.50 124.83,245.95 125.60,247.72 C127.66,252.46 127.30,257.82 124.49,263.85 C122.18,268.81 122.00,270.30 122.00,284.44 C122.00,298.00 122.20,299.88 123.85,301.36 C124.86,302.28 133.49,308.63 143.01,315.48 ZM 80.71 387.18 C82.06,388.72 82.87,388.37 90.84,382.74 C110.48,368.86 148.02,339.60 147.98,338.20 C147.97,337.81 139.88,331.72 130.00,324.65 C118.14,316.17 111.27,310.56 109.77,308.15 C107.65,304.74 107.48,303.21 107.17,285.29 C106.85,266.18 106.86,266.06 109.59,259.97 L 112.34 253.86 L 92.21 233.68 C79.31,220.76 71.52,212.16 70.54,209.78 C69.41,207.04 69.00,202.38 69.00,192.11 L 69.00 178.16 L 63.34 173.12 C60.23,170.34 57.35,168.28 56.94,168.54 C55.49,169.43 46.18,199.61 44.13,210.00 C40.62,227.87 39.75,236.85 39.70,255.50 C39.61,291.40 46.63,322.71 61.92,354.50 C68.11,367.37 77.16,383.11 80.71,387.18 ZM 27.59 445.96 C35.08,448.20 44.89,446.51 59.05,440.54 C94.90,425.42 159.37,376.54 231.84,309.53 C241.38,300.71 251.28,291.61 253.84,289.31 L 258.50 285.12 L 251.86 278.43 L 245.21 271.73 L 225.86 289.74 C172.67,339.21 121.72,380.86 84.78,405.08 C69.12,415.35 48.07,426.00 43.43,426.00 C39.31,426.00 36.00,423.08 36.00,419.43 C36.00,415.37 41.36,403.58 49.37,390.00 L 56.74 377.51 L 52.22 369.00 C49.72,364.33 47.42,360.18 47.09,359.80 C46.28,358.85 31.84,382.08 25.43,394.63 C13.15,418.71 11.94,432.73 21.36,441.86 C23.19,443.64 26.00,445.48 27.59,445.96 ZM 262.55 267.05 C267.45,271.97 271.94,276.00 272.53,276.00 C273.12,276.00 302.27,248.54 337.30,214.97 C396.63,158.13 404.64,150.64 406.26,141.96 C406.56,140.37 406.64,138.75 406.78,136.78 C407.36,128.76 405.85,124.25 402.30,123.36 C396.93,122.01 385.52,123.59 380.38,126.39 C376.63,128.43 360.51,144.64 315.45,191.67 C282.48,226.08 255.08,255.11 254.57,256.17 C253.79,257.80 255.07,259.53 262.55,267.05 ZM 393.20 239.27 L 394.21 242.04 L 398.08 238.55 C403.34,233.79 413.41,228.92 426.00,225.03 C431.77,223.25 438.16,220.94 440.20,219.90 C443.70,218.11 443.84,217.85 442.86,215.03 C441.50,211.12 442.20,202.11 444.50,193.99 C446.72,186.12 446.12,182.92 441.54,178.34 C438.64,175.44 437.54,175.00 433.20,175.00 C429.97,175.00 426.30,175.88 422.85,177.49 C416.71,180.35 408.85,180.75 402.60,178.52 L 398.70 177.13 L 375.23 199.18 L 383.71 217.84 C388.38,228.10 392.65,237.75 393.20,239.27 ZM 362.64 263.58 C375.09,278.11 385.57,290.00 385.93,290.00 C386.99,290.00 395.00,281.52 395.00,280.39 C395.00,279.12 365.15,212.81 364.08,211.71 C362.90,210.49 338.79,234.01 339.45,235.73 C339.75,236.52 350.19,249.05 362.64,263.58 ZM 246.50 61.47 C252.18,63.52 253.70,63.35 254.39,60.58 C255.33,56.84 259.83,52.10 263.29,51.20 C266.02,50.50 266.63,49.68 268.10,44.72 C269.02,41.61 271.15,36.62 272.83,33.64 C274.52,30.66 275.62,27.95 275.28,27.61 C272.52,24.85 219.00,30.42 219.00,33.47 C219.00,35.38 225.84,42.80 230.67,46.11 C233.13,47.81 236.71,51.63 238.61,54.60 C240.51,57.57 242.16,60.01 242.28,60.02 C242.40,60.02 244.30,60.68 246.50,61.47 ZM 232.70 238.92 C238.09,241.66 243.01,243.92 243.64,243.95 C244.81,244.00 259.59,228.18 258.88,227.63 C258.67,227.47 252.20,226.14 244.50,224.69 L 230.50 222.04 L 228.80 224.27 C227.86,225.50 226.16,228.17 225.00,230.22 L 222.91 233.93 ZM 290.09 296.09 C292.89,301.54 295.56,306.00 296.03,306.00 C298.04,306.00 307.00,299.55 307.00,298.10 C307.00,297.22 305.81,290.55 304.36,283.28 L 301.73 270.06 L 293.36 277.65 C288.76,281.83 285.00,285.45 285.00,285.71 C285.00,285.96 287.29,290.63 290.09,296.09 ZM 65.03 399.48 C68.98,396.99 69.01,396.94 67.35,394.41 L 65.68 391.87 L 62.84 396.43 C58.74,403.02 58.95,403.32 65.03,399.48 Z" fill="rgba(0,0,0,1)"/>
<path d="M 190.93 104.36 C186.96,99.84 186.00,95.37 186.00,83.15 L 186.00 83.10 C186.00,66.60 185.85,66.57 172.60,78.01 C134.69,110.73 107.82,155.85 96.99,204.94 L 94.91 214.39 L 109.42 228.94 C116.92,236.47 121.71,241.69 124.40,246.01 C121.36,242.23 113.20,233.56 104.10,224.51 L 84.00 204.52 L 84.00 190.78 C84.00,172.98 83.34,171.32 72.18,161.05 L 63.60 153.15 L 66.48 147.82 C86.20,111.28 116.40,79.89 152.29,58.64 L 163.45 52.03 L 166.97 55.35 C168.91,57.18 173.99,61.47 178.25,64.90 L 186.00 71.13 L 186.00 83.10 C186.00,95.37 186.96,99.84 190.93,104.36 ZM 440.39 385.78 C426.88,371.84 421.30,359.99 418.48,339.31 C416.09,321.74 413.67,312.28 408.97,302.17 L 404.75 293.09 L 407.34 290.01 C412.00,284.47 411.86,281.16 406.48,268.84 L 401.69 257.90 L 404.64 253.70 C408.29,248.48 416.33,243.55 425.50,240.90 C431.86,239.06 437.20,237.32 441.60,235.57 C440.85,235.88 440.08,236.19 439.28,236.50 C432.43,239.15 431.96,239.54 430.29,243.90 C427.90,250.13 428.13,261.72 430.79,269.00 C431.89,272.02 435.49,280.35 438.79,287.50 C444.73,300.38 446.34,305.90 447.53,317.50 C449.62,337.81 453.38,349.31 462.28,362.69 C464.54,366.09 466.81,368.62 467.31,368.31 C467.32,368.30 467.33,368.29 467.34,368.29 C460.04,381.28 451.90,393.39 449.88,393.78 C449.08,393.94 444.81,390.34 440.39,385.78 ZM 443.50 155.56 C449.28,157.45 450.43,157.32 458.00,154.00 C461.76,152.35 466.22,151.00 467.92,151.00 C469.41,151.00 470.66,150.72 470.94,150.36 C471.65,151.73 472.34,153.11 473.02,154.50 C481.01,170.79 486.85,186.80 490.74,203.41 C489.75,199.98 489.56,199.82 489.22,202.00 C489.00,203.38 488.07,205.36 487.16,206.40 C485.06,208.81 475.64,213.08 466.25,215.89 C460.08,217.73 459.00,218.39 459.00,220.28 C458.99,223.69 457.03,226.76 452.80,229.76 C459.19,225.02 460.19,219.63 457.52,212.06 C456.14,208.13 456.20,207.34 458.60,199.19 C460.41,193.01 461.00,189.14 460.63,185.81 C458.38,165.55 438.00,153.86 419.63,162.30 C411.20,166.18 410.63,165.85 414.53,159.38 C418.91,152.10 421.15,145.84 421.73,138.76 L 421.83 145.10 L 430.66 149.67 C435.52,152.19 441.30,154.84 443.50,155.56 ZM 421.31 125.96 C420.87,123.02 420.13,121.19 418.65,118.66 C413.32,109.57 403.26,105.98 388.83,108.02 C376.59,109.75 370.30,113.42 356.65,126.79 C344.67,138.53 344.02,138.94 349.06,131.48 C352.87,125.85 353.99,120.96 353.99,109.95 L 354.00 100.41 L 359.43 89.78 C365.94,77.02 366.80,72.57 364.61,62.89 C362.96,55.58 362.48,48.00 363.66,48.00 C364.03,48.00 369.00,50.48 374.72,53.50 C381.78,57.24 388.55,61.25 395.04,65.53 C394.43,65.19 394.00,65.00 393.80,65.00 C393.32,65.00 390.92,69.13 388.47,74.18 C384.06,83.22 384.00,83.50 384.00,93.61 C384.00,99.25 383.55,105.06 382.99,106.52 C382.04,109.03 382.12,109.14 384.74,108.65 C401.86,105.44 412.79,108.69 418.69,118.73 C420.26,121.39 420.97,122.93 421.31,125.96 ZM 272.53 26.98 C271.65,27.00 270.53,27.14 269.16,27.36 C260.70,28.71 227.00,41.19 227.00,42.97 C227.00,43.06 227.09,43.22 227.26,43.41 C223.15,39.78 219.00,34.96 219.00,33.47 C219.00,30.77 261.05,26.08 272.53,26.98 ZM 421.60 85.99 C431.30,94.70 440.16,104.22 448.17,114.52 C440.23,104.63 430.61,94.28 421.60,85.99 ZM 126.43 250.12 C127.96,254.56 127.01,258.43 124.49,263.85 C126.83,258.82 127.48,254.26 126.43,250.12 ZM 483.04 334.60 C481.06,339.94 478.85,345.24 476.44,350.50 C478.78,345.22 481.15,339.53 483.04,334.60 ZM 274.77 29.74 C275.25,28.39 275.16,27.60 274.40,27.23 C274.83,27.34 275.13,27.46 275.28,27.61 C275.45,27.79 275.24,28.59 274.77,29.74 ZM 231.44 46.69 C233.65,48.31 236.76,51.71 238.57,54.54 C240.48,57.53 242.15,59.99 242.28,60.01 C242.15,59.99 240.50,57.56 238.61,54.60 C236.90,51.93 233.84,48.57 231.44,46.69 ZM 493.24 297.59 C492.08,303.96 490.63,310.28 488.89,316.53 C490.62,310.25 492.07,303.94 493.24,297.59 Z" fill="rgba(4,172,101,1)"/>
<path d="M 250.50 483.97 C214.92,480.82 179.70,469.55 150.12,451.86 C140.75,446.26 120.88,431.70 117.23,427.77 L 114.95 425.32 L 121.23 420.98 C124.68,418.59 133.92,411.76 141.76,405.81 C149.60,399.86 156.44,394.88 156.96,394.75 C157.48,394.61 160.85,400.55 164.45,407.94 L 171.00 421.39 L 171.00 433.54 C171.00,449.04 172.68,453.01 181.04,457.31 C186.27,460.00 187.01,460.10 198.58,459.81 C209.74,459.52 210.96,459.30 214.71,456.82 C221.90,452.05 223.00,448.22 223.00,427.84 L 223.00 410.32 L 232.13 401.49 C243.29,390.68 244.95,387.42 244.98,376.20 C245.00,368.71 244.76,367.67 242.55,365.45 C239.52,362.42 234.78,362.22 232.00,365.00 C231.81,365.19 231.64,365.38 231.48,365.57 C232.45,363.79 233.92,363.00 235.99,363.00 C237.08,363.00 241.59,359.99 246.00,356.32 C253.39,350.16 253.96,349.53 253.46,346.65 C254.30,349.11 258.53,352.00 261.39,352.00 C262.20,352.00 268.57,347.41 275.54,341.81 C284.86,334.32 288.75,330.51 290.25,327.42 C291.94,323.94 292.90,323.12 295.81,322.64 C300.11,321.95 317.30,311.71 320.05,308.21 C321.15,306.82 322.31,304.61 322.64,303.31 C322.96,302.01 321.35,291.21 319.06,279.31 L 314.88 257.68 L 320.66 251.84 C323.84,248.63 326.73,246.00 327.09,246.00 C327.45,246.00 338.91,259.04 352.56,274.99 C373.69,299.68 378.00,304.22 381.61,305.59 C385.13,306.94 386.45,307.01 389.51,306.00 C391.55,305.32 393.56,305.17 394.03,305.64 C394.49,306.11 396.28,310.01 397.99,314.31 C400.21,319.86 401.54,325.64 402.61,334.31 C406.30,364.52 413.52,380.45 431.41,397.87 C436.13,402.47 440.00,406.57 440.00,406.98 C440.00,408.63 414.85,432.00 406.00,438.57 C373.82,462.46 339.28,476.75 300.00,482.42 C286.46,484.37 263.23,485.10 250.50,483.97 ZM 206.00 252.27 C203.52,251.33 203.03,249.81 203.02,243.07 C202.99,234.49 200.27,228.83 194.57,225.49 C190.49,223.10 189.65,223.00 173.00,223.00 L 155.69 223.00 L 143.84 211.30 L 132.00 199.61 L 132.00 188.84 C132.00,179.22 132.21,177.96 133.93,177.04 C135.05,176.44 142.96,176.00 152.53,176.00 C165.42,176.00 169.91,175.65 172.35,174.48 C178.21,171.64 225.48,135.52 227.68,132.20 C231.92,125.80 231.91,110.13 227.66,103.82 C223.88,98.21 219.57,96.00 212.42,96.00 C208.96,96.00 204.98,95.56 203.57,95.02 L 201.00 94.05 L 201.00 81.49 C201.00,64.01 200.89,63.79 186.54,52.11 C178.79,45.80 178.72,45.70 181.09,44.47 C184.32,42.79 200.84,37.00 202.40,37.00 C203.08,37.00 204.67,38.91 205.94,41.25 C207.21,43.59 212.36,49.59 217.38,54.58 C222.39,59.58 227.40,65.20 228.50,67.08 C232.09,73.22 247.84,79.19 256.28,77.61 C260.54,76.81 266.75,71.86 267.56,68.61 C267.88,67.34 269.83,65.61 272.30,64.43 C277.04,62.14 280.08,57.58 282.56,49.00 C283.43,45.97 286.25,40.20 288.83,36.18 L 293.50 28.85 L 300.00 29.48 C309.50,30.39 327.72,34.52 338.75,38.25 L 348.36 41.50 L 348.16 49.50 C348.05,54.15 348.60,59.80 349.47,63.00 C350.30,66.03 350.99,69.62 351.00,71.00 C351.01,72.38 348.43,78.63 345.26,84.89 L 339.50 96.29 L 338.50 120.51 L 334.25 126.87 C330.44,132.57 330.00,133.84 330.00,139.16 C330.00,142.63 330.66,146.38 331.59,148.17 C332.99,150.88 333.00,151.42 331.71,152.72 C330.41,154.02 328.61,153.46 316.63,148.10 C309.15,144.74 302.10,142.00 300.97,142.00 C298.53,142.00 295.08,145.28 294.21,148.09 C294.10,146.55 292.48,145.61 285.78,142.65 L 277.07 138.80 L 274.40 140.90 C272.93,142.06 271.12,143.00 270.37,143.00 C270.15,143.00 269.63,142.86 268.88,142.60 C270.56,143.04 271.38,142.74 272.80,141.94 C276.49,139.87 277.86,135.65 275.97,132.18 C274.26,129.07 256.79,120.09 250.81,119.26 C244.71,118.42 242.01,119.77 233.69,127.81 C223.47,137.70 221.18,142.91 224.17,149.46 C224.81,150.87 238.52,163.32 254.65,177.13 L 283.97 202.23 L 278.36 208.62 C275.28,212.13 272.67,215.00 272.56,215.00 C272.45,215.00 263.42,213.20 252.50,211.00 C241.58,208.80 231.03,207.00 229.07,207.00 C223.17,207.01 219.90,209.91 213.13,221.11 C207.46,230.50 206.90,231.92 207.32,235.83 C207.89,241.27 211.05,244.70 218.98,248.49 C222.24,250.05 224.68,251.70 224.40,252.16 C223.83,253.09 208.38,253.18 206.00,252.27 ZM 80.71 387.18 C77.16,383.11 68.11,367.37 61.92,354.50 C46.63,322.71 39.61,291.40 39.70,255.50 C39.75,236.85 40.62,227.87 44.13,210.00 C46.18,199.61 55.49,169.43 56.94,168.54 C57.35,168.28 60.23,170.34 63.34,173.12 L 69.00 178.16 L 69.00 192.11 C69.00,202.38 69.41,207.04 70.54,209.78 C71.52,212.16 79.31,220.76 92.21,233.68 L 112.34 253.86 L 109.59 259.97 C106.86,266.06 106.85,266.18 107.17,285.29 C107.48,303.21 107.65,304.74 109.77,308.15 C111.27,310.56 118.14,316.17 130.00,324.65 C139.88,331.72 147.97,337.81 147.98,338.20 C148.02,339.60 110.48,368.86 90.84,382.74 C82.87,388.37 82.06,388.72 80.71,387.18 ZM 393.20 239.27 C392.65,237.75 388.38,228.10 383.71,217.84 L 375.23 199.18 L 398.70 177.13 L 402.60 178.52 C408.85,180.75 416.71,180.35 422.85,177.49 C426.30,175.88 429.97,175.00 433.20,175.00 C437.54,175.00 438.64,175.44 441.54,178.34 C446.12,182.92 446.72,186.12 444.50,193.99 C442.20,202.11 441.50,211.12 442.86,215.03 C443.84,217.85 443.70,218.11 440.20,219.90 C438.16,220.94 431.77,223.25 426.00,225.03 C413.41,228.92 403.34,233.79 398.08,238.55 L 394.21 242.04 ZM 307.09 178.73 C301.21,184.92 295.26,190.97 294.82,190.98 C294.53,190.99 281.05,179.69 267.62,168.30 C253.94,156.59 242.21,146.49 241.08,145.45 C241.06,145.43 241.04,145.41 241.02,145.39 C241.00,145.37 240.98,145.35 240.95,145.32 C240.00,144.37 240.13,143.65 242.22,141.36 C242.76,140.78 243.42,140.11 244.22,139.30 C244.57,138.96 244.89,138.63 245.20,138.33 C246.22,137.37 247.22,136.53 248.04,135.94 C248.33,135.78 248.62,135.65 248.92,135.56 C249.78,135.30 250.73,135.32 251.98,135.63 C253.96,136.34 256.99,137.59 260.12,139.00 C261.88,139.79 263.61,140.54 265.14,141.16 ZM 253.34 343.16 C254.00,340.17 257.21,337.19 266.44,329.87 L 274.41 323.55 L 265.94 330.30 C257.52,337.02 254.14,340.26 253.34,343.16 ZM 206.80 443.80 C205.51,445.08 194.51,445.36 189.72,444.49 C194.59,445.31 205.54,445.05 206.80,443.80 ZM 186.79 442.86 C186.09,441.51 186.00,438.60 186.00,430.70 C186.00,438.42 186.13,441.45 186.79,442.86 Z" fill="rgba(27,163,252,1)"/>
<path d="M 143.01 315.48 C133.49,308.63 124.86,302.28 123.85,301.36 C122.20,299.88 122.00,298.00 122.00,284.44 C122.00,270.30 122.18,268.81 124.49,263.85 C129.96,252.10 128.03,247.62 109.42,228.94 L 94.91 214.39 L 96.99 204.94 C107.82,155.85 134.69,110.73 172.60,78.01 C185.87,66.55 186.00,66.60 186.00,83.15 C186.00,96.19 187.10,100.40 191.76,105.27 C194.96,108.61 202.43,111.00 209.68,111.00 L 215.00 111.00 L 215.00 124.83 L 190.61 142.92 L 166.23 161.00 L 150.36 161.01 C132.88,161.01 128.61,161.78 123.89,165.75 C118.39,170.37 117.05,174.88 117.02,188.78 C117.01,197.60 117.43,202.11 118.54,204.78 C120.24,208.89 143.60,233.08 148.50,235.81 C150.88,237.13 155.25,237.59 169.50,237.99 L 187.50 238.50 L 188.05 246.50 C188.68,255.55 190.47,259.75 195.25,263.35 C199.91,266.87 205.07,267.98 217.00,268.04 L 227.50 268.08 L 223.91 271.29 C221.94,273.06 214.28,280.12 206.88,287.00 C193.43,299.50 163.46,326.04 161.41,327.27 C160.81,327.63 152.53,322.32 143.01,315.48 ZM 462.28 362.69 C453.38,349.31 449.62,337.81 447.53,317.50 C446.34,305.90 444.73,300.38 438.79,287.50 C435.49,280.35 431.89,272.02 430.79,269.00 C428.13,261.72 427.90,250.13 430.29,243.90 C431.96,239.54 432.43,239.15 439.28,236.50 C452.97,231.20 458.99,226.25 459.00,220.28 C459.00,218.39 460.08,217.73 466.25,215.89 C475.64,213.08 485.06,208.81 487.16,206.40 C488.07,205.36 489.00,203.38 489.22,202.00 C489.57,199.80 489.75,199.98 490.77,203.50 C491.41,205.70 492.62,211.55 493.46,216.50 C500.02,255.02 497.32,292.16 485.36,328.19 C481.13,340.92 469.39,367.03 467.31,368.31 C466.81,368.62 464.54,366.09 462.28,362.69 ZM 187.75 443.92 C186.23,443.04 186.00,441.26 186.00,430.68 L 186.00 418.46 L 179.50 404.54 C174.49,393.80 173.00,389.57 173.00,386.06 L 173.00 381.50 L 186.55 370.14 C205.02,354.66 233.82,328.91 254.65,309.26 L 271.94 292.95 L 274.47 297.94 C276.64,302.22 277.00,304.26 276.99,312.22 L 276.99 321.50 L 266.44 329.87 C254.15,339.63 252.53,341.67 253.40,346.31 C253.99,349.49 253.67,349.92 246.00,356.32 C241.59,359.99 237.08,363.00 235.99,363.00 C231.70,363.00 230.00,366.39 230.00,374.91 L 230.00 382.81 L 220.91 391.37 C208.07,403.46 208.00,403.64 208.00,425.01 C208.00,437.36 207.64,442.96 206.80,443.80 C205.32,445.28 190.25,445.38 187.75,443.92 ZM 443.50 155.56 C441.30,154.84 435.52,152.19 430.66,149.67 L 421.83 145.10 L 421.66 134.30 C421.51,124.42 421.26,123.09 418.69,118.73 C412.79,108.69 401.86,105.44 384.74,108.65 C382.12,109.14 382.04,109.03 382.99,106.52 C383.55,105.06 384.00,99.25 384.00,93.61 C384.00,83.50 384.06,83.22 388.47,74.18 C390.92,69.13 393.32,65.00 393.80,65.00 C395.05,65.00 405.25,72.27 414.00,79.39 C428.43,91.12 446.54,110.93 457.00,126.42 C461.52,133.10 471.00,149.21 471.00,150.20 C471.00,150.64 469.61,151.00 467.92,151.00 C466.22,151.00 461.76,152.35 458.00,154.00 C450.43,157.32 449.28,157.45 443.50,155.56 ZM 246.50 61.47 C244.30,60.68 242.40,60.02 242.28,60.02 C242.16,60.01 240.49,57.54 238.57,54.54 C236.65,51.54 233.26,47.88 231.04,46.41 C228.82,44.94 227.00,43.39 227.00,42.97 C227.00,41.19 260.70,28.71 269.16,27.36 C275.90,26.28 276.46,27.21 272.91,33.50 C271.19,36.56 269.02,41.61 268.10,44.72 C266.63,49.68 266.02,50.50 263.29,51.20 C259.83,52.10 255.33,56.84 254.39,60.58 C253.70,63.35 252.18,63.52 246.50,61.47 Z" fill="rgba(66,202,141,1)"/>
<path d="M 262.55 267.05 C255.07,259.53 253.79,257.80 254.57,256.17 C255.08,255.11 282.48,226.08 315.45,191.67 C360.51,144.64 376.63,128.43 380.38,126.39 C385.52,123.59 396.93,122.01 402.30,123.36 C405.02,124.04 406.54,126.84 406.84,131.72 C406.56,131.01 405.91,131.00 404.67,131.00 C400.55,131.00 391.86,134.66 387.55,138.22 C385.38,140.01 356.45,169.79 323.26,204.40 L 262.91 267.33 L 265.19 269.65 C264.34,268.83 263.45,267.96 262.55,267.05 ZM 268.32 168.90 C254.12,156.75 241.84,146.18 241.04,145.41 C239.77,144.19 240.15,143.42 244.00,139.50 C246.43,137.03 249.05,135.00 249.83,135.00 C250.60,135.00 255.23,136.80 260.12,139.00 C265.01,141.20 269.62,143.00 270.37,143.00 C271.12,143.00 272.93,142.06 274.40,140.90 L 277.07 138.80 L 285.78 142.65 C293.45,146.04 294.46,146.78 294.17,148.81 C293.59,152.95 296.45,155.43 307.63,160.41 C313.61,163.08 318.67,165.41 318.87,165.59 C319.35,166.00 295.72,190.96 294.82,190.98 C294.45,190.99 282.53,181.06 268.32,168.90 ZM 362.64 263.58 C350.19,249.05 339.75,236.52 339.45,235.73 C338.79,234.01 362.90,210.49 364.08,211.71 C365.15,212.81 395.00,279.12 395.00,280.39 C395.00,281.52 386.99,290.00 385.93,290.00 C385.57,290.00 375.09,278.11 362.64,263.58 ZM 330.81 221.19 C298.74,251.86 273.09,276.00 272.53,276.00 C272.53,276.00 272.52,276.00 272.52,276.00 C273.24,275.84 298.84,251.76 330.81,221.19 ZM 398.38 155.03 C390.03,164.52 372.91,180.85 337.30,214.97 C372.96,180.81 390.06,164.48 398.38,155.03 Z" fill="rgba(167,214,252,1)"/>
<path d="M 267.16 271.67 L 262.91 267.33 L 323.26 204.40 C356.45,169.79 385.38,140.01 387.55,138.22 C391.86,134.66 400.55,131.00 404.67,131.00 C407.25,131.00 407.27,131.06 406.77,137.27 C406.63,139.07 406.53,140.58 406.25,142.05 C404.61,150.62 396.76,158.00 337.30,214.97 C302.27,248.54 273.11,276.00 272.51,276.00 C271.91,276.00 269.50,274.05 267.16,271.67 Z" fill="rgba(222,234,249,1)"/>
<path d="M 63.75 417.65 C54.91,422.37 54.05,423.05 57.50,422.53 C59.70,422.20 67.02,419.20 73.77,415.88 C109.25,398.40 173.06,348.80 236.81,289.13 L 250.12 276.68 L 251.86 278.43 L 258.50 285.12 L 253.84 289.31 C251.28,291.61 241.38,300.71 231.84,309.53 C159.37,376.54 94.90,425.42 59.05,440.54 C46.72,445.74 37.69,447.69 30.62,446.63 C30.34,445.89 29.43,443.82 28.31,441.37 C25.99,436.30 25.79,434.90 26.26,427.12 C27.04,414.28 33.27,398.82 46.32,377.30 L 51.73 368.38 L 49.42 363.83 C50.24,365.33 51.21,367.12 52.22,369.00 L 56.74 377.51 L 49.37 390.00 C41.36,403.58 36.00,415.37 36.00,419.43 C36.00,423.08 39.31,426.00 43.43,426.00 C47.43,426.00 63.67,418.06 78.12,409.28 C72.99,412.48 68.18,415.28 63.75,417.65 ZM 121.24 379.03 C152.29,355.34 188.52,324.47 225.85,289.74 C188.15,324.81 152.02,355.57 121.24,379.03 ZM 21.69 442.18 C21.58,442.07 21.46,441.97 21.36,441.86 C19.04,439.61 17.36,437.07 16.34,434.15 C16.51,434.61 16.69,435.06 16.90,435.50 C18.03,437.95 19.76,440.30 21.69,442.18 ZM 248.69 275.24 L 247.66 274.21 L 245.20 271.75 L 245.21 271.73 L 248.69 275.24 ZM 16.12 418.37 C16.57,416.33 17.17,414.18 17.94,411.91 C17.18,414.19 16.57,416.34 16.12,418.37 ZM 27.59 445.96 C27.56,445.95 27.53,445.94 27.50,445.93 C27.54,445.94 27.57,445.95 27.60,445.96 C27.64,445.97 27.67,445.98 27.70,445.99 C27.66,445.98 27.63,445.97 27.59,445.96 Z" fill="rgba(250,225,86,1)"/>
<path d="M 232.70 238.92 L 222.91 233.93 L 225.00 230.22 C226.16,228.17 227.86,225.50 228.80,224.27 L 230.50 222.04 L 244.50 224.69 C252.20,226.14 258.67,227.47 258.88,227.63 C259.59,228.18 244.81,244.00 243.64,243.95 C243.01,243.92 238.09,241.66 232.70,238.92 ZM 290.09 296.09 C287.29,290.63 285.00,285.96 285.00,285.71 C285.00,285.45 288.76,281.83 293.36,277.65 L 301.73 270.06 L 304.36 283.28 C305.81,290.55 307.00,297.22 307.00,298.10 C307.00,299.55 298.04,306.00 296.03,306.00 C295.56,306.00 292.89,301.54 290.09,296.09 Z" fill="rgba(243,96,97,1)"/>
<path d="M 27.60 445.96 C23.69,444.79 19.14,440.35 16.90,435.50 C11.27,423.35 18.82,402.46 41.79,366.63 L 46.84 358.75 L 49.28 363.57 L 51.73 368.38 L 46.32 377.30 C33.27,398.82 27.04,414.28 26.26,427.12 C25.79,434.90 25.99,436.30 28.31,441.37 C29.73,444.47 30.80,446.96 30.69,446.91 C30.59,446.87 29.20,446.44 27.60,445.96 ZM 63.75 417.65 C99.97,398.28 160.55,350.48 225.85,289.74 L 245.20 271.75 L 247.66 274.21 L 250.13 276.67 L 236.81 289.13 C173.06,348.80 109.25,398.40 73.77,415.88 C67.02,419.20 59.70,422.20 57.50,422.53 C54.05,423.05 54.91,422.37 63.75,417.65 Z" fill="rgba(254,210,3,1)"/>
</g>
</svg>