<?xml version="1.0" encoding="UTF-8"?>
<svg version="1.1" xmlns="http://www.w3.org/2000/svg" width="60" height="40">
<path d="M0 0 C2.46264253 0.64040336 2.46264253 0.64040336 5.31640625 -0.578125 C11.82250121 -1.06631683 17.79607569 -1.48274905 23.31640625 2.421875 C27.93186049 6.39331237 30.97855487 10.05724547 31.6015625 16.26171875 C31.81477372 23.76119152 30.98437161 28.32126661 26.00390625 34.109375 C19.4213143 39.77346575 13.729804 40.01069961 5.31640625 39.421875 C4.43082031 39.23109375 3.54523437 39.0403125 2.6328125 38.84375 C0.17016997 38.20334664 0.17016997 38.20334664 -2.68359375 39.421875 C-9.18968871 39.91006683 -15.16326319 40.32649905 -20.68359375 36.421875 C-25.29904799 32.45043763 -28.34574237 28.78650453 -28.96875 22.58203125 C-29.18196122 15.08255848 -28.35155911 10.52248339 -23.37109375 4.734375 C-16.40941077 -1.25591036 -8.87342424 -1.91159649 0 0 Z M-18.62109375 13.609375 C-20.06207195 17.42372907 -19.93234511 20.60624584 -18.68359375 24.421875 C-16.10144688 27.99131333 -14.4781148 29.1907416 -10.24609375 30.421875 C-6.18195403 30.421875 -4.19059729 29.3702103 -0.68359375 27.421875 C3.31640625 27.421875 3.31640625 27.421875 5.56640625 28.984375 C8.72358038 30.63471602 10.88670339 30.67592428 14.3828125 30.0546875 C17.73770853 28.95672153 19.28863174 27.24846977 21.31640625 24.421875 C22.50123507 20.34902594 22.58082829 18.18576089 21.19140625 14.171875 C19.05966006 11.04531392 17.85914009 9.76024112 14.31640625 8.421875 C10.30523516 8.30201929 7.23200762 8.84962414 3.81640625 10.984375 C3.32140625 11.45875 2.82640625 11.933125 2.31640625 12.421875 C-1.68359375 10.421875 -1.68359375 10.421875 -3.62109375 9.296875 C-9.38836981 6.85015182 -14.60430093 9.07428633 -18.62109375 13.609375 Z " fill="#C384FD" transform="translate(28.68359375,0.578125)"/>
</svg>
