<svg xmlns="http://www.w3.org/2000/svg" width="512" height="512" viewBox="0 0 512 512">
<g>
<path d="M 233.00 502.98 C121.06,491.40 31.79,409.33 12.02,299.81 C4.01,255.46 8.37,209.37 24.56,167.34 C53.52,92.14 116.88,35.72 194.50,16.01 C218.11,10.01 230.02,8.57 256.00,8.57 C282.00,8.57 293.84,10.01 317.69,16.05 C360.54,26.90 399.23,49.05 431.03,80.93 C469.42,119.44 493.41,167.21 501.61,221.50 C504.14,238.25 504.14,273.75 501.61,290.50 C493.73,342.68 470.68,390.10 435.22,427.11 C409.10,454.37 379.78,473.86 344.12,487.68 C329.97,493.16 306.52,499.27 291.00,501.52 C277.68,503.45 245.39,504.26 233.00,502.98 ZM 45.13 352.04 L 49.21 360.83 L 69.86 340.08 C81.21,328.67 95.05,315.72 100.60,311.31 C123.70,292.97 152.73,275.99 175.43,267.53 C181.12,265.41 199.19,260.69 217.79,256.47 C235.63,252.42 250.34,248.97 250.49,248.81 C252.08,247.00 275.82,194.57 278.40,187.16 C282.37,175.74 285.69,161.20 286.63,151.09 L 287.29 144.00 L 273.79 144.00 C231.83,144.00 189.63,151.98 152.00,167.02 C107.06,185.00 67.83,212.05 33.96,248.43 L 23.79 259.36 L 24.47 268.93 C26.66,299.65 33.41,326.83 45.13,352.04 ZM 338.00 325.56 C343.23,329.09 348.16,331.87 348.97,331.74 C351.05,331.38 365.62,302.08 372.80,283.84 C383.29,257.17 389.75,234.23 394.43,207.00 C398.72,182.08 399.49,172.04 399.44,141.50 C399.39,112.45 397.63,91.73 393.71,74.00 C392.50,68.50 392.49,68.49 382.50,61.76 C361.62,47.67 331.06,34.85 305.42,29.42 C293.30,26.85 279.00,25.21 279.00,26.39 C279.00,26.76 280.17,29.38 281.61,32.21 C289.27,47.34 298.14,75.73 301.53,96.00 C303.71,109.00 304.53,137.01 303.12,149.90 C300.21,176.40 295.30,191.85 278.45,227.50 C271.60,242.00 266.00,254.16 266.00,254.53 C266.00,255.99 295.28,289.15 304.62,298.26 C316.24,309.61 324.97,316.74 338.00,325.56 ZM 235.50 487.30 C244.59,488.13 269.49,487.93 279.14,486.96 C310.02,483.84 345.49,472.45 371.13,457.42 L 379.45 452.54 L 369.98 450.83 C339.68,445.37 325.57,441.97 306.50,435.53 C253.41,417.61 208.69,389.18 168.43,347.76 C155.87,334.84 138.42,314.15 135.15,308.30 C134.39,306.94 133.59,307.18 129.38,310.06 C109.24,323.84 84.00,346.64 65.85,367.42 L 58.07 376.35 L 60.25 380.23 C68.35,394.65 93.55,422.83 110.57,436.53 C134.72,455.95 164.81,471.34 194.62,479.51 C205.92,482.61 226.02,486.44 235.50,487.30 ZM 26.00 229.84 L 26.00 233.18 L 36.75 222.97 C92.99,169.55 162.56,137.65 239.50,129.98 C245.55,129.37 259.00,128.86 269.40,128.83 L 288.29 128.78 L 287.65 117.61 C286.04,89.30 277.33,57.80 264.15,32.61 L 259.50 23.72 L 247.42 24.37 C225.37,25.55 208.63,28.33 189.90,33.93 C127.71,52.54 76.40,96.14 48.01,154.50 C40.52,169.90 35.32,183.91 31.57,198.78 C28.67,210.29 26.01,225.16 26.00,229.84 ZM 373.50 435.39 C396.62,439.51 397.59,439.61 400.01,437.94 C405.97,433.82 422.26,418.36 429.66,409.80 C437.97,400.18 450.31,383.98 449.75,383.42 C449.58,383.24 444.50,382.37 438.47,381.48 C423.25,379.22 399.77,373.08 384.96,367.47 C359.78,357.94 331.48,341.84 311.30,325.56 C297.49,314.41 287.32,304.26 271.68,286.00 C263.44,276.38 255.96,267.71 255.06,266.73 C253.49,265.05 251.91,265.31 221.99,272.05 C204.42,276.01 186.35,280.70 181.03,282.69 C171.44,286.28 148.00,297.54 148.00,298.57 C148.00,298.87 150.80,302.80 154.23,307.31 C195.03,360.93 250.98,400.63 315.50,421.75 C332.41,427.29 345.92,430.46 373.50,435.39 ZM 450.00 366.88 C454.12,367.36 457.99,367.80 458.59,367.87 C459.94,368.03 469.55,347.88 474.41,334.69 C478.50,323.60 483.00,306.31 485.65,291.50 C488.46,275.86 488.21,234.77 485.22,218.50 C477.53,176.76 461.95,141.89 437.18,111.03 C428.51,100.23 413.36,84.31 412.54,85.13 C412.23,85.44 412.68,91.49 413.54,98.59 C415.76,116.91 416.51,151.37 415.10,170.00 C410.74,227.57 394.82,282.75 368.69,330.84 L 363.25 340.84 L 371.38 344.55 C396.24,355.92 424.64,363.99 450.00,366.88 Z" fill="rgba(0,0,0,1)"/>
<path d="M 45.13 352.04 C33.41,326.83 26.66,299.65 24.47,268.93 L 23.79 259.36 L 33.96 248.43 C67.83,212.05 107.06,185.00 152.00,167.02 C189.63,151.98 231.83,144.00 273.79,144.00 L 287.29 144.00 L 286.63 151.09 C285.69,161.20 282.37,175.74 278.40,187.16 C275.82,194.57 252.08,247.00 250.49,248.81 C250.34,248.97 235.63,252.42 217.79,256.47 C199.19,260.69 181.12,265.41 175.43,267.53 C152.73,275.99 123.70,292.97 100.60,311.31 C95.05,315.72 81.21,328.67 69.86,340.08 L 49.21 360.83 Z" fill="rgba(24,58,93,1)"/>
<path d="M 338.00 325.56 C324.97,316.74 316.24,309.61 304.62,298.26 C295.28,289.15 266.00,255.99 266.00,254.53 C266.00,254.16 271.60,242.00 278.45,227.50 C295.30,191.85 300.21,176.40 303.12,149.90 C304.53,137.01 303.71,109.00 301.53,96.00 C298.14,75.73 289.27,47.34 281.61,32.21 C280.17,29.38 279.00,26.76 279.00,26.39 C279.00,25.21 293.30,26.85 305.42,29.42 C331.06,34.85 361.62,47.67 382.50,61.76 C392.49,68.49 392.50,68.50 393.71,74.00 C397.63,91.73 399.39,112.45 399.44,141.50 C399.49,172.04 398.72,182.08 394.43,207.00 C389.75,234.23 383.29,257.17 372.80,283.84 C365.62,302.08 351.05,331.38 348.97,331.74 C348.16,331.87 343.23,329.09 338.00,325.56 Z" fill="rgba(32,83,136,1)"/>
<path d="M 26.00 229.84 C26.01,225.16 28.67,210.29 31.57,198.78 C35.32,183.91 40.52,169.90 48.01,154.50 C76.40,96.14 127.71,52.54 189.90,33.93 C208.63,28.33 225.37,25.55 247.42,24.37 L 259.50 23.72 L 264.15 32.61 C277.33,57.80 286.04,89.30 287.65,117.61 L 288.29 128.78 L 269.40 128.83 C259.00,128.86 245.55,129.37 239.50,129.98 C162.56,137.65 92.99,169.55 36.75,222.97 L 26.00 233.18 ZM 373.50 435.39 C345.92,430.46 332.41,427.29 315.50,421.75 C250.98,400.63 195.03,360.93 154.23,307.31 C150.80,302.80 148.00,298.87 148.00,298.57 C148.00,297.54 171.44,286.28 181.03,282.69 C186.35,280.70 204.42,276.01 221.99,272.05 C251.91,265.31 253.49,265.05 255.06,266.73 C255.96,267.71 263.44,276.38 271.68,286.00 C287.32,304.26 297.49,314.41 311.30,325.56 C331.48,341.84 359.78,357.94 384.96,367.47 C399.77,373.08 423.25,379.22 438.47,381.48 C444.50,382.37 449.58,383.24 449.75,383.42 C450.31,383.98 437.97,400.18 429.66,409.80 C422.26,418.36 405.97,433.82 400.01,437.94 C397.59,439.61 396.62,439.51 373.50,435.39 Z" fill="rgba(236,236,236,1)"/>
<path d="M 235.50 487.30 C226.02,486.44 205.92,482.61 194.62,479.51 C164.81,471.34 134.72,455.95 110.57,436.53 C93.55,422.83 68.35,394.65 60.25,380.23 L 58.07 376.35 L 65.85 367.42 C84.00,346.64 109.24,323.84 129.38,310.06 C133.59,307.18 134.39,306.94 135.15,308.30 C138.42,314.15 155.87,334.84 168.43,347.76 C208.69,389.18 253.41,417.61 306.50,435.53 C325.57,441.97 339.68,445.37 369.98,450.83 L 379.45 452.54 L 371.13 457.42 C345.49,472.45 310.02,483.84 279.14,486.96 C269.49,487.93 244.59,488.13 235.50,487.30 ZM 450.00 366.88 C424.64,363.99 396.24,355.92 371.38,344.55 L 363.25 340.84 L 368.69 330.84 C394.82,282.75 410.74,227.57 415.10,170.00 C416.51,151.37 415.76,116.91 413.54,98.59 C412.68,91.49 412.23,85.44 412.54,85.13 C413.36,84.31 428.51,100.23 437.18,111.03 C461.95,141.89 477.53,176.76 485.22,218.50 C488.21,234.77 488.46,275.86 485.65,291.50 C483.00,306.31 478.50,323.60 474.41,334.69 C469.55,347.88 459.94,368.03 458.59,367.87 C457.99,367.80 454.12,367.36 450.00,366.88 Z" fill="rgba(254,202,73,1)"/>
</g>
</svg>